<?xml version="1.0" encoding="UTF-8" standalone="no"?><svg xmlns="http://www.w3.org/2000/svg" xmlns:xlink="http://www.w3.org/1999/xlink" clip-rule="evenodd" stroke-miterlimit="10" viewBox="0 0 375 39"><desc>SVG generated by Keynote</desc><defs></defs><g transform="matrix(1.00, 0.00, -0.00, -1.00, 0.0, 39.0)"><text xml:space="preserve" font-family="ArialMT,Arial" font-size="27.8" fill="#FEFFFF" transform="matrix(1.00, 0.00, -0.00, -1.00, 0.1, 12.3)">•</text><text xml:space="preserve" font-family="ArialMT,Arial" font-size="37.0" fill="#FEFFFF" transform="matrix(1.00, 0.00, -0.00, -1.00, 35.6, 9.4)">R</text><text xml:space="preserve" font-family="ArialMT,Arial" font-size="37.0" fill="#FEFFFF" transform="matrix(1.00, 0.00, -0.00, -1.00, 62.4, 9.4)">e</text><text xml:space="preserve" font-family="ArialMT,Arial" font-size="37.0" fill="#FEFFFF" transform="matrix(1.00, 0.00, -0.00, -1.00, 83.0, 9.4)">g</text><text xml:space="preserve" font-family="ArialMT,Arial" font-size="37.0" fill="#FEFFFF" transform="matrix(1.00, 0.00, -0.00, -1.00, 103.5, 9.4)">i</text><text xml:space="preserve" font-family="ArialMT,Arial" font-size="37.0" fill="#FEFFFF" transform="matrix(1.00, 0.00, -0.00, -1.00, 111.8, 9.4)">s</text><text xml:space="preserve" font-family="ArialMT,Arial" font-size="37.0" fill="#FEFFFF" transform="matrix(1.00, 0.00, -0.00, -1.00, 130.3, 9.4)">t</text><text xml:space="preserve" font-family="ArialMT,Arial" font-size="37.0" fill="#FEFFFF" transform="matrix(1.00, 0.00, -0.00, -1.00, 140.5, 9.4)">r</text><text xml:space="preserve" font-family="ArialMT,Arial" font-size="37.0" fill="#FEFFFF" transform="matrix(1.00, 0.00, -0.00, -1.00, 152.9, 9.4)">a</text><text xml:space="preserve" font-family="ArialMT,Arial" font-size="37.0" fill="#FEFFFF" transform="matrix(1.00, 0.00, -0.00, -1.00, 173.4, 9.4)">c</text><text xml:space="preserve" font-family="ArialMT,Arial" font-size="37.0" fill="#FEFFFF" transform="matrix(1.00, 0.00, -0.00, -1.00, 191.9, 9.4)">e</text><text xml:space="preserve" font-family="ArialMT,Arial" font-size="37.0" fill="#FEFFFF" transform="matrix(1.00, 0.00, -0.00, -1.00, 212.5, 9.4)"> </text><text xml:space="preserve" font-family="ArialMT,Arial" font-size="37.0" fill="#FEFFFF" transform="matrix(1.00, 0.00, -0.00, -1.00, 222.8, 9.4)">p</text><text xml:space="preserve" font-family="ArialMT,Arial" font-size="37.0" fill="#FEFFFF" transform="matrix(1.00, 0.00, -0.00, -1.00, 243.4, 9.4)">r</text><text xml:space="preserve" font-family="ArialMT,Arial" font-size="37.0" fill="#FEFFFF" transform="matrix(1.00, 0.00, -0.00, -1.00, 255.7, 9.4)">ů</text><text xml:space="preserve" font-family="ArialMT,Arial" font-size="37.0" fill="#FEFFFF" transform="matrix(1.00, 0.00, -0.00, -1.00, 276.3, 9.4)">v</text><text xml:space="preserve" font-family="ArialMT,Arial" font-size="37.0" fill="#FEFFFF" transform="matrix(1.00, 0.00, -0.00, -1.00, 294.8, 9.4)">o</text><text xml:space="preserve" font-family="ArialMT,Arial" font-size="37.0" fill="#FEFFFF" transform="matrix(1.00, 0.00, -0.00, -1.00, 315.4, 9.4)">d</text><text xml:space="preserve" font-family="ArialMT,Arial" font-size="37.0" fill="#FEFFFF" transform="matrix(1.00, 0.00, -0.00, -1.00, 336.0, 9.4)">c</text><text xml:space="preserve" font-family="ArialMT,Arial" font-size="37.0" fill="#FEFFFF" transform="matrix(1.00, 0.00, -0.00, -1.00, 354.5, 9.4)">ů</text></g></svg>