<?xml version="1.0" encoding="UTF-8" standalone="no"?><svg xmlns="http://www.w3.org/2000/svg" xmlns:xlink="http://www.w3.org/1999/xlink" clip-rule="evenodd" stroke-miterlimit="10" viewBox="0 0 428 36"><desc>SVG generated by Keynote</desc><defs></defs><g transform="matrix(1.00, 0.00, -0.00, -1.00, 0.0, 36.0)"><text xml:space="preserve" font-family="ArialMT,Arial" font-size="35.0" fill="#000000" transform="matrix(1.00, 0.00, -0.00, -1.00, -0.5, 8.8)">F</text><text xml:space="preserve" font-family="ArialMT,Arial" font-size="35.0" fill="#000000" transform="matrix(1.00, 0.00, -0.00, -1.00, 20.9, 8.8)">E</text><text xml:space="preserve" font-family="ArialMT,Arial" font-size="35.0" fill="#000000" transform="matrix(1.00, 0.00, -0.00, -1.00, 44.3, 8.8)">L</text><text xml:space="preserve" font-family="ArialMT,Arial" font-size="35.0" fill="#000000" transform="matrix(1.00, 0.00, -0.00, -1.00, 62.4, 8.8)"> </text><text xml:space="preserve" font-family="ArialMT,Arial" font-size="35.0" fill="#000000" transform="matrix(1.00, 0.00, -0.00, -1.00, 72.1, 8.8)">-</text><text xml:space="preserve" font-family="ArialMT,Arial" font-size="35.0" fill="#000000" transform="matrix(1.00, 0.00, -0.00, -1.00, 83.8, 8.8)"> </text><text xml:space="preserve" font-family="ArialMT,Arial" font-size="35.0" fill="#000000" transform="matrix(1.00, 0.00, -0.00, -1.00, 93.5, 8.8)">D</text><text xml:space="preserve" font-family="ArialMT,Arial" font-size="35.0" fill="#000000" transform="matrix(1.00, 0.00, -0.00, -1.00, 118.8, 8.8)">e</text><text xml:space="preserve" font-family="ArialMT,Arial" font-size="35.0" fill="#000000" transform="matrix(1.00, 0.00, -0.00, -1.00, 138.3, 8.8)">n</text><text xml:space="preserve" font-family="ArialMT,Arial" font-size="35.0" fill="#000000" transform="matrix(1.00, 0.00, -0.00, -1.00, 157.7, 8.8)"> </text><text xml:space="preserve" font-family="ArialMT,Arial" font-size="35.0" fill="#000000" transform="matrix(1.00, 0.00, -0.00, -1.00, 167.5, 8.8)">o</text><text xml:space="preserve" font-family="ArialMT,Arial" font-size="35.0" fill="#000000" transform="matrix(1.00, 0.00, -0.00, -1.00, 186.9, 8.8)">t</text><text xml:space="preserve" font-family="ArialMT,Arial" font-size="35.0" fill="#000000" transform="matrix(1.00, 0.00, -0.00, -1.00, 196.7, 8.8)">e</text><text xml:space="preserve" font-family="ArialMT,Arial" font-size="35.0" fill="#000000" transform="matrix(1.00, 0.00, -0.00, -1.00, 216.1, 8.8)">v</text><text xml:space="preserve" font-family="ArialMT,Arial" font-size="35.0" fill="#000000" transform="matrix(1.00, 0.00, -0.00, -1.00, 233.6, 8.8)">ř</text><text xml:space="preserve" font-family="ArialMT,Arial" font-size="35.0" fill="#000000" transform="matrix(1.00, 0.00, -0.00, -1.00, 245.3, 8.8)">e</text><text xml:space="preserve" font-family="ArialMT,Arial" font-size="35.0" fill="#000000" transform="matrix(1.00, 0.00, -0.00, -1.00, 264.8, 8.8)">n</text><text xml:space="preserve" font-family="ArialMT,Arial" font-size="35.0" fill="#000000" transform="matrix(1.00, 0.00, -0.00, -1.00, 284.2, 8.8)">ý</text><text xml:space="preserve" font-family="ArialMT,Arial" font-size="35.0" fill="#000000" transform="matrix(1.00, 0.00, -0.00, -1.00, 301.7, 8.8)">c</text><text xml:space="preserve" font-family="ArialMT,Arial" font-size="35.0" fill="#000000" transform="matrix(1.00, 0.00, -0.00, -1.00, 319.2, 8.8)">h</text><text xml:space="preserve" font-family="ArialMT,Arial" font-size="35.0" fill="#000000" transform="matrix(1.00, 0.00, -0.00, -1.00, 338.7, 8.8)"> </text><text xml:space="preserve" font-family="ArialMT,Arial" font-size="35.0" fill="#000000" transform="matrix(1.00, 0.00, -0.00, -1.00, 348.4, 8.8)">d</text><text xml:space="preserve" font-family="ArialMT,Arial" font-size="35.0" fill="#000000" transform="matrix(1.00, 0.00, -0.00, -1.00, 367.9, 8.8)">v</text><text xml:space="preserve" font-family="ArialMT,Arial" font-size="35.0" fill="#000000" transform="matrix(1.00, 0.00, -0.00, -1.00, 385.4, 8.8)">e</text><text xml:space="preserve" font-family="ArialMT,Arial" font-size="35.0" fill="#000000" transform="matrix(1.00, 0.00, -0.00, -1.00, 404.9, 8.8)">ř</text><text xml:space="preserve" font-family="ArialMT,Arial" font-size="35.0" fill="#000000" transform="matrix(1.00, 0.00, -0.00, -1.00, 416.5, 8.8)">í</text></g></svg>