<?xml version="1.0" encoding="UTF-8" standalone="no"?><svg xmlns="http://www.w3.org/2000/svg" xmlns:xlink="http://www.w3.org/1999/xlink" clip-rule="evenodd" stroke-miterlimit="10" viewBox="0 0 1079 497"><desc>SVG generated by Keynote</desc><defs></defs><g transform="matrix(1.00, 0.00, -0.00, -1.00, 0.0, 497.0)"><path d="M 60.0 347.2 L 1044.0 347.2 " fill="none" stroke="#4F4F4F" stroke-width="1.00" transform="matrix(1.00, 0.00, 0.00, -1.00, 2.0, 495.7)"></path><path d="M 60.0 241.2 L 1044.0 241.2 " fill="none" stroke="#4F4F4F" stroke-width="1.00" transform="matrix(1.00, 0.00, 0.00, -1.00, 2.0, 495.7)"></path><path d="M 60.0 134.2 L 1044.0 134.2 " fill="none" stroke="#4F4F4F" stroke-width="1.00" transform="matrix(1.00, 0.00, 0.00, -1.00, 2.0, 495.7)"></path><path d="M 60.0 28.2 L 1044.0 28.2 " fill="none" stroke="#4F4F4F" stroke-width="1.00" transform="matrix(1.00, 0.00, 0.00, -1.00, 2.0, 495.7)"></path><path d="M 59.5 453.2 L 59.5 28.2 " fill="none" stroke="#282828" stroke-width="1.00" stroke-linecap="square" transform="matrix(1.00, 0.00, 0.00, -1.00, 2.0, 495.7)"></path><g><clipPath id="clip0x6000028a72c0"><path d="M 27.7 27.4 L 44.0 27.4 L 44.0 56.6 L 27.7 56.6 Z M 27.7 27.4 "></path></clipPath><g clip-path="url(#clip0x6000028a72c0)"><text xml:space="preserve" font-family="ArialMT,Arial" font-size="24.0" fill="#444444" transform="matrix(1.00, 0.00, -0.00, -1.00, 29.2, 33.5)">0</text></g></g><g><clipPath id="clip0x6000028a73e0"><path d="M 14.3 133.8 L 44.0 133.8 L 44.0 163.0 L 14.3 163.0 Z M 14.3 133.8 "></path></clipPath><g clip-path="url(#clip0x6000028a73e0)"><text xml:space="preserve" font-family="ArialMT,Arial" font-size="24.0" fill="#444444" transform="matrix(1.00, 0.00, -0.00, -1.00, 15.8, 139.9)">2</text><text xml:space="preserve" font-family="ArialMT,Arial" font-size="24.0" fill="#444444" transform="matrix(1.00, 0.00, -0.00, -1.00, 29.2, 139.9)">5</text></g></g><g><clipPath id="clip0x6000028a7800"><path d="M 14.3 240.2 L 44.0 240.2 L 44.0 269.4 L 14.3 269.4 Z M 14.3 240.2 "></path></clipPath><g clip-path="url(#clip0x6000028a7800)"><text xml:space="preserve" font-family="ArialMT,Arial" font-size="24.0" fill="#444444" transform="matrix(1.00, 0.00, -0.00, -1.00, 15.8, 246.3)">5</text><text xml:space="preserve" font-family="ArialMT,Arial" font-size="24.0" fill="#444444" transform="matrix(1.00, 0.00, -0.00, -1.00, 29.2, 246.3)">0</text></g></g><g><clipPath id="clip0x6000028a7aa0"><path d="M 14.3 346.5 L 44.0 346.5 L 44.0 375.8 L 14.3 375.8 Z M 14.3 346.5 "></path></clipPath><g clip-path="url(#clip0x6000028a7aa0)"><text xml:space="preserve" font-family="ArialMT,Arial" font-size="24.0" fill="#444444" transform="matrix(1.00, 0.00, -0.00, -1.00, 15.8, 352.6)">7</text><text xml:space="preserve" font-family="ArialMT,Arial" font-size="24.0" fill="#444444" transform="matrix(1.00, 0.00, -0.00, -1.00, 29.2, 352.6)">5</text></g></g><g><clipPath id="clip0x6000028a7d40"><path d="M 1.0 452.9 L 44.0 452.9 L 44.0 482.1 L 1.0 482.1 Z M 1.0 452.9 "></path></clipPath><g clip-path="url(#clip0x6000028a7d40)"><text xml:space="preserve" font-family="ArialMT,Arial" font-size="24.0" fill="#444444" transform="matrix(1.00, 0.00, -0.00, -1.00, 2.5, 459.0)">1</text><text xml:space="preserve" font-family="ArialMT,Arial" font-size="24.0" fill="#444444" transform="matrix(1.00, 0.00, -0.00, -1.00, 15.8, 459.0)">0</text><text xml:space="preserve" font-family="ArialMT,Arial" font-size="24.0" fill="#444444" transform="matrix(1.00, 0.00, -0.00, -1.00, 29.2, 459.0)">0</text></g></g><path d="M 59.5 453.2 L 1043.5 453.2 " fill="none" stroke="#282828" stroke-width="1.00" stroke-linecap="square" transform="matrix(1.00, 0.00, 0.00, -1.00, 2.0, 495.7)"></path><g><clipPath id="clip0x6000028a8100"><path d="M 29.1 0.4 L 94.7 0.4 L 94.7 30.6 L 29.1 30.6 Z M 29.1 0.4 "></path></clipPath><g clip-path="url(#clip0x6000028a8100)"><text xml:space="preserve" font-family="ArialMT,Arial" font-size="25.0" fill="#4F4F4F" transform="matrix(1.00, 0.00, -0.00, -1.00, 30.6, 6.7)">1</text><text xml:space="preserve" font-family="ArialMT,Arial" font-size="25.0" fill="#4F4F4F" transform="matrix(1.00, 0.00, -0.00, -1.00, 44.6, 6.7)">0</text><text xml:space="preserve" font-family="ArialMT,Arial" font-size="25.0" fill="#4F4F4F" transform="matrix(1.00, 0.00, -0.00, -1.00, 58.5, 6.7)">:</text><text xml:space="preserve" font-family="ArialMT,Arial" font-size="25.0" fill="#4F4F4F" transform="matrix(1.00, 0.00, -0.00, -1.00, 65.4, 6.7)">0</text><text xml:space="preserve" font-family="ArialMT,Arial" font-size="25.0" fill="#4F4F4F" transform="matrix(1.00, 0.00, -0.00, -1.00, 79.3, 6.7)">0</text></g></g><g><clipPath id="clip0x6000028a84c0"><path d="M 357.1 0.4 L 422.6 0.4 L 422.6 30.6 L 357.1 30.6 Z M 357.1 0.4 "></path></clipPath><g clip-path="url(#clip0x6000028a84c0)"><text xml:space="preserve" font-family="ArialMT,Arial" font-size="25.0" fill="#4F4F4F" transform="matrix(1.00, 0.00, -0.00, -1.00, 358.6, 6.7)">1</text><text xml:space="preserve" font-family="ArialMT,Arial" font-size="25.0" fill="#4F4F4F" transform="matrix(1.00, 0.00, -0.00, -1.00, 372.5, 6.7)">0</text><text xml:space="preserve" font-family="ArialMT,Arial" font-size="25.0" fill="#4F4F4F" transform="matrix(1.00, 0.00, -0.00, -1.00, 386.4, 6.7)">:</text><text xml:space="preserve" font-family="ArialMT,Arial" font-size="25.0" fill="#4F4F4F" transform="matrix(1.00, 0.00, -0.00, -1.00, 393.4, 6.7)">1</text><text xml:space="preserve" font-family="ArialMT,Arial" font-size="25.0" fill="#4F4F4F" transform="matrix(1.00, 0.00, -0.00, -1.00, 407.3, 6.7)">5</text></g></g><g><clipPath id="clip0x6000028a8880"><path d="M 685.0 0.4 L 750.6 0.4 L 750.6 30.6 L 685.0 30.6 Z M 685.0 0.4 "></path></clipPath><g clip-path="url(#clip0x6000028a8880)"><text xml:space="preserve" font-family="ArialMT,Arial" font-size="25.0" fill="#4F4F4F" transform="matrix(1.00, 0.00, -0.00, -1.00, 686.5, 6.7)">1</text><text xml:space="preserve" font-family="ArialMT,Arial" font-size="25.0" fill="#4F4F4F" transform="matrix(1.00, 0.00, -0.00, -1.00, 700.4, 6.7)">0</text><text xml:space="preserve" font-family="ArialMT,Arial" font-size="25.0" fill="#4F4F4F" transform="matrix(1.00, 0.00, -0.00, -1.00, 714.3, 6.7)">:</text><text xml:space="preserve" font-family="ArialMT,Arial" font-size="25.0" fill="#4F4F4F" transform="matrix(1.00, 0.00, -0.00, -1.00, 721.3, 6.7)">3</text><text xml:space="preserve" font-family="ArialMT,Arial" font-size="25.0" fill="#4F4F4F" transform="matrix(1.00, 0.00, -0.00, -1.00, 735.2, 6.7)">0</text></g></g><g><clipPath id="clip0x6000028a8c40"><path d="M 1013.0 0.4 L 1078.5 0.4 L 1078.5 30.6 L 1013.0 30.6 Z M 1013.0 0.4 "></path></clipPath><g clip-path="url(#clip0x6000028a8c40)"><text xml:space="preserve" font-family="ArialMT,Arial" font-size="25.0" fill="#4F4F4F" transform="matrix(1.00, 0.00, -0.00, -1.00, 1014.5, 6.7)">1</text><text xml:space="preserve" font-family="ArialMT,Arial" font-size="25.0" fill="#4F4F4F" transform="matrix(1.00, 0.00, -0.00, -1.00, 1028.4, 6.7)">0</text><text xml:space="preserve" font-family="ArialMT,Arial" font-size="25.0" fill="#4F4F4F" transform="matrix(1.00, 0.00, -0.00, -1.00, 1042.3, 6.7)">:</text><text xml:space="preserve" font-family="ArialMT,Arial" font-size="25.0" fill="#4F4F4F" transform="matrix(1.00, 0.00, -0.00, -1.00, 1049.2, 6.7)">4</text><text xml:space="preserve" font-family="ArialMT,Arial" font-size="25.0" fill="#4F4F4F" transform="matrix(1.00, 0.00, -0.00, -1.00, 1063.1, 6.7)">5</text></g></g><image xlink:href="137608DF77818A87091393476EE2FBD1.png" width="1031.00" height="162.00" transform="matrix(1.00, 0.00, -0.00, -1.00, 38.0, 361.0)"></image><g><g><clipPath id="clip0x6000028a9120"><path d="M 54.3 32.4 L 1053.3 32.4 L 1053.3 473.1 L 54.3 473.1 Z M 54.3 32.4 "></path></clipPath><g clip-path="url(#clip0x6000028a9120)"><path d="M 0.0 63.8 L 327.9 114.9 L 655.9 0.0 L 983.8 51.1 " fill="none" stroke="#8BC34A" stroke-width="6.00" transform="matrix(1.00, 0.00, 0.00, -1.00, 61.9, 339.9)"></path></g></g><g><clipPath id="clip0x6000028a9360"><path d="M -3.0 -5.0 L 1082.0 -5.0 L 1082.0 502.0 L -3.0 502.0 Z M -3.0 -5.0 "></path></clipPath><g clip-path="url(#clip0x6000028a9360)"><path d="M 66.9 219.7 C 66.9 223.5 63.8 226.7 59.9 226.7 C 56.1 226.7 52.9 223.5 52.9 219.7 C 52.9 215.8 56.1 212.7 59.9 212.7 C 63.8 212.7 66.9 215.8 66.9 219.7 Z M 66.9 219.7 " fill="none" stroke="#8BC34A" stroke-width="6.00" transform="matrix(1.00, 0.00, 0.00, -1.00, 2.0, 495.7)"></path><path d="M 394.9 270.7 C 394.9 274.6 391.8 277.7 387.9 277.7 C 384.0 277.7 380.9 274.6 380.9 270.7 C 380.9 266.9 384.0 263.7 387.9 263.7 C 391.8 263.7 394.9 266.9 394.9 270.7 Z M 394.9 270.7 " fill="none" stroke="#8BC34A" stroke-width="6.00" transform="matrix(1.00, 0.00, 0.00, -1.00, 2.0, 495.7)"></path><path d="M 722.8 155.8 C 722.8 159.7 719.7 162.8 715.8 162.8 C 712.0 162.8 708.8 159.7 708.8 155.8 C 708.8 152.0 712.0 148.8 715.8 148.8 C 719.7 148.8 722.8 152.0 722.8 155.8 Z M 722.8 155.8 " fill="none" stroke="#8BC34A" stroke-width="6.00" transform="matrix(1.00, 0.00, 0.00, -1.00, 2.0, 495.7)"></path><path d="M 1050.8 206.9 C 1050.8 210.8 1047.6 213.9 1043.8 213.9 C 1039.9 213.9 1036.8 210.8 1036.8 206.9 C 1036.8 203.0 1039.9 199.9 1043.8 199.9 C 1047.6 199.9 1050.8 203.0 1050.8 206.9 Z M 1050.8 206.9 " fill="none" stroke="#8BC34A" stroke-width="6.00" transform="matrix(1.00, 0.00, 0.00, -1.00, 2.0, 495.7)"></path></g></g></g><image xlink:href="2ED1F4114941E36EC720270C613D5EE7.png" width="1031.00" height="383.00" transform="matrix(1.00, 0.00, -0.00, -1.00, 38.0, 472.0)"></image><g><g><clipPath id="clip0x6000028a95a0"><path d="M 54.3 32.4 L 1053.3 32.4 L 1053.3 473.1 L 54.3 473.1 Z M 54.3 32.4 "></path></clipPath><g clip-path="url(#clip0x6000028a95a0)"><path d="M 0.0 336.1 L 327.9 297.9 L 655.9 183.0 L 983.8 0.0 " fill="none" stroke="#F34335" stroke-width="6.00" transform="matrix(1.00, 0.00, 0.00, -1.00, 61.9, 450.5)"></path></g></g><g><clipPath id="clip0x6000028a99c0"><path d="M -3.0 -5.0 L 1082.0 -5.0 L 1082.0 502.0 L -3.0 502.0 Z M -3.0 -5.0 "></path></clipPath><g clip-path="url(#clip0x6000028a99c0)"><path d="M 66.9 381.3 C 66.9 385.2 63.8 388.3 59.9 388.3 C 56.1 388.3 52.9 385.2 52.9 381.3 C 52.9 377.5 56.1 374.3 59.9 374.3 C 63.8 374.3 66.9 377.5 66.9 381.3 Z M 66.9 381.3 " fill="none" stroke="#F34335" stroke-width="6.00" transform="matrix(1.00, 0.00, 0.00, -1.00, 2.0, 495.7)"></path><path d="M 394.9 343.1 C 394.9 346.9 391.8 350.1 387.9 350.1 C 384.0 350.1 380.9 346.9 380.9 343.1 C 380.9 339.2 384.0 336.1 387.9 336.1 C 391.8 336.1 394.9 339.2 394.9 343.1 Z M 394.9 343.1 " fill="none" stroke="#F34335" stroke-width="6.00" transform="matrix(1.00, 0.00, 0.00, -1.00, 2.0, 495.7)"></path><path d="M 722.8 228.2 C 722.8 232.0 719.7 235.2 715.8 235.2 C 712.0 235.2 708.8 232.0 708.8 228.2 C 708.8 224.3 712.0 221.2 715.8 221.2 C 719.7 221.2 722.8 224.3 722.8 228.2 Z M 722.8 228.2 " fill="none" stroke="#F34335" stroke-width="6.00" transform="matrix(1.00, 0.00, 0.00, -1.00, 2.0, 495.7)"></path><path d="M 1050.8 45.2 C 1050.8 49.1 1047.6 52.2 1043.8 52.2 C 1039.9 52.2 1036.8 49.1 1036.8 45.2 C 1036.8 41.3 1039.9 38.2 1043.8 38.2 C 1047.6 38.2 1050.8 41.3 1050.8 45.2 Z M 1050.8 45.2 " fill="none" stroke="#F34335" stroke-width="6.00" transform="matrix(1.00, 0.00, 0.00, -1.00, 2.0, 495.7)"></path></g></g></g></g></svg>