<?xml version="1.0" encoding="UTF-8" standalone="no"?><svg xmlns="http://www.w3.org/2000/svg" xmlns:xlink="http://www.w3.org/1999/xlink" clip-rule="evenodd" stroke-miterlimit="10" viewBox="0 0 338 32"><desc>SVG generated by Keynote</desc><defs></defs><g transform="matrix(1.00, 0.00, -0.00, -1.00, 0.0, 32.0)"><text xml:space="preserve" font-family="ArialMT,Arial" font-size="27.8" fill="#FEFFFF" transform="matrix(1.00, 0.00, -0.00, -1.00, 0.1, 6.0)">•</text><text xml:space="preserve" font-family="ArialMT,Arial" font-size="37.0" fill="#FEFFFF" transform="matrix(1.00, 0.00, -0.00, -1.00, 35.6, 3.1)">Z</text><text xml:space="preserve" font-family="ArialMT,Arial" font-size="37.0" fill="#FEFFFF" transform="matrix(1.00, 0.00, -0.00, -1.00, 58.2, 3.1)">o</text><text xml:space="preserve" font-family="ArialMT,Arial" font-size="37.0" fill="#FEFFFF" transform="matrix(1.00, 0.00, -0.00, -1.00, 78.8, 3.1)">b</text><text xml:space="preserve" font-family="ArialMT,Arial" font-size="37.0" fill="#FEFFFF" transform="matrix(1.00, 0.00, -0.00, -1.00, 99.4, 3.1)">r</text><text xml:space="preserve" font-family="ArialMT,Arial" font-size="37.0" fill="#FEFFFF" transform="matrix(1.00, 0.00, -0.00, -1.00, 111.7, 3.1)">a</text><text xml:space="preserve" font-family="ArialMT,Arial" font-size="37.0" fill="#FEFFFF" transform="matrix(1.00, 0.00, -0.00, -1.00, 132.3, 3.1)">z</text><text xml:space="preserve" font-family="ArialMT,Arial" font-size="37.0" fill="#FEFFFF" transform="matrix(1.00, 0.00, -0.00, -1.00, 150.8, 3.1)">e</text><text xml:space="preserve" font-family="ArialMT,Arial" font-size="37.0" fill="#FEFFFF" transform="matrix(1.00, 0.00, -0.00, -1.00, 171.4, 3.1)">n</text><text xml:space="preserve" font-family="ArialMT,Arial" font-size="37.0" fill="#FEFFFF" transform="matrix(1.00, 0.00, -0.00, -1.00, 192.0, 3.1)">í</text><text xml:space="preserve" font-family="ArialMT,Arial" font-size="37.0" fill="#FEFFFF" transform="matrix(1.00, 0.00, -0.00, -1.00, 202.3, 3.1)"> </text><text xml:space="preserve" font-family="ArialMT,Arial" font-size="37.0" fill="#FEFFFF" transform="matrix(1.00, 0.00, -0.00, -1.00, 212.5, 3.1)">s</text><text xml:space="preserve" font-family="ArialMT,Arial" font-size="37.0" fill="#FEFFFF" transform="matrix(1.00, 0.00, -0.00, -1.00, 231.0, 3.1)">t</text><text xml:space="preserve" font-family="ArialMT,Arial" font-size="37.0" fill="#FEFFFF" transform="matrix(1.00, 0.00, -0.00, -1.00, 241.3, 3.1)">a</text><text xml:space="preserve" font-family="ArialMT,Arial" font-size="37.0" fill="#FEFFFF" transform="matrix(1.00, 0.00, -0.00, -1.00, 261.9, 3.1)">t</text><text xml:space="preserve" font-family="ArialMT,Arial" font-size="37.0" fill="#FEFFFF" transform="matrix(1.00, 0.00, -0.00, -1.00, 272.2, 3.1)">i</text><text xml:space="preserve" font-family="ArialMT,Arial" font-size="37.0" fill="#FEFFFF" transform="matrix(1.00, 0.00, -0.00, -1.00, 280.4, 3.1)">s</text><text xml:space="preserve" font-family="ArialMT,Arial" font-size="37.0" fill="#FEFFFF" transform="matrix(1.00, 0.00, -0.00, -1.00, 298.9, 3.1)">t</text><text xml:space="preserve" font-family="ArialMT,Arial" font-size="37.0" fill="#FEFFFF" transform="matrix(1.00, 0.00, -0.00, -1.00, 309.2, 3.1)">i</text><text xml:space="preserve" font-family="ArialMT,Arial" font-size="37.0" fill="#FEFFFF" transform="matrix(1.00, 0.00, -0.00, -1.00, 317.4, 3.1)">k</text></g></svg>