<?xml version="1.0" encoding="UTF-8" standalone="no"?><svg xmlns="http://www.w3.org/2000/svg" xmlns:xlink="http://www.w3.org/1999/xlink" clip-rule="evenodd" stroke-miterlimit="10" viewBox="0 0 1920 1080"><desc>SVG generated by Keynote</desc><defs></defs><g transform="matrix(1.00, 0.00, -0.00, -1.00, 0.0, 1080.0)"><path d="M 0.0 1080.0 L 1920.0 1080.0 L 1920.0 0.0 L 0.0 0.0 Z M 0.0 1080.0 " fill="#2B3138"></path><text xml:space="preserve" font-family="SourceSansPro-ExtraLight,Source Sans Pro" font-size="100.0" fill="#5BA1A6" transform="matrix(1.00, 0.00, -0.00, -1.00, 543.4, 926.3)">A</text><text xml:space="preserve" font-family="SourceSansPro-ExtraLight,Source Sans Pro" font-size="100.0" fill="#5BA1A6" transform="matrix(1.00, 0.00, -0.00, -1.00, 594.6, 926.3)">r</text><text xml:space="preserve" font-family="SourceSansPro-ExtraLight,Source Sans Pro" font-size="100.0" fill="#5BA1A6" transform="matrix(1.00, 0.00, -0.00, -1.00, 624.2, 926.3)">c</text><text xml:space="preserve" font-family="SourceSansPro-ExtraLight,Source Sans Pro" font-size="100.0" fill="#5BA1A6" transform="matrix(1.00, 0.00, -0.00, -1.00, 668.8, 926.3)">h</text><text xml:space="preserve" font-family="SourceSansPro-ExtraLight,Source Sans Pro" font-size="100.0" fill="#5BA1A6" transform="matrix(1.00, 0.00, -0.00, -1.00, 721.0, 926.3)">i</text><text xml:space="preserve" font-family="SourceSansPro-ExtraLight,Source Sans Pro" font-size="100.0" fill="#5BA1A6" transform="matrix(1.00, 0.00, -0.00, -1.00, 743.2, 926.3)">t</text><text xml:space="preserve" font-family="SourceSansPro-ExtraLight,Source Sans Pro" font-size="100.0" fill="#5BA1A6" transform="matrix(1.00, 0.00, -0.00, -1.00, 772.4, 926.3)">e</text><text xml:space="preserve" font-family="SourceSansPro-ExtraLight,Source Sans Pro" font-size="100.0" fill="#5BA1A6" transform="matrix(1.00, 0.00, -0.00, -1.00, 820.2, 926.3)">k</text><text xml:space="preserve" font-family="SourceSansPro-ExtraLight,Source Sans Pro" font-size="100.0" fill="#5BA1A6" transform="matrix(1.00, 0.00, -0.00, -1.00, 864.4, 926.3)">t</text><text xml:space="preserve" font-family="SourceSansPro-ExtraLight,Source Sans Pro" font-size="100.0" fill="#5BA1A6" transform="matrix(1.00, 0.00, -0.00, -1.00, 893.6, 926.3)">u</text><text xml:space="preserve" font-family="SourceSansPro-ExtraLight,Source Sans Pro" font-size="100.0" fill="#5BA1A6" transform="matrix(1.00, 0.00, -0.00, -1.00, 946.0, 926.3)">r</text><text xml:space="preserve" font-family="SourceSansPro-ExtraLight,Source Sans Pro" font-size="100.0" fill="#5BA1A6" transform="matrix(1.00, 0.00, -0.00, -1.00, 974.4, 926.3)">a</text><text xml:space="preserve" font-family="SourceSansPro-ExtraLight,Source Sans Pro" font-size="100.0" fill="#5BA1A6" transform="matrix(1.00, 0.00, -0.00, -1.00, 1023.8, 926.3)"> </text><text xml:space="preserve" font-family="SourceSansPro-ExtraLight,Source Sans Pro" font-size="100.0" fill="#5BA1A6" transform="matrix(1.00, 0.00, -0.00, -1.00, 1043.6, 926.3)">a</text><text xml:space="preserve" font-family="SourceSansPro-ExtraLight,Source Sans Pro" font-size="100.0" fill="#5BA1A6" transform="matrix(1.00, 0.00, -0.00, -1.00, 1093.0, 926.3)">p</text><text xml:space="preserve" font-family="SourceSansPro-ExtraLight,Source Sans Pro" font-size="100.0" fill="#5BA1A6" transform="matrix(1.00, 0.00, -0.00, -1.00, 1147.0, 926.3)">l</text><text xml:space="preserve" font-family="SourceSansPro-ExtraLight,Source Sans Pro" font-size="100.0" fill="#5BA1A6" transform="matrix(1.00, 0.00, -0.00, -1.00, 1170.0, 926.3)">i</text><text xml:space="preserve" font-family="SourceSansPro-ExtraLight,Source Sans Pro" font-size="100.0" fill="#5BA1A6" transform="matrix(1.00, 0.00, -0.00, -1.00, 1192.2, 926.3)">k</text><text xml:space="preserve" font-family="SourceSansPro-ExtraLight,Source Sans Pro" font-size="100.0" fill="#5BA1A6" transform="matrix(1.00, 0.00, -0.00, -1.00, 1236.4, 926.3)">a</text><text xml:space="preserve" font-family="SourceSansPro-ExtraLight,Source Sans Pro" font-size="100.0" fill="#5BA1A6" transform="matrix(1.00, 0.00, -0.00, -1.00, 1285.8, 926.3)">c</text><text xml:space="preserve" font-family="SourceSansPro-ExtraLight,Source Sans Pro" font-size="100.0" fill="#5BA1A6" transform="matrix(1.00, 0.00, -0.00, -1.00, 1328.8, 926.3)">e</text><text xml:space="preserve" font-family="Helvetica-Light,Helvetica" font-size="24.0" fill="#FEFFFF" transform="matrix(1.00, 0.00, -0.00, -1.00, 946.2, 22.5)">1</text><text xml:space="preserve" font-family="Helvetica-Light,Helvetica" font-size="24.0" fill="#FEFFFF" transform="matrix(1.00, 0.00, -0.00, -1.00, 959.5, 22.5)">5</text></g></svg>