<?xml version="1.0" encoding="UTF-8" standalone="no"?><svg xmlns="http://www.w3.org/2000/svg" xmlns:xlink="http://www.w3.org/1999/xlink" clip-rule="evenodd" stroke-miterlimit="10" viewBox="0 0 274 174"><desc>SVG generated by Keynote</desc><defs></defs><g transform="matrix(1.00, 0.00, -0.00, -1.00, 0.0, 174.0)"><g><clipPath id="clip0x608001ea7e60"><path d="M 0.9 0.2 L 273.2 0.2 L 273.2 173.3 L 0.9 173.3 Z M 0.9 0.2 "></path></clipPath><g clip-path="url(#clip0x608001ea7e60)"><path d="M 1.9 16.2 L 2.0 157.3 C 2.0 165.5 8.6 172.0 16.9 172.0 L 257.2 172.0 C 265.5 172.0 272.0 165.5 272.0 157.3 L 272.0 16.2 C 272.0 7.9 265.5 1.0 257.2 1.0 L 16.9 1.0 C 8.6 1.0 1.9 7.9 1.9 16.2 Z M 1.9 16.2 " fill="#5B6876"></path></g></g><g><clipPath id="clip0x608001ea82e0"><path d="M 51.4 51.3 L 222.8 51.3 L 222.8 122.2 L 51.4 122.2 Z M 51.4 51.3 "></path></clipPath><g clip-path="url(#clip0x608001ea82e0)"><text xml:space="preserve" font-family="SourceSansPro-Light,Source Sans Pro" font-size="38.0" fill="#FEFFFF" transform="matrix(1.00, 0.00, -0.00, -1.00, 63.8, 73.6)">T</text><text xml:space="preserve" font-family="SourceSansPro-Light,Source Sans Pro" font-size="38.0" fill="#FEFFFF" transform="matrix(1.00, 0.00, -0.00, -1.00, 81.2, 73.6)">e</text><text xml:space="preserve" font-family="SourceSansPro-Light,Source Sans Pro" font-size="38.0" fill="#FEFFFF" transform="matrix(1.00, 0.00, -0.00, -1.00, 99.5, 73.6)">s</text><text xml:space="preserve" font-family="SourceSansPro-Light,Source Sans Pro" font-size="38.0" fill="#FEFFFF" transform="matrix(1.00, 0.00, -0.00, -1.00, 114.9, 73.6)">t</text><text xml:space="preserve" font-family="SourceSansPro-Light,Source Sans Pro" font-size="38.0" fill="#FEFFFF" transform="matrix(1.00, 0.00, -0.00, -1.00, 126.4, 73.6)">o</text><text xml:space="preserve" font-family="SourceSansPro-Light,Source Sans Pro" font-size="38.0" fill="#FEFFFF" transform="matrix(1.00, 0.00, -0.00, -1.00, 146.7, 73.6)">v</text><text xml:space="preserve" font-family="SourceSansPro-Light,Source Sans Pro" font-size="38.0" fill="#FEFFFF" transform="matrix(1.00, 0.00, -0.00, -1.00, 162.4, 73.6)">á</text><text xml:space="preserve" font-family="SourceSansPro-Light,Source Sans Pro" font-size="38.0" fill="#FEFFFF" transform="matrix(1.00, 0.00, -0.00, -1.00, 181.4, 73.6)">n</text><text xml:space="preserve" font-family="SourceSansPro-Light,Source Sans Pro" font-size="38.0" fill="#FEFFFF" transform="matrix(1.00, 0.00, -0.00, -1.00, 201.6, 73.6)">í</text></g></g></g></svg>