<?xml version="1.0" encoding="UTF-8" standalone="no"?><svg xmlns="http://www.w3.org/2000/svg" xmlns:xlink="http://www.w3.org/1999/xlink" clip-rule="evenodd" stroke-miterlimit="10" viewBox="0 0 369 174"><desc>SVG generated by Keynote</desc><defs></defs><g transform="matrix(1.00, 0.00, -0.00, -1.00, 0.0, 174.0)"><g><clipPath id="clip0x6000036b7a00"><path d="M 0.6 70.0 L 103.1 70.0 L 103.1 103.2 L 0.6 103.2 Z M 0.6 70.0 "></path></clipPath><g clip-path="url(#clip0x6000036b7a00)"><g opacity="0.40"><g><clipPath id="clip0x6000036b80c0"><path d="M 0.0 70.0 L 104.0 70.0 L 104.0 104.0 L 0.0 104.0 Z M 0.0 70.0 "></path></clipPath><g clip-path="url(#clip0x6000036b80c0)"><path d="M 0.4 -0.4 L 69.3 -0.4 L 73.4 -0.4 " fill="none" stroke="#8DF6FF" stroke-width="8.00" transform="matrix(1.00, 0.00, 0.00, -1.00, 1.6, 86.6)"></path><path d="M 71.0 71.4 L 102.2 87.0 L 71.0 102.6 Z M 71.0 71.4 " fill="#8DF6FF"></path></g></g></g></g></g><g><clipPath id="clip0x6000036b83c0"><path d="M 95.9 0.1 L 368.1 0.1 L 368.1 173.1 L 95.9 173.1 Z M 95.9 0.1 "></path></clipPath><g clip-path="url(#clip0x6000036b83c0)"><path d="M 96.9 16.1 L 97.0 157.1 C 97.0 165.4 103.6 172.0 111.9 172.0 L 352.1 172.0 C 360.4 172.0 367.0 165.4 367.0 157.1 L 367.0 16.1 C 367.0 7.8 360.4 1.0 352.1 1.0 L 111.9 1.0 C 103.6 1.0 96.9 7.8 96.9 16.1 Z M 96.9 16.1 " fill="#5B6876"></path></g></g><g><clipPath id="clip0x6000036b8600"><path d="M 139.6 53.9 L 324.4 53.9 L 324.4 118.1 L 139.6 118.1 Z M 139.6 53.9 "></path></clipPath><g clip-path="url(#clip0x6000036b8600)"><text xml:space="preserve" font-family="ArialMT,Arial" font-size="38.0" fill="#FEFFFF" transform="matrix(1.00, 0.00, -0.00, -1.00, 150.7, 73.8)">T</text><text xml:space="preserve" font-family="ArialMT,Arial" font-size="38.0" fill="#FEFFFF" transform="matrix(1.00, 0.00, -0.00, -1.00, 169.7, 73.8)">e</text><text xml:space="preserve" font-family="ArialMT,Arial" font-size="38.0" fill="#FEFFFF" transform="matrix(1.00, 0.00, -0.00, -1.00, 190.8, 73.8)">s</text><text xml:space="preserve" font-family="ArialMT,Arial" font-size="38.0" fill="#FEFFFF" transform="matrix(1.00, 0.00, -0.00, -1.00, 209.8, 73.8)">t</text><text xml:space="preserve" font-family="ArialMT,Arial" font-size="38.0" fill="#FEFFFF" transform="matrix(1.00, 0.00, -0.00, -1.00, 220.4, 73.8)">o</text><text xml:space="preserve" font-family="ArialMT,Arial" font-size="38.0" fill="#FEFFFF" transform="matrix(1.00, 0.00, -0.00, -1.00, 241.5, 73.8)">v</text><text xml:space="preserve" font-family="ArialMT,Arial" font-size="38.0" fill="#FEFFFF" transform="matrix(1.00, 0.00, -0.00, -1.00, 260.5, 73.8)">á</text><text xml:space="preserve" font-family="ArialMT,Arial" font-size="38.0" fill="#FEFFFF" transform="matrix(1.00, 0.00, -0.00, -1.00, 281.6, 73.8)">n</text><text xml:space="preserve" font-family="ArialMT,Arial" font-size="38.0" fill="#FEFFFF" transform="matrix(1.00, 0.00, -0.00, -1.00, 302.8, 73.8)">í</text></g></g></g></svg>