<?xml version="1.0" encoding="UTF-8" standalone="no"?><svg xmlns="http://www.w3.org/2000/svg" xmlns:xlink="http://www.w3.org/1999/xlink" clip-rule="evenodd" stroke-miterlimit="10" viewBox="0 0 274 174"><desc>SVG generated by Keynote</desc><defs></defs><g transform="matrix(1.00, 0.00, -0.00, -1.00, 0.0, 174.0)"><g><clipPath id="clip0x608001ea6de0"><path d="M 0.8 0.2 L 273.1 0.2 L 273.1 173.3 L 0.8 173.3 Z M 0.8 0.2 "></path></clipPath><g clip-path="url(#clip0x608001ea6de0)"><path d="M 1.8 16.2 L 2.0 157.3 C 2.0 165.5 8.5 172.0 16.8 172.0 L 257.1 172.0 C 265.4 172.0 272.0 165.5 272.0 157.3 L 272.0 16.2 C 272.0 7.9 265.4 1.0 257.1 1.0 L 16.8 1.0 C 8.5 1.0 1.8 7.9 1.8 16.2 Z M 1.8 16.2 " fill="#5B6876"></path></g></g><g><clipPath id="clip0x6000024a4aa0"><path d="M 66.1 51.3 L 207.9 51.3 L 207.9 122.2 L 66.1 122.2 Z M 66.1 51.3 "></path></clipPath><g clip-path="url(#clip0x6000024a4aa0)"><text xml:space="preserve" font-family="SourceSansPro-Light,Source Sans Pro" font-size="38.0" fill="#FEFFFF" transform="matrix(1.00, 0.00, -0.00, -1.00, 78.5, 73.6)">A</text><text xml:space="preserve" font-family="SourceSansPro-Light,Source Sans Pro" font-size="38.0" fill="#FEFFFF" transform="matrix(1.00, 0.00, -0.00, -1.00, 98.2, 73.6)">n</text><text xml:space="preserve" font-family="SourceSansPro-Light,Source Sans Pro" font-size="38.0" fill="#FEFFFF" transform="matrix(1.00, 0.00, -0.00, -1.00, 118.4, 73.6)">a</text><text xml:space="preserve" font-family="SourceSansPro-Light,Source Sans Pro" font-size="38.0" fill="#FEFFFF" transform="matrix(1.00, 0.00, -0.00, -1.00, 137.4, 73.6)">l</text><text xml:space="preserve" font-family="SourceSansPro-Light,Source Sans Pro" font-size="38.0" fill="#FEFFFF" transform="matrix(1.00, 0.00, -0.00, -1.00, 146.4, 73.6)">ý</text><text xml:space="preserve" font-family="SourceSansPro-Light,Source Sans Pro" font-size="38.0" fill="#FEFFFF" transform="matrix(1.00, 0.00, -0.00, -1.00, 162.2, 73.6)">z</text><text xml:space="preserve" font-family="SourceSansPro-Light,Source Sans Pro" font-size="38.0" fill="#FEFFFF" transform="matrix(1.00, 0.00, -0.00, -1.00, 176.5, 73.6)">a</text></g></g></g></svg>