<?xml version="1.0" encoding="UTF-8" standalone="no"?><svg xmlns="http://www.w3.org/2000/svg" xmlns:xlink="http://www.w3.org/1999/xlink" clip-rule="evenodd" stroke-miterlimit="10" viewBox="0 0 274 174"><desc>SVG generated by Keynote</desc><defs></defs><g transform="matrix(1.00, 0.00, -0.00, -1.00, 0.0, 174.0)"><g><clipPath id="clip0x6080026a6fc0"><path d="M 1.0 0.5 L 273.3 0.5 L 273.3 173.6 L 1.0 173.6 Z M 1.0 0.5 "></path></clipPath><g clip-path="url(#clip0x6080026a6fc0)"><path d="M 2.0 16.5 L 2.0 157.6 C 2.0 165.9 8.7 173.0 17.0 173.0 L 257.3 173.0 C 265.5 173.0 272.0 165.9 272.0 157.6 L 272.0 16.5 C 272.0 8.2 265.5 2.0 257.3 2.0 L 17.0 2.0 C 8.7 2.0 2.0 8.2 2.0 16.5 Z M 2.0 16.5 " fill="#5B6876"></path></g></g><g><clipPath id="clip0x6080026a7200"><path d="M 39.5 38.5 L 315.9 38.5 L 315.9 134.4 L 39.5 134.4 Z M 39.5 38.5 "></path></clipPath><g clip-path="url(#clip0x6080026a7200)"><text xml:space="preserve" font-family="ArialMT,Arial" font-size="36.0" fill="#FEFFFF" transform="matrix(1.00, 0.00, -0.00, -1.00, 99.1, 91.2)">S</text><text xml:space="preserve" font-family="ArialMT,Arial" font-size="36.0" fill="#FEFFFF" transform="matrix(1.00, 0.00, -0.00, -1.00, 123.1, 91.2)">b</text><text xml:space="preserve" font-family="ArialMT,Arial" font-size="36.0" fill="#FEFFFF" transform="matrix(1.00, 0.00, -0.00, -1.00, 143.1, 91.2)">ě</text><text xml:space="preserve" font-family="ArialMT,Arial" font-size="36.0" fill="#FEFFFF" transform="matrix(1.00, 0.00, -0.00, -1.00, 163.2, 91.2)">r</text><text xml:space="preserve" font-family="ArialMT,Arial" font-size="36.0" fill="#FEFFFF" transform="matrix(1.00, 0.00, -0.00, -1.00, 175.1, 91.2)"> </text><text xml:space="preserve" font-family="ArialMT,Arial" font-size="36.0" fill="#FEFFFF" transform="matrix(1.00, 0.00, -0.00, -1.00, 50.0, 57.4)">p</text><text xml:space="preserve" font-family="ArialMT,Arial" font-size="36.0" fill="#FEFFFF" transform="matrix(1.00, 0.00, -0.00, -1.00, 70.1, 57.4)">o</text><text xml:space="preserve" font-family="ArialMT,Arial" font-size="36.0" fill="#FEFFFF" transform="matrix(1.00, 0.00, -0.00, -1.00, 90.1, 57.4)">ž</text><text xml:space="preserve" font-family="ArialMT,Arial" font-size="36.0" fill="#FEFFFF" transform="matrix(1.00, 0.00, -0.00, -1.00, 108.1, 57.4)">a</text><text xml:space="preserve" font-family="ArialMT,Arial" font-size="36.0" fill="#FEFFFF" transform="matrix(1.00, 0.00, -0.00, -1.00, 128.1, 57.4)">d</text><text xml:space="preserve" font-family="ArialMT,Arial" font-size="36.0" fill="#FEFFFF" transform="matrix(1.00, 0.00, -0.00, -1.00, 148.2, 57.4)">a</text><text xml:space="preserve" font-family="ArialMT,Arial" font-size="36.0" fill="#FEFFFF" transform="matrix(1.00, 0.00, -0.00, -1.00, 168.2, 57.4)">v</text><text xml:space="preserve" font-family="ArialMT,Arial" font-size="36.0" fill="#FEFFFF" transform="matrix(1.00, 0.00, -0.00, -1.00, 186.2, 57.4)">k</text><text xml:space="preserve" font-family="ArialMT,Arial" font-size="36.0" fill="#FEFFFF" transform="matrix(1.00, 0.00, -0.00, -1.00, 204.2, 57.4)">ů</text></g></g></g></svg>