<?xml version="1.0" encoding="UTF-8" standalone="no"?><svg xmlns="http://www.w3.org/2000/svg" xmlns:xlink="http://www.w3.org/1999/xlink" clip-rule="evenodd" stroke-miterlimit="10" viewBox="0 0 1920 1080"><desc>SVG generated by Keynote</desc><defs></defs><g transform="matrix(1.00, 0.00, -0.00, -1.00, 0.0, 1080.0)"><path d="M 0.0 1080.0 L 1920.0 1080.0 L 1920.0 0.0 L 0.0 0.0 Z M 0.0 1080.0 " fill="#2B3138"></path><g><clipPath id="clip0x6000038a4440"><path d="M 1091.8 332.0 L 1194.2 332.0 L 1194.2 365.2 L 1091.8 365.2 Z M 1091.8 332.0 "></path></clipPath><g clip-path="url(#clip0x6000038a4440)"><g opacity="0.40"><g><clipPath id="clip0x6000038a3de0"><path d="M 1091.0 332.0 L 1195.0 332.0 L 1195.0 366.0 L 1091.0 366.0 Z M 1091.0 332.0 "></path></clipPath><g clip-path="url(#clip0x6000038a3de0)"><path d="M 0.2 -0.4 L 69.3 -0.4 L 73.2 -0.4 " fill="none" stroke="#8DF6FF" stroke-width="8.00" transform="matrix(1.00, 0.00, 0.00, -1.00, 1092.8, 348.6)"></path><path d="M 1162.0 333.4 L 1193.2 349.0 L 1162.0 364.6 Z M 1162.0 333.4 " fill="#8DF6FF"></path></g></g></g></g></g><g><clipPath id="clip0x6000038a3840"><path d="M 1190.0 262.1 L 1462.3 262.1 L 1462.3 435.1 L 1190.0 435.1 Z M 1190.0 262.1 "></path></clipPath><g clip-path="url(#clip0x6000038a3840)"><path d="M 1191.0 278.1 L 1191.0 419.1 C 1191.0 427.4 1197.7 434.0 1206.0 434.0 L 1446.3 434.0 C 1454.6 434.0 1461.0 427.4 1461.0 419.1 L 1461.0 278.1 C 1461.0 269.8 1454.6 263.0 1446.3 263.0 L 1206.0 263.0 C 1197.7 263.0 1191.0 269.8 1191.0 278.1 Z M 1191.0 278.1 " fill="#5B6876"></path></g></g><g><clipPath id="clip0x6000038a7b00"><path d="M 1234.8 315.9 L 1417.6 315.9 L 1417.6 380.1 L 1234.8 380.1 Z M 1234.8 315.9 "></path></clipPath><g clip-path="url(#clip0x6000038a7b00)"><text xml:space="preserve" font-family="ArialMT,Arial" font-size="38.0" fill="#FEFFFF" transform="matrix(1.00, 0.00, -0.00, -1.00, 1245.9, 335.8)">N</text><text xml:space="preserve" font-family="ArialMT,Arial" font-size="38.0" fill="#FEFFFF" transform="matrix(1.00, 0.00, -0.00, -1.00, 1273.4, 335.8)">a</text><text xml:space="preserve" font-family="ArialMT,Arial" font-size="38.0" fill="#FEFFFF" transform="matrix(1.00, 0.00, -0.00, -1.00, 1294.5, 335.8)">s</text><text xml:space="preserve" font-family="ArialMT,Arial" font-size="38.0" fill="#FEFFFF" transform="matrix(1.00, 0.00, -0.00, -1.00, 1313.5, 335.8)">a</text><text xml:space="preserve" font-family="ArialMT,Arial" font-size="38.0" fill="#FEFFFF" transform="matrix(1.00, 0.00, -0.00, -1.00, 1334.6, 335.8)">z</text><text xml:space="preserve" font-family="ArialMT,Arial" font-size="38.0" fill="#FEFFFF" transform="matrix(1.00, 0.00, -0.00, -1.00, 1353.6, 335.8)">e</text><text xml:space="preserve" font-family="ArialMT,Arial" font-size="38.0" fill="#FEFFFF" transform="matrix(1.00, 0.00, -0.00, -1.00, 1374.8, 335.8)">n</text><text xml:space="preserve" font-family="ArialMT,Arial" font-size="38.0" fill="#FEFFFF" transform="matrix(1.00, 0.00, -0.00, -1.00, 1395.9, 335.8)">í</text></g></g><text xml:space="preserve" font-family="ArialMT,Arial" font-size="90.0" fill="#5BA1A6" transform="matrix(1.00, 0.00, -0.00, -1.00, 682.3, 931.0)">P</text><text xml:space="preserve" font-family="ArialMT,Arial" font-size="90.0" fill="#5BA1A6" transform="matrix(1.00, 0.00, -0.00, -1.00, 742.4, 931.0)">o</text><text xml:space="preserve" font-family="ArialMT,Arial" font-size="90.0" fill="#5BA1A6" transform="matrix(1.00, 0.00, -0.00, -1.00, 792.4, 931.0)">s</text><text xml:space="preserve" font-family="ArialMT,Arial" font-size="90.0" fill="#5BA1A6" transform="matrix(1.00, 0.00, -0.00, -1.00, 837.4, 931.0)">t</text><text xml:space="preserve" font-family="ArialMT,Arial" font-size="90.0" fill="#5BA1A6" transform="matrix(1.00, 0.00, -0.00, -1.00, 862.4, 931.0)">u</text><text xml:space="preserve" font-family="ArialMT,Arial" font-size="90.0" fill="#5BA1A6" transform="matrix(1.00, 0.00, -0.00, -1.00, 912.5, 931.0)">p</text><text xml:space="preserve" font-family="ArialMT,Arial" font-size="90.0" fill="#5BA1A6" transform="matrix(1.00, 0.00, -0.00, -1.00, 962.6, 931.0)"> </text><text xml:space="preserve" font-family="ArialMT,Arial" font-size="90.0" fill="#5BA1A6" transform="matrix(1.00, 0.00, -0.00, -1.00, 987.5, 931.0)">ř</text><text xml:space="preserve" font-family="ArialMT,Arial" font-size="90.0" fill="#5BA1A6" transform="matrix(1.00, 0.00, -0.00, -1.00, 1017.5, 931.0)">e</text><text xml:space="preserve" font-family="ArialMT,Arial" font-size="90.0" fill="#5BA1A6" transform="matrix(1.00, 0.00, -0.00, -1.00, 1067.6, 931.0)">š</text><text xml:space="preserve" font-family="ArialMT,Arial" font-size="90.0" fill="#5BA1A6" transform="matrix(1.00, 0.00, -0.00, -1.00, 1112.6, 931.0)">e</text><text xml:space="preserve" font-family="ArialMT,Arial" font-size="90.0" fill="#5BA1A6" transform="matrix(1.00, 0.00, -0.00, -1.00, 1162.7, 931.0)">n</text><text xml:space="preserve" font-family="ArialMT,Arial" font-size="90.0" fill="#5BA1A6" transform="matrix(1.00, 0.00, -0.00, -1.00, 1212.7, 931.0)">í</text><text xml:space="preserve" font-family="Helvetica-Light,Helvetica" font-size="24.0" fill="#FEFFFF" transform="matrix(1.00, 0.00, -0.00, -1.00, 946.2, 22.5)">1</text><text xml:space="preserve" font-family="Helvetica-Light,Helvetica" font-size="24.0" fill="#FEFFFF" transform="matrix(1.00, 0.00, -0.00, -1.00, 959.5, 22.5)">5</text><g><clipPath id="clip0x6000038a5ac0"><path d="M 458.0 566.5 L 730.3 566.5 L 730.3 739.6 L 458.0 739.6 Z M 458.0 566.5 "></path></clipPath><g clip-path="url(#clip0x6000038a5ac0)"><path d="M 459.0 582.5 L 459.0 723.6 C 459.0 731.9 465.7 739.0 474.0 739.0 L 714.3 739.0 C 722.5 739.0 729.0 731.9 729.0 723.6 L 729.0 582.5 C 729.0 574.2 722.5 568.0 714.3 568.0 L 474.0 568.0 C 465.7 568.0 459.0 574.2 459.0 582.5 Z M 459.0 582.5 " fill="#5B6876"></path></g></g><g><clipPath id="clip0x6000038a4500"><path d="M 496.5 604.5 L 772.9 604.5 L 772.9 700.4 L 496.5 700.4 Z M 496.5 604.5 "></path></clipPath><g clip-path="url(#clip0x6000038a4500)"><text xml:space="preserve" font-family="ArialMT,Arial" font-size="36.0" fill="#FEFFFF" transform="matrix(1.00, 0.00, -0.00, -1.00, 556.1, 657.2)">S</text><text xml:space="preserve" font-family="ArialMT,Arial" font-size="36.0" fill="#FEFFFF" transform="matrix(1.00, 0.00, -0.00, -1.00, 580.1, 657.2)">b</text><text xml:space="preserve" font-family="ArialMT,Arial" font-size="36.0" fill="#FEFFFF" transform="matrix(1.00, 0.00, -0.00, -1.00, 600.1, 657.2)">ě</text><text xml:space="preserve" font-family="ArialMT,Arial" font-size="36.0" fill="#FEFFFF" transform="matrix(1.00, 0.00, -0.00, -1.00, 620.2, 657.2)">r</text><text xml:space="preserve" font-family="ArialMT,Arial" font-size="36.0" fill="#FEFFFF" transform="matrix(1.00, 0.00, -0.00, -1.00, 632.1, 657.2)"> </text><text xml:space="preserve" font-family="ArialMT,Arial" font-size="36.0" fill="#FEFFFF" transform="matrix(1.00, 0.00, -0.00, -1.00, 507.0, 623.4)">p</text><text xml:space="preserve" font-family="ArialMT,Arial" font-size="36.0" fill="#FEFFFF" transform="matrix(1.00, 0.00, -0.00, -1.00, 527.1, 623.4)">o</text><text xml:space="preserve" font-family="ArialMT,Arial" font-size="36.0" fill="#FEFFFF" transform="matrix(1.00, 0.00, -0.00, -1.00, 547.1, 623.4)">ž</text><text xml:space="preserve" font-family="ArialMT,Arial" font-size="36.0" fill="#FEFFFF" transform="matrix(1.00, 0.00, -0.00, -1.00, 565.1, 623.4)">a</text><text xml:space="preserve" font-family="ArialMT,Arial" font-size="36.0" fill="#FEFFFF" transform="matrix(1.00, 0.00, -0.00, -1.00, 585.1, 623.4)">d</text><text xml:space="preserve" font-family="ArialMT,Arial" font-size="36.0" fill="#FEFFFF" transform="matrix(1.00, 0.00, -0.00, -1.00, 605.2, 623.4)">a</text><text xml:space="preserve" font-family="ArialMT,Arial" font-size="36.0" fill="#FEFFFF" transform="matrix(1.00, 0.00, -0.00, -1.00, 625.2, 623.4)">v</text><text xml:space="preserve" font-family="ArialMT,Arial" font-size="36.0" fill="#FEFFFF" transform="matrix(1.00, 0.00, -0.00, -1.00, 643.2, 623.4)">k</text><text xml:space="preserve" font-family="ArialMT,Arial" font-size="36.0" fill="#FEFFFF" transform="matrix(1.00, 0.00, -0.00, -1.00, 661.2, 623.4)">ů</text></g></g><g><clipPath id="clip0x6000038a3e40"><path d="M 403.8 328.8 L 1500.4 328.8 L 1500.4 657.1 L 403.8 657.1 Z M 403.8 328.8 "></path></clipPath><g clip-path="url(#clip0x6000038a3e40)"><g opacity="0.40"><g><clipPath id="clip0x6000038a7680"><path d="M 403.0 328.0 L 1501.0 328.0 L 1501.0 658.0 L 403.0 658.0 Z M 403.0 328.0 "></path></clipPath><g clip-path="url(#clip0x6000038a7680)"><path d="M 1047.2 0.1 L 1086.2 0.1 L 1086.2 147.3 L 0.0 149.2 L 1.2 307.1 L 19.9 307.1 L 24.2 307.1 " fill="none" stroke="#8DF6FF" stroke-width="8.00" transform="matrix(1.00, 0.00, 0.00, -1.00, 408.8, 652.1)"></path><path d="M 429.0 329.4 L 460.2 345.1 L 429.0 360.6 Z M 429.0 329.4 " fill="#8DF6FF"></path></g></g></g></g></g><g><clipPath id="clip0x6000038a7740"><path d="M 458.0 262.1 L 730.3 262.1 L 730.3 435.1 L 458.0 435.1 Z M 458.0 262.1 "></path></clipPath><g clip-path="url(#clip0x6000038a7740)"><path d="M 459.0 278.1 L 459.0 419.1 C 459.0 427.4 465.7 434.0 474.0 434.0 L 714.3 434.0 C 722.5 434.0 729.0 427.4 729.0 419.1 L 729.0 278.1 C 729.0 269.8 722.5 263.0 714.3 263.0 L 474.0 263.0 C 465.7 263.0 459.0 269.8 459.0 278.1 Z M 459.0 278.1 " fill="#5B6876"></path></g></g><g><clipPath id="clip0x6000038a2d60"><path d="M 470.5 317.0 L 717.7 317.0 L 717.7 379.1 L 470.5 379.1 Z M 470.5 317.0 "></path></clipPath><g clip-path="url(#clip0x6000038a2d60)"><text xml:space="preserve" font-family="ArialMT,Arial" font-size="36.0" fill="#FEFFFF" transform="matrix(1.00, 0.00, -0.00, -1.00, 481.1, 335.8)">I</text><text xml:space="preserve" font-family="ArialMT,Arial" font-size="36.0" fill="#FEFFFF" transform="matrix(1.00, 0.00, -0.00, -1.00, 491.1, 335.8)">m</text><text xml:space="preserve" font-family="ArialMT,Arial" font-size="36.0" fill="#FEFFFF" transform="matrix(1.00, 0.00, -0.00, -1.00, 521.0, 335.8)">p</text><text xml:space="preserve" font-family="ArialMT,Arial" font-size="36.0" fill="#FEFFFF" transform="matrix(1.00, 0.00, -0.00, -1.00, 541.1, 335.8)">l</text><text xml:space="preserve" font-family="ArialMT,Arial" font-size="36.0" fill="#FEFFFF" transform="matrix(1.00, 0.00, -0.00, -1.00, 549.1, 335.8)">e</text><text xml:space="preserve" font-family="ArialMT,Arial" font-size="36.0" fill="#FEFFFF" transform="matrix(1.00, 0.00, -0.00, -1.00, 569.1, 335.8)">m</text><text xml:space="preserve" font-family="ArialMT,Arial" font-size="36.0" fill="#FEFFFF" transform="matrix(1.00, 0.00, -0.00, -1.00, 599.1, 335.8)">e</text><text xml:space="preserve" font-family="ArialMT,Arial" font-size="36.0" fill="#FEFFFF" transform="matrix(1.00, 0.00, -0.00, -1.00, 619.1, 335.8)">n</text><text xml:space="preserve" font-family="ArialMT,Arial" font-size="36.0" fill="#FEFFFF" transform="matrix(1.00, 0.00, -0.00, -1.00, 639.2, 335.8)">t</text><text xml:space="preserve" font-family="ArialMT,Arial" font-size="36.0" fill="#FEFFFF" transform="matrix(1.00, 0.00, -0.00, -1.00, 649.1, 335.8)">a</text><text xml:space="preserve" font-family="ArialMT,Arial" font-size="36.0" fill="#FEFFFF" transform="matrix(1.00, 0.00, -0.00, -1.00, 669.2, 335.8)">c</text><text xml:space="preserve" font-family="ArialMT,Arial" font-size="36.0" fill="#FEFFFF" transform="matrix(1.00, 0.00, -0.00, -1.00, 687.2, 335.8)">e</text></g></g><g><clipPath id="clip0x6000038a4fe0"><path d="M 1091.9 635.5 L 1194.4 635.5 L 1194.4 668.7 L 1091.9 668.7 Z M 1091.9 635.5 "></path></clipPath><g clip-path="url(#clip0x6000038a4fe0)"><g opacity="0.40"><g><clipPath id="clip0x6000038a79e0"><path d="M 1091.0 635.0 L 1195.0 635.0 L 1195.0 669.0 L 1091.0 669.0 Z M 1091.0 635.0 "></path></clipPath><g clip-path="url(#clip0x6000038a79e0)"><path d="M 0.1 0.1 L 69.3 0.1 L 73.1 0.1 " fill="none" stroke="#8DF6FF" stroke-width="8.00" transform="matrix(1.00, 0.00, 0.00, -1.00, 1092.9, 652.1)"></path><path d="M 1162.0 636.4 L 1193.2 652.0 L 1162.0 667.6 Z M 1162.0 636.4 " fill="#8DF6FF"></path></g></g></g></g></g><g><clipPath id="clip0x6000038a57c0"><path d="M 1189.7 566.5 L 1462.0 566.5 L 1462.0 739.6 L 1189.7 739.6 Z M 1189.7 566.5 "></path></clipPath><g clip-path="url(#clip0x6000038a57c0)"><path d="M 1190.7 582.5 L 1191.0 723.6 C 1191.0 731.9 1197.5 739.0 1205.7 739.0 L 1446.0 739.0 C 1454.3 739.0 1461.0 731.9 1461.0 723.6 L 1461.0 582.5 C 1461.0 574.2 1454.3 568.0 1446.0 568.0 L 1205.7 568.0 C 1197.5 568.0 1190.7 574.2 1190.7 582.5 Z M 1190.7 582.5 " fill="#5B6876"></path></g></g><g><clipPath id="clip0x6000038a7c80"><path d="M 1267.3 621.4 L 1384.5 621.4 L 1384.5 683.5 L 1267.3 683.5 Z M 1267.3 621.4 "></path></clipPath><g clip-path="url(#clip0x6000038a7c80)"><text xml:space="preserve" font-family="ArialMT,Arial" font-size="36.0" fill="#FEFFFF" transform="matrix(1.00, 0.00, -0.00, -1.00, 1277.9, 640.3)">N</text><text xml:space="preserve" font-family="ArialMT,Arial" font-size="36.0" fill="#FEFFFF" transform="matrix(1.00, 0.00, -0.00, -1.00, 1303.9, 640.3)">á</text><text xml:space="preserve" font-family="ArialMT,Arial" font-size="36.0" fill="#FEFFFF" transform="matrix(1.00, 0.00, -0.00, -1.00, 1323.9, 640.3)">v</text><text xml:space="preserve" font-family="ArialMT,Arial" font-size="36.0" fill="#FEFFFF" transform="matrix(1.00, 0.00, -0.00, -1.00, 1341.9, 640.3)">r</text><text xml:space="preserve" font-family="ArialMT,Arial" font-size="36.0" fill="#FEFFFF" transform="matrix(1.00, 0.00, -0.00, -1.00, 1353.9, 640.3)">h</text></g></g><g><clipPath id="clip0x6000038a6720"><path d="M 728.6 332.0 L 831.1 332.0 L 831.1 365.2 L 728.6 365.2 Z M 728.6 332.0 "></path></clipPath><g clip-path="url(#clip0x6000038a6720)"><g opacity="0.40"><g><clipPath id="clip0x6000038a60c0"><path d="M 728.0 332.0 L 832.0 332.0 L 832.0 366.0 L 728.0 366.0 Z M 728.0 332.0 "></path></clipPath><g clip-path="url(#clip0x6000038a60c0)"><path d="M 0.4 -0.4 L 69.3 -0.4 L 73.4 -0.4 " fill="none" stroke="#8DF6FF" stroke-width="8.00" transform="matrix(1.00, 0.00, 0.00, -1.00, 729.6, 348.6)"></path><path d="M 799.0 333.4 L 830.2 349.0 L 799.0 364.6 Z M 799.0 333.4 " fill="#8DF6FF"></path></g></g></g></g></g><g><clipPath id="clip0x6000038a68a0"><path d="M 823.9 262.1 L 1096.1 262.1 L 1096.1 435.1 L 823.9 435.1 Z M 823.9 262.1 "></path></clipPath><g clip-path="url(#clip0x6000038a68a0)"><path d="M 824.9 278.1 L 825.0 419.1 C 825.0 427.4 831.6 434.0 839.9 434.0 L 1080.1 434.0 C 1088.4 434.0 1095.0 427.4 1095.0 419.1 L 1095.0 278.1 C 1095.0 269.8 1088.4 263.0 1080.1 263.0 L 839.9 263.0 C 831.6 263.0 824.9 269.8 824.9 278.1 Z M 824.9 278.1 " fill="#5B6876"></path></g></g><g><clipPath id="clip0x6000038a7920"><path d="M 867.6 315.9 L 1052.4 315.9 L 1052.4 380.1 L 867.6 380.1 Z M 867.6 315.9 "></path></clipPath><g clip-path="url(#clip0x6000038a7920)"><text xml:space="preserve" font-family="ArialMT,Arial" font-size="38.0" fill="#FEFFFF" transform="matrix(1.00, 0.00, -0.00, -1.00, 878.7, 335.8)">T</text><text xml:space="preserve" font-family="ArialMT,Arial" font-size="38.0" fill="#FEFFFF" transform="matrix(1.00, 0.00, -0.00, -1.00, 897.7, 335.8)">e</text><text xml:space="preserve" font-family="ArialMT,Arial" font-size="38.0" fill="#FEFFFF" transform="matrix(1.00, 0.00, -0.00, -1.00, 918.8, 335.8)">s</text><text xml:space="preserve" font-family="ArialMT,Arial" font-size="38.0" fill="#FEFFFF" transform="matrix(1.00, 0.00, -0.00, -1.00, 937.8, 335.8)">t</text><text xml:space="preserve" font-family="ArialMT,Arial" font-size="38.0" fill="#FEFFFF" transform="matrix(1.00, 0.00, -0.00, -1.00, 948.4, 335.8)">o</text><text xml:space="preserve" font-family="ArialMT,Arial" font-size="38.0" fill="#FEFFFF" transform="matrix(1.00, 0.00, -0.00, -1.00, 969.5, 335.8)">v</text><text xml:space="preserve" font-family="ArialMT,Arial" font-size="38.0" fill="#FEFFFF" transform="matrix(1.00, 0.00, -0.00, -1.00, 988.5, 335.8)">á</text><text xml:space="preserve" font-family="ArialMT,Arial" font-size="38.0" fill="#FEFFFF" transform="matrix(1.00, 0.00, -0.00, -1.00, 1009.6, 335.8)">n</text><text xml:space="preserve" font-family="ArialMT,Arial" font-size="38.0" fill="#FEFFFF" transform="matrix(1.00, 0.00, -0.00, -1.00, 1030.8, 335.8)">í</text></g></g><text xml:space="preserve" font-family="Arial-ItalicMT,Arial" font-style="italic" font-size="23.0" fill="#FEFFFF" transform="matrix(1.00, 0.00, -0.00, -1.00, 575.5, 295.9)">.</text><text xml:space="preserve" font-family="Arial-ItalicMT,Arial" font-style="italic" font-size="23.0" fill="#FEFFFF" transform="matrix(1.00, 0.00, -0.00, -1.00, 581.9, 295.9)">.</text><text xml:space="preserve" font-family="Arial-ItalicMT,Arial" font-style="italic" font-size="23.0" fill="#FEFFFF" transform="matrix(1.00, 0.00, -0.00, -1.00, 588.2, 295.9)"> </text><text xml:space="preserve" font-family="Arial-ItalicMT,Arial" font-style="italic" font-size="23.0" fill="#FEFFFF" transform="matrix(1.00, 0.00, -0.00, -1.00, 594.6, 295.9)">a</text><text xml:space="preserve" font-family="Arial-ItalicMT,Arial" font-style="italic" font-size="23.0" fill="#FEFFFF" transform="matrix(1.00, 0.00, -0.00, -1.00, 607.4, 295.9)"> </text><text xml:space="preserve" font-family="Arial-ItalicMT,Arial" font-style="italic" font-size="23.0" fill="#FEFFFF" transform="matrix(1.00, 0.00, -0.00, -1.00, 613.8, 295.9)">t</text><text xml:space="preserve" font-family="Arial-ItalicMT,Arial" font-style="italic" font-size="23.0" fill="#FEFFFF" transform="matrix(1.00, 0.00, -0.00, -1.00, 620.2, 295.9)">e</text><text xml:space="preserve" font-family="Arial-ItalicMT,Arial" font-style="italic" font-size="23.0" fill="#FEFFFF" transform="matrix(1.00, 0.00, -0.00, -1.00, 633.0, 295.9)">s</text><text xml:space="preserve" font-family="Arial-ItalicMT,Arial" font-style="italic" font-size="23.0" fill="#FEFFFF" transform="matrix(1.00, 0.00, -0.00, -1.00, 644.5, 295.9)">t</text><text xml:space="preserve" font-family="Arial-ItalicMT,Arial" font-style="italic" font-size="23.0" fill="#FEFFFF" transform="matrix(1.00, 0.00, -0.00, -1.00, 650.9, 295.9)">o</text><text xml:space="preserve" font-family="Arial-ItalicMT,Arial" font-style="italic" font-size="23.0" fill="#FEFFFF" transform="matrix(1.00, 0.00, -0.00, -1.00, 663.7, 295.9)">v</text><text xml:space="preserve" font-family="Arial-ItalicMT,Arial" font-style="italic" font-size="23.0" fill="#FEFFFF" transform="matrix(1.00, 0.00, -0.00, -1.00, 675.2, 295.9)">á</text><text xml:space="preserve" font-family="Arial-ItalicMT,Arial" font-style="italic" font-size="23.0" fill="#FEFFFF" transform="matrix(1.00, 0.00, -0.00, -1.00, 688.0, 295.9)">n</text><text xml:space="preserve" font-family="Arial-ItalicMT,Arial" font-style="italic" font-size="23.0" fill="#FEFFFF" transform="matrix(1.00, 0.00, -0.00, -1.00, 700.8, 295.9)">í</text><g><clipPath id="clip0x6000038a3420"><path d="M 728.6 635.5 L 831.1 635.5 L 831.1 668.7 L 728.6 668.7 Z M 728.6 635.5 "></path></clipPath><g clip-path="url(#clip0x6000038a3420)"><g opacity="0.40"><g><clipPath id="clip0x6000038a43e0"><path d="M 728.0 635.0 L 832.0 635.0 L 832.0 669.0 L 728.0 669.0 Z M 728.0 635.0 "></path></clipPath><g clip-path="url(#clip0x6000038a43e0)"><path d="M 0.4 0.1 L 69.3 0.1 L 73.4 0.1 " fill="none" stroke="#8DF6FF" stroke-width="8.00" transform="matrix(1.00, 0.00, 0.00, -1.00, 729.6, 652.1)"></path><path d="M 799.0 636.4 L 830.2 652.0 L 799.0 667.6 Z M 799.0 636.4 " fill="#8DF6FF"></path></g></g></g></g></g><g><clipPath id="clip0x6000038a8100"><path d="M 824.0 566.5 L 1096.3 566.5 L 1096.3 739.6 L 824.0 739.6 Z M 824.0 566.5 "></path></clipPath><g clip-path="url(#clip0x6000038a8100)"><path d="M 825.0 582.5 L 825.0 723.6 C 825.0 731.9 831.7 739.0 840.0 739.0 L 1080.3 739.0 C 1088.6 739.0 1095.0 731.9 1095.0 723.6 L 1095.0 582.5 C 1095.0 574.2 1088.6 568.0 1080.3 568.0 L 840.0 568.0 C 831.7 568.0 825.0 574.2 825.0 582.5 Z M 825.0 582.5 " fill="#5B6876"></path></g></g><g><clipPath id="clip0x6000038a8340"><path d="M 885.6 621.4 L 1034.7 621.4 L 1034.7 683.5 L 885.6 683.5 Z M 885.6 621.4 "></path></clipPath><g clip-path="url(#clip0x6000038a8340)"><text xml:space="preserve" font-family="ArialMT,Arial" font-size="36.0" fill="#FEFFFF" transform="matrix(1.00, 0.00, -0.00, -1.00, 896.1, 640.3)">A</text><text xml:space="preserve" font-family="ArialMT,Arial" font-size="36.0" fill="#FEFFFF" transform="matrix(1.00, 0.00, -0.00, -1.00, 920.1, 640.3)">n</text><text xml:space="preserve" font-family="ArialMT,Arial" font-size="36.0" fill="#FEFFFF" transform="matrix(1.00, 0.00, -0.00, -1.00, 940.1, 640.3)">a</text><text xml:space="preserve" font-family="ArialMT,Arial" font-size="36.0" fill="#FEFFFF" transform="matrix(1.00, 0.00, -0.00, -1.00, 960.2, 640.3)">l</text><text xml:space="preserve" font-family="ArialMT,Arial" font-size="36.0" fill="#FEFFFF" transform="matrix(1.00, 0.00, -0.00, -1.00, 968.2, 640.3)">ý</text><text xml:space="preserve" font-family="ArialMT,Arial" font-size="36.0" fill="#FEFFFF" transform="matrix(1.00, 0.00, -0.00, -1.00, 986.2, 640.3)">z</text><text xml:space="preserve" font-family="ArialMT,Arial" font-size="36.0" fill="#FEFFFF" transform="matrix(1.00, 0.00, -0.00, -1.00, 1004.2, 640.3)">a</text></g></g></g></svg>