<?xml version="1.0" encoding="UTF-8" standalone="no"?><svg xmlns="http://www.w3.org/2000/svg" xmlns:xlink="http://www.w3.org/1999/xlink" clip-rule="evenodd" stroke-miterlimit="10" viewBox="0 0 372 174"><desc>SVG generated by Keynote</desc><defs></defs><g transform="matrix(1.00, 0.00, -0.00, -1.00, 0.0, 174.0)"><g><clipPath id="clip0x6080026a8880"><path d="M 0.9 69.5 L 103.4 69.5 L 103.4 102.7 L 0.9 102.7 Z M 0.9 69.5 "></path></clipPath><g clip-path="url(#clip0x6080026a8880)"><g opacity="0.40"><g><clipPath id="clip0x6080026a8f40"><path d="M 0.0 69.0 L 104.0 69.0 L 104.0 103.0 L 0.0 103.0 Z M 0.0 69.0 "></path></clipPath><g clip-path="url(#clip0x6080026a8f40)"><path d="M 0.1 0.1 L 69.3 0.1 L 73.1 0.1 " fill="none" stroke="#8DF6FF" stroke-width="8.00" transform="matrix(1.00, 0.00, 0.00, -1.00, 1.9, 86.1)"></path><path d="M 71.0 70.4 L 102.2 86.0 L 71.0 101.6 Z M 71.0 70.4 " fill="#8DF6FF"></path></g></g></g></g></g><g><clipPath id="clip0x6080026a9240"><path d="M 98.7 0.5 L 371.0 0.5 L 371.0 173.6 L 98.7 173.6 Z M 98.7 0.5 "></path></clipPath><g clip-path="url(#clip0x6080026a9240)"><path d="M 99.7 16.5 L 100.0 157.6 C 100.0 165.9 106.5 173.0 114.7 173.0 L 355.0 173.0 C 363.3 173.0 370.0 165.9 370.0 157.6 L 370.0 16.5 C 370.0 8.2 363.3 2.0 355.0 2.0 L 114.7 2.0 C 106.5 2.0 99.7 8.2 99.7 16.5 Z M 99.7 16.5 " fill="#5B6876"></path></g></g><g><clipPath id="clip0x6080026a9480"><path d="M 176.3 55.4 L 293.5 55.4 L 293.5 117.5 L 176.3 117.5 Z M 176.3 55.4 "></path></clipPath><g clip-path="url(#clip0x6080026a9480)"><text xml:space="preserve" font-family="ArialMT,Arial" font-size="36.0" fill="#FEFFFF" transform="matrix(1.00, 0.00, -0.00, -1.00, 186.9, 74.3)">N</text><text xml:space="preserve" font-family="ArialMT,Arial" font-size="36.0" fill="#FEFFFF" transform="matrix(1.00, 0.00, -0.00, -1.00, 212.9, 74.3)">รก</text><text xml:space="preserve" font-family="ArialMT,Arial" font-size="36.0" fill="#FEFFFF" transform="matrix(1.00, 0.00, -0.00, -1.00, 232.9, 74.3)">v</text><text xml:space="preserve" font-family="ArialMT,Arial" font-size="36.0" fill="#FEFFFF" transform="matrix(1.00, 0.00, -0.00, -1.00, 250.9, 74.3)">r</text><text xml:space="preserve" font-family="ArialMT,Arial" font-size="36.0" fill="#FEFFFF" transform="matrix(1.00, 0.00, -0.00, -1.00, 262.9, 74.3)">h</text></g></g></g></svg>