<?xml version="1.0" encoding="UTF-8" standalone="no"?><svg xmlns="http://www.w3.org/2000/svg" xmlns:xlink="http://www.w3.org/1999/xlink" clip-rule="evenodd" stroke-miterlimit="10" viewBox="0 0 274 174"><desc>SVG generated by Keynote</desc><defs></defs><g transform="matrix(1.00, 0.00, -0.00, -1.00, 0.0, 174.0)"><g><clipPath id="clip0x6080026b8420"><path d="M 0.9 0.2 L 273.1 0.2 L 273.1 173.3 L 0.9 173.3 Z M 0.9 0.2 "></path></clipPath><g clip-path="url(#clip0x6080026b8420)"><path d="M 1.9 16.2 L 2.0 157.3 C 2.0 165.5 8.6 172.0 16.9 172.0 L 257.1 172.0 C 265.4 172.0 272.0 165.5 272.0 157.3 L 272.0 16.2 C 272.0 7.9 265.4 1.0 257.1 1.0 L 16.9 1.0 C 8.6 1.0 1.9 7.9 1.9 16.2 Z M 1.9 16.2 " fill="#5B6876"></path></g></g><g><clipPath id="clip0x6080026b88a0"><path d="M 78.8 51.3 L 195.2 51.3 L 195.2 122.2 L 78.8 122.2 Z M 78.8 51.3 "></path></clipPath><g clip-path="url(#clip0x6080026b88a0)"><text xml:space="preserve" font-family="SourceSansPro-Light,Source Sans Pro" font-size="38.0" fill="#FEFFFF" transform="matrix(1.00, 0.00, -0.00, -1.00, 91.3, 73.6)">N</text><text xml:space="preserve" font-family="SourceSansPro-Light,Source Sans Pro" font-size="38.0" fill="#FEFFFF" transform="matrix(1.00, 0.00, -0.00, -1.00, 115.2, 73.6)">รก</text><text xml:space="preserve" font-family="SourceSansPro-Light,Source Sans Pro" font-size="38.0" fill="#FEFFFF" transform="matrix(1.00, 0.00, -0.00, -1.00, 134.1, 73.6)">v</text><text xml:space="preserve" font-family="SourceSansPro-Light,Source Sans Pro" font-size="38.0" fill="#FEFFFF" transform="matrix(1.00, 0.00, -0.00, -1.00, 150.6, 73.6)">r</text><text xml:space="preserve" font-family="SourceSansPro-Light,Source Sans Pro" font-size="38.0" fill="#FEFFFF" transform="matrix(1.00, 0.00, -0.00, -1.00, 162.7, 73.6)">h</text></g></g></g></svg>