<?xml version="1.0" encoding="UTF-8" standalone="no"?><svg xmlns="http://www.w3.org/2000/svg" xmlns:xlink="http://www.w3.org/1999/xlink" clip-rule="evenodd" stroke-miterlimit="10" viewBox="0 0 551 85"><desc>SVG generated by Keynote</desc><defs></defs><g transform="matrix(1.00, 0.00, -0.00, -1.00, 0.0, 85.0)"><text xml:space="preserve" font-family="ArialMT,Arial" font-size="90.0" fill="#5BA1A6" transform="matrix(1.00, 0.00, -0.00, -1.00, -5.7, 19.0)">P</text><text xml:space="preserve" font-family="ArialMT,Arial" font-size="90.0" fill="#5BA1A6" transform="matrix(1.00, 0.00, -0.00, -1.00, 54.4, 19.0)">o</text><text xml:space="preserve" font-family="ArialMT,Arial" font-size="90.0" fill="#5BA1A6" transform="matrix(1.00, 0.00, -0.00, -1.00, 104.4, 19.0)">s</text><text xml:space="preserve" font-family="ArialMT,Arial" font-size="90.0" fill="#5BA1A6" transform="matrix(1.00, 0.00, -0.00, -1.00, 149.4, 19.0)">t</text><text xml:space="preserve" font-family="ArialMT,Arial" font-size="90.0" fill="#5BA1A6" transform="matrix(1.00, 0.00, -0.00, -1.00, 174.4, 19.0)">u</text><text xml:space="preserve" font-family="ArialMT,Arial" font-size="90.0" fill="#5BA1A6" transform="matrix(1.00, 0.00, -0.00, -1.00, 224.5, 19.0)">p</text><text xml:space="preserve" font-family="ArialMT,Arial" font-size="90.0" fill="#5BA1A6" transform="matrix(1.00, 0.00, -0.00, -1.00, 274.6, 19.0)"> </text><text xml:space="preserve" font-family="ArialMT,Arial" font-size="90.0" fill="#5BA1A6" transform="matrix(1.00, 0.00, -0.00, -1.00, 299.5, 19.0)">ř</text><text xml:space="preserve" font-family="ArialMT,Arial" font-size="90.0" fill="#5BA1A6" transform="matrix(1.00, 0.00, -0.00, -1.00, 329.5, 19.0)">e</text><text xml:space="preserve" font-family="ArialMT,Arial" font-size="90.0" fill="#5BA1A6" transform="matrix(1.00, 0.00, -0.00, -1.00, 379.6, 19.0)">š</text><text xml:space="preserve" font-family="ArialMT,Arial" font-size="90.0" fill="#5BA1A6" transform="matrix(1.00, 0.00, -0.00, -1.00, 424.6, 19.0)">e</text><text xml:space="preserve" font-family="ArialMT,Arial" font-size="90.0" fill="#5BA1A6" transform="matrix(1.00, 0.00, -0.00, -1.00, 474.7, 19.0)">n</text><text xml:space="preserve" font-family="ArialMT,Arial" font-size="90.0" fill="#5BA1A6" transform="matrix(1.00, 0.00, -0.00, -1.00, 524.7, 19.0)">í</text></g></svg>