<?xml version="1.0" encoding="UTF-8" standalone="no"?><svg xmlns="http://www.w3.org/2000/svg" xmlns:xlink="http://www.w3.org/1999/xlink" clip-rule="evenodd" stroke-miterlimit="10" viewBox="0 0 1116 681"><desc>SVG generated by Keynote</desc><defs></defs><g transform="matrix(1.00, 0.00, -0.00, -1.00, 0.0, 681.0)"><text xml:space="preserve" font-family="ArialMT,Arial" font-size="35.2" fill="#FEFFFF" transform="matrix(1.00, 0.00, -0.00, -1.00, 0.2, 649.3)">•</text><text xml:space="preserve" font-family="ArialMT,Arial" font-size="47.0" fill="#FEFFFF" transform="matrix(1.00, 0.00, -0.00, -1.00, 50.2, 644.5)">Z</text><text xml:space="preserve" font-family="ArialMT,Arial" font-size="47.0" fill="#FEFFFF" transform="matrix(1.00, 0.00, -0.00, -1.00, 78.9, 644.5)">m</text><text xml:space="preserve" font-family="ArialMT,Arial" font-size="47.0" fill="#FEFFFF" transform="matrix(1.00, 0.00, -0.00, -1.00, 118.1, 644.5)">ě</text><text xml:space="preserve" font-family="ArialMT,Arial" font-size="47.0" fill="#FEFFFF" transform="matrix(1.00, 0.00, -0.00, -1.00, 144.2, 644.5)">n</text><text xml:space="preserve" font-family="ArialMT,Arial" font-size="47.0" fill="#FEFFFF" transform="matrix(1.00, 0.00, -0.00, -1.00, 170.4, 644.5)">a</text><text xml:space="preserve" font-family="ArialMT,Arial" font-size="47.0" fill="#FEFFFF" transform="matrix(1.00, 0.00, -0.00, -1.00, 196.5, 644.5)"> </text><text xml:space="preserve" font-family="ArialMT,Arial" font-size="47.0" fill="#FEFFFF" transform="matrix(1.00, 0.00, -0.00, -1.00, 209.5, 644.5)">s</text><text xml:space="preserve" font-family="ArialMT,Arial" font-size="47.0" fill="#FEFFFF" transform="matrix(1.00, 0.00, -0.00, -1.00, 233.0, 644.5)">t</text><text xml:space="preserve" font-family="ArialMT,Arial" font-size="47.0" fill="#FEFFFF" transform="matrix(1.00, 0.00, -0.00, -1.00, 246.1, 644.5)">a</text><text xml:space="preserve" font-family="ArialMT,Arial" font-size="47.0" fill="#FEFFFF" transform="matrix(1.00, 0.00, -0.00, -1.00, 272.2, 644.5)">v</text><text xml:space="preserve" font-family="ArialMT,Arial" font-size="47.0" fill="#FEFFFF" transform="matrix(1.00, 0.00, -0.00, -1.00, 295.7, 644.5)">u</text><text xml:space="preserve" font-family="ArialMT,Arial" font-size="47.0" fill="#FEFFFF" transform="matrix(1.00, 0.00, -0.00, -1.00, 321.9, 644.5)"> </text><text xml:space="preserve" font-family="ArialMT,Arial" font-size="47.0" fill="#FEFFFF" transform="matrix(1.00, 0.00, -0.00, -1.00, 334.9, 644.5)">s</text><text xml:space="preserve" font-family="ArialMT,Arial" font-size="47.0" fill="#FEFFFF" transform="matrix(1.00, 0.00, -0.00, -1.00, 358.4, 644.5)">e</text><text xml:space="preserve" font-family="ArialMT,Arial" font-size="47.0" fill="#FEFFFF" transform="matrix(1.00, 0.00, -0.00, -1.00, 384.6, 644.5)"> </text><text xml:space="preserve" font-family="ArialMT,Arial" font-size="47.0" fill="#FEFFFF" transform="matrix(1.00, 0.00, -0.00, -1.00, 397.6, 644.5)">n</text><text xml:space="preserve" font-family="ArialMT,Arial" font-size="47.0" fill="#FEFFFF" transform="matrix(1.00, 0.00, -0.00, -1.00, 423.8, 644.5)">e</text><text xml:space="preserve" font-family="ArialMT,Arial" font-size="47.0" fill="#FEFFFF" transform="matrix(1.00, 0.00, -0.00, -1.00, 449.9, 644.5)">m</text><text xml:space="preserve" font-family="ArialMT,Arial" font-size="47.0" fill="#FEFFFF" transform="matrix(1.00, 0.00, -0.00, -1.00, 489.1, 644.5)">ů</text><text xml:space="preserve" font-family="ArialMT,Arial" font-size="47.0" fill="#FEFFFF" transform="matrix(1.00, 0.00, -0.00, -1.00, 515.2, 644.5)">ž</text><text xml:space="preserve" font-family="ArialMT,Arial" font-size="47.0" fill="#FEFFFF" transform="matrix(1.00, 0.00, -0.00, -1.00, 538.7, 644.5)">e</text><text xml:space="preserve" font-family="ArialMT,Arial" font-size="47.0" fill="#FEFFFF" transform="matrix(1.00, 0.00, -0.00, -1.00, 564.9, 644.5)"> </text><text xml:space="preserve" font-family="ArialMT,Arial" font-size="47.0" fill="#FEFFFF" transform="matrix(1.00, 0.00, -0.00, -1.00, 577.9, 644.5)">s</text><text xml:space="preserve" font-family="ArialMT,Arial" font-size="47.0" fill="#FEFFFF" transform="matrix(1.00, 0.00, -0.00, -1.00, 601.4, 644.5)">t</text><text xml:space="preserve" font-family="ArialMT,Arial" font-size="47.0" fill="#FEFFFF" transform="matrix(1.00, 0.00, -0.00, -1.00, 614.5, 644.5)">á</text><text xml:space="preserve" font-family="ArialMT,Arial" font-size="47.0" fill="#FEFFFF" transform="matrix(1.00, 0.00, -0.00, -1.00, 640.6, 644.5)">t</text><text xml:space="preserve" font-family="ArialMT,Arial" font-size="47.0" fill="#FEFFFF" transform="matrix(1.00, 0.00, -0.00, -1.00, 653.7, 644.5)"> </text><text xml:space="preserve" font-family="ArialMT,Arial" font-size="47.0" fill="#FEFFFF" transform="matrix(1.00, 0.00, -0.00, -1.00, 666.7, 644.5)"> </text><text xml:space="preserve" font-family="ArialMT,Arial" font-size="47.0" fill="#FEFFFF" transform="matrix(1.00, 0.00, -0.00, -1.00, 679.8, 644.5)">o</text><text xml:space="preserve" font-family="ArialMT,Arial" font-size="47.0" fill="#FEFFFF" transform="matrix(1.00, 0.00, -0.00, -1.00, 705.9, 644.5)">m</text><text xml:space="preserve" font-family="ArialMT,Arial" font-size="47.0" fill="#FEFFFF" transform="matrix(1.00, 0.00, -0.00, -1.00, 745.1, 644.5)">y</text><text xml:space="preserve" font-family="ArialMT,Arial" font-size="47.0" fill="#FEFFFF" transform="matrix(1.00, 0.00, -0.00, -1.00, 768.6, 644.5)">l</text><text xml:space="preserve" font-family="ArialMT,Arial" font-size="47.0" fill="#FEFFFF" transform="matrix(1.00, 0.00, -0.00, -1.00, 779.0, 644.5)">e</text><text xml:space="preserve" font-family="ArialMT,Arial" font-size="47.0" fill="#FEFFFF" transform="matrix(1.00, 0.00, -0.00, -1.00, 805.2, 644.5)">m</text><text xml:space="preserve" font-family="ArialMT,Arial" font-size="47.0" fill="#FEFFFF" transform="matrix(1.00, 0.00, -0.00, -1.00, 844.3, 644.5)"> </text><text xml:space="preserve" font-family="ArialMT,Arial" font-size="47.0" fill="#FEFFFF" transform="matrix(1.00, 0.00, -0.00, -1.00, 857.4, 644.5)">(</text><text xml:space="preserve" font-family="ArialMT,Arial" font-size="47.0" fill="#FEFFFF" transform="matrix(1.00, 0.00, -0.00, -1.00, 873.0, 644.5)">p</text><text xml:space="preserve" font-family="ArialMT,Arial" font-size="47.0" fill="#FEFFFF" transform="matrix(1.00, 0.00, -0.00, -1.00, 899.2, 644.5)">o</text><text xml:space="preserve" font-family="ArialMT,Arial" font-size="47.0" fill="#FEFFFF" transform="matrix(1.00, 0.00, -0.00, -1.00, 925.3, 644.5)">t</text><text xml:space="preserve" font-family="ArialMT,Arial" font-size="47.0" fill="#FEFFFF" transform="matrix(1.00, 0.00, -0.00, -1.00, 938.4, 644.5)">v</text><text xml:space="preserve" font-family="ArialMT,Arial" font-size="47.0" fill="#FEFFFF" transform="matrix(1.00, 0.00, -0.00, -1.00, 961.9, 644.5)">r</text><text xml:space="preserve" font-family="ArialMT,Arial" font-size="47.0" fill="#FEFFFF" transform="matrix(1.00, 0.00, -0.00, -1.00, 977.5, 644.5)">z</text><text xml:space="preserve" font-family="ArialMT,Arial" font-size="47.0" fill="#FEFFFF" transform="matrix(1.00, 0.00, -0.00, -1.00, 1001.0, 644.5)">o</text><text xml:space="preserve" font-family="ArialMT,Arial" font-size="47.0" fill="#FEFFFF" transform="matrix(1.00, 0.00, -0.00, -1.00, 1027.2, 644.5)">v</text><text xml:space="preserve" font-family="ArialMT,Arial" font-size="47.0" fill="#FEFFFF" transform="matrix(1.00, 0.00, -0.00, -1.00, 1050.7, 644.5)">a</text><text xml:space="preserve" font-family="ArialMT,Arial" font-size="47.0" fill="#FEFFFF" transform="matrix(1.00, 0.00, -0.00, -1.00, 1076.8, 644.5)">c</text><text xml:space="preserve" font-family="ArialMT,Arial" font-size="47.0" fill="#FEFFFF" transform="matrix(1.00, 0.00, -0.00, -1.00, 1100.3, 644.5)">í</text><text xml:space="preserve" font-family="ArialMT,Arial" font-size="47.0" fill="#FEFFFF" transform="matrix(1.00, 0.00, -0.00, -1.00, 1113.4, 644.5)"> </text><text xml:space="preserve" font-family="ArialMT,Arial" font-size="47.0" fill="#FEFFFF" transform="matrix(1.00, 0.00, -0.00, -1.00, 50.2, 594.8)">m</text><text xml:space="preserve" font-family="ArialMT,Arial" font-size="47.0" fill="#FEFFFF" transform="matrix(1.00, 0.00, -0.00, -1.00, 89.4, 594.8)">e</text><text xml:space="preserve" font-family="ArialMT,Arial" font-size="47.0" fill="#FEFFFF" transform="matrix(1.00, 0.00, -0.00, -1.00, 115.5, 594.8)">c</text><text xml:space="preserve" font-family="ArialMT,Arial" font-size="47.0" fill="#FEFFFF" transform="matrix(1.00, 0.00, -0.00, -1.00, 139.0, 594.8)">h</text><text xml:space="preserve" font-family="ArialMT,Arial" font-size="47.0" fill="#FEFFFF" transform="matrix(1.00, 0.00, -0.00, -1.00, 165.2, 594.8)">a</text><text xml:space="preserve" font-family="ArialMT,Arial" font-size="47.0" fill="#FEFFFF" transform="matrix(1.00, 0.00, -0.00, -1.00, 191.3, 594.8)">n</text><text xml:space="preserve" font-family="ArialMT,Arial" font-size="47.0" fill="#FEFFFF" transform="matrix(1.00, 0.00, -0.00, -1.00, 217.4, 594.8)">i</text><text xml:space="preserve" font-family="ArialMT,Arial" font-size="47.0" fill="#FEFFFF" transform="matrix(1.00, 0.00, -0.00, -1.00, 227.9, 594.8)">s</text><text xml:space="preserve" font-family="ArialMT,Arial" font-size="47.0" fill="#FEFFFF" transform="matrix(1.00, 0.00, -0.00, -1.00, 251.4, 594.8)">m</text><text xml:space="preserve" font-family="ArialMT,Arial" font-size="47.0" fill="#FEFFFF" transform="matrix(1.00, 0.00, -0.00, -1.00, 290.6, 594.8)">u</text><text xml:space="preserve" font-family="ArialMT,Arial" font-size="47.0" fill="#FEFFFF" transform="matrix(1.00, 0.00, -0.00, -1.00, 316.7, 594.8)">s</text><text xml:space="preserve" font-family="ArialMT,Arial" font-size="47.0" fill="#FEFFFF" transform="matrix(1.00, 0.00, -0.00, -1.00, 340.2, 594.8)">)</text><text xml:space="preserve" font-family="ArialMT,Arial" font-size="47.0" fill="#FEFFFF" transform="matrix(1.00, 0.00, -0.00, -1.00, 355.9, 594.8)"> </text><text xml:space="preserve" font-family="ArialMT,Arial" font-size="35.2" fill="#FEFFFF" transform="matrix(1.00, 0.00, -0.00, -1.00, 0.2, 491.0)">•</text><text xml:space="preserve" font-family="ArialMT,Arial" font-size="47.0" fill="#FEFFFF" transform="matrix(1.00, 0.00, -0.00, -1.00, 50.2, 486.2)">P</text><text xml:space="preserve" font-family="ArialMT,Arial" font-size="47.0" fill="#FEFFFF" transform="matrix(1.00, 0.00, -0.00, -1.00, 81.6, 486.2)">r</text><text xml:space="preserve" font-family="ArialMT,Arial" font-size="47.0" fill="#FEFFFF" transform="matrix(1.00, 0.00, -0.00, -1.00, 97.2, 486.2)">ů</text><text xml:space="preserve" font-family="ArialMT,Arial" font-size="47.0" fill="#FEFFFF" transform="matrix(1.00, 0.00, -0.00, -1.00, 123.4, 486.2)">v</text><text xml:space="preserve" font-family="ArialMT,Arial" font-size="47.0" fill="#FEFFFF" transform="matrix(1.00, 0.00, -0.00, -1.00, 146.9, 486.2)">o</text><text xml:space="preserve" font-family="ArialMT,Arial" font-size="47.0" fill="#FEFFFF" transform="matrix(1.00, 0.00, -0.00, -1.00, 173.0, 486.2)">d</text><text xml:space="preserve" font-family="ArialMT,Arial" font-size="47.0" fill="#FEFFFF" transform="matrix(1.00, 0.00, -0.00, -1.00, 199.1, 486.2)">c</text><text xml:space="preserve" font-family="ArialMT,Arial" font-size="47.0" fill="#FEFFFF" transform="matrix(1.00, 0.00, -0.00, -1.00, 222.6, 486.2)">i</text><text xml:space="preserve" font-family="ArialMT,Arial" font-size="47.0" fill="#FEFFFF" transform="matrix(1.00, 0.00, -0.00, -1.00, 233.1, 486.2)"> </text><text xml:space="preserve" font-family="ArialMT,Arial" font-size="47.0" fill="#FEFFFF" transform="matrix(1.00, 0.00, -0.00, -1.00, 246.1, 486.2)">m</text><text xml:space="preserve" font-family="ArialMT,Arial" font-size="47.0" fill="#FEFFFF" transform="matrix(1.00, 0.00, -0.00, -1.00, 285.3, 486.2)">u</text><text xml:space="preserve" font-family="ArialMT,Arial" font-size="47.0" fill="#FEFFFF" transform="matrix(1.00, 0.00, -0.00, -1.00, 311.4, 486.2)">s</text><text xml:space="preserve" font-family="ArialMT,Arial" font-size="47.0" fill="#FEFFFF" transform="matrix(1.00, 0.00, -0.00, -1.00, 334.9, 486.2)">í</text><text xml:space="preserve" font-family="ArialMT,Arial" font-size="47.0" fill="#FEFFFF" transform="matrix(1.00, 0.00, -0.00, -1.00, 348.0, 486.2)"> </text><text xml:space="preserve" font-family="ArialMT,Arial" font-size="47.0" fill="#FEFFFF" transform="matrix(1.00, 0.00, -0.00, -1.00, 361.0, 486.2)">v</text><text xml:space="preserve" font-family="ArialMT,Arial" font-size="47.0" fill="#FEFFFF" transform="matrix(1.00, 0.00, -0.00, -1.00, 384.5, 486.2)">ě</text><text xml:space="preserve" font-family="ArialMT,Arial" font-size="47.0" fill="#FEFFFF" transform="matrix(1.00, 0.00, -0.00, -1.00, 410.7, 486.2)">d</text><text xml:space="preserve" font-family="ArialMT,Arial" font-size="47.0" fill="#FEFFFF" transform="matrix(1.00, 0.00, -0.00, -1.00, 436.8, 486.2)">ě</text><text xml:space="preserve" font-family="ArialMT,Arial" font-size="47.0" fill="#FEFFFF" transform="matrix(1.00, 0.00, -0.00, -1.00, 463.0, 486.2)">t</text><text xml:space="preserve" font-family="ArialMT,Arial" font-size="47.0" fill="#FEFFFF" transform="matrix(1.00, 0.00, -0.00, -1.00, 476.0, 486.2)"> </text><text xml:space="preserve" font-family="ArialMT,Arial" font-size="47.0" fill="#FEFFFF" transform="matrix(1.00, 0.00, -0.00, -1.00, 489.1, 486.2)">č</text><text xml:space="preserve" font-family="ArialMT,Arial" font-size="47.0" fill="#FEFFFF" transform="matrix(1.00, 0.00, -0.00, -1.00, 512.6, 486.2)">a</text><text xml:space="preserve" font-family="ArialMT,Arial" font-size="47.0" fill="#FEFFFF" transform="matrix(1.00, 0.00, -0.00, -1.00, 538.7, 486.2)">s</text><text xml:space="preserve" font-family="ArialMT,Arial" font-size="47.0" fill="#FEFFFF" transform="matrix(1.00, 0.00, -0.00, -1.00, 562.2, 486.2)"> </text><text xml:space="preserve" font-family="ArialMT,Arial" font-size="47.0" fill="#FEFFFF" transform="matrix(1.00, 0.00, -0.00, -1.00, 575.3, 486.2)">s</text><text xml:space="preserve" font-family="ArialMT,Arial" font-size="47.0" fill="#FEFFFF" transform="matrix(1.00, 0.00, -0.00, -1.00, 598.8, 486.2)">t</text><text xml:space="preserve" font-family="ArialMT,Arial" font-size="47.0" fill="#FEFFFF" transform="matrix(1.00, 0.00, -0.00, -1.00, 611.8, 486.2)">r</text><text xml:space="preserve" font-family="ArialMT,Arial" font-size="47.0" fill="#FEFFFF" transform="matrix(1.00, 0.00, -0.00, -1.00, 627.5, 486.2)">á</text><text xml:space="preserve" font-family="ArialMT,Arial" font-size="47.0" fill="#FEFFFF" transform="matrix(1.00, 0.00, -0.00, -1.00, 653.6, 486.2)">v</text><text xml:space="preserve" font-family="ArialMT,Arial" font-size="47.0" fill="#FEFFFF" transform="matrix(1.00, 0.00, -0.00, -1.00, 677.1, 486.2)">e</text><text xml:space="preserve" font-family="ArialMT,Arial" font-size="47.0" fill="#FEFFFF" transform="matrix(1.00, 0.00, -0.00, -1.00, 703.3, 486.2)">n</text><text xml:space="preserve" font-family="ArialMT,Arial" font-size="47.0" fill="#FEFFFF" transform="matrix(1.00, 0.00, -0.00, -1.00, 729.4, 486.2)">ý</text><text xml:space="preserve" font-family="ArialMT,Arial" font-size="47.0" fill="#FEFFFF" transform="matrix(1.00, 0.00, -0.00, -1.00, 752.9, 486.2)"> </text><text xml:space="preserve" font-family="ArialMT,Arial" font-size="47.0" fill="#FEFFFF" transform="matrix(1.00, 0.00, -0.00, -1.00, 766.0, 486.2)">n</text><text xml:space="preserve" font-family="ArialMT,Arial" font-size="47.0" fill="#FEFFFF" transform="matrix(1.00, 0.00, -0.00, -1.00, 792.1, 486.2)">a</text><text xml:space="preserve" font-family="ArialMT,Arial" font-size="47.0" fill="#FEFFFF" transform="matrix(1.00, 0.00, -0.00, -1.00, 818.3, 486.2)"> </text><text xml:space="preserve" font-family="ArialMT,Arial" font-size="47.0" fill="#FEFFFF" transform="matrix(1.00, 0.00, -0.00, -1.00, 831.3, 486.2)">s</text><text xml:space="preserve" font-family="ArialMT,Arial" font-size="47.0" fill="#FEFFFF" transform="matrix(1.00, 0.00, -0.00, -1.00, 854.8, 486.2)">t</text><text xml:space="preserve" font-family="ArialMT,Arial" font-size="47.0" fill="#FEFFFF" transform="matrix(1.00, 0.00, -0.00, -1.00, 867.9, 486.2)">a</text><text xml:space="preserve" font-family="ArialMT,Arial" font-size="47.0" fill="#FEFFFF" transform="matrix(1.00, 0.00, -0.00, -1.00, 894.0, 486.2)">n</text><text xml:space="preserve" font-family="ArialMT,Arial" font-size="47.0" fill="#FEFFFF" transform="matrix(1.00, 0.00, -0.00, -1.00, 920.2, 486.2)">o</text><text xml:space="preserve" font-family="ArialMT,Arial" font-size="47.0" fill="#FEFFFF" transform="matrix(1.00, 0.00, -0.00, -1.00, 946.3, 486.2)">v</text><text xml:space="preserve" font-family="ArialMT,Arial" font-size="47.0" fill="#FEFFFF" transform="matrix(1.00, 0.00, -0.00, -1.00, 969.8, 486.2)">i</text><text xml:space="preserve" font-family="ArialMT,Arial" font-size="47.0" fill="#FEFFFF" transform="matrix(1.00, 0.00, -0.00, -1.00, 980.3, 486.2)">š</text><text xml:space="preserve" font-family="ArialMT,Arial" font-size="47.0" fill="#FEFFFF" transform="matrix(1.00, 0.00, -0.00, -1.00, 1003.8, 486.2)">t</text><text xml:space="preserve" font-family="ArialMT,Arial" font-size="47.0" fill="#FEFFFF" transform="matrix(1.00, 0.00, -0.00, -1.00, 1016.8, 486.2)">i</text><text xml:space="preserve" font-family="ArialMT,Arial" font-size="47.0" fill="#FEFFFF" transform="matrix(1.00, 0.00, -0.00, -1.00, 1027.3, 486.2)"> </text><text xml:space="preserve" font-family="ArialMT,Arial" font-size="35.2" fill="#FEFFFF" transform="matrix(1.00, 0.00, -0.00, -1.00, 0.2, 382.4)">•</text><text xml:space="preserve" font-family="ArialMT,Arial" font-size="47.0" fill="#FEFFFF" transform="matrix(1.00, 0.00, -0.00, -1.00, 50.2, 377.5)">N</text><text xml:space="preserve" font-family="ArialMT,Arial" font-size="47.0" fill="#FEFFFF" transform="matrix(1.00, 0.00, -0.00, -1.00, 84.2, 377.5)">e</text><text xml:space="preserve" font-family="ArialMT,Arial" font-size="47.0" fill="#FEFFFF" transform="matrix(1.00, 0.00, -0.00, -1.00, 110.3, 377.5)">z</text><text xml:space="preserve" font-family="ArialMT,Arial" font-size="47.0" fill="#FEFFFF" transform="matrix(1.00, 0.00, -0.00, -1.00, 133.8, 377.5)">a</text><text xml:space="preserve" font-family="ArialMT,Arial" font-size="47.0" fill="#FEFFFF" transform="matrix(1.00, 0.00, -0.00, -1.00, 160.0, 377.5)">h</text><text xml:space="preserve" font-family="ArialMT,Arial" font-size="47.0" fill="#FEFFFF" transform="matrix(1.00, 0.00, -0.00, -1.00, 186.1, 377.5)">l</text><text xml:space="preserve" font-family="ArialMT,Arial" font-size="47.0" fill="#FEFFFF" transform="matrix(1.00, 0.00, -0.00, -1.00, 196.6, 377.5)">c</text><text xml:space="preserve" font-family="ArialMT,Arial" font-size="47.0" fill="#FEFFFF" transform="matrix(1.00, 0.00, -0.00, -1.00, 220.1, 377.5)">o</text><text xml:space="preserve" font-family="ArialMT,Arial" font-size="47.0" fill="#FEFFFF" transform="matrix(1.00, 0.00, -0.00, -1.00, 246.2, 377.5)">v</text><text xml:space="preserve" font-family="ArialMT,Arial" font-size="47.0" fill="#FEFFFF" transform="matrix(1.00, 0.00, -0.00, -1.00, 269.7, 377.5)">a</text><text xml:space="preserve" font-family="ArialMT,Arial" font-size="47.0" fill="#FEFFFF" transform="matrix(1.00, 0.00, -0.00, -1.00, 295.8, 377.5)">t</text><text xml:space="preserve" font-family="ArialMT,Arial" font-size="47.0" fill="#FEFFFF" transform="matrix(1.00, 0.00, -0.00, -1.00, 308.9, 377.5)"> </text><text xml:space="preserve" font-family="ArialMT,Arial" font-size="47.0" fill="#FEFFFF" transform="matrix(1.00, 0.00, -0.00, -1.00, 321.9, 377.5)">i</text><text xml:space="preserve" font-family="ArialMT,Arial" font-size="47.0" fill="#FEFFFF" transform="matrix(1.00, 0.00, -0.00, -1.00, 332.4, 377.5)">n</text><text xml:space="preserve" font-family="ArialMT,Arial" font-size="47.0" fill="#FEFFFF" transform="matrix(1.00, 0.00, -0.00, -1.00, 358.5, 377.5)">f</text><text xml:space="preserve" font-family="ArialMT,Arial" font-size="47.0" fill="#FEFFFF" transform="matrix(1.00, 0.00, -0.00, -1.00, 371.6, 377.5)">o</text><text xml:space="preserve" font-family="ArialMT,Arial" font-size="47.0" fill="#FEFFFF" transform="matrix(1.00, 0.00, -0.00, -1.00, 397.7, 377.5)">r</text><text xml:space="preserve" font-family="ArialMT,Arial" font-size="47.0" fill="#FEFFFF" transform="matrix(1.00, 0.00, -0.00, -1.00, 413.4, 377.5)">m</text><text xml:space="preserve" font-family="ArialMT,Arial" font-size="47.0" fill="#FEFFFF" transform="matrix(1.00, 0.00, -0.00, -1.00, 452.5, 377.5)">a</text><text xml:space="preserve" font-family="ArialMT,Arial" font-size="47.0" fill="#FEFFFF" transform="matrix(1.00, 0.00, -0.00, -1.00, 478.7, 377.5)">c</text><text xml:space="preserve" font-family="ArialMT,Arial" font-size="47.0" fill="#FEFFFF" transform="matrix(1.00, 0.00, -0.00, -1.00, 502.2, 377.5)">e</text><text xml:space="preserve" font-family="ArialMT,Arial" font-size="47.0" fill="#FEFFFF" transform="matrix(1.00, 0.00, -0.00, -1.00, 528.3, 377.5)">m</text><text xml:space="preserve" font-family="ArialMT,Arial" font-size="47.0" fill="#FEFFFF" transform="matrix(1.00, 0.00, -0.00, -1.00, 567.5, 377.5)">i</text><text xml:space="preserve" font-family="ArialMT,Arial" font-size="47.0" fill="#FEFFFF" transform="matrix(1.00, 0.00, -0.00, -1.00, 577.9, 377.5)"> </text><text xml:space="preserve" font-family="ArialMT,Arial" font-size="47.0" fill="#FEFFFF" transform="matrix(1.00, 0.00, -0.00, -1.00, 591.0, 377.5)">(</text><text xml:space="preserve" font-family="ArialMT,Arial" font-size="47.0" fill="#FEFFFF" transform="matrix(1.00, 0.00, -0.00, -1.00, 606.6, 377.5)">m</text><text xml:space="preserve" font-family="ArialMT,Arial" font-size="47.0" fill="#FEFFFF" transform="matrix(1.00, 0.00, -0.00, -1.00, 645.8, 377.5)">i</text><text xml:space="preserve" font-family="ArialMT,Arial" font-size="47.0" fill="#FEFFFF" transform="matrix(1.00, 0.00, -0.00, -1.00, 656.2, 377.5)">n</text><text xml:space="preserve" font-family="ArialMT,Arial" font-size="47.0" fill="#FEFFFF" transform="matrix(1.00, 0.00, -0.00, -1.00, 682.4, 377.5)">i</text><text xml:space="preserve" font-family="ArialMT,Arial" font-size="47.0" fill="#FEFFFF" transform="matrix(1.00, 0.00, -0.00, -1.00, 692.8, 377.5)">m</text><text xml:space="preserve" font-family="ArialMT,Arial" font-size="47.0" fill="#FEFFFF" transform="matrix(1.00, 0.00, -0.00, -1.00, 732.0, 377.5)">a</text><text xml:space="preserve" font-family="ArialMT,Arial" font-size="47.0" fill="#FEFFFF" transform="matrix(1.00, 0.00, -0.00, -1.00, 758.1, 377.5)">l</text><text xml:space="preserve" font-family="ArialMT,Arial" font-size="47.0" fill="#FEFFFF" transform="matrix(1.00, 0.00, -0.00, -1.00, 768.6, 377.5)">i</text><text xml:space="preserve" font-family="ArialMT,Arial" font-size="47.0" fill="#FEFFFF" transform="matrix(1.00, 0.00, -0.00, -1.00, 779.1, 377.5)">s</text><text xml:space="preserve" font-family="ArialMT,Arial" font-size="47.0" fill="#FEFFFF" transform="matrix(1.00, 0.00, -0.00, -1.00, 802.6, 377.5)">t</text><text xml:space="preserve" font-family="ArialMT,Arial" font-size="47.0" fill="#FEFFFF" transform="matrix(1.00, 0.00, -0.00, -1.00, 815.6, 377.5)">i</text><text xml:space="preserve" font-family="ArialMT,Arial" font-size="47.0" fill="#FEFFFF" transform="matrix(1.00, 0.00, -0.00, -1.00, 826.1, 377.5)">c</text><text xml:space="preserve" font-family="ArialMT,Arial" font-size="47.0" fill="#FEFFFF" transform="matrix(1.00, 0.00, -0.00, -1.00, 849.6, 377.5)">k</text><text xml:space="preserve" font-family="ArialMT,Arial" font-size="47.0" fill="#FEFFFF" transform="matrix(1.00, 0.00, -0.00, -1.00, 872.9, 377.5)">ý</text><text xml:space="preserve" font-family="ArialMT,Arial" font-size="47.0" fill="#FEFFFF" transform="matrix(1.00, 0.00, -0.00, -1.00, 896.4, 377.5)"> </text><text xml:space="preserve" font-family="ArialMT,Arial" font-size="47.0" fill="#FEFFFF" transform="matrix(1.00, 0.00, -0.00, -1.00, 909.5, 377.5)">d</text><text xml:space="preserve" font-family="ArialMT,Arial" font-size="47.0" fill="#FEFFFF" transform="matrix(1.00, 0.00, -0.00, -1.00, 935.6, 377.5)">e</text><text xml:space="preserve" font-family="ArialMT,Arial" font-size="47.0" fill="#FEFFFF" transform="matrix(1.00, 0.00, -0.00, -1.00, 961.8, 377.5)">s</text><text xml:space="preserve" font-family="ArialMT,Arial" font-size="47.0" fill="#FEFFFF" transform="matrix(1.00, 0.00, -0.00, -1.00, 985.3, 377.5)">i</text><text xml:space="preserve" font-family="ArialMT,Arial" font-size="47.0" fill="#FEFFFF" transform="matrix(1.00, 0.00, -0.00, -1.00, 995.7, 377.5)">g</text><text xml:space="preserve" font-family="ArialMT,Arial" font-size="47.0" fill="#FEFFFF" transform="matrix(1.00, 0.00, -0.00, -1.00, 1021.9, 377.5)">n</text><text xml:space="preserve" font-family="ArialMT,Arial" font-size="47.0" fill="#FEFFFF" transform="matrix(1.00, 0.00, -0.00, -1.00, 1048.0, 377.5)">)</text><text xml:space="preserve" font-family="ArialMT,Arial" font-size="47.0" fill="#FEFFFF" transform="matrix(1.00, 0.00, -0.00, -1.00, 1063.7, 377.5)"> </text><text xml:space="preserve" font-family="ArialMT,Arial" font-size="35.2" fill="#FEFFFF" transform="matrix(1.00, 0.00, -0.00, -1.00, 0.2, 273.7)">•</text><text xml:space="preserve" font-family="ArialMT,Arial" font-size="47.0" fill="#FEFFFF" transform="matrix(1.00, 0.00, -0.00, -1.00, 50.2, 268.9)">I</text><text xml:space="preserve" font-family="ArialMT,Arial" font-size="47.0" fill="#FEFFFF" transform="matrix(1.00, 0.00, -0.00, -1.00, 63.3, 268.9)">n</text><text xml:space="preserve" font-family="ArialMT,Arial" font-size="47.0" fill="#FEFFFF" transform="matrix(1.00, 0.00, -0.00, -1.00, 89.4, 268.9)">f</text><text xml:space="preserve" font-family="ArialMT,Arial" font-size="47.0" fill="#FEFFFF" transform="matrix(1.00, 0.00, -0.00, -1.00, 102.5, 268.9)">o</text><text xml:space="preserve" font-family="ArialMT,Arial" font-size="47.0" fill="#FEFFFF" transform="matrix(1.00, 0.00, -0.00, -1.00, 128.6, 268.9)">r</text><text xml:space="preserve" font-family="ArialMT,Arial" font-size="47.0" fill="#FEFFFF" transform="matrix(1.00, 0.00, -0.00, -1.00, 144.3, 268.9)">m</text><text xml:space="preserve" font-family="ArialMT,Arial" font-size="47.0" fill="#FEFFFF" transform="matrix(1.00, 0.00, -0.00, -1.00, 183.4, 268.9)">a</text><text xml:space="preserve" font-family="ArialMT,Arial" font-size="47.0" fill="#FEFFFF" transform="matrix(1.00, 0.00, -0.00, -1.00, 209.5, 268.9)">c</text><text xml:space="preserve" font-family="ArialMT,Arial" font-size="47.0" fill="#FEFFFF" transform="matrix(1.00, 0.00, -0.00, -1.00, 233.0, 268.9)">e</text><text xml:space="preserve" font-family="ArialMT,Arial" font-size="47.0" fill="#FEFFFF" transform="matrix(1.00, 0.00, -0.00, -1.00, 259.2, 268.9)"> </text><text xml:space="preserve" font-family="ArialMT,Arial" font-size="47.0" fill="#FEFFFF" transform="matrix(1.00, 0.00, -0.00, -1.00, 272.2, 268.9)">o</text><text xml:space="preserve" font-family="ArialMT,Arial" font-size="47.0" fill="#FEFFFF" transform="matrix(1.00, 0.00, -0.00, -1.00, 298.4, 268.9)"> </text><text xml:space="preserve" font-family="ArialMT,Arial" font-size="47.0" fill="#FEFFFF" transform="matrix(1.00, 0.00, -0.00, -1.00, 311.4, 268.9)">p</text><text xml:space="preserve" font-family="ArialMT,Arial" font-size="47.0" fill="#FEFFFF" transform="matrix(1.00, 0.00, -0.00, -1.00, 337.6, 268.9)">o</text><text xml:space="preserve" font-family="ArialMT,Arial" font-size="47.0" fill="#FEFFFF" transform="matrix(1.00, 0.00, -0.00, -1.00, 363.7, 268.9)">č</text><text xml:space="preserve" font-family="ArialMT,Arial" font-size="47.0" fill="#FEFFFF" transform="matrix(1.00, 0.00, -0.00, -1.00, 387.2, 268.9)">t</text><text xml:space="preserve" font-family="ArialMT,Arial" font-size="47.0" fill="#FEFFFF" transform="matrix(1.00, 0.00, -0.00, -1.00, 400.3, 268.9)">u</text><text xml:space="preserve" font-family="ArialMT,Arial" font-size="47.0" fill="#FEFFFF" transform="matrix(1.00, 0.00, -0.00, -1.00, 426.4, 268.9)"> </text><text xml:space="preserve" font-family="ArialMT,Arial" font-size="47.0" fill="#FEFFFF" transform="matrix(1.00, 0.00, -0.00, -1.00, 439.5, 268.9)">s</text><text xml:space="preserve" font-family="ArialMT,Arial" font-size="47.0" fill="#FEFFFF" transform="matrix(1.00, 0.00, -0.00, -1.00, 463.0, 268.9)">t</text><text xml:space="preserve" font-family="ArialMT,Arial" font-size="47.0" fill="#FEFFFF" transform="matrix(1.00, 0.00, -0.00, -1.00, 476.0, 268.9)">a</text><text xml:space="preserve" font-family="ArialMT,Arial" font-size="47.0" fill="#FEFFFF" transform="matrix(1.00, 0.00, -0.00, -1.00, 502.2, 268.9)">n</text><text xml:space="preserve" font-family="ArialMT,Arial" font-size="47.0" fill="#FEFFFF" transform="matrix(1.00, 0.00, -0.00, -1.00, 528.3, 268.9)">o</text><text xml:space="preserve" font-family="ArialMT,Arial" font-size="47.0" fill="#FEFFFF" transform="matrix(1.00, 0.00, -0.00, -1.00, 554.5, 268.9)">v</text><text xml:space="preserve" font-family="ArialMT,Arial" font-size="47.0" fill="#FEFFFF" transform="matrix(1.00, 0.00, -0.00, -1.00, 578.0, 268.9)">i</text><text xml:space="preserve" font-family="ArialMT,Arial" font-size="47.0" fill="#FEFFFF" transform="matrix(1.00, 0.00, -0.00, -1.00, 588.4, 268.9)">š</text><text xml:space="preserve" font-family="ArialMT,Arial" font-size="47.0" fill="#FEFFFF" transform="matrix(1.00, 0.00, -0.00, -1.00, 611.9, 268.9)">ť</text><text xml:space="preserve" font-family="ArialMT,Arial" font-size="47.0" fill="#FEFFFF" transform="matrix(1.00, 0.00, -0.00, -1.00, 629.6, 268.9)"> </text><text xml:space="preserve" font-family="ArialMT,Arial" font-size="47.0" fill="#FEFFFF" transform="matrix(1.00, 0.00, -0.00, -1.00, 642.6, 268.9)">p</text><text xml:space="preserve" font-family="ArialMT,Arial" font-size="47.0" fill="#FEFFFF" transform="matrix(1.00, 0.00, -0.00, -1.00, 668.8, 268.9)">ř</text><text xml:space="preserve" font-family="ArialMT,Arial" font-size="47.0" fill="#FEFFFF" transform="matrix(1.00, 0.00, -0.00, -1.00, 684.4, 268.9)">e</text><text xml:space="preserve" font-family="ArialMT,Arial" font-size="47.0" fill="#FEFFFF" transform="matrix(1.00, 0.00, -0.00, -1.00, 710.6, 268.9)">d</text><text xml:space="preserve" font-family="ArialMT,Arial" font-size="47.0" fill="#FEFFFF" transform="matrix(1.00, 0.00, -0.00, -1.00, 736.7, 268.9)"> </text><text xml:space="preserve" font-family="ArialMT,Arial" font-size="47.0" fill="#FEFFFF" transform="matrix(1.00, 0.00, -0.00, -1.00, 749.8, 268.9)">a</text><text xml:space="preserve" font-family="ArialMT,Arial" font-size="47.0" fill="#FEFFFF" transform="matrix(1.00, 0.00, -0.00, -1.00, 775.9, 268.9)"> </text><text xml:space="preserve" font-family="ArialMT,Arial" font-size="47.0" fill="#FEFFFF" transform="matrix(1.00, 0.00, -0.00, -1.00, 789.0, 268.9)">z</text><text xml:space="preserve" font-family="ArialMT,Arial" font-size="47.0" fill="#FEFFFF" transform="matrix(1.00, 0.00, -0.00, -1.00, 812.5, 268.9)">a</text><text xml:space="preserve" font-family="ArialMT,Arial" font-size="47.0" fill="#FEFFFF" transform="matrix(1.00, 0.00, -0.00, -1.00, 838.6, 268.9)"> </text><text xml:space="preserve" font-family="ArialMT,Arial" font-size="47.0" fill="#FEFFFF" transform="matrix(1.00, 0.00, -0.00, -1.00, 851.6, 268.9)">m</text><text xml:space="preserve" font-family="ArialMT,Arial" font-size="47.0" fill="#FEFFFF" transform="matrix(1.00, 0.00, -0.00, -1.00, 890.8, 268.9)">n</text><text xml:space="preserve" font-family="ArialMT,Arial" font-size="47.0" fill="#FEFFFF" transform="matrix(1.00, 0.00, -0.00, -1.00, 916.9, 268.9)">o</text><text xml:space="preserve" font-family="ArialMT,Arial" font-size="47.0" fill="#FEFFFF" transform="matrix(1.00, 0.00, -0.00, -1.00, 943.1, 268.9)">u</text><text xml:space="preserve" font-family="ArialMT,Arial" font-size="47.0" fill="#FEFFFF" transform="matrix(1.00, 0.00, -0.00, -1.00, 969.2, 268.9)"> </text><text xml:space="preserve" font-family="ArialMT,Arial" font-size="35.2" fill="#FEFFFF" transform="matrix(1.00, 0.00, -0.00, -1.00, 0.2, 165.0)">•</text><text xml:space="preserve" font-family="ArialMT,Arial" font-size="47.0" fill="#FEFFFF" transform="matrix(1.00, 0.00, -0.00, -1.00, 50.2, 160.2)">P</text><text xml:space="preserve" font-family="ArialMT,Arial" font-size="47.0" fill="#FEFFFF" transform="matrix(1.00, 0.00, -0.00, -1.00, 81.6, 160.2)">ř</text><text xml:space="preserve" font-family="ArialMT,Arial" font-size="47.0" fill="#FEFFFF" transform="matrix(1.00, 0.00, -0.00, -1.00, 97.2, 160.2)">e</text><text xml:space="preserve" font-family="ArialMT,Arial" font-size="47.0" fill="#FEFFFF" transform="matrix(1.00, 0.00, -0.00, -1.00, 123.4, 160.2)">h</text><text xml:space="preserve" font-family="ArialMT,Arial" font-size="47.0" fill="#FEFFFF" transform="matrix(1.00, 0.00, -0.00, -1.00, 149.5, 160.2)">l</text><text xml:space="preserve" font-family="ArialMT,Arial" font-size="47.0" fill="#FEFFFF" transform="matrix(1.00, 0.00, -0.00, -1.00, 160.0, 160.2)">e</text><text xml:space="preserve" font-family="ArialMT,Arial" font-size="47.0" fill="#FEFFFF" transform="matrix(1.00, 0.00, -0.00, -1.00, 186.1, 160.2)">d</text><text xml:space="preserve" font-family="ArialMT,Arial" font-size="47.0" fill="#FEFFFF" transform="matrix(1.00, 0.00, -0.00, -1.00, 212.2, 160.2)">o</text><text xml:space="preserve" font-family="ArialMT,Arial" font-size="47.0" fill="#FEFFFF" transform="matrix(1.00, 0.00, -0.00, -1.00, 238.4, 160.2)">v</text><text xml:space="preserve" font-family="ArialMT,Arial" font-size="47.0" fill="#FEFFFF" transform="matrix(1.00, 0.00, -0.00, -1.00, 261.9, 160.2)">á</text><text xml:space="preserve" font-family="ArialMT,Arial" font-size="47.0" fill="#FEFFFF" transform="matrix(1.00, 0.00, -0.00, -1.00, 288.0, 160.2)"> </text><text xml:space="preserve" font-family="ArialMT,Arial" font-size="47.0" fill="#FEFFFF" transform="matrix(1.00, 0.00, -0.00, -1.00, 301.1, 160.2)">o</text><text xml:space="preserve" font-family="ArialMT,Arial" font-size="47.0" fill="#FEFFFF" transform="matrix(1.00, 0.00, -0.00, -1.00, 327.2, 160.2)">b</text><text xml:space="preserve" font-family="ArialMT,Arial" font-size="47.0" fill="#FEFFFF" transform="matrix(1.00, 0.00, -0.00, -1.00, 353.4, 160.2)">r</text><text xml:space="preserve" font-family="ArialMT,Arial" font-size="47.0" fill="#FEFFFF" transform="matrix(1.00, 0.00, -0.00, -1.00, 369.0, 160.2)">a</text><text xml:space="preserve" font-family="ArialMT,Arial" font-size="47.0" fill="#FEFFFF" transform="matrix(1.00, 0.00, -0.00, -1.00, 395.2, 160.2)">z</text><text xml:space="preserve" font-family="ArialMT,Arial" font-size="47.0" fill="#FEFFFF" transform="matrix(1.00, 0.00, -0.00, -1.00, 418.7, 160.2)">o</text><text xml:space="preserve" font-family="ArialMT,Arial" font-size="47.0" fill="#FEFFFF" transform="matrix(1.00, 0.00, -0.00, -1.00, 444.8, 160.2)">v</text><text xml:space="preserve" font-family="ArialMT,Arial" font-size="47.0" fill="#FEFFFF" transform="matrix(1.00, 0.00, -0.00, -1.00, 468.3, 160.2)">k</text><text xml:space="preserve" font-family="ArialMT,Arial" font-size="47.0" fill="#FEFFFF" transform="matrix(1.00, 0.00, -0.00, -1.00, 491.8, 160.2)">a</text><text xml:space="preserve" font-family="ArialMT,Arial" font-size="47.0" fill="#FEFFFF" transform="matrix(1.00, 0.00, -0.00, -1.00, 518.0, 160.2)"> </text><text xml:space="preserve" font-family="ArialMT,Arial" font-size="47.0" fill="#FEFFFF" transform="matrix(1.00, 0.00, -0.00, -1.00, 531.0, 160.2)">s</text><text xml:space="preserve" font-family="ArialMT,Arial" font-size="47.0" fill="#FEFFFF" transform="matrix(1.00, 0.00, -0.00, -1.00, 554.5, 160.2)">e</text><text xml:space="preserve" font-family="ArialMT,Arial" font-size="47.0" fill="#FEFFFF" transform="matrix(1.00, 0.00, -0.00, -1.00, 580.7, 160.2)"> </text><text xml:space="preserve" font-family="ArialMT,Arial" font-size="47.0" fill="#FEFFFF" transform="matrix(1.00, 0.00, -0.00, -1.00, 593.7, 160.2)">s</text><text xml:space="preserve" font-family="ArialMT,Arial" font-size="47.0" fill="#FEFFFF" transform="matrix(1.00, 0.00, -0.00, -1.00, 617.2, 160.2)">t</text><text xml:space="preserve" font-family="ArialMT,Arial" font-size="47.0" fill="#FEFFFF" transform="matrix(1.00, 0.00, -0.00, -1.00, 630.3, 160.2)">a</text><text xml:space="preserve" font-family="ArialMT,Arial" font-size="47.0" fill="#FEFFFF" transform="matrix(1.00, 0.00, -0.00, -1.00, 656.4, 160.2)">v</text><text xml:space="preserve" font-family="ArialMT,Arial" font-size="47.0" fill="#FEFFFF" transform="matrix(1.00, 0.00, -0.00, -1.00, 679.9, 160.2)">e</text><text xml:space="preserve" font-family="ArialMT,Arial" font-size="47.0" fill="#FEFFFF" transform="matrix(1.00, 0.00, -0.00, -1.00, 706.1, 160.2)">m</text><text xml:space="preserve" font-family="ArialMT,Arial" font-size="47.0" fill="#FEFFFF" transform="matrix(1.00, 0.00, -0.00, -1.00, 745.2, 160.2)"> </text><text xml:space="preserve" font-family="ArialMT,Arial" font-size="47.0" fill="#FEFFFF" transform="matrix(1.00, 0.00, -0.00, -1.00, 758.3, 160.2)">v</text><text xml:space="preserve" font-family="ArialMT,Arial" font-size="47.0" fill="#FEFFFF" transform="matrix(1.00, 0.00, -0.00, -1.00, 781.8, 160.2)">š</text><text xml:space="preserve" font-family="ArialMT,Arial" font-size="47.0" fill="#FEFFFF" transform="matrix(1.00, 0.00, -0.00, -1.00, 805.3, 160.2)">e</text><text xml:space="preserve" font-family="ArialMT,Arial" font-size="47.0" fill="#FEFFFF" transform="matrix(1.00, 0.00, -0.00, -1.00, 831.4, 160.2)">c</text><text xml:space="preserve" font-family="ArialMT,Arial" font-size="47.0" fill="#FEFFFF" transform="matrix(1.00, 0.00, -0.00, -1.00, 854.9, 160.2)">h</text><text xml:space="preserve" font-family="ArialMT,Arial" font-size="47.0" fill="#FEFFFF" transform="matrix(1.00, 0.00, -0.00, -1.00, 881.1, 160.2)"> </text><text xml:space="preserve" font-family="ArialMT,Arial" font-size="47.0" fill="#FEFFFF" transform="matrix(1.00, 0.00, -0.00, -1.00, 894.1, 160.2)">s</text><text xml:space="preserve" font-family="ArialMT,Arial" font-size="47.0" fill="#FEFFFF" transform="matrix(1.00, 0.00, -0.00, -1.00, 917.6, 160.2)">k</text><text xml:space="preserve" font-family="ArialMT,Arial" font-size="47.0" fill="#FEFFFF" transform="matrix(1.00, 0.00, -0.00, -1.00, 941.1, 160.2)">u</text><text xml:space="preserve" font-family="ArialMT,Arial" font-size="47.0" fill="#FEFFFF" transform="matrix(1.00, 0.00, -0.00, -1.00, 967.3, 160.2)">p</text><text xml:space="preserve" font-family="ArialMT,Arial" font-size="47.0" fill="#FEFFFF" transform="matrix(1.00, 0.00, -0.00, -1.00, 993.4, 160.2)">i</text><text xml:space="preserve" font-family="ArialMT,Arial" font-size="47.0" fill="#FEFFFF" transform="matrix(1.00, 0.00, -0.00, -1.00, 1003.9, 160.2)">n</text><text xml:space="preserve" font-family="ArialMT,Arial" font-size="47.0" fill="#FEFFFF" transform="matrix(1.00, 0.00, -0.00, -1.00, 1030.0, 160.2)">e</text><text xml:space="preserve" font-family="ArialMT,Arial" font-size="47.0" fill="#FEFFFF" transform="matrix(1.00, 0.00, -0.00, -1.00, 1056.2, 160.2)">k</text><text xml:space="preserve" font-family="ArialMT,Arial" font-size="47.0" fill="#FEFFFF" transform="matrix(1.00, 0.00, -0.00, -1.00, 1079.7, 160.2)"> </text><text xml:space="preserve" font-family="ArialMT,Arial" font-size="35.2" fill="#FEFFFF" transform="matrix(1.00, 0.00, -0.00, -1.00, 0.2, 56.4)">•</text><text xml:space="preserve" font-family="ArialMT,Arial" font-size="47.0" fill="#FEFFFF" transform="matrix(1.00, 0.00, -0.00, -1.00, 50.2, 51.6)">v</text><text xml:space="preserve" font-family="ArialMT,Arial" font-size="47.0" fill="#FEFFFF" transform="matrix(1.00, 0.00, -0.00, -1.00, 73.7, 51.6)">ý</text><text xml:space="preserve" font-family="ArialMT,Arial" font-size="47.0" fill="#FEFFFF" transform="matrix(1.00, 0.00, -0.00, -1.00, 97.2, 51.6)">r</text><text xml:space="preserve" font-family="ArialMT,Arial" font-size="47.0" fill="#FEFFFF" transform="matrix(1.00, 0.00, -0.00, -1.00, 112.9, 51.6)">a</text><text xml:space="preserve" font-family="ArialMT,Arial" font-size="47.0" fill="#FEFFFF" transform="matrix(1.00, 0.00, -0.00, -1.00, 139.0, 51.6)">z</text><text xml:space="preserve" font-family="ArialMT,Arial" font-size="47.0" fill="#FEFFFF" transform="matrix(1.00, 0.00, -0.00, -1.00, 162.5, 51.6)">n</text><text xml:space="preserve" font-family="ArialMT,Arial" font-size="47.0" fill="#FEFFFF" transform="matrix(1.00, 0.00, -0.00, -1.00, 188.7, 51.6)">ě</text><text xml:space="preserve" font-family="ArialMT,Arial" font-size="47.0" fill="#FEFFFF" transform="matrix(1.00, 0.00, -0.00, -1.00, 214.8, 51.6)"> </text><text xml:space="preserve" font-family="ArialMT,Arial" font-size="47.0" fill="#FEFFFF" transform="matrix(1.00, 0.00, -0.00, -1.00, 227.8, 51.6)">r</text><text xml:space="preserve" font-family="ArialMT,Arial" font-size="47.0" fill="#FEFFFF" transform="matrix(1.00, 0.00, -0.00, -1.00, 243.5, 51.6)">o</text><text xml:space="preserve" font-family="ArialMT,Arial" font-size="47.0" fill="#FEFFFF" transform="matrix(1.00, 0.00, -0.00, -1.00, 269.6, 51.6)">z</text><text xml:space="preserve" font-family="ArialMT,Arial" font-size="47.0" fill="#FEFFFF" transform="matrix(1.00, 0.00, -0.00, -1.00, 293.1, 51.6)">l</text><text xml:space="preserve" font-family="ArialMT,Arial" font-size="47.0" fill="#FEFFFF" transform="matrix(1.00, 0.00, -0.00, -1.00, 303.6, 51.6)">i</text><text xml:space="preserve" font-family="ArialMT,Arial" font-size="47.0" fill="#FEFFFF" transform="matrix(1.00, 0.00, -0.00, -1.00, 314.1, 51.6)">š</text><text xml:space="preserve" font-family="ArialMT,Arial" font-size="47.0" fill="#FEFFFF" transform="matrix(1.00, 0.00, -0.00, -1.00, 337.6, 51.6)">i</text><text xml:space="preserve" font-family="ArialMT,Arial" font-size="47.0" fill="#FEFFFF" transform="matrix(1.00, 0.00, -0.00, -1.00, 348.0, 51.6)">t</text><text xml:space="preserve" font-family="ArialMT,Arial" font-size="47.0" fill="#FEFFFF" transform="matrix(1.00, 0.00, -0.00, -1.00, 361.1, 51.6)"> </text><text xml:space="preserve" font-family="ArialMT,Arial" font-size="47.0" fill="#FEFFFF" transform="matrix(1.00, 0.00, -0.00, -1.00, 374.1, 51.6)">s</text><text xml:space="preserve" font-family="ArialMT,Arial" font-size="47.0" fill="#FEFFFF" transform="matrix(1.00, 0.00, -0.00, -1.00, 397.6, 51.6)">t</text><text xml:space="preserve" font-family="ArialMT,Arial" font-size="47.0" fill="#FEFFFF" transform="matrix(1.00, 0.00, -0.00, -1.00, 410.6, 51.6)">a</text><text xml:space="preserve" font-family="ArialMT,Arial" font-size="47.0" fill="#FEFFFF" transform="matrix(1.00, 0.00, -0.00, -1.00, 436.8, 51.6)">v</text><text xml:space="preserve" font-family="ArialMT,Arial" font-size="47.0" fill="#FEFFFF" transform="matrix(1.00, 0.00, -0.00, -1.00, 460.3, 51.6)">y</text><text xml:space="preserve" font-family="ArialMT,Arial" font-size="47.0" fill="#FEFFFF" transform="matrix(1.00, 0.00, -0.00, -1.00, 483.8, 51.6)"> </text><text xml:space="preserve" font-family="ArialMT,Arial" font-size="47.0" fill="#FEFFFF" transform="matrix(1.00, 0.00, -0.00, -1.00, 496.8, 51.6)">n</text><text xml:space="preserve" font-family="ArialMT,Arial" font-size="47.0" fill="#FEFFFF" transform="matrix(1.00, 0.00, -0.00, -1.00, 523.0, 51.6)">a</text><text xml:space="preserve" font-family="ArialMT,Arial" font-size="47.0" fill="#FEFFFF" transform="matrix(1.00, 0.00, -0.00, -1.00, 549.1, 51.6)"> </text><text xml:space="preserve" font-family="ArialMT,Arial" font-size="47.0" fill="#FEFFFF" transform="matrix(1.00, 0.00, -0.00, -1.00, 562.2, 51.6)">s</text><text xml:space="preserve" font-family="ArialMT,Arial" font-size="47.0" fill="#FEFFFF" transform="matrix(1.00, 0.00, -0.00, -1.00, 585.7, 51.6)">t</text><text xml:space="preserve" font-family="ArialMT,Arial" font-size="47.0" fill="#FEFFFF" transform="matrix(1.00, 0.00, -0.00, -1.00, 598.7, 51.6)">a</text><text xml:space="preserve" font-family="ArialMT,Arial" font-size="47.0" fill="#FEFFFF" transform="matrix(1.00, 0.00, -0.00, -1.00, 624.9, 51.6)">n</text><text xml:space="preserve" font-family="ArialMT,Arial" font-size="47.0" fill="#FEFFFF" transform="matrix(1.00, 0.00, -0.00, -1.00, 651.0, 51.6)">o</text><text xml:space="preserve" font-family="ArialMT,Arial" font-size="47.0" fill="#FEFFFF" transform="matrix(1.00, 0.00, -0.00, -1.00, 677.2, 51.6)">v</text><text xml:space="preserve" font-family="ArialMT,Arial" font-size="47.0" fill="#FEFFFF" transform="matrix(1.00, 0.00, -0.00, -1.00, 700.7, 51.6)">i</text><text xml:space="preserve" font-family="ArialMT,Arial" font-size="47.0" fill="#FEFFFF" transform="matrix(1.00, 0.00, -0.00, -1.00, 711.1, 51.6)">š</text><text xml:space="preserve" font-family="ArialMT,Arial" font-size="47.0" fill="#FEFFFF" transform="matrix(1.00, 0.00, -0.00, -1.00, 734.6, 51.6)">t</text><text xml:space="preserve" font-family="ArialMT,Arial" font-size="47.0" fill="#FEFFFF" transform="matrix(1.00, 0.00, -0.00, -1.00, 747.7, 51.6)">i</text><text xml:space="preserve" font-family="ArialMT,Arial" font-size="47.0" fill="#FEFFFF" transform="matrix(1.00, 0.00, -0.00, -1.00, 758.1, 51.6)"> </text><text xml:space="preserve" font-family="ArialMT,Arial" font-size="47.0" fill="#FEFFFF" transform="matrix(1.00, 0.00, -0.00, -1.00, 771.2, 51.6)">/</text><text xml:space="preserve" font-family="ArialMT,Arial" font-size="47.0" fill="#FEFFFF" transform="matrix(1.00, 0.00, -0.00, -1.00, 784.2, 51.6)"> </text><text xml:space="preserve" font-family="ArialMT,Arial" font-size="47.0" fill="#FEFFFF" transform="matrix(1.00, 0.00, -0.00, -1.00, 797.2, 51.6)">p</text><text xml:space="preserve" font-family="ArialMT,Arial" font-size="47.0" fill="#FEFFFF" transform="matrix(1.00, 0.00, -0.00, -1.00, 823.4, 51.6)">ř</text><text xml:space="preserve" font-family="ArialMT,Arial" font-size="47.0" fill="#FEFFFF" transform="matrix(1.00, 0.00, -0.00, -1.00, 839.0, 51.6)">e</text><text xml:space="preserve" font-family="ArialMT,Arial" font-size="47.0" fill="#FEFFFF" transform="matrix(1.00, 0.00, -0.00, -1.00, 865.2, 51.6)">c</text><text xml:space="preserve" font-family="ArialMT,Arial" font-size="47.0" fill="#FEFFFF" transform="matrix(1.00, 0.00, -0.00, -1.00, 888.7, 51.6)">h</text><text xml:space="preserve" font-family="ArialMT,Arial" font-size="47.0" fill="#FEFFFF" transform="matrix(1.00, 0.00, -0.00, -1.00, 914.8, 51.6)">o</text><text xml:space="preserve" font-family="ArialMT,Arial" font-size="47.0" fill="#FEFFFF" transform="matrix(1.00, 0.00, -0.00, -1.00, 941.0, 51.6)">d</text><text xml:space="preserve" font-family="ArialMT,Arial" font-size="47.0" fill="#FEFFFF" transform="matrix(1.00, 0.00, -0.00, -1.00, 967.1, 51.6)"> </text><text xml:space="preserve" font-family="ArialMT,Arial" font-size="47.0" fill="#FEFFFF" transform="matrix(1.00, 0.00, -0.00, -1.00, 980.2, 51.6)">m</text><text xml:space="preserve" font-family="ArialMT,Arial" font-size="47.0" fill="#FEFFFF" transform="matrix(1.00, 0.00, -0.00, -1.00, 1019.3, 51.6)">e</text><text xml:space="preserve" font-family="ArialMT,Arial" font-size="47.0" fill="#FEFFFF" transform="matrix(1.00, 0.00, -0.00, -1.00, 1045.5, 51.6)">z</text><text xml:space="preserve" font-family="ArialMT,Arial" font-size="47.0" fill="#FEFFFF" transform="matrix(1.00, 0.00, -0.00, -1.00, 1069.0, 51.6)">i</text><text xml:space="preserve" font-family="ArialMT,Arial" font-size="47.0" fill="#FEFFFF" transform="matrix(1.00, 0.00, -0.00, -1.00, 1079.4, 51.6)"> </text><text xml:space="preserve" font-family="ArialMT,Arial" font-size="47.0" fill="#FEFFFF" transform="matrix(1.00, 0.00, -0.00, -1.00, 50.2, 1.9)">s</text><text xml:space="preserve" font-family="ArialMT,Arial" font-size="47.0" fill="#FEFFFF" transform="matrix(1.00, 0.00, -0.00, -1.00, 73.7, 1.9)">t</text><text xml:space="preserve" font-family="ArialMT,Arial" font-size="47.0" fill="#FEFFFF" transform="matrix(1.00, 0.00, -0.00, -1.00, 86.8, 1.9)">a</text><text xml:space="preserve" font-family="ArialMT,Arial" font-size="47.0" fill="#FEFFFF" transform="matrix(1.00, 0.00, -0.00, -1.00, 112.9, 1.9)">n</text><text xml:space="preserve" font-family="ArialMT,Arial" font-size="47.0" fill="#FEFFFF" transform="matrix(1.00, 0.00, -0.00, -1.00, 139.0, 1.9)">o</text><text xml:space="preserve" font-family="ArialMT,Arial" font-size="47.0" fill="#FEFFFF" transform="matrix(1.00, 0.00, -0.00, -1.00, 165.2, 1.9)">v</text><text xml:space="preserve" font-family="ArialMT,Arial" font-size="47.0" fill="#FEFFFF" transform="matrix(1.00, 0.00, -0.00, -1.00, 188.7, 1.9)">i</text><text xml:space="preserve" font-family="ArialMT,Arial" font-size="47.0" fill="#FEFFFF" transform="matrix(1.00, 0.00, -0.00, -1.00, 199.1, 1.9)">š</text><text xml:space="preserve" font-family="ArialMT,Arial" font-size="47.0" fill="#FEFFFF" transform="matrix(1.00, 0.00, -0.00, -1.00, 222.6, 1.9)">t</text><text xml:space="preserve" font-family="ArialMT,Arial" font-size="47.0" fill="#FEFFFF" transform="matrix(1.00, 0.00, -0.00, -1.00, 235.7, 1.9)">i</text></g></svg>