<?xml version="1.0" encoding="UTF-8" standalone="no"?><svg xmlns="http://www.w3.org/2000/svg" xmlns:xlink="http://www.w3.org/1999/xlink" clip-rule="evenodd" stroke-miterlimit="10" viewBox="0 0 265 31"><desc>SVG generated by Keynote</desc><defs></defs><g transform="matrix(1.00, 0.00, -0.00, -1.00, 0.0, 31.0)"><text xml:space="preserve" font-family="ArialMT,Arial" font-size="29.0" fill="#52575F" transform="matrix(1.00, 0.00, -0.00, -1.00, 0.2, 9.1)">3</text><text xml:space="preserve" font-family="ArialMT,Arial" font-size="29.0" fill="#52575F" transform="matrix(1.00, 0.00, -0.00, -1.00, 16.4, 9.1)">.</text><text xml:space="preserve" font-family="ArialMT,Arial" font-size="29.0" fill="#52575F" transform="matrix(1.00, 0.00, -0.00, -1.00, 24.4, 9.1)"> </text><text xml:space="preserve" font-family="ArialMT,Arial" font-size="29.0" fill="#52575F" transform="matrix(1.00, 0.00, -0.00, -1.00, 32.5, 9.1)">U</text><text xml:space="preserve" font-family="ArialMT,Arial" font-size="29.0" fill="#52575F" transform="matrix(1.00, 0.00, -0.00, -1.00, 53.4, 9.1)">m</text><text xml:space="preserve" font-family="ArialMT,Arial" font-size="29.0" fill="#52575F" transform="matrix(1.00, 0.00, -0.00, -1.00, 77.6, 9.1)">ฤ</text><text xml:space="preserve" font-family="ArialMT,Arial" font-size="29.0" fill="#52575F" transform="matrix(1.00, 0.00, -0.00, -1.00, 93.7, 9.1)">l</text><text xml:space="preserve" font-family="ArialMT,Arial" font-size="29.0" fill="#52575F" transform="matrix(1.00, 0.00, -0.00, -1.00, 100.2, 9.1)">รก</text><text xml:space="preserve" font-family="ArialMT,Arial" font-size="29.0" fill="#52575F" transform="matrix(1.00, 0.00, -0.00, -1.00, 116.3, 9.1)"> </text><text xml:space="preserve" font-family="ArialMT,Arial" font-size="29.0" fill="#52575F" transform="matrix(1.00, 0.00, -0.00, -1.00, 124.3, 9.1)">i</text><text xml:space="preserve" font-family="ArialMT,Arial" font-size="29.0" fill="#52575F" transform="matrix(1.00, 0.00, -0.00, -1.00, 130.8, 9.1)">n</text><text xml:space="preserve" font-family="ArialMT,Arial" font-size="29.0" fill="#52575F" transform="matrix(1.00, 0.00, -0.00, -1.00, 146.9, 9.1)">t</text><text xml:space="preserve" font-family="ArialMT,Arial" font-size="29.0" fill="#52575F" transform="matrix(1.00, 0.00, -0.00, -1.00, 155.0, 9.1)">e</text><text xml:space="preserve" font-family="ArialMT,Arial" font-size="29.0" fill="#52575F" transform="matrix(1.00, 0.00, -0.00, -1.00, 171.1, 9.1)">l</text><text xml:space="preserve" font-family="ArialMT,Arial" font-size="29.0" fill="#52575F" transform="matrix(1.00, 0.00, -0.00, -1.00, 177.6, 9.1)">i</text><text xml:space="preserve" font-family="ArialMT,Arial" font-size="29.0" fill="#52575F" transform="matrix(1.00, 0.00, -0.00, -1.00, 184.0, 9.1)">g</text><text xml:space="preserve" font-family="ArialMT,Arial" font-size="29.0" fill="#52575F" transform="matrix(1.00, 0.00, -0.00, -1.00, 200.1, 9.1)">e</text><text xml:space="preserve" font-family="ArialMT,Arial" font-size="29.0" fill="#52575F" transform="matrix(1.00, 0.00, -0.00, -1.00, 216.3, 9.1)">n</text><text xml:space="preserve" font-family="ArialMT,Arial" font-size="29.0" fill="#52575F" transform="matrix(1.00, 0.00, -0.00, -1.00, 232.4, 9.1)">c</text><text xml:space="preserve" font-family="ArialMT,Arial" font-size="29.0" fill="#52575F" transform="matrix(1.00, 0.00, -0.00, -1.00, 246.9, 9.1)">e</text></g></svg>