<?xml version="1.0" encoding="UTF-8" standalone="no"?><svg xmlns="http://www.w3.org/2000/svg" xmlns:xlink="http://www.w3.org/1999/xlink" clip-rule="evenodd" stroke-miterlimit="10" viewBox="0 0 145 227"><desc>SVG generated by Keynote</desc><defs></defs><g transform="matrix(1.00, 0.00, -0.00, -1.00, 0.0, 227.0)"><g><clipPath id="clip0x6000018aeb80"><path d="M 105.2 38.0 L 0.1 221.6 L 7.9 226.0 L 113.0 42.5 Z M 105.2 38.0 "></path></clipPath><g clip-path="url(#clip0x6000018aeb80)"><path d="M 0.0 0.0 L 209.5 0.0 " fill="none" stroke="#B6B6B6" stroke-width="7.00" transform="matrix(-0.50, 0.87, 0.87, 0.50, 108.6, 41.1)"></path></g></g><g><clipPath id="clip0x6000018af120"><path d="M 72.9 0.6 L 144.5 0.6 L 144.5 71.2 L 72.9 71.2 Z M 72.9 0.6 "></path></clipPath><g clip-path="url(#clip0x6000018af120)"><path d="M 133.3 60.2 C 146.9 46.8 146.9 25.1 133.3 11.7 C 119.7 -1.7 97.7 -1.7 84.1 11.7 C 70.5 25.1 70.5 46.8 84.1 60.2 C 97.7 73.6 119.7 73.6 133.3 60.2 Z M 133.3 60.2 " fill="#A3A3A3"></path></g></g><g><clipPath id="clip0x6080012bcfe0"><path d="M 97.0 17.5 L 121.5 17.5 L 121.5 55.8 L 97.0 55.8 Z M 97.0 17.5 "></path></clipPath><g clip-path="url(#clip0x6080012bcfe0)"><text xml:space="preserve" font-family="ArialMT,Arial" font-size="22.0" fill="#FDFEE9" transform="matrix(1.00, 0.00, -0.00, -1.00, 103.1, 29.0)">3</text></g></g></g></svg>