<?xml version="1.0" encoding="UTF-8" standalone="no"?><svg xmlns="http://www.w3.org/2000/svg" xmlns:xlink="http://www.w3.org/1999/xlink" clip-rule="evenodd" stroke-miterlimit="10" viewBox="0 0 250 72"><desc>SVG generated by Keynote</desc><defs></defs><g transform="matrix(1.00, 0.00, -0.00, -1.00, 0.0, 72.0)"><g><clipPath id="clip0x600001ca00c0"><path d="M 35.4 31.8 L 249.2 31.8 L 249.2 40.8 L 35.4 40.8 Z M 35.4 31.8 "></path></clipPath><g clip-path="url(#clip0x600001ca00c0)"><path d="M -0.4 -0.2 L 211.6 -0.2 " fill="none" stroke="#B6B6B6" stroke-width="7.00" transform="matrix(1.00, 0.00, 0.00, -1.00, 36.4, 36.3)"></path></g></g><g><clipPath id="clip0x600001ca0300"><path d="M 0.1 0.9 L 71.8 0.9 L 71.8 71.5 L 0.1 71.5 Z M 0.1 0.9 "></path></clipPath><g clip-path="url(#clip0x600001ca0300)"><path d="M 60.6 60.5 C 74.2 47.1 74.2 25.4 60.6 12.0 C 47.0 -1.4 24.9 -1.4 11.3 12.0 C -2.3 25.4 -2.3 47.1 11.3 60.5 C 24.9 73.9 47.0 73.9 60.6 60.5 Z M 60.6 60.5 " fill="#A3A3A3"></path></g></g><g><clipPath id="clip0x600001ca0540"><path d="M 28.6 17.0 L 39.8 17.0 L 39.8 55.3 L 28.6 55.3 Z M 28.6 17.0 "></path></clipPath><g clip-path="url(#clip0x600001ca0540)"><text xml:space="preserve" font-family="ArialMT,Arial" font-size="22.0" fill="#FDFEE9" transform="matrix(1.00, 0.00, -0.00, -1.00, 28.6, 28.5)">5</text></g></g></g></svg>