<?xml version="1.0" encoding="UTF-8" standalone="no"?><svg xmlns="http://www.w3.org/2000/svg" xmlns:xlink="http://www.w3.org/1999/xlink" clip-rule="evenodd" stroke-miterlimit="10" viewBox="0 0 160 25"><desc>SVG generated by Keynote</desc><defs></defs><g transform="matrix(1.00, 0.00, -0.00, -1.00, 0.0, 25.0)"><text xml:space="preserve" font-family="ArialMT,Arial" font-size="29.0" fill="#52575F" transform="matrix(1.00, 0.00, -0.00, -1.00, 0.2, 3.1)">5</text><text xml:space="preserve" font-family="ArialMT,Arial" font-size="29.0" fill="#52575F" transform="matrix(1.00, 0.00, -0.00, -1.00, 16.4, 3.1)">.</text><text xml:space="preserve" font-family="ArialMT,Arial" font-size="29.0" fill="#52575F" transform="matrix(1.00, 0.00, -0.00, -1.00, 24.4, 3.1)"> </text><text xml:space="preserve" font-family="ArialMT,Arial" font-size="29.0" fill="#52575F" transform="matrix(1.00, 0.00, -0.00, -1.00, 32.5, 3.1)">H</text><text xml:space="preserve" font-family="ArialMT,Arial" font-size="29.0" fill="#52575F" transform="matrix(1.00, 0.00, -0.00, -1.00, 53.4, 3.1)">a</text><text xml:space="preserve" font-family="ArialMT,Arial" font-size="29.0" fill="#52575F" transform="matrix(1.00, 0.00, -0.00, -1.00, 69.6, 3.1)">r</text><text xml:space="preserve" font-family="ArialMT,Arial" font-size="29.0" fill="#52575F" transform="matrix(1.00, 0.00, -0.00, -1.00, 79.2, 3.1)">d</text><text xml:space="preserve" font-family="ArialMT,Arial" font-size="29.0" fill="#52575F" transform="matrix(1.00, 0.00, -0.00, -1.00, 95.3, 3.1)">w</text><text xml:space="preserve" font-family="ArialMT,Arial" font-size="29.0" fill="#52575F" transform="matrix(1.00, 0.00, -0.00, -1.00, 116.3, 3.1)">a</text><text xml:space="preserve" font-family="ArialMT,Arial" font-size="29.0" fill="#52575F" transform="matrix(1.00, 0.00, -0.00, -1.00, 132.4, 3.1)">r</text><text xml:space="preserve" font-family="ArialMT,Arial" font-size="29.0" fill="#52575F" transform="matrix(1.00, 0.00, -0.00, -1.00, 142.1, 3.1)">e</text></g></svg>