<?xml version="1.0" encoding="UTF-8" standalone="no"?><svg xmlns="http://www.w3.org/2000/svg" xmlns:xlink="http://www.w3.org/1999/xlink" clip-rule="evenodd" stroke-miterlimit="10" viewBox="0 0 264 39"><desc>SVG generated by Keynote</desc><defs></defs><g transform="matrix(1.00, 0.00, -0.00, -1.00, 0.0, 39.0)"><text xml:space="preserve" font-family="ArialMT,Arial" font-size="27.8" fill="#FEFFFF" transform="matrix(1.00, 0.00, -0.00, -1.00, 0.1, 12.9)">•</text><text xml:space="preserve" font-family="ArialMT,Arial" font-size="37.0" fill="#FEFFFF" transform="matrix(1.00, 0.00, -0.00, -1.00, 35.6, 10.0)">V</text><text xml:space="preserve" font-family="ArialMT,Arial" font-size="37.0" fill="#FEFFFF" transform="matrix(1.00, 0.00, -0.00, -1.00, 58.9, 10.0)">y</text><text xml:space="preserve" font-family="ArialMT,Arial" font-size="37.0" fill="#FEFFFF" transform="matrix(1.00, 0.00, -0.00, -1.00, 77.4, 10.0)">t</text><text xml:space="preserve" font-family="ArialMT,Arial" font-size="37.0" fill="#FEFFFF" transform="matrix(1.00, 0.00, -0.00, -1.00, 87.7, 10.0)">v</text><text xml:space="preserve" font-family="ArialMT,Arial" font-size="37.0" fill="#FEFFFF" transform="matrix(1.00, 0.00, -0.00, -1.00, 106.2, 10.0)">á</text><text xml:space="preserve" font-family="ArialMT,Arial" font-size="37.0" fill="#FEFFFF" transform="matrix(1.00, 0.00, -0.00, -1.00, 126.8, 10.0)">ř</text><text xml:space="preserve" font-family="ArialMT,Arial" font-size="37.0" fill="#FEFFFF" transform="matrix(1.00, 0.00, -0.00, -1.00, 139.1, 10.0)">e</text><text xml:space="preserve" font-family="ArialMT,Arial" font-size="37.0" fill="#FEFFFF" transform="matrix(1.00, 0.00, -0.00, -1.00, 159.7, 10.0)">n</text><text xml:space="preserve" font-family="ArialMT,Arial" font-size="37.0" fill="#FEFFFF" transform="matrix(1.00, 0.00, -0.00, -1.00, 180.3, 10.0)">í</text><text xml:space="preserve" font-family="ArialMT,Arial" font-size="37.0" fill="#FEFFFF" transform="matrix(1.00, 0.00, -0.00, -1.00, 190.6, 10.0)"> </text><text xml:space="preserve" font-family="ArialMT,Arial" font-size="37.0" fill="#FEFFFF" transform="matrix(1.00, 0.00, -0.00, -1.00, 200.8, 10.0)">t</text><text xml:space="preserve" font-family="ArialMT,Arial" font-size="37.0" fill="#FEFFFF" transform="matrix(1.00, 0.00, -0.00, -1.00, 211.1, 10.0)">r</text><text xml:space="preserve" font-family="ArialMT,Arial" font-size="37.0" fill="#FEFFFF" transform="matrix(1.00, 0.00, -0.00, -1.00, 223.4, 10.0)">a</text><text xml:space="preserve" font-family="ArialMT,Arial" font-size="37.0" fill="#FEFFFF" transform="matrix(1.00, 0.00, -0.00, -1.00, 244.0, 10.0)">s</text></g></svg>