<?xml version="1.0" encoding="UTF-8" standalone="no"?><svg xmlns="http://www.w3.org/2000/svg" xmlns:xlink="http://www.w3.org/1999/xlink" clip-rule="evenodd" stroke-miterlimit="10" viewBox="0 0 72 71"><desc>SVG generated by Keynote</desc><defs></defs><g transform="matrix(1.00, 0.00, -0.00, -1.00, 0.0, 71.0)"><g><clipPath id="clip0x6000026ba0a0"><path d="M 0.1 0.3 L 71.8 0.3 L 71.8 70.9 L 0.1 70.9 Z M 0.1 0.3 "></path></clipPath><g clip-path="url(#clip0x6000026ba0a0)"><path d="M 60.6 59.9 C 74.2 46.5 74.2 24.8 60.6 11.4 C 47.0 -2.0 24.9 -2.0 11.3 11.4 C -2.3 24.8 -2.3 46.5 11.3 59.9 C 24.9 73.3 47.0 73.3 60.6 59.9 Z M 60.6 59.9 " fill="#A3A3A3"></path></g></g><g><clipPath id="clip0x6000026ba520"><path d="M 28.3 17.9 L 37.6 17.9 L 37.6 56.1 L 28.3 56.1 Z M 28.3 17.9 "></path></clipPath><g clip-path="url(#clip0x6000026ba520)"><text xml:space="preserve" font-family="ArialMT,Arial" font-size="22.0" fill="#FDFEE9" transform="matrix(1.00, 0.00, -0.00, -1.00, 28.3, 29.4)">1</text></g></g></g></svg>