<?xml version="1.0" encoding="UTF-8" standalone="no"?><svg xmlns="http://www.w3.org/2000/svg" xmlns:xlink="http://www.w3.org/1999/xlink" clip-rule="evenodd" stroke-miterlimit="10" viewBox="0 0 702 1102"><desc>SVG generated by Keynote</desc><defs></defs><g transform="matrix(1.00, 0.00, -0.00, -1.00, 0.0, 1102.0)"><g><clipPath id="clip0x6000024afa80"><path d="M 1.0 0.4 L 701.0 0.4 L 701.0 1101.8 L 1.0 1101.8 Z M 1.0 0.4 "></path></clipPath><g clip-path="url(#clip0x6000024afa80)"><image xlink:href="AB74E31281425BD8E7D51C37EB1142F9.png" width="699.00" height="1100.00" transform="matrix(1.00, 0.00, -0.00, -1.00, 2.0, 1100.8)" opacity="0.50"></image><path d="M 42.0 253.6 L 42.0 860.6 C 42.0 868.9 48.7 876.0 57.0 876.0 L 645.0 876.0 C 653.3 876.0 660.0 868.9 660.0 860.6 L 660.0 253.6 C 660.0 245.3 653.3 239.0 645.0 239.0 L 57.0 239.0 C 48.7 239.0 42.0 245.3 42.0 253.6 Z M 42.0 253.6 " fill="#5C6877"></path></g></g><g><clipPath id="clip0x6000024b0740"><path d="M 201.5 788.3 L 500.5 788.3 L 500.5 866.7 L 201.5 866.7 Z M 201.5 788.3 "></path></clipPath><g clip-path="url(#clip0x6000024b0740)"><text xml:space="preserve" font-family="SourceSansPro-Light,Source Sans Pro" font-size="42.0" fill="#FEFFFF" transform="matrix(1.00, 0.00, -0.00, -1.00, 215.2, 812.9)">A</text><text xml:space="preserve" font-family="SourceSansPro-Light,Source Sans Pro" font-size="42.0" fill="#FEFFFF" transform="matrix(1.00, 0.00, -0.00, -1.00, 237.0, 812.9)">p</text><text xml:space="preserve" font-family="SourceSansPro-Light,Source Sans Pro" font-size="42.0" fill="#FEFFFF" transform="matrix(1.00, 0.00, -0.00, -1.00, 259.9, 812.9)">l</text><text xml:space="preserve" font-family="SourceSansPro-Light,Source Sans Pro" font-size="42.0" fill="#FEFFFF" transform="matrix(1.00, 0.00, -0.00, -1.00, 269.8, 812.9)">i</text><text xml:space="preserve" font-family="SourceSansPro-Light,Source Sans Pro" font-size="42.0" fill="#FEFFFF" transform="matrix(1.00, 0.00, -0.00, -1.00, 279.4, 812.9)">k</text><text xml:space="preserve" font-family="SourceSansPro-Light,Source Sans Pro" font-size="42.0" fill="#FEFFFF" transform="matrix(1.00, 0.00, -0.00, -1.00, 298.5, 812.9)">a</text><text xml:space="preserve" font-family="SourceSansPro-Light,Source Sans Pro" font-size="42.0" fill="#FEFFFF" transform="matrix(1.00, 0.00, -0.00, -1.00, 319.5, 812.9)">č</text><text xml:space="preserve" font-family="SourceSansPro-Light,Source Sans Pro" font-size="42.0" fill="#FEFFFF" transform="matrix(1.00, 0.00, -0.00, -1.00, 338.3, 812.9)">n</text><text xml:space="preserve" font-family="SourceSansPro-Light,Source Sans Pro" font-size="42.0" fill="#FEFFFF" transform="matrix(1.00, 0.00, -0.00, -1.00, 360.7, 812.9)">í</text><text xml:space="preserve" font-family="SourceSansPro-Light,Source Sans Pro" font-size="42.0" fill="#FEFFFF" transform="matrix(1.00, 0.00, -0.00, -1.00, 370.3, 812.9)"> </text><text xml:space="preserve" font-family="SourceSansPro-Light,Source Sans Pro" font-size="42.0" fill="#FEFFFF" transform="matrix(1.00, 0.00, -0.00, -1.00, 378.6, 812.9)">S</text><text xml:space="preserve" font-family="SourceSansPro-Light,Source Sans Pro" font-size="42.0" fill="#FEFFFF" transform="matrix(1.00, 0.00, -0.00, -1.00, 400.2, 812.9)">e</text><text xml:space="preserve" font-family="SourceSansPro-Light,Source Sans Pro" font-size="42.0" fill="#FEFFFF" transform="matrix(1.00, 0.00, -0.00, -1.00, 420.5, 812.9)">r</text><text xml:space="preserve" font-family="SourceSansPro-Light,Source Sans Pro" font-size="42.0" fill="#FEFFFF" transform="matrix(1.00, 0.00, -0.00, -1.00, 435.0, 812.9)">v</text><text xml:space="preserve" font-family="SourceSansPro-Light,Source Sans Pro" font-size="42.0" fill="#FEFFFF" transform="matrix(1.00, 0.00, -0.00, -1.00, 453.2, 812.9)">e</text><text xml:space="preserve" font-family="SourceSansPro-Light,Source Sans Pro" font-size="42.0" fill="#FEFFFF" transform="matrix(1.00, 0.00, -0.00, -1.00, 473.5, 812.9)">r</text></g></g></g></svg>