<?xml version="1.0" encoding="UTF-8" standalone="no"?><svg xmlns="http://www.w3.org/2000/svg" xmlns:xlink="http://www.w3.org/1999/xlink" clip-rule="evenodd" stroke-miterlimit="10" viewBox="0 0 496 115"><desc>SVG generated by Keynote</desc><defs></defs><g transform="matrix(1.00, 0.00, -0.00, -1.00, 0.0, 115.0)"><g><clipPath id="clip0x6000024b18e0"><path d="M 0.2 0.9 L 495.8 0.9 L 495.8 114.9 L 0.2 114.9 Z M 0.2 0.9 "></path></clipPath><g clip-path="url(#clip0x6000024b18e0)"><path d="M 1.2 17.8 L 1.0 98.1 C 1.0 106.9 8.2 114.0 17.0 114.0 L 479.0 114.0 C 487.8 114.0 495.0 106.9 495.0 98.1 L 495.0 17.8 C 495.0 9.0 487.8 2.0 479.0 2.0 L 17.0 2.0 C 8.2 2.0 1.2 9.0 1.2 17.8 Z M 1.2 17.8 " fill="#7A899D"></path></g></g><g><clipPath id="clip0x6000024ac960"><path d="M 132.6 22.5 L 363.4 22.5 L 363.4 93.4 L 132.6 93.4 Z M 132.6 22.5 "></path></clipPath><g clip-path="url(#clip0x6000024ac960)"><text xml:space="preserve" font-family="SourceSansPro-Light,Source Sans Pro" font-size="38.0" fill="#FEFFFF" transform="matrix(1.00, 0.00, -0.00, -1.00, 145.1, 44.8)">D</text><text xml:space="preserve" font-family="SourceSansPro-Light,Source Sans Pro" font-size="38.0" fill="#FEFFFF" transform="matrix(1.00, 0.00, -0.00, -1.00, 167.8, 44.8)">a</text><text xml:space="preserve" font-family="SourceSansPro-Light,Source Sans Pro" font-size="38.0" fill="#FEFFFF" transform="matrix(1.00, 0.00, -0.00, -1.00, 186.8, 44.8)">t</text><text xml:space="preserve" font-family="SourceSansPro-Light,Source Sans Pro" font-size="38.0" fill="#FEFFFF" transform="matrix(1.00, 0.00, -0.00, -1.00, 198.3, 44.8)">o</text><text xml:space="preserve" font-family="SourceSansPro-Light,Source Sans Pro" font-size="38.0" fill="#FEFFFF" transform="matrix(1.00, 0.00, -0.00, -1.00, 218.6, 44.8)">v</text><text xml:space="preserve" font-family="SourceSansPro-Light,Source Sans Pro" font-size="38.0" fill="#FEFFFF" transform="matrix(1.00, 0.00, -0.00, -1.00, 234.3, 44.8)">รก</text><text xml:space="preserve" font-family="SourceSansPro-Light,Source Sans Pro" font-size="38.0" fill="#FEFFFF" transform="matrix(1.00, 0.00, -0.00, -1.00, 253.3, 44.8)"> </text><text xml:space="preserve" font-family="SourceSansPro-Light,Source Sans Pro" font-size="38.0" fill="#FEFFFF" transform="matrix(1.00, 0.00, -0.00, -1.00, 260.8, 44.8)">v</text><text xml:space="preserve" font-family="SourceSansPro-Light,Source Sans Pro" font-size="38.0" fill="#FEFFFF" transform="matrix(1.00, 0.00, -0.00, -1.00, 277.3, 44.8)">r</text><text xml:space="preserve" font-family="SourceSansPro-Light,Source Sans Pro" font-size="38.0" fill="#FEFFFF" transform="matrix(1.00, 0.00, -0.00, -1.00, 289.0, 44.8)">s</text><text xml:space="preserve" font-family="SourceSansPro-Light,Source Sans Pro" font-size="38.0" fill="#FEFFFF" transform="matrix(1.00, 0.00, -0.00, -1.00, 304.4, 44.8)">t</text><text xml:space="preserve" font-family="SourceSansPro-Light,Source Sans Pro" font-size="38.0" fill="#FEFFFF" transform="matrix(1.00, 0.00, -0.00, -1.00, 316.2, 44.8)">v</text><text xml:space="preserve" font-family="SourceSansPro-Light,Source Sans Pro" font-size="38.0" fill="#FEFFFF" transform="matrix(1.00, 0.00, -0.00, -1.00, 332.0, 44.8)">a</text></g></g></g></svg>