<?xml version="1.0" encoding="UTF-8" standalone="no"?><svg xmlns="http://www.w3.org/2000/svg" xmlns:xlink="http://www.w3.org/1999/xlink" clip-rule="evenodd" stroke-miterlimit="10" viewBox="0 0 497 115"><desc>SVG generated by Keynote</desc><defs></defs><g transform="matrix(1.00, 0.00, -0.00, -1.00, 0.0, 115.0)"><g><clipPath id="clip0x6000028bf800"><path d="M 0.4 0.9 L 496.1 0.9 L 496.1 114.9 L 0.4 114.9 Z M 0.4 0.9 "></path></clipPath><g clip-path="url(#clip0x6000028bf800)"><path d="M 1.4 17.7 L 1.0 98.1 C 1.0 106.8 8.5 114.0 17.2 114.0 L 479.2 114.0 C 488.0 114.0 495.0 106.8 495.0 98.1 L 495.0 17.7 C 495.0 8.9 488.0 2.0 479.2 2.0 L 17.2 2.0 C 8.5 2.0 1.4 8.9 1.4 17.7 Z M 1.4 17.7 " fill="#7A899D"></path></g></g><g><clipPath id="clip0x6000028bd6a0"><path d="M 108.4 26.2 L 381.6 26.2 L 381.6 88.3 L 108.4 88.3 Z M 108.4 26.2 "></path></clipPath><g clip-path="url(#clip0x6000028bd6a0)"><text xml:space="preserve" font-family="ArialMT,Arial" font-size="36.0" fill="#FEFFFF" transform="matrix(1.00, 0.00, -0.00, -1.00, 119.0, 45.1)">A</text><text xml:space="preserve" font-family="ArialMT,Arial" font-size="36.0" fill="#FEFFFF" transform="matrix(1.00, 0.00, -0.00, -1.00, 143.0, 45.1)">p</text><text xml:space="preserve" font-family="ArialMT,Arial" font-size="36.0" fill="#FEFFFF" transform="matrix(1.00, 0.00, -0.00, -1.00, 163.0, 45.1)">l</text><text xml:space="preserve" font-family="ArialMT,Arial" font-size="36.0" fill="#FEFFFF" transform="matrix(1.00, 0.00, -0.00, -1.00, 171.0, 45.1)">i</text><text xml:space="preserve" font-family="ArialMT,Arial" font-size="36.0" fill="#FEFFFF" transform="matrix(1.00, 0.00, -0.00, -1.00, 179.0, 45.1)">k</text><text xml:space="preserve" font-family="ArialMT,Arial" font-size="36.0" fill="#FEFFFF" transform="matrix(1.00, 0.00, -0.00, -1.00, 197.0, 45.1)">a</text><text xml:space="preserve" font-family="ArialMT,Arial" font-size="36.0" fill="#FEFFFF" transform="matrix(1.00, 0.00, -0.00, -1.00, 217.0, 45.1)">č</text><text xml:space="preserve" font-family="ArialMT,Arial" font-size="36.0" fill="#FEFFFF" transform="matrix(1.00, 0.00, -0.00, -1.00, 235.0, 45.1)">n</text><text xml:space="preserve" font-family="ArialMT,Arial" font-size="36.0" fill="#FEFFFF" transform="matrix(1.00, 0.00, -0.00, -1.00, 255.1, 45.1)">í</text><text xml:space="preserve" font-family="ArialMT,Arial" font-size="36.0" fill="#FEFFFF" transform="matrix(1.00, 0.00, -0.00, -1.00, 265.1, 45.1)"> </text><text xml:space="preserve" font-family="ArialMT,Arial" font-size="36.0" fill="#FEFFFF" transform="matrix(1.00, 0.00, -0.00, -1.00, 275.1, 45.1)">v</text><text xml:space="preserve" font-family="ArialMT,Arial" font-size="36.0" fill="#FEFFFF" transform="matrix(1.00, 0.00, -0.00, -1.00, 293.1, 45.1)">r</text><text xml:space="preserve" font-family="ArialMT,Arial" font-size="36.0" fill="#FEFFFF" transform="matrix(1.00, 0.00, -0.00, -1.00, 305.0, 45.1)">s</text><text xml:space="preserve" font-family="ArialMT,Arial" font-size="36.0" fill="#FEFFFF" transform="matrix(1.00, 0.00, -0.00, -1.00, 323.0, 45.1)">t</text><text xml:space="preserve" font-family="ArialMT,Arial" font-size="36.0" fill="#FEFFFF" transform="matrix(1.00, 0.00, -0.00, -1.00, 333.0, 45.1)">v</text><text xml:space="preserve" font-family="ArialMT,Arial" font-size="36.0" fill="#FEFFFF" transform="matrix(1.00, 0.00, -0.00, -1.00, 351.0, 45.1)">a</text></g></g></g></svg>