<?xml version="1.0" encoding="UTF-8" standalone="no"?><svg xmlns="http://www.w3.org/2000/svg" xmlns:xlink="http://www.w3.org/1999/xlink" clip-rule="evenodd" stroke-miterlimit="10" viewBox="0 0 559 492"><desc>SVG generated by Keynote</desc><defs></defs><g transform="matrix(1.00, 0.00, -0.00, -1.00, 0.0, 492.0)"><g><clipPath id="clip0x600002ca4da0"><path d="M 0.6 255.5 L 321.0 255.5 L 321.0 248.5 L 0.6 248.5 Z M 0.6 255.5 "></path></clipPath><g clip-path="url(#clip0x600002ca4da0)"><path d="M 0.4 0.5 L 318.4 0.5 " fill="none" stroke="#FEFFFE" stroke-width="5.00" stroke-dasharray="5.0, 5.0" transform="matrix(1.00, 0.00, 0.00, -1.00, 1.6, 252.0)"></path></g></g><g><clipPath id="clip0x600002ca1e00"><path d="M 126.1 249.8 L 195.4 249.8 L 195.4 295.9 L 126.1 295.9 Z M 126.1 249.8 "></path></clipPath><g clip-path="url(#clip0x600002ca1e00)"><text xml:space="preserve" font-family="SourceSansPro-Light,Source Sans Pro" font-size="24.0" fill="#FEFFFF" transform="matrix(1.00, 0.00, -0.00, -1.00, 134.1, 263.9)">H</text><text xml:space="preserve" font-family="SourceSansPro-Light,Source Sans Pro" font-size="24.0" fill="#FEFFFF" transform="matrix(1.00, 0.00, -0.00, -1.00, 149.3, 263.9)">T</text><text xml:space="preserve" font-family="SourceSansPro-Light,Source Sans Pro" font-size="24.0" fill="#FEFFFF" transform="matrix(1.00, 0.00, -0.00, -1.00, 161.7, 263.9)">T</text><text xml:space="preserve" font-family="SourceSansPro-Light,Source Sans Pro" font-size="24.0" fill="#FEFFFF" transform="matrix(1.00, 0.00, -0.00, -1.00, 174.1, 263.9)">P</text></g></g><g><clipPath id="clip0x600002ca5c40"><path d="M 240.8 0.7 L 558.6 0.7 L 558.6 491.3 L 240.8 491.3 Z M 240.8 0.7 "></path></clipPath><g clip-path="url(#clip0x600002ca5c40)"><image xlink:href="2747D2C83D705B98DE13928D69768A3A.png" width="316.00" height="489.00" transform="matrix(1.00, 0.00, -0.00, -1.00, 241.8, 490.3)" opacity="0.50"></image><path d="M 281.8 140.1 L 282.0 363.9 C 282.0 372.6 288.9 380.0 297.5 380.0 L 501.9 380.0 C 510.5 380.0 518.0 372.6 518.0 363.9 L 518.0 140.1 C 518.0 131.4 510.5 124.0 501.9 124.0 L 297.5 124.0 C 288.9 124.0 281.8 131.4 281.8 140.1 Z M 281.8 140.1 " fill="#5C6877"></path></g></g><g><clipPath id="clip0x600002ca3de0"><path d="M 336.8 186.8 L 543.0 186.8 L 543.0 317.2 L 336.8 317.2 Z M 336.8 186.8 "></path></clipPath><g clip-path="url(#clip0x600002ca3de0)"><text xml:space="preserve" font-family="SourceSansPro-Light,Source Sans Pro" font-size="42.0" fill="#FEFFFF" transform="matrix(1.00, 0.00, -0.00, -1.00, 362.1, 263.5)">W</text><text xml:space="preserve" font-family="SourceSansPro-Light,Source Sans Pro" font-size="42.0" fill="#FEFFFF" transform="matrix(1.00, 0.00, -0.00, -1.00, 394.2, 263.5)">e</text><text xml:space="preserve" font-family="SourceSansPro-Light,Source Sans Pro" font-size="42.0" fill="#FEFFFF" transform="matrix(1.00, 0.00, -0.00, -1.00, 414.4, 263.5)">b</text><text xml:space="preserve" font-family="SourceSansPro-Light,Source Sans Pro" font-size="42.0" fill="#FEFFFF" transform="matrix(1.00, 0.00, -0.00, -1.00, 437.3, 263.5)"> </text><text xml:space="preserve" font-family="SourceSansPro-Light,Source Sans Pro" font-size="42.0" fill="#FEFFFF" transform="matrix(1.00, 0.00, -0.00, -1.00, 350.5, 211.5)">K</text><text xml:space="preserve" font-family="SourceSansPro-Light,Source Sans Pro" font-size="42.0" fill="#FEFFFF" transform="matrix(1.00, 0.00, -0.00, -1.00, 373.6, 211.5)">l</text><text xml:space="preserve" font-family="SourceSansPro-Light,Source Sans Pro" font-size="42.0" fill="#FEFFFF" transform="matrix(1.00, 0.00, -0.00, -1.00, 383.6, 211.5)">i</text><text xml:space="preserve" font-family="SourceSansPro-Light,Source Sans Pro" font-size="42.0" fill="#FEFFFF" transform="matrix(1.00, 0.00, -0.00, -1.00, 393.2, 211.5)">e</text><text xml:space="preserve" font-family="SourceSansPro-Light,Source Sans Pro" font-size="42.0" fill="#FEFFFF" transform="matrix(1.00, 0.00, -0.00, -1.00, 413.5, 211.5)">n</text><text xml:space="preserve" font-family="SourceSansPro-Light,Source Sans Pro" font-size="42.0" fill="#FEFFFF" transform="matrix(1.00, 0.00, -0.00, -1.00, 435.8, 211.5)">t</text></g></g></g></svg>