<?xml version="1.0" encoding="UTF-8" standalone="no"?><svg xmlns="http://www.w3.org/2000/svg" xmlns:xlink="http://www.w3.org/1999/xlink" clip-rule="evenodd" stroke-miterlimit="10" viewBox="0 0 565 492"><desc>SVG generated by Keynote</desc><defs></defs><g transform="matrix(1.00, 0.00, -0.00, -1.00, 0.0, 492.0)"><g><clipPath id="clip0x6000028bd160"><path d="M 244.5 255.5 L 564.9 255.5 L 564.9 248.5 L 244.5 248.5 Z M 244.5 255.5 "></path></clipPath><g clip-path="url(#clip0x6000028bd160)"><path d="M 0.5 0.5 L 318.5 0.5 " fill="none" stroke="#FEFFFE" stroke-width="5.00" stroke-dasharray="5.0, 5.0" transform="matrix(1.00, 0.00, 0.00, -1.00, 245.5, 252.0)"></path></g></g><g><clipPath id="clip0x6000028bc8c0"><path d="M 372.5 255.4 L 436.9 255.4 L 436.9 289.6 L 372.5 289.6 Z M 372.5 255.4 "></path></clipPath><g clip-path="url(#clip0x6000028bc8c0)"><text xml:space="preserve" font-family="ArialMT,Arial" font-size="20.0" fill="#FEFFFF" transform="matrix(1.00, 0.00, -0.00, -1.00, 378.6, 265.9)">H</text><text xml:space="preserve" font-family="ArialMT,Arial" font-size="20.0" fill="#FEFFFF" transform="matrix(1.00, 0.00, -0.00, -1.00, 393.0, 265.9)">T</text><text xml:space="preserve" font-family="ArialMT,Arial" font-size="20.0" fill="#FEFFFF" transform="matrix(1.00, 0.00, -0.00, -1.00, 405.3, 265.9)">T</text><text xml:space="preserve" font-family="ArialMT,Arial" font-size="20.0" fill="#FEFFFF" transform="matrix(1.00, 0.00, -0.00, -1.00, 417.5, 265.9)">P</text></g></g><g><clipPath id="clip0x6000028bcda0"><path d="M 0.4 0.7 L 318.2 0.7 L 318.2 491.3 L 0.4 491.3 Z M 0.4 0.7 "></path></clipPath><g clip-path="url(#clip0x6000028bcda0)"><image xlink:href="FC90E6DDF5F98D6A2EA1D4B12F31B3C1.png" width="316.00" height="489.00" transform="matrix(1.00, 0.00, -0.00, -1.00, 1.4, 490.3)" opacity="0.50"></image><path d="M 41.4 140.1 L 41.0 363.9 C 41.0 372.6 48.5 380.0 57.2 380.0 L 261.4 380.0 C 270.1 380.0 277.0 372.6 277.0 363.9 L 277.0 140.1 C 277.0 131.4 270.1 124.0 261.4 124.0 L 57.2 124.0 C 48.5 124.0 41.4 131.4 41.4 140.1 Z M 41.4 140.1 " fill="#5C6877"></path></g></g><g><clipPath id="clip0x6000028b87e0"><path d="M 73.1 195.2 L 388.5 195.2 L 388.5 307.5 L 73.1 307.5 Z M 73.1 195.2 "></path></clipPath><g clip-path="url(#clip0x6000028b87e0)"><text xml:space="preserve" font-family="ArialMT,Arial" font-size="40.0" fill="#FEFFFF" transform="matrix(1.00, 0.00, -0.00, -1.00, 90.4, 261.1)">A</text><text xml:space="preserve" font-family="ArialMT,Arial" font-size="40.0" fill="#FEFFFF" transform="matrix(1.00, 0.00, -0.00, -1.00, 117.0, 261.1)">n</text><text xml:space="preserve" font-family="ArialMT,Arial" font-size="40.0" fill="#FEFFFF" transform="matrix(1.00, 0.00, -0.00, -1.00, 139.3, 261.1)">d</text><text xml:space="preserve" font-family="ArialMT,Arial" font-size="40.0" fill="#FEFFFF" transform="matrix(1.00, 0.00, -0.00, -1.00, 161.6, 261.1)">r</text><text xml:space="preserve" font-family="ArialMT,Arial" font-size="40.0" fill="#FEFFFF" transform="matrix(1.00, 0.00, -0.00, -1.00, 174.9, 261.1)">o</text><text xml:space="preserve" font-family="ArialMT,Arial" font-size="40.0" fill="#FEFFFF" transform="matrix(1.00, 0.00, -0.00, -1.00, 197.1, 261.1)">i</text><text xml:space="preserve" font-family="ArialMT,Arial" font-size="40.0" fill="#FEFFFF" transform="matrix(1.00, 0.00, -0.00, -1.00, 206.0, 261.1)">d</text><text xml:space="preserve" font-family="ArialMT,Arial" font-size="40.0" fill="#FEFFFF" transform="matrix(1.00, 0.00, -0.00, -1.00, 228.3, 261.1)"> </text><text xml:space="preserve" font-family="ArialMT,Arial" font-size="40.0" fill="#FEFFFF" transform="matrix(1.00, 0.00, -0.00, -1.00, 109.3, 216.1)">K</text><text xml:space="preserve" font-family="ArialMT,Arial" font-size="40.0" fill="#FEFFFF" transform="matrix(1.00, 0.00, -0.00, -1.00, 136.0, 216.1)">l</text><text xml:space="preserve" font-family="ArialMT,Arial" font-size="40.0" fill="#FEFFFF" transform="matrix(1.00, 0.00, -0.00, -1.00, 144.8, 216.1)">i</text><text xml:space="preserve" font-family="ArialMT,Arial" font-size="40.0" fill="#FEFFFF" transform="matrix(1.00, 0.00, -0.00, -1.00, 153.7, 216.1)">e</text><text xml:space="preserve" font-family="ArialMT,Arial" font-size="40.0" fill="#FEFFFF" transform="matrix(1.00, 0.00, -0.00, -1.00, 176.0, 216.1)">n</text><text xml:space="preserve" font-family="ArialMT,Arial" font-size="40.0" fill="#FEFFFF" transform="matrix(1.00, 0.00, -0.00, -1.00, 198.2, 216.1)">t</text></g></g></g></svg>