<?xml version="1.0" encoding="UTF-8" standalone="no"?><svg xmlns="http://www.w3.org/2000/svg" xmlns:xlink="http://www.w3.org/1999/xlink" clip-rule="evenodd" stroke-miterlimit="10" viewBox="0 0 1920 1080"><desc>SVG generated by Keynote</desc><defs></defs><g transform="matrix(1.00, 0.00, -0.00, -1.00, 0.0, 1080.0)"><path d="M 0.0 1080.0 L 1920.0 1080.0 L 1920.0 0.0 L 0.0 0.0 Z M 0.0 1080.0 " fill="#2B3138"></path><text xml:space="preserve" font-family="ArialMT,Arial" font-size="90.0" fill="#5BA1A6" transform="matrix(1.00, 0.00, -0.00, -1.00, 732.4, 931.0)">C</text><text xml:space="preserve" font-family="ArialMT,Arial" font-size="90.0" fill="#5BA1A6" transform="matrix(1.00, 0.00, -0.00, -1.00, 797.4, 931.0)">í</text><text xml:space="preserve" font-family="ArialMT,Arial" font-size="90.0" fill="#5BA1A6" transform="matrix(1.00, 0.00, -0.00, -1.00, 822.4, 931.0)">l</text><text xml:space="preserve" font-family="ArialMT,Arial" font-size="90.0" fill="#5BA1A6" transform="matrix(1.00, 0.00, -0.00, -1.00, 842.4, 931.0)"> </text><text xml:space="preserve" font-family="ArialMT,Arial" font-size="90.0" fill="#5BA1A6" transform="matrix(1.00, 0.00, -0.00, -1.00, 867.4, 931.0)">p</text><text xml:space="preserve" font-family="ArialMT,Arial" font-size="90.0" fill="#5BA1A6" transform="matrix(1.00, 0.00, -0.00, -1.00, 917.5, 931.0)">r</text><text xml:space="preserve" font-family="ArialMT,Arial" font-size="90.0" fill="#5BA1A6" transform="matrix(1.00, 0.00, -0.00, -1.00, 947.4, 931.0)">o</text><text xml:space="preserve" font-family="ArialMT,Arial" font-size="90.0" fill="#5BA1A6" transform="matrix(1.00, 0.00, -0.00, -1.00, 997.5, 931.0)">j</text><text xml:space="preserve" font-family="ArialMT,Arial" font-size="90.0" fill="#5BA1A6" transform="matrix(1.00, 0.00, -0.00, -1.00, 1017.5, 931.0)">e</text><text xml:space="preserve" font-family="ArialMT,Arial" font-size="90.0" fill="#5BA1A6" transform="matrix(1.00, 0.00, -0.00, -1.00, 1067.6, 931.0)">k</text><text xml:space="preserve" font-family="ArialMT,Arial" font-size="90.0" fill="#5BA1A6" transform="matrix(1.00, 0.00, -0.00, -1.00, 1112.6, 931.0)">t</text><text xml:space="preserve" font-family="ArialMT,Arial" font-size="90.0" fill="#5BA1A6" transform="matrix(1.00, 0.00, -0.00, -1.00, 1137.6, 931.0)">u</text><text xml:space="preserve" font-family="Helvetica-Light,Helvetica" font-size="24.0" fill="#FEFFFF" transform="matrix(1.00, 0.00, -0.00, -1.00, 952.8, 22.5)">3</text><text xml:space="preserve" font-family="ArialMT,Arial" font-size="50.0" fill="#FEFFFF" transform="matrix(1.00, 0.00, -0.00, -1.00, 172.1, 652.4)">N</text><text xml:space="preserve" font-family="ArialMT,Arial" font-size="50.0" fill="#FEFFFF" transform="matrix(1.00, 0.00, -0.00, -1.00, 208.3, 652.4)">a</text><text xml:space="preserve" font-family="ArialMT,Arial" font-size="50.0" fill="#FEFFFF" transform="matrix(1.00, 0.00, -0.00, -1.00, 236.1, 652.4)">v</text><text xml:space="preserve" font-family="ArialMT,Arial" font-size="50.0" fill="#FEFFFF" transform="matrix(1.00, 0.00, -0.00, -1.00, 261.1, 652.4)">r</text><text xml:space="preserve" font-family="ArialMT,Arial" font-size="50.0" fill="#FEFFFF" transform="matrix(1.00, 0.00, -0.00, -1.00, 277.7, 652.4)">h</text><text xml:space="preserve" font-family="ArialMT,Arial" font-size="50.0" fill="#FEFFFF" transform="matrix(1.00, 0.00, -0.00, -1.00, 305.5, 652.4)">n</text><text xml:space="preserve" font-family="ArialMT,Arial" font-size="50.0" fill="#FEFFFF" transform="matrix(1.00, 0.00, -0.00, -1.00, 333.4, 652.4)">o</text><text xml:space="preserve" font-family="ArialMT,Arial" font-size="50.0" fill="#FEFFFF" transform="matrix(1.00, 0.00, -0.00, -1.00, 361.2, 652.4)">u</text><text xml:space="preserve" font-family="ArialMT,Arial" font-size="50.0" fill="#FEFFFF" transform="matrix(1.00, 0.00, -0.00, -1.00, 389.0, 652.4)">t</text><text xml:space="preserve" font-family="ArialMT,Arial" font-size="50.0" fill="#FEFFFF" transform="matrix(1.00, 0.00, -0.00, -1.00, 402.9, 652.4)">,</text><text xml:space="preserve" font-family="ArialMT,Arial" font-size="50.0" fill="#FEFFFF" transform="matrix(1.00, 0.00, -0.00, -1.00, 416.8, 652.4)"> </text><text xml:space="preserve" font-family="ArialMT,Arial" font-size="50.0" fill="#FEFFFF" transform="matrix(1.00, 0.00, -0.00, -1.00, 430.6, 652.4)">i</text><text xml:space="preserve" font-family="ArialMT,Arial" font-size="50.0" fill="#FEFFFF" transform="matrix(1.00, 0.00, -0.00, -1.00, 441.8, 652.4)">m</text><text xml:space="preserve" font-family="ArialMT,Arial" font-size="50.0" fill="#FEFFFF" transform="matrix(1.00, 0.00, -0.00, -1.00, 483.4, 652.4)">p</text><text xml:space="preserve" font-family="ArialMT,Arial" font-size="50.0" fill="#FEFFFF" transform="matrix(1.00, 0.00, -0.00, -1.00, 511.2, 652.4)">l</text><text xml:space="preserve" font-family="ArialMT,Arial" font-size="50.0" fill="#FEFFFF" transform="matrix(1.00, 0.00, -0.00, -1.00, 522.3, 652.4)">e</text><text xml:space="preserve" font-family="ArialMT,Arial" font-size="50.0" fill="#FEFFFF" transform="matrix(1.00, 0.00, -0.00, -1.00, 550.2, 652.4)">m</text><text xml:space="preserve" font-family="ArialMT,Arial" font-size="50.0" fill="#FEFFFF" transform="matrix(1.00, 0.00, -0.00, -1.00, 591.8, 652.4)">e</text><text xml:space="preserve" font-family="ArialMT,Arial" font-size="50.0" fill="#FEFFFF" transform="matrix(1.00, 0.00, -0.00, -1.00, 619.6, 652.4)">n</text><text xml:space="preserve" font-family="ArialMT,Arial" font-size="50.0" fill="#FEFFFF" transform="matrix(1.00, 0.00, -0.00, -1.00, 647.4, 652.4)">t</text><text xml:space="preserve" font-family="ArialMT,Arial" font-size="50.0" fill="#FEFFFF" transform="matrix(1.00, 0.00, -0.00, -1.00, 661.3, 652.4)">o</text><text xml:space="preserve" font-family="ArialMT,Arial" font-size="50.0" fill="#FEFFFF" transform="matrix(1.00, 0.00, -0.00, -1.00, 689.1, 652.4)">v</text><text xml:space="preserve" font-family="ArialMT,Arial" font-size="50.0" fill="#FEFFFF" transform="matrix(1.00, 0.00, -0.00, -1.00, 714.1, 652.4)">a</text><text xml:space="preserve" font-family="ArialMT,Arial" font-size="50.0" fill="#FEFFFF" transform="matrix(1.00, 0.00, -0.00, -1.00, 742.0, 652.4)">t</text><text xml:space="preserve" font-family="ArialMT,Arial" font-size="50.0" fill="#FEFFFF" transform="matrix(1.00, 0.00, -0.00, -1.00, 755.8, 652.4)"> </text><text xml:space="preserve" font-family="ArialMT,Arial" font-size="50.0" fill="#FEFFFF" transform="matrix(1.00, 0.00, -0.00, -1.00, 769.7, 652.4)">a</text><text xml:space="preserve" font-family="ArialMT,Arial" font-size="50.0" fill="#FEFFFF" transform="matrix(1.00, 0.00, -0.00, -1.00, 797.5, 652.4)"> </text><text xml:space="preserve" font-family="ArialMT,Arial" font-size="50.0" fill="#FEFFFF" transform="matrix(1.00, 0.00, -0.00, -1.00, 811.4, 652.4)">o</text><text xml:space="preserve" font-family="ArialMT,Arial" font-size="50.0" fill="#FEFFFF" transform="matrix(1.00, 0.00, -0.00, -1.00, 839.2, 652.4)">t</text><text xml:space="preserve" font-family="ArialMT,Arial" font-size="50.0" fill="#FEFFFF" transform="matrix(1.00, 0.00, -0.00, -1.00, 853.1, 652.4)">e</text><text xml:space="preserve" font-family="ArialMT,Arial" font-size="50.0" fill="#FEFFFF" transform="matrix(1.00, 0.00, -0.00, -1.00, 880.9, 652.4)">s</text><text xml:space="preserve" font-family="ArialMT,Arial" font-size="50.0" fill="#FEFFFF" transform="matrix(1.00, 0.00, -0.00, -1.00, 905.9, 652.4)">t</text><text xml:space="preserve" font-family="ArialMT,Arial" font-size="50.0" fill="#FEFFFF" transform="matrix(1.00, 0.00, -0.00, -1.00, 919.8, 652.4)">o</text><text xml:space="preserve" font-family="ArialMT,Arial" font-size="50.0" fill="#FEFFFF" transform="matrix(1.00, 0.00, -0.00, -1.00, 947.6, 652.4)">v</text><text xml:space="preserve" font-family="ArialMT,Arial" font-size="50.0" fill="#FEFFFF" transform="matrix(1.00, 0.00, -0.00, -1.00, 972.6, 652.4)">a</text><text xml:space="preserve" font-family="ArialMT,Arial" font-size="50.0" fill="#FEFFFF" transform="matrix(1.00, 0.00, -0.00, -1.00, 1000.5, 652.4)">t</text><text xml:space="preserve" font-family="ArialMT,Arial" font-size="50.0" fill="#FEFFFF" transform="matrix(1.00, 0.00, -0.00, -1.00, 1014.3, 652.4)"> </text><text xml:space="preserve" font-family="ArialMT,Arial" font-size="50.0" fill="#FEFFFF" transform="matrix(1.00, 0.00, -0.00, -1.00, 1028.2, 652.4)">s</text><text xml:space="preserve" font-family="ArialMT,Arial" font-size="50.0" fill="#FEFFFF" transform="matrix(1.00, 0.00, -0.00, -1.00, 1053.2, 652.4)">y</text><text xml:space="preserve" font-family="ArialMT,Arial" font-size="50.0" fill="#FEFFFF" transform="matrix(1.00, 0.00, -0.00, -1.00, 1078.2, 652.4)">s</text><text xml:space="preserve" font-family="ArialMT,Arial" font-size="50.0" fill="#FEFFFF" transform="matrix(1.00, 0.00, -0.00, -1.00, 1103.2, 652.4)">t</text><text xml:space="preserve" font-family="ArialMT,Arial" font-size="50.0" fill="#FEFFFF" transform="matrix(1.00, 0.00, -0.00, -1.00, 1117.1, 652.4)">é</text><text xml:space="preserve" font-family="ArialMT,Arial" font-size="50.0" fill="#FEFFFF" transform="matrix(1.00, 0.00, -0.00, -1.00, 1144.9, 652.4)">m</text><text xml:space="preserve" font-family="ArialMT,Arial" font-size="50.0" fill="#FEFFFF" transform="matrix(1.00, 0.00, -0.00, -1.00, 1186.6, 652.4)"> </text><text xml:space="preserve" font-family="ArialMT,Arial" font-size="50.0" fill="#FEFFFF" transform="matrix(1.00, 0.00, -0.00, -1.00, 1200.5, 652.4)">p</text><text xml:space="preserve" font-family="ArialMT,Arial" font-size="50.0" fill="#FEFFFF" transform="matrix(1.00, 0.00, -0.00, -1.00, 1228.3, 652.4)">r</text><text xml:space="preserve" font-family="ArialMT,Arial" font-size="50.0" fill="#FEFFFF" transform="matrix(1.00, 0.00, -0.00, -1.00, 1244.9, 652.4)">o</text><text xml:space="preserve" font-family="ArialMT,Arial" font-size="50.0" fill="#FEFFFF" transform="matrix(1.00, 0.00, -0.00, -1.00, 1272.7, 652.4)"> </text><text xml:space="preserve" font-family="ArialMT,Arial" font-size="50.0" fill="#FEFFFF" transform="matrix(1.00, 0.00, -0.00, -1.00, 1286.6, 652.4)">s</text><text xml:space="preserve" font-family="ArialMT,Arial" font-size="50.0" fill="#FEFFFF" transform="matrix(1.00, 0.00, -0.00, -1.00, 1311.6, 652.4)">y</text><text xml:space="preserve" font-family="ArialMT,Arial" font-size="50.0" fill="#FEFFFF" transform="matrix(1.00, 0.00, -0.00, -1.00, 1336.6, 652.4)">n</text><text xml:space="preserve" font-family="ArialMT,Arial" font-size="50.0" fill="#FEFFFF" transform="matrix(1.00, 0.00, -0.00, -1.00, 1364.4, 652.4)">c</text><text xml:space="preserve" font-family="ArialMT,Arial" font-size="50.0" fill="#FEFFFF" transform="matrix(1.00, 0.00, -0.00, -1.00, 1389.4, 652.4)">h</text><text xml:space="preserve" font-family="ArialMT,Arial" font-size="50.0" fill="#FEFFFF" transform="matrix(1.00, 0.00, -0.00, -1.00, 1417.3, 652.4)">r</text><text xml:space="preserve" font-family="ArialMT,Arial" font-size="50.0" fill="#FEFFFF" transform="matrix(1.00, 0.00, -0.00, -1.00, 1433.9, 652.4)">o</text><text xml:space="preserve" font-family="ArialMT,Arial" font-size="50.0" fill="#FEFFFF" transform="matrix(1.00, 0.00, -0.00, -1.00, 1461.7, 652.4)">n</text><text xml:space="preserve" font-family="ArialMT,Arial" font-size="50.0" fill="#FEFFFF" transform="matrix(1.00, 0.00, -0.00, -1.00, 1489.5, 652.4)">i</text><text xml:space="preserve" font-family="ArialMT,Arial" font-size="50.0" fill="#FEFFFF" transform="matrix(1.00, 0.00, -0.00, -1.00, 1500.7, 652.4)">z</text><text xml:space="preserve" font-family="ArialMT,Arial" font-size="50.0" fill="#FEFFFF" transform="matrix(1.00, 0.00, -0.00, -1.00, 1525.7, 652.4)">a</text><text xml:space="preserve" font-family="ArialMT,Arial" font-size="50.0" fill="#FEFFFF" transform="matrix(1.00, 0.00, -0.00, -1.00, 1553.5, 652.4)">c</text><text xml:space="preserve" font-family="ArialMT,Arial" font-size="50.0" fill="#FEFFFF" transform="matrix(1.00, 0.00, -0.00, -1.00, 1578.5, 652.4)">i</text><text xml:space="preserve" font-family="ArialMT,Arial" font-size="50.0" fill="#FEFFFF" transform="matrix(1.00, 0.00, -0.00, -1.00, 1589.6, 652.4)"> </text><text xml:space="preserve" font-family="ArialMT,Arial" font-size="50.0" fill="#FEFFFF" transform="matrix(1.00, 0.00, -0.00, -1.00, 1603.5, 652.4)">s</text><text xml:space="preserve" font-family="ArialMT,Arial" font-size="50.0" fill="#FEFFFF" transform="matrix(1.00, 0.00, -0.00, -1.00, 1628.5, 652.4)">k</text><text xml:space="preserve" font-family="ArialMT,Arial" font-size="50.0" fill="#FEFFFF" transform="matrix(1.00, 0.00, -0.00, -1.00, 1653.5, 652.4)">u</text><text xml:space="preserve" font-family="ArialMT,Arial" font-size="50.0" fill="#FEFFFF" transform="matrix(1.00, 0.00, -0.00, -1.00, 1681.3, 652.4)">p</text><text xml:space="preserve" font-family="ArialMT,Arial" font-size="50.0" fill="#FEFFFF" transform="matrix(1.00, 0.00, -0.00, -1.00, 1709.1, 652.4)">i</text><text xml:space="preserve" font-family="ArialMT,Arial" font-size="50.0" fill="#FEFFFF" transform="matrix(1.00, 0.00, -0.00, -1.00, 1720.2, 652.4)">n</text><text xml:space="preserve" font-family="ArialMT,Arial" font-size="50.0" fill="#FEFFFF" transform="matrix(1.00, 0.00, -0.00, -1.00, 1748.0, 652.4)"> </text><text xml:space="preserve" font-family="ArialMT,Arial" font-size="50.0" fill="#FEFFFF" transform="matrix(1.00, 0.00, -0.00, -1.00, 529.2, 594.4)">s</text><text xml:space="preserve" font-family="ArialMT,Arial" font-size="50.0" fill="#FEFFFF" transform="matrix(1.00, 0.00, -0.00, -1.00, 554.2, 594.4)">t</text><text xml:space="preserve" font-family="ArialMT,Arial" font-size="50.0" fill="#FEFFFF" transform="matrix(1.00, 0.00, -0.00, -1.00, 568.1, 594.4)">u</text><text xml:space="preserve" font-family="ArialMT,Arial" font-size="50.0" fill="#FEFFFF" transform="matrix(1.00, 0.00, -0.00, -1.00, 595.9, 594.4)">d</text><text xml:space="preserve" font-family="ArialMT,Arial" font-size="50.0" fill="#FEFFFF" transform="matrix(1.00, 0.00, -0.00, -1.00, 623.7, 594.4)">e</text><text xml:space="preserve" font-family="ArialMT,Arial" font-size="50.0" fill="#FEFFFF" transform="matrix(1.00, 0.00, -0.00, -1.00, 651.6, 594.4)">n</text><text xml:space="preserve" font-family="ArialMT,Arial" font-size="50.0" fill="#FEFFFF" transform="matrix(1.00, 0.00, -0.00, -1.00, 679.4, 594.4)">t</text><text xml:space="preserve" font-family="ArialMT,Arial" font-size="50.0" fill="#FEFFFF" transform="matrix(1.00, 0.00, -0.00, -1.00, 693.3, 594.4)">ů</text><text xml:space="preserve" font-family="ArialMT,Arial" font-size="50.0" fill="#FEFFFF" transform="matrix(1.00, 0.00, -0.00, -1.00, 721.1, 594.4)"> </text><text xml:space="preserve" font-family="ArialMT,Arial" font-size="50.0" fill="#FEFFFF" transform="matrix(1.00, 0.00, -0.00, -1.00, 735.0, 594.4)">v</text><text xml:space="preserve" font-family="ArialMT,Arial" font-size="50.0" fill="#FEFFFF" transform="matrix(1.00, 0.00, -0.00, -1.00, 760.0, 594.4)"> </text><text xml:space="preserve" font-family="ArialMT,Arial" font-size="50.0" fill="#FEFFFF" transform="matrix(1.00, 0.00, -0.00, -1.00, 773.8, 594.4)">r</text><text xml:space="preserve" font-family="ArialMT,Arial" font-size="50.0" fill="#FEFFFF" transform="matrix(1.00, 0.00, -0.00, -1.00, 790.5, 594.4)">á</text><text xml:space="preserve" font-family="ArialMT,Arial" font-size="50.0" fill="#FEFFFF" transform="matrix(1.00, 0.00, -0.00, -1.00, 818.3, 594.4)">m</text><text xml:space="preserve" font-family="ArialMT,Arial" font-size="50.0" fill="#FEFFFF" transform="matrix(1.00, 0.00, -0.00, -1.00, 860.0, 594.4)">c</text><text xml:space="preserve" font-family="ArialMT,Arial" font-size="50.0" fill="#FEFFFF" transform="matrix(1.00, 0.00, -0.00, -1.00, 885.0, 594.4)">i</text><text xml:space="preserve" font-family="ArialMT,Arial" font-size="50.0" fill="#FEFFFF" transform="matrix(1.00, 0.00, -0.00, -1.00, 896.1, 594.4)"> </text><text xml:space="preserve" font-family="ArialMT,Arial" font-size="50.0" fill="#FEFFFF" transform="matrix(1.00, 0.00, -0.00, -1.00, 910.0, 594.4)">d</text><text xml:space="preserve" font-family="ArialMT,Arial" font-size="50.0" fill="#FEFFFF" transform="matrix(1.00, 0.00, -0.00, -1.00, 937.8, 594.4)">n</text><text xml:space="preserve" font-family="ArialMT,Arial" font-size="50.0" fill="#FEFFFF" transform="matrix(1.00, 0.00, -0.00, -1.00, 965.6, 594.4)">e</text><text xml:space="preserve" font-family="ArialMT,Arial" font-size="50.0" fill="#FEFFFF" transform="matrix(1.00, 0.00, -0.00, -1.00, 993.4, 594.4)"> </text><text xml:space="preserve" font-family="ArialMT,Arial" font-size="50.0" fill="#FEFFFF" transform="matrix(1.00, 0.00, -0.00, -1.00, 1007.3, 594.4)">o</text><text xml:space="preserve" font-family="ArialMT,Arial" font-size="50.0" fill="#FEFFFF" transform="matrix(1.00, 0.00, -0.00, -1.00, 1035.1, 594.4)">t</text><text xml:space="preserve" font-family="ArialMT,Arial" font-size="50.0" fill="#FEFFFF" transform="matrix(1.00, 0.00, -0.00, -1.00, 1049.0, 594.4)">e</text><text xml:space="preserve" font-family="ArialMT,Arial" font-size="50.0" fill="#FEFFFF" transform="matrix(1.00, 0.00, -0.00, -1.00, 1076.8, 594.4)">v</text><text xml:space="preserve" font-family="ArialMT,Arial" font-size="50.0" fill="#FEFFFF" transform="matrix(1.00, 0.00, -0.00, -1.00, 1101.8, 594.4)">ř</text><text xml:space="preserve" font-family="ArialMT,Arial" font-size="50.0" fill="#FEFFFF" transform="matrix(1.00, 0.00, -0.00, -1.00, 1118.5, 594.4)">e</text><text xml:space="preserve" font-family="ArialMT,Arial" font-size="50.0" fill="#FEFFFF" transform="matrix(1.00, 0.00, -0.00, -1.00, 1146.3, 594.4)">n</text><text xml:space="preserve" font-family="ArialMT,Arial" font-size="50.0" fill="#FEFFFF" transform="matrix(1.00, 0.00, -0.00, -1.00, 1174.1, 594.4)">ý</text><text xml:space="preserve" font-family="ArialMT,Arial" font-size="50.0" fill="#FEFFFF" transform="matrix(1.00, 0.00, -0.00, -1.00, 1199.1, 594.4)">c</text><text xml:space="preserve" font-family="ArialMT,Arial" font-size="50.0" fill="#FEFFFF" transform="matrix(1.00, 0.00, -0.00, -1.00, 1224.1, 594.4)">h</text><text xml:space="preserve" font-family="ArialMT,Arial" font-size="50.0" fill="#FEFFFF" transform="matrix(1.00, 0.00, -0.00, -1.00, 1251.9, 594.4)"> </text><text xml:space="preserve" font-family="ArialMT,Arial" font-size="50.0" fill="#FEFFFF" transform="matrix(1.00, 0.00, -0.00, -1.00, 1265.8, 594.4)">d</text><text xml:space="preserve" font-family="ArialMT,Arial" font-size="50.0" fill="#FEFFFF" transform="matrix(1.00, 0.00, -0.00, -1.00, 1293.6, 594.4)">v</text><text xml:space="preserve" font-family="ArialMT,Arial" font-size="50.0" fill="#FEFFFF" transform="matrix(1.00, 0.00, -0.00, -1.00, 1318.6, 594.4)">e</text><text xml:space="preserve" font-family="ArialMT,Arial" font-size="50.0" fill="#FEFFFF" transform="matrix(1.00, 0.00, -0.00, -1.00, 1346.4, 594.4)">ř</text><text xml:space="preserve" font-family="ArialMT,Arial" font-size="50.0" fill="#FEFFFF" transform="matrix(1.00, 0.00, -0.00, -1.00, 1363.1, 594.4)">í</text><text xml:space="preserve" font-family="ArialMT,Arial" font-size="50.0" fill="#FEFFFF" transform="matrix(1.00, 0.00, -0.00, -1.00, 1377.0, 594.4)">.</text></g></svg>