<?xml version="1.0" encoding="UTF-8" standalone="no"?><svg xmlns="http://www.w3.org/2000/svg" xmlns:xlink="http://www.w3.org/1999/xlink" clip-rule="evenodd" stroke-miterlimit="10" viewBox="0 0 1920 1080"><desc>SVG generated by Keynote</desc><defs></defs><g transform="matrix(1.00, 0.00, -0.00, -1.00, 0.0, 1080.0)"><path d="M 0.0 1080.0 L 1920.0 1080.0 L 1920.0 0.0 L 0.0 0.0 Z M 0.0 1080.0 " fill="#2B3138"></path><text xml:space="preserve" font-family="SourceSansPro-ExtraLight,Source Sans Pro" font-size="100.0" fill="#5BA1A6" transform="matrix(1.00, 0.00, -0.00, -1.00, 733.5, 926.3)">C</text><text xml:space="preserve" font-family="SourceSansPro-ExtraLight,Source Sans Pro" font-size="100.0" fill="#5BA1A6" transform="matrix(1.00, 0.00, -0.00, -1.00, 788.9, 926.3)">í</text><text xml:space="preserve" font-family="SourceSansPro-ExtraLight,Source Sans Pro" font-size="100.0" fill="#5BA1A6" transform="matrix(1.00, 0.00, -0.00, -1.00, 811.1, 926.3)">l</text><text xml:space="preserve" font-family="SourceSansPro-ExtraLight,Source Sans Pro" font-size="100.0" fill="#5BA1A6" transform="matrix(1.00, 0.00, -0.00, -1.00, 834.1, 926.3)"> </text><text xml:space="preserve" font-family="SourceSansPro-ExtraLight,Source Sans Pro" font-size="100.0" fill="#5BA1A6" transform="matrix(1.00, 0.00, -0.00, -1.00, 853.9, 926.3)">p</text><text xml:space="preserve" font-family="SourceSansPro-ExtraLight,Source Sans Pro" font-size="100.0" fill="#5BA1A6" transform="matrix(1.00, 0.00, -0.00, -1.00, 907.9, 926.3)">r</text><text xml:space="preserve" font-family="SourceSansPro-ExtraLight,Source Sans Pro" font-size="100.0" fill="#5BA1A6" transform="matrix(1.00, 0.00, -0.00, -1.00, 937.5, 926.3)">o</text><text xml:space="preserve" font-family="SourceSansPro-ExtraLight,Source Sans Pro" font-size="100.0" fill="#5BA1A6" transform="matrix(1.00, 0.00, -0.00, -1.00, 990.7, 926.3)">j</text><text xml:space="preserve" font-family="SourceSansPro-ExtraLight,Source Sans Pro" font-size="100.0" fill="#5BA1A6" transform="matrix(1.00, 0.00, -0.00, -1.00, 1012.9, 926.3)">e</text><text xml:space="preserve" font-family="SourceSansPro-ExtraLight,Source Sans Pro" font-size="100.0" fill="#5BA1A6" transform="matrix(1.00, 0.00, -0.00, -1.00, 1060.7, 926.3)">k</text><text xml:space="preserve" font-family="SourceSansPro-ExtraLight,Source Sans Pro" font-size="100.0" fill="#5BA1A6" transform="matrix(1.00, 0.00, -0.00, -1.00, 1104.9, 926.3)">t</text><text xml:space="preserve" font-family="SourceSansPro-ExtraLight,Source Sans Pro" font-size="100.0" fill="#5BA1A6" transform="matrix(1.00, 0.00, -0.00, -1.00, 1134.1, 926.3)">u</text><text xml:space="preserve" font-family="Helvetica-Light,Helvetica" font-size="24.0" fill="#FEFFFF" transform="matrix(1.00, 0.00, -0.00, -1.00, 952.8, 22.5)">3</text><text xml:space="preserve" font-family="SourceSansPro-Light,Source Sans Pro" font-size="52.0" fill="#FEFFFF" transform="matrix(1.00, 0.00, -0.00, -1.00, 209.8, 647.3)">N</text><text xml:space="preserve" font-family="SourceSansPro-Light,Source Sans Pro" font-size="52.0" fill="#FEFFFF" transform="matrix(1.00, 0.00, -0.00, -1.00, 242.5, 647.3)">a</text><text xml:space="preserve" font-family="SourceSansPro-Light,Source Sans Pro" font-size="52.0" fill="#FEFFFF" transform="matrix(1.00, 0.00, -0.00, -1.00, 268.5, 647.3)">v</text><text xml:space="preserve" font-family="SourceSansPro-Light,Source Sans Pro" font-size="52.0" fill="#FEFFFF" transform="matrix(1.00, 0.00, -0.00, -1.00, 291.0, 647.3)">r</text><text xml:space="preserve" font-family="SourceSansPro-Light,Source Sans Pro" font-size="52.0" fill="#FEFFFF" transform="matrix(1.00, 0.00, -0.00, -1.00, 307.5, 647.3)">h</text><text xml:space="preserve" font-family="SourceSansPro-Light,Source Sans Pro" font-size="52.0" fill="#FEFFFF" transform="matrix(1.00, 0.00, -0.00, -1.00, 335.0, 647.3)">n</text><text xml:space="preserve" font-family="SourceSansPro-Light,Source Sans Pro" font-size="52.0" fill="#FEFFFF" transform="matrix(1.00, 0.00, -0.00, -1.00, 362.6, 647.3)">o</text><text xml:space="preserve" font-family="SourceSansPro-Light,Source Sans Pro" font-size="52.0" fill="#FEFFFF" transform="matrix(1.00, 0.00, -0.00, -1.00, 390.4, 647.3)">u</text><text xml:space="preserve" font-family="SourceSansPro-Light,Source Sans Pro" font-size="52.0" fill="#FEFFFF" transform="matrix(1.00, 0.00, -0.00, -1.00, 418.0, 647.3)">t</text><text xml:space="preserve" font-family="SourceSansPro-Light,Source Sans Pro" font-size="52.0" fill="#FEFFFF" transform="matrix(1.00, 0.00, -0.00, -1.00, 435.2, 647.3)">,</text><text xml:space="preserve" font-family="SourceSansPro-Light,Source Sans Pro" font-size="52.0" fill="#FEFFFF" transform="matrix(1.00, 0.00, -0.00, -1.00, 446.6, 647.3)"> </text><text xml:space="preserve" font-family="SourceSansPro-Light,Source Sans Pro" font-size="52.0" fill="#FEFFFF" transform="matrix(1.00, 0.00, -0.00, -1.00, 457.0, 647.3)">i</text><text xml:space="preserve" font-family="SourceSansPro-Light,Source Sans Pro" font-size="52.0" fill="#FEFFFF" transform="matrix(1.00, 0.00, -0.00, -1.00, 468.9, 647.3)">m</text><text xml:space="preserve" font-family="SourceSansPro-Light,Source Sans Pro" font-size="52.0" fill="#FEFFFF" transform="matrix(1.00, 0.00, -0.00, -1.00, 511.1, 647.3)">p</text><text xml:space="preserve" font-family="SourceSansPro-Light,Source Sans Pro" font-size="52.0" fill="#FEFFFF" transform="matrix(1.00, 0.00, -0.00, -1.00, 539.4, 647.3)">l</text><text xml:space="preserve" font-family="SourceSansPro-Light,Source Sans Pro" font-size="52.0" fill="#FEFFFF" transform="matrix(1.00, 0.00, -0.00, -1.00, 551.7, 647.3)">e</text><text xml:space="preserve" font-family="SourceSansPro-Light,Source Sans Pro" font-size="52.0" fill="#FEFFFF" transform="matrix(1.00, 0.00, -0.00, -1.00, 576.8, 647.3)">m</text><text xml:space="preserve" font-family="SourceSansPro-Light,Source Sans Pro" font-size="52.0" fill="#FEFFFF" transform="matrix(1.00, 0.00, -0.00, -1.00, 619.0, 647.3)">e</text><text xml:space="preserve" font-family="SourceSansPro-Light,Source Sans Pro" font-size="52.0" fill="#FEFFFF" transform="matrix(1.00, 0.00, -0.00, -1.00, 644.2, 647.3)">n</text><text xml:space="preserve" font-family="SourceSansPro-Light,Source Sans Pro" font-size="52.0" fill="#FEFFFF" transform="matrix(1.00, 0.00, -0.00, -1.00, 671.8, 647.3)">t</text><text xml:space="preserve" font-family="SourceSansPro-Light,Source Sans Pro" font-size="52.0" fill="#FEFFFF" transform="matrix(1.00, 0.00, -0.00, -1.00, 687.5, 647.3)">o</text><text xml:space="preserve" font-family="SourceSansPro-Light,Source Sans Pro" font-size="52.0" fill="#FEFFFF" transform="matrix(1.00, 0.00, -0.00, -1.00, 715.3, 647.3)">v</text><text xml:space="preserve" font-family="SourceSansPro-Light,Source Sans Pro" font-size="52.0" fill="#FEFFFF" transform="matrix(1.00, 0.00, -0.00, -1.00, 736.9, 647.3)">a</text><text xml:space="preserve" font-family="SourceSansPro-Light,Source Sans Pro" font-size="52.0" fill="#FEFFFF" transform="matrix(1.00, 0.00, -0.00, -1.00, 762.8, 647.3)">t</text><text xml:space="preserve" font-family="SourceSansPro-Light,Source Sans Pro" font-size="52.0" fill="#FEFFFF" transform="matrix(1.00, 0.00, -0.00, -1.00, 779.0, 647.3)"> </text><text xml:space="preserve" font-family="SourceSansPro-Light,Source Sans Pro" font-size="52.0" fill="#FEFFFF" transform="matrix(1.00, 0.00, -0.00, -1.00, 789.4, 647.3)">a</text><text xml:space="preserve" font-family="SourceSansPro-Light,Source Sans Pro" font-size="52.0" fill="#FEFFFF" transform="matrix(1.00, 0.00, -0.00, -1.00, 815.3, 647.3)"> </text><text xml:space="preserve" font-family="SourceSansPro-Light,Source Sans Pro" font-size="52.0" fill="#FEFFFF" transform="matrix(1.00, 0.00, -0.00, -1.00, 825.7, 647.3)">o</text><text xml:space="preserve" font-family="SourceSansPro-Light,Source Sans Pro" font-size="52.0" fill="#FEFFFF" transform="matrix(1.00, 0.00, -0.00, -1.00, 853.5, 647.3)">t</text><text xml:space="preserve" font-family="SourceSansPro-Light,Source Sans Pro" font-size="52.0" fill="#FEFFFF" transform="matrix(1.00, 0.00, -0.00, -1.00, 869.2, 647.3)">e</text><text xml:space="preserve" font-family="SourceSansPro-Light,Source Sans Pro" font-size="52.0" fill="#FEFFFF" transform="matrix(1.00, 0.00, -0.00, -1.00, 894.3, 647.3)">s</text><text xml:space="preserve" font-family="SourceSansPro-Light,Source Sans Pro" font-size="52.0" fill="#FEFFFF" transform="matrix(1.00, 0.00, -0.00, -1.00, 915.4, 647.3)">t</text><text xml:space="preserve" font-family="SourceSansPro-Light,Source Sans Pro" font-size="52.0" fill="#FEFFFF" transform="matrix(1.00, 0.00, -0.00, -1.00, 931.1, 647.3)">o</text><text xml:space="preserve" font-family="SourceSansPro-Light,Source Sans Pro" font-size="52.0" fill="#FEFFFF" transform="matrix(1.00, 0.00, -0.00, -1.00, 958.9, 647.3)">v</text><text xml:space="preserve" font-family="SourceSansPro-Light,Source Sans Pro" font-size="52.0" fill="#FEFFFF" transform="matrix(1.00, 0.00, -0.00, -1.00, 980.4, 647.3)">a</text><text xml:space="preserve" font-family="SourceSansPro-Light,Source Sans Pro" font-size="52.0" fill="#FEFFFF" transform="matrix(1.00, 0.00, -0.00, -1.00, 1006.4, 647.3)">t</text><text xml:space="preserve" font-family="SourceSansPro-Light,Source Sans Pro" font-size="52.0" fill="#FEFFFF" transform="matrix(1.00, 0.00, -0.00, -1.00, 1022.6, 647.3)"> </text><text xml:space="preserve" font-family="SourceSansPro-Light,Source Sans Pro" font-size="52.0" fill="#FEFFFF" transform="matrix(1.00, 0.00, -0.00, -1.00, 1033.0, 647.3)">s</text><text xml:space="preserve" font-family="SourceSansPro-Light,Source Sans Pro" font-size="52.0" fill="#FEFFFF" transform="matrix(1.00, 0.00, -0.00, -1.00, 1054.0, 647.3)">y</text><text xml:space="preserve" font-family="SourceSansPro-Light,Source Sans Pro" font-size="52.0" fill="#FEFFFF" transform="matrix(1.00, 0.00, -0.00, -1.00, 1076.7, 647.3)">s</text><text xml:space="preserve" font-family="SourceSansPro-Light,Source Sans Pro" font-size="52.0" fill="#FEFFFF" transform="matrix(1.00, 0.00, -0.00, -1.00, 1097.7, 647.3)">t</text><text xml:space="preserve" font-family="SourceSansPro-Light,Source Sans Pro" font-size="52.0" fill="#FEFFFF" transform="matrix(1.00, 0.00, -0.00, -1.00, 1113.5, 647.3)">é</text><text xml:space="preserve" font-family="SourceSansPro-Light,Source Sans Pro" font-size="52.0" fill="#FEFFFF" transform="matrix(1.00, 0.00, -0.00, -1.00, 1138.6, 647.3)">m</text><text xml:space="preserve" font-family="SourceSansPro-Light,Source Sans Pro" font-size="52.0" fill="#FEFFFF" transform="matrix(1.00, 0.00, -0.00, -1.00, 1180.8, 647.3)"> </text><text xml:space="preserve" font-family="SourceSansPro-Light,Source Sans Pro" font-size="52.0" fill="#FEFFFF" transform="matrix(1.00, 0.00, -0.00, -1.00, 1191.1, 647.3)">p</text><text xml:space="preserve" font-family="SourceSansPro-Light,Source Sans Pro" font-size="52.0" fill="#FEFFFF" transform="matrix(1.00, 0.00, -0.00, -1.00, 1219.4, 647.3)">r</text><text xml:space="preserve" font-family="SourceSansPro-Light,Source Sans Pro" font-size="52.0" fill="#FEFFFF" transform="matrix(1.00, 0.00, -0.00, -1.00, 1235.4, 647.3)">o</text><text xml:space="preserve" font-family="SourceSansPro-Light,Source Sans Pro" font-size="52.0" fill="#FEFFFF" transform="matrix(1.00, 0.00, -0.00, -1.00, 1263.2, 647.3)"> </text><text xml:space="preserve" font-family="SourceSansPro-Light,Source Sans Pro" font-size="52.0" fill="#FEFFFF" transform="matrix(1.00, 0.00, -0.00, -1.00, 1273.6, 647.3)">s</text><text xml:space="preserve" font-family="SourceSansPro-Light,Source Sans Pro" font-size="52.0" fill="#FEFFFF" transform="matrix(1.00, 0.00, -0.00, -1.00, 1294.6, 647.3)">y</text><text xml:space="preserve" font-family="SourceSansPro-Light,Source Sans Pro" font-size="52.0" fill="#FEFFFF" transform="matrix(1.00, 0.00, -0.00, -1.00, 1317.3, 647.3)">n</text><text xml:space="preserve" font-family="SourceSansPro-Light,Source Sans Pro" font-size="52.0" fill="#FEFFFF" transform="matrix(1.00, 0.00, -0.00, -1.00, 1345.0, 647.3)">c</text><text xml:space="preserve" font-family="SourceSansPro-Light,Source Sans Pro" font-size="52.0" fill="#FEFFFF" transform="matrix(1.00, 0.00, -0.00, -1.00, 1368.3, 647.3)">h</text><text xml:space="preserve" font-family="SourceSansPro-Light,Source Sans Pro" font-size="52.0" fill="#FEFFFF" transform="matrix(1.00, 0.00, -0.00, -1.00, 1395.8, 647.3)">r</text><text xml:space="preserve" font-family="SourceSansPro-Light,Source Sans Pro" font-size="52.0" fill="#FEFFFF" transform="matrix(1.00, 0.00, -0.00, -1.00, 1411.7, 647.3)">o</text><text xml:space="preserve" font-family="SourceSansPro-Light,Source Sans Pro" font-size="52.0" fill="#FEFFFF" transform="matrix(1.00, 0.00, -0.00, -1.00, 1439.5, 647.3)">n</text><text xml:space="preserve" font-family="SourceSansPro-Light,Source Sans Pro" font-size="52.0" fill="#FEFFFF" transform="matrix(1.00, 0.00, -0.00, -1.00, 1467.2, 647.3)">i</text><text xml:space="preserve" font-family="SourceSansPro-Light,Source Sans Pro" font-size="52.0" fill="#FEFFFF" transform="matrix(1.00, 0.00, -0.00, -1.00, 1479.1, 647.3)">z</text><text xml:space="preserve" font-family="SourceSansPro-Light,Source Sans Pro" font-size="52.0" fill="#FEFFFF" transform="matrix(1.00, 0.00, -0.00, -1.00, 1498.7, 647.3)">a</text><text xml:space="preserve" font-family="SourceSansPro-Light,Source Sans Pro" font-size="52.0" fill="#FEFFFF" transform="matrix(1.00, 0.00, -0.00, -1.00, 1524.6, 647.3)">c</text><text xml:space="preserve" font-family="SourceSansPro-Light,Source Sans Pro" font-size="52.0" fill="#FEFFFF" transform="matrix(1.00, 0.00, -0.00, -1.00, 1548.0, 647.3)">i</text><text xml:space="preserve" font-family="SourceSansPro-Light,Source Sans Pro" font-size="52.0" fill="#FEFFFF" transform="matrix(1.00, 0.00, -0.00, -1.00, 1559.9, 647.3)"> </text><text xml:space="preserve" font-family="SourceSansPro-Light,Source Sans Pro" font-size="52.0" fill="#FEFFFF" transform="matrix(1.00, 0.00, -0.00, -1.00, 1570.2, 647.3)">s</text><text xml:space="preserve" font-family="SourceSansPro-Light,Source Sans Pro" font-size="52.0" fill="#FEFFFF" transform="matrix(1.00, 0.00, -0.00, -1.00, 1591.3, 647.3)">k</text><text xml:space="preserve" font-family="SourceSansPro-Light,Source Sans Pro" font-size="52.0" fill="#FEFFFF" transform="matrix(1.00, 0.00, -0.00, -1.00, 1614.8, 647.3)">u</text><text xml:space="preserve" font-family="SourceSansPro-Light,Source Sans Pro" font-size="52.0" fill="#FEFFFF" transform="matrix(1.00, 0.00, -0.00, -1.00, 1642.3, 647.3)">p</text><text xml:space="preserve" font-family="SourceSansPro-Light,Source Sans Pro" font-size="52.0" fill="#FEFFFF" transform="matrix(1.00, 0.00, -0.00, -1.00, 1670.6, 647.3)">i</text><text xml:space="preserve" font-family="SourceSansPro-Light,Source Sans Pro" font-size="52.0" fill="#FEFFFF" transform="matrix(1.00, 0.00, -0.00, -1.00, 1682.5, 647.3)">n</text><text xml:space="preserve" font-family="SourceSansPro-Light,Source Sans Pro" font-size="52.0" fill="#FEFFFF" transform="matrix(1.00, 0.00, -0.00, -1.00, 1710.2, 647.3)"> </text><text xml:space="preserve" font-family="SourceSansPro-Light,Source Sans Pro" font-size="52.0" fill="#FEFFFF" transform="matrix(1.00, 0.00, -0.00, -1.00, 553.7, 582.3)">s</text><text xml:space="preserve" font-family="SourceSansPro-Light,Source Sans Pro" font-size="52.0" fill="#FEFFFF" transform="matrix(1.00, 0.00, -0.00, -1.00, 574.8, 582.3)">t</text><text xml:space="preserve" font-family="SourceSansPro-Light,Source Sans Pro" font-size="52.0" fill="#FEFFFF" transform="matrix(1.00, 0.00, -0.00, -1.00, 590.5, 582.3)">u</text><text xml:space="preserve" font-family="SourceSansPro-Light,Source Sans Pro" font-size="52.0" fill="#FEFFFF" transform="matrix(1.00, 0.00, -0.00, -1.00, 618.0, 582.3)">d</text><text xml:space="preserve" font-family="SourceSansPro-Light,Source Sans Pro" font-size="52.0" fill="#FEFFFF" transform="matrix(1.00, 0.00, -0.00, -1.00, 646.3, 582.3)">e</text><text xml:space="preserve" font-family="SourceSansPro-Light,Source Sans Pro" font-size="52.0" fill="#FEFFFF" transform="matrix(1.00, 0.00, -0.00, -1.00, 671.5, 582.3)">n</text><text xml:space="preserve" font-family="SourceSansPro-Light,Source Sans Pro" font-size="52.0" fill="#FEFFFF" transform="matrix(1.00, 0.00, -0.00, -1.00, 699.1, 582.3)">t</text><text xml:space="preserve" font-family="SourceSansPro-Light,Source Sans Pro" font-size="52.0" fill="#FEFFFF" transform="matrix(1.00, 0.00, -0.00, -1.00, 714.9, 582.3)">ů</text><text xml:space="preserve" font-family="SourceSansPro-Light,Source Sans Pro" font-size="52.0" fill="#FEFFFF" transform="matrix(1.00, 0.00, -0.00, -1.00, 742.4, 582.3)"> </text><text xml:space="preserve" font-family="SourceSansPro-Light,Source Sans Pro" font-size="52.0" fill="#FEFFFF" transform="matrix(1.00, 0.00, -0.00, -1.00, 752.7, 582.3)">v</text><text xml:space="preserve" font-family="SourceSansPro-Light,Source Sans Pro" font-size="52.0" fill="#FEFFFF" transform="matrix(1.00, 0.00, -0.00, -1.00, 775.3, 582.3)"> </text><text xml:space="preserve" font-family="SourceSansPro-Light,Source Sans Pro" font-size="52.0" fill="#FEFFFF" transform="matrix(1.00, 0.00, -0.00, -1.00, 785.6, 582.3)">r</text><text xml:space="preserve" font-family="SourceSansPro-Light,Source Sans Pro" font-size="52.0" fill="#FEFFFF" transform="matrix(1.00, 0.00, -0.00, -1.00, 800.9, 582.3)">á</text><text xml:space="preserve" font-family="SourceSansPro-Light,Source Sans Pro" font-size="52.0" fill="#FEFFFF" transform="matrix(1.00, 0.00, -0.00, -1.00, 826.9, 582.3)">m</text><text xml:space="preserve" font-family="SourceSansPro-Light,Source Sans Pro" font-size="52.0" fill="#FEFFFF" transform="matrix(1.00, 0.00, -0.00, -1.00, 869.1, 582.3)">c</text><text xml:space="preserve" font-family="SourceSansPro-Light,Source Sans Pro" font-size="52.0" fill="#FEFFFF" transform="matrix(1.00, 0.00, -0.00, -1.00, 892.5, 582.3)">i</text><text xml:space="preserve" font-family="SourceSansPro-Light,Source Sans Pro" font-size="52.0" fill="#FEFFFF" transform="matrix(1.00, 0.00, -0.00, -1.00, 904.4, 582.3)"> </text><text xml:space="preserve" font-family="SourceSansPro-Light,Source Sans Pro" font-size="52.0" fill="#FEFFFF" transform="matrix(1.00, 0.00, -0.00, -1.00, 914.7, 582.3)">d</text><text xml:space="preserve" font-family="SourceSansPro-Light,Source Sans Pro" font-size="52.0" fill="#FEFFFF" transform="matrix(1.00, 0.00, -0.00, -1.00, 943.0, 582.3)">n</text><text xml:space="preserve" font-family="SourceSansPro-Light,Source Sans Pro" font-size="52.0" fill="#FEFFFF" transform="matrix(1.00, 0.00, -0.00, -1.00, 970.7, 582.3)">e</text><text xml:space="preserve" font-family="SourceSansPro-Light,Source Sans Pro" font-size="52.0" fill="#FEFFFF" transform="matrix(1.00, 0.00, -0.00, -1.00, 995.8, 582.3)"> </text><text xml:space="preserve" font-family="SourceSansPro-Light,Source Sans Pro" font-size="52.0" fill="#FEFFFF" transform="matrix(1.00, 0.00, -0.00, -1.00, 1006.1, 582.3)">o</text><text xml:space="preserve" font-family="SourceSansPro-Light,Source Sans Pro" font-size="52.0" fill="#FEFFFF" transform="matrix(1.00, 0.00, -0.00, -1.00, 1033.9, 582.3)">t</text><text xml:space="preserve" font-family="SourceSansPro-Light,Source Sans Pro" font-size="52.0" fill="#FEFFFF" transform="matrix(1.00, 0.00, -0.00, -1.00, 1049.6, 582.3)">e</text><text xml:space="preserve" font-family="SourceSansPro-Light,Source Sans Pro" font-size="52.0" fill="#FEFFFF" transform="matrix(1.00, 0.00, -0.00, -1.00, 1075.4, 582.3)">v</text><text xml:space="preserve" font-family="SourceSansPro-Light,Source Sans Pro" font-size="52.0" fill="#FEFFFF" transform="matrix(1.00, 0.00, -0.00, -1.00, 1098.0, 582.3)">ř</text><text xml:space="preserve" font-family="SourceSansPro-Light,Source Sans Pro" font-size="52.0" fill="#FEFFFF" transform="matrix(1.00, 0.00, -0.00, -1.00, 1113.9, 582.3)">e</text><text xml:space="preserve" font-family="SourceSansPro-Light,Source Sans Pro" font-size="52.0" fill="#FEFFFF" transform="matrix(1.00, 0.00, -0.00, -1.00, 1139.0, 582.3)">n</text><text xml:space="preserve" font-family="SourceSansPro-Light,Source Sans Pro" font-size="52.0" fill="#FEFFFF" transform="matrix(1.00, 0.00, -0.00, -1.00, 1166.7, 582.3)">ý</text><text xml:space="preserve" font-family="SourceSansPro-Light,Source Sans Pro" font-size="52.0" fill="#FEFFFF" transform="matrix(1.00, 0.00, -0.00, -1.00, 1189.4, 582.3)">c</text><text xml:space="preserve" font-family="SourceSansPro-Light,Source Sans Pro" font-size="52.0" fill="#FEFFFF" transform="matrix(1.00, 0.00, -0.00, -1.00, 1212.7, 582.3)">h</text><text xml:space="preserve" font-family="SourceSansPro-Light,Source Sans Pro" font-size="52.0" fill="#FEFFFF" transform="matrix(1.00, 0.00, -0.00, -1.00, 1240.2, 582.3)"> </text><text xml:space="preserve" font-family="SourceSansPro-Light,Source Sans Pro" font-size="52.0" fill="#FEFFFF" transform="matrix(1.00, 0.00, -0.00, -1.00, 1250.5, 582.3)">d</text><text xml:space="preserve" font-family="SourceSansPro-Light,Source Sans Pro" font-size="52.0" fill="#FEFFFF" transform="matrix(1.00, 0.00, -0.00, -1.00, 1278.8, 582.3)">v</text><text xml:space="preserve" font-family="SourceSansPro-Light,Source Sans Pro" font-size="52.0" fill="#FEFFFF" transform="matrix(1.00, 0.00, -0.00, -1.00, 1301.4, 582.3)">e</text><text xml:space="preserve" font-family="SourceSansPro-Light,Source Sans Pro" font-size="52.0" fill="#FEFFFF" transform="matrix(1.00, 0.00, -0.00, -1.00, 1326.5, 582.3)">ř</text><text xml:space="preserve" font-family="SourceSansPro-Light,Source Sans Pro" font-size="52.0" fill="#FEFFFF" transform="matrix(1.00, 0.00, -0.00, -1.00, 1343.0, 582.3)">í</text><text xml:space="preserve" font-family="SourceSansPro-Light,Source Sans Pro" font-size="52.0" fill="#FEFFFF" transform="matrix(1.00, 0.00, -0.00, -1.00, 1354.9, 582.3)">.</text></g></svg>