<?xml version="1.0" encoding="UTF-8" standalone="no"?><svg xmlns="http://www.w3.org/2000/svg" xmlns:xlink="http://www.w3.org/1999/xlink" clip-rule="evenodd" stroke-miterlimit="10" viewBox="0 0 205 21"><desc>SVG generated by Keynote</desc><defs></defs><g transform="matrix(1.00, 0.00, -0.00, -1.00, 0.0, 21.0)"><path d="M 14.6 -0.5 L 17.0 -0.5 L 184.8 -0.5 L 187.6 -0.5 " fill="none" stroke="#FEFFFE" stroke-width="5.00" stroke-dasharray="10.0, 10.0" transform="matrix(1.00, 0.00, 0.00, -1.00, 1.1, 10.7)"></path><path d="M 194.7 19.7 C 199.4 19.7 203.2 15.9 203.2 11.2 C 203.2 6.5 199.4 2.7 194.7 2.7 C 190.0 2.7 186.2 6.5 186.2 11.2 C 186.2 15.9 190.0 19.7 194.7 19.7 Z M 194.7 19.7 " fill="#FEFFFE"></path><path d="M 9.7 2.7 C 5.0 2.7 1.2 6.5 1.2 11.2 C 1.2 15.9 5.0 19.7 9.7 19.7 C 14.4 19.7 18.2 15.9 18.2 11.2 C 18.2 6.5 14.4 2.7 9.7 2.7 Z M 9.7 2.7 " fill="#FEFFFE"></path></g></svg>