<?xml version="1.0" encoding="UTF-8" standalone="no"?><svg xmlns="http://www.w3.org/2000/svg" xmlns:xlink="http://www.w3.org/1999/xlink" clip-rule="evenodd" stroke-miterlimit="10" viewBox="0 0 230 457"><desc>SVG generated by Keynote</desc><defs></defs><g transform="matrix(1.00, 0.00, -0.00, -1.00, 0.0, 457.0)"><path d="M 14.6 441.4 L 16.9 440.4 C 65.3 432.3 107.5 401.9 130.0 357.5 C 171.6 275.5 133.3 177.1 160.6 90.3 C 170.2 59.9 187.4 32.7 210.4 11.1 L 212.3 9.4 " fill="none" stroke="#FEFFFE" stroke-width="5.00" stroke-dasharray="10.0, 10.0" transform="matrix(1.00, 0.00, 0.00, -1.00, 2.0, 452.3)"></path><path d="M 213.3 453.2 C 216.9 456.3 222.2 455.9 225.3 452.3 C 228.3 448.7 227.9 443.4 224.4 440.3 C 220.8 437.3 215.4 437.7 212.4 441.2 C 209.3 444.8 209.7 450.2 213.3 453.2 Z M 213.3 453.2 " fill="#FEFFFE"></path><path d="M 11.6 1.7 C 6.9 1.2 2.7 4.6 2.2 9.2 C 1.6 13.9 5.0 18.1 9.7 18.6 C 14.3 19.1 18.5 15.8 19.1 11.1 C 19.6 6.5 16.2 2.3 11.6 1.7 Z M 11.6 1.7 " fill="#FEFFFE"></path></g></svg>