<?xml version="1.0" encoding="UTF-8" standalone="no"?><svg xmlns="http://www.w3.org/2000/svg" xmlns:xlink="http://www.w3.org/1999/xlink" clip-rule="evenodd" stroke-miterlimit="10" viewBox="0 0 253 425"><desc>SVG generated by Keynote</desc><defs></defs><g transform="matrix(1.00, 0.00, -0.00, -1.00, 0.0, 425.0)"><path d="M 14.6 0.6 L 17.0 0.6 C 65.7 3.4 109.4 33.3 128.5 79.3 C 145.2 119.2 139.5 163.7 143.0 206.7 C 149.0 280.0 181.7 348.4 234.4 399.1 L 236.2 400.8 " fill="none" stroke="#FEFFFE" stroke-width="5.00" stroke-dasharray="10.0, 10.0" transform="matrix(1.00, 0.00, 0.00, -1.00, 1.3, 415.4)"></path><path d="M 247.7 16.9 C 251.2 13.7 251.5 8.4 248.3 4.9 C 245.2 1.4 239.8 1.2 236.3 4.3 C 232.8 7.5 232.6 12.8 235.7 16.3 C 238.9 19.8 244.3 20.1 247.7 16.9 Z M 247.7 16.9 " fill="#FEFFFE"></path><path d="M 10.0 406.3 C 5.4 406.2 1.5 410.0 1.5 414.7 C 1.4 419.4 5.2 423.2 9.9 423.3 C 14.6 423.3 18.4 419.5 18.5 414.8 C 18.5 410.2 14.7 406.3 10.0 406.3 Z M 10.0 406.3 " fill="#FEFFFE"></path></g></svg>