<?xml version="1.0" encoding="UTF-8" standalone="no"?><svg xmlns="http://www.w3.org/2000/svg" xmlns:xlink="http://www.w3.org/1999/xlink" clip-rule="evenodd" stroke-miterlimit="10" viewBox="0 0 1920 1080"><desc>SVG generated by Keynote</desc><defs></defs><g transform="matrix(1.00, 0.00, -0.00, -1.00, 0.0, 1080.0)"><path d="M 0.0 1080.0 L 1920.0 1080.0 L 1920.0 0.0 L 0.0 0.0 Z M 0.0 1080.0 " fill="#2B3138"></path><text xml:space="preserve" font-family="ArialMT,Arial" font-size="90.0" fill="#5BA1A6" transform="matrix(1.00, 0.00, -0.00, -1.00, 814.9, 931.0)">S</text><text xml:space="preserve" font-family="ArialMT,Arial" font-size="90.0" fill="#5BA1A6" transform="matrix(1.00, 0.00, -0.00, -1.00, 874.9, 931.0)">h</text><text xml:space="preserve" font-family="ArialMT,Arial" font-size="90.0" fill="#5BA1A6" transform="matrix(1.00, 0.00, -0.00, -1.00, 925.0, 931.0)">r</text><text xml:space="preserve" font-family="ArialMT,Arial" font-size="90.0" fill="#5BA1A6" transform="matrix(1.00, 0.00, -0.00, -1.00, 955.0, 931.0)">n</text><text xml:space="preserve" font-family="ArialMT,Arial" font-size="90.0" fill="#5BA1A6" transform="matrix(1.00, 0.00, -0.00, -1.00, 1005.1, 931.0)">u</text><text xml:space="preserve" font-family="ArialMT,Arial" font-size="90.0" fill="#5BA1A6" transform="matrix(1.00, 0.00, -0.00, -1.00, 1055.1, 931.0)">t</text><text xml:space="preserve" font-family="ArialMT,Arial" font-size="90.0" fill="#5BA1A6" transform="matrix(1.00, 0.00, -0.00, -1.00, 1080.1, 931.0)">í</text><text xml:space="preserve" font-family="Helvetica-Light,Helvetica" font-size="24.0" fill="#FEFFFF" transform="matrix(1.00, 0.00, -0.00, -1.00, 946.2, 22.5)">1</text><text xml:space="preserve" font-family="Helvetica-Light,Helvetica" font-size="24.0" fill="#FEFFFF" transform="matrix(1.00, 0.00, -0.00, -1.00, 959.5, 22.5)">9</text><text xml:space="preserve" font-family="ArialMT,Arial" font-size="59.0" fill="#FEFFFF" transform="matrix(1.00, 0.00, -0.00, -1.00, 130.3, 510.0)">h</text><text xml:space="preserve" font-family="ArialMT,Arial" font-size="59.0" fill="#FEFFFF" transform="matrix(1.00, 0.00, -0.00, -1.00, 163.1, 510.0)">t</text><text xml:space="preserve" font-family="ArialMT,Arial" font-size="59.0" fill="#FEFFFF" transform="matrix(1.00, 0.00, -0.00, -1.00, 179.5, 510.0)">t</text><text xml:space="preserve" font-family="ArialMT,Arial" font-size="59.0" fill="#FEFFFF" transform="matrix(1.00, 0.00, -0.00, -1.00, 195.8, 510.0)">p</text><text xml:space="preserve" font-family="ArialMT,Arial" font-size="59.0" fill="#FEFFFF" transform="matrix(1.00, 0.00, -0.00, -1.00, 228.7, 510.0)">:</text><text xml:space="preserve" font-family="ArialMT,Arial" font-size="59.0" fill="#FEFFFF" transform="matrix(1.00, 0.00, -0.00, -1.00, 245.1, 510.0)">/</text><text xml:space="preserve" font-family="ArialMT,Arial" font-size="59.0" fill="#FEFFFF" transform="matrix(1.00, 0.00, -0.00, -1.00, 261.4, 510.0)">/</text><text xml:space="preserve" font-family="ArialMT,Arial" font-size="59.0" fill="#FEFFFF" transform="matrix(1.00, 0.00, -0.00, -1.00, 277.8, 510.0)">d</text><text xml:space="preserve" font-family="ArialMT,Arial" font-size="59.0" fill="#FEFFFF" transform="matrix(1.00, 0.00, -0.00, -1.00, 310.6, 510.0)">o</text><text xml:space="preserve" font-family="ArialMT,Arial" font-size="59.0" fill="#FEFFFF" transform="matrix(1.00, 0.00, -0.00, -1.00, 343.5, 510.0)">d</text><text xml:space="preserve" font-family="ArialMT,Arial" font-size="59.0" fill="#FEFFFF" transform="matrix(1.00, 0.00, -0.00, -1.00, 376.3, 510.0)">.</text><text xml:space="preserve" font-family="ArialMT,Arial" font-size="59.0" fill="#FEFFFF" transform="matrix(1.00, 0.00, -0.00, -1.00, 392.7, 510.0)">f</text><text xml:space="preserve" font-family="ArialMT,Arial" font-size="59.0" fill="#FEFFFF" transform="matrix(1.00, 0.00, -0.00, -1.00, 409.0, 510.0)">e</text><text xml:space="preserve" font-family="ArialMT,Arial" font-size="59.0" fill="#FEFFFF" transform="matrix(1.00, 0.00, -0.00, -1.00, 441.9, 510.0)">l</text><text xml:space="preserve" font-family="ArialMT,Arial" font-size="59.0" fill="#FEFFFF" transform="matrix(1.00, 0.00, -0.00, -1.00, 455.0, 510.0)">k</text><text xml:space="preserve" font-family="ArialMT,Arial" font-size="59.0" fill="#FEFFFF" transform="matrix(1.00, 0.00, -0.00, -1.00, 484.5, 510.0)">.</text><text xml:space="preserve" font-family="ArialMT,Arial" font-size="59.0" fill="#FEFFFF" transform="matrix(1.00, 0.00, -0.00, -1.00, 500.9, 510.0)">c</text><text xml:space="preserve" font-family="ArialMT,Arial" font-size="59.0" fill="#FEFFFF" transform="matrix(1.00, 0.00, -0.00, -1.00, 530.4, 510.0)">v</text><text xml:space="preserve" font-family="ArialMT,Arial" font-size="59.0" fill="#FEFFFF" transform="matrix(1.00, 0.00, -0.00, -1.00, 559.9, 510.0)">u</text><text xml:space="preserve" font-family="ArialMT,Arial" font-size="59.0" fill="#FEFFFF" transform="matrix(1.00, 0.00, -0.00, -1.00, 592.7, 510.0)">t</text><text xml:space="preserve" font-family="ArialMT,Arial" font-size="59.0" fill="#FEFFFF" transform="matrix(1.00, 0.00, -0.00, -1.00, 609.1, 510.0)">.</text><text xml:space="preserve" font-family="ArialMT,Arial" font-size="59.0" fill="#FEFFFF" transform="matrix(1.00, 0.00, -0.00, -1.00, 625.5, 510.0)">c</text><text xml:space="preserve" font-family="ArialMT,Arial" font-size="59.0" fill="#FEFFFF" transform="matrix(1.00, 0.00, -0.00, -1.00, 655.0, 510.0)">z</text><text xml:space="preserve" font-family="Arial-ItalicMT,Arial" font-style="italic" font-size="62.0" fill="#5AA0A5" transform="matrix(1.00, 0.00, -0.00, -1.00, 130.8, 588.1)">W</text><text xml:space="preserve" font-family="Arial-ItalicMT,Arial" font-style="italic" font-size="62.0" fill="#5AA0A5" transform="matrix(1.00, 0.00, -0.00, -1.00, 188.2, 588.1)">e</text><text xml:space="preserve" font-family="Arial-ItalicMT,Arial" font-style="italic" font-size="62.0" fill="#5AA0A5" transform="matrix(1.00, 0.00, -0.00, -1.00, 222.6, 588.1)">b</text><text xml:space="preserve" font-family="Arial-ItalicMT,Arial" font-style="italic" font-size="62.0" fill="#5AA0A5" transform="matrix(1.00, 0.00, -0.00, -1.00, 130.3, 380.1)">A</text><text xml:space="preserve" font-family="Arial-ItalicMT,Arial" font-style="italic" font-size="62.0" fill="#5AA0A5" transform="matrix(1.00, 0.00, -0.00, -1.00, 171.6, 380.1)">n</text><text xml:space="preserve" font-family="Arial-ItalicMT,Arial" font-style="italic" font-size="62.0" fill="#5AA0A5" transform="matrix(1.00, 0.00, -0.00, -1.00, 206.1, 380.1)">d</text><text xml:space="preserve" font-family="Arial-ItalicMT,Arial" font-style="italic" font-size="62.0" fill="#5AA0A5" transform="matrix(1.00, 0.00, -0.00, -1.00, 240.6, 380.1)">r</text><text xml:space="preserve" font-family="Arial-ItalicMT,Arial" font-style="italic" font-size="62.0" fill="#5AA0A5" transform="matrix(1.00, 0.00, -0.00, -1.00, 261.3, 380.1)">o</text><text xml:space="preserve" font-family="Arial-ItalicMT,Arial" font-style="italic" font-size="62.0" fill="#5AA0A5" transform="matrix(1.00, 0.00, -0.00, -1.00, 295.7, 380.1)">i</text><text xml:space="preserve" font-family="Arial-ItalicMT,Arial" font-style="italic" font-size="62.0" fill="#5AA0A5" transform="matrix(1.00, 0.00, -0.00, -1.00, 309.5, 380.1)">d</text><g><clipPath id="clip0x600003aac780"><path d="M 126.3 184.5 L 488.0 184.5 L 488.0 308.8 L 126.3 308.8 Z M 126.3 184.5 "></path></clipPath><g clip-path="url(#clip0x600003aac780)"><image xlink:href="002A8F96B81A8D62F55C5038E661104C.png" width="2357.00" height="810.00" transform="matrix(0.15, 0.00, -0.00, -0.15, 126.0, 309.0)"></image></g></g><g><clipPath id="clip0x600003aac7e0"><path d="M 119.9 304.2 L 392.5 304.2 L 392.5 366.9 L 119.9 366.9 Z M 119.9 304.2 "></path></clipPath><g clip-path="url(#clip0x600003aac7e0)"><text xml:space="preserve" font-family="ArialMT,Arial" font-size="37.0" fill="#FEFFFF" transform="matrix(1.00, 0.00, -0.00, -1.00, 130.8, 323.6)">c</text><text xml:space="preserve" font-family="ArialMT,Arial" font-size="37.0" fill="#FEFFFF" transform="matrix(1.00, 0.00, -0.00, -1.00, 149.3, 323.6)">o</text><text xml:space="preserve" font-family="ArialMT,Arial" font-size="37.0" fill="#FEFFFF" transform="matrix(1.00, 0.00, -0.00, -1.00, 169.8, 323.6)">m</text><text xml:space="preserve" font-family="ArialMT,Arial" font-size="37.0" fill="#FEFFFF" transform="matrix(1.00, 0.00, -0.00, -1.00, 200.7, 323.6)">i</text><text xml:space="preserve" font-family="ArialMT,Arial" font-size="37.0" fill="#FEFFFF" transform="matrix(1.00, 0.00, -0.00, -1.00, 208.9, 323.6)">n</text><text xml:space="preserve" font-family="ArialMT,Arial" font-size="37.0" fill="#FEFFFF" transform="matrix(1.00, 0.00, -0.00, -1.00, 229.5, 323.6)">g</text><text xml:space="preserve" font-family="ArialMT,Arial" font-size="37.0" fill="#FEFFFF" transform="matrix(1.00, 0.00, -0.00, -1.00, 250.1, 323.6)"> </text><text xml:space="preserve" font-family="ArialMT,Arial" font-size="37.0" fill="#FEFFFF" transform="matrix(1.00, 0.00, -0.00, -1.00, 260.3, 323.6)">s</text><text xml:space="preserve" font-family="ArialMT,Arial" font-size="37.0" fill="#FEFFFF" transform="matrix(1.00, 0.00, -0.00, -1.00, 278.8, 323.6)">o</text><text xml:space="preserve" font-family="ArialMT,Arial" font-size="37.0" fill="#FEFFFF" transform="matrix(1.00, 0.00, -0.00, -1.00, 299.4, 323.6)">o</text><text xml:space="preserve" font-family="ArialMT,Arial" font-size="37.0" fill="#FEFFFF" transform="matrix(1.00, 0.00, -0.00, -1.00, 320.0, 323.6)">n</text><text xml:space="preserve" font-family="ArialMT,Arial" font-size="37.0" fill="#FEFFFF" transform="matrix(1.00, 0.00, -0.00, -1.00, 340.6, 323.6)"> </text><text xml:space="preserve" font-family="ArialMT,Arial" font-size="37.0" fill="#FEFFFF" transform="matrix(1.00, 0.00, -0.00, -1.00, 350.9, 323.6)">t</text><text xml:space="preserve" font-family="ArialMT,Arial" font-size="37.0" fill="#FEFFFF" transform="matrix(1.00, 0.00, -0.00, -1.00, 361.1, 323.6)">o</text></g></g></g></svg>