<?xml version="1.0" encoding="UTF-8" standalone="no"?><svg xmlns="http://www.w3.org/2000/svg" xmlns:xlink="http://www.w3.org/1999/xlink" clip-rule="evenodd" stroke-miterlimit="10" viewBox="0 0 673 113"><desc>SVG generated by Keynote</desc><defs></defs><g transform="matrix(1.00, 0.00, -0.00, -1.00, 0.0, 113.0)"><g><clipPath id="clip0x6000024abbe0"><path d="M 0.7 0.4 L 672.8 0.4 L 672.8 112.4 L 0.7 112.4 Z M 0.7 0.4 "></path></clipPath><g clip-path="url(#clip0x6000024abbe0)"><image xlink:href="B4E89968DEE067338A84ECF9EF287E17.png" width="670.00" height="110.00" transform="matrix(1.00, 0.00, -0.00, -1.00, 1.7, 111.4)" opacity="0.50"></image><path d="M 7.0 108.0 L 667.0 108.0 L 667.0 8.0 L 7.0 8.0 Z M 6.7 108.4 " fill="#FEFFFE"></path></g></g><g><clipPath id="clip0x6000024ac120"><path d="M 12.8 37.4 L 257.0 37.4 L 257.0 96.9 L 12.8 96.9 Z M 12.8 37.4 "></path></clipPath><g clip-path="url(#clip0x6000024ac120)"><text xml:space="preserve" font-family="ArialMT,Arial" font-size="35.0" fill="#000000" transform="matrix(1.00, 0.00, -0.00, -1.00, 22.5, 55.7)">D</text><text xml:space="preserve" font-family="ArialMT,Arial" font-size="35.0" fill="#000000" transform="matrix(1.00, 0.00, -0.00, -1.00, 47.8, 55.7)">O</text><text xml:space="preserve" font-family="ArialMT,Arial" font-size="35.0" fill="#000000" transform="matrix(1.00, 0.00, -0.00, -1.00, 75.0, 55.7)">D</text><text xml:space="preserve" font-family="ArialMT,Arial" font-size="35.0" fill="#000000" transform="matrix(1.00, 0.00, -0.00, -1.00, 100.3, 55.7)"> </text><text xml:space="preserve" font-family="ArialMT,Arial" font-size="35.0" fill="#000000" transform="matrix(1.00, 0.00, -0.00, -1.00, 110.0, 55.7)">-</text><text xml:space="preserve" font-family="ArialMT,Arial" font-size="35.0" fill="#000000" transform="matrix(1.00, 0.00, -0.00, -1.00, 121.7, 55.7)"> </text><text xml:space="preserve" font-family="ArialMT,Arial" font-size="35.0" fill="#000000" transform="matrix(1.00, 0.00, -0.00, -1.00, 131.4, 55.7)">D</text><text xml:space="preserve" font-family="ArialMT,Arial" font-size="35.0" fill="#000000" transform="matrix(1.00, 0.00, -0.00, -1.00, 156.7, 55.7)">e</text><text xml:space="preserve" font-family="ArialMT,Arial" font-size="35.0" fill="#000000" transform="matrix(1.00, 0.00, -0.00, -1.00, 176.2, 55.7)">j</text><text xml:space="preserve" font-family="ArialMT,Arial" font-size="35.0" fill="#000000" transform="matrix(1.00, 0.00, -0.00, -1.00, 183.9, 55.7)">v</text><text xml:space="preserve" font-family="ArialMT,Arial" font-size="35.0" fill="#000000" transform="matrix(1.00, 0.00, -0.00, -1.00, 201.4, 55.7)">i</text><text xml:space="preserve" font-family="ArialMT,Arial" font-size="35.0" fill="#000000" transform="matrix(1.00, 0.00, -0.00, -1.00, 209.2, 55.7)">c</text><text xml:space="preserve" font-family="ArialMT,Arial" font-size="35.0" fill="#000000" transform="matrix(1.00, 0.00, -0.00, -1.00, 226.7, 55.7)">e</text></g></g><g><clipPath id="clip0x6000024ac7e0"><path d="M 17.5 17.8 L 118.6 17.8 L 118.6 48.8 L 17.5 48.8 Z M 17.5 17.8 "></path></clipPath><g clip-path="url(#clip0x6000024ac7e0)"><text xml:space="preserve" font-family="ArialMT,Arial" font-size="18.0" fill="#000000" transform="matrix(1.00, 0.00, -0.00, -1.00, 22.5, 27.2)">1</text><text xml:space="preserve" font-family="ArialMT,Arial" font-size="18.0" fill="#000000" transform="matrix(1.00, 0.00, -0.00, -1.00, 32.6, 27.2)">2</text><text xml:space="preserve" font-family="ArialMT,Arial" font-size="18.0" fill="#000000" transform="matrix(1.00, 0.00, -0.00, -1.00, 42.6, 27.2)">.</text><text xml:space="preserve" font-family="ArialMT,Arial" font-size="18.0" fill="#000000" transform="matrix(1.00, 0.00, -0.00, -1.00, 47.6, 27.2)"> </text><text xml:space="preserve" font-family="ArialMT,Arial" font-size="18.0" fill="#000000" transform="matrix(1.00, 0.00, -0.00, -1.00, 52.6, 27.2)">7</text><text xml:space="preserve" font-family="ArialMT,Arial" font-size="18.0" fill="#000000" transform="matrix(1.00, 0.00, -0.00, -1.00, 62.6, 27.2)">.</text><text xml:space="preserve" font-family="ArialMT,Arial" font-size="18.0" fill="#000000" transform="matrix(1.00, 0.00, -0.00, -1.00, 67.6, 27.2)"> </text><text xml:space="preserve" font-family="ArialMT,Arial" font-size="18.0" fill="#000000" transform="matrix(1.00, 0.00, -0.00, -1.00, 72.6, 27.2)">2</text><text xml:space="preserve" font-family="ArialMT,Arial" font-size="18.0" fill="#000000" transform="matrix(1.00, 0.00, -0.00, -1.00, 82.6, 27.2)">0</text><text xml:space="preserve" font-family="ArialMT,Arial" font-size="18.0" fill="#000000" transform="matrix(1.00, 0.00, -0.00, -1.00, 92.6, 27.2)">1</text><text xml:space="preserve" font-family="ArialMT,Arial" font-size="18.0" fill="#000000" transform="matrix(1.00, 0.00, -0.00, -1.00, 102.6, 27.2)">5</text></g></g></g></svg>