<?xml version="1.0" encoding="UTF-8" standalone="no"?><svg xmlns="http://www.w3.org/2000/svg" xmlns:xlink="http://www.w3.org/1999/xlink" clip-rule="evenodd" stroke-miterlimit="10" viewBox="0 0 673 113"><desc>SVG generated by Keynote</desc><defs></defs><g transform="matrix(1.00, 0.00, -0.00, -1.00, 0.0, 113.0)"><g><clipPath id="clip0x6080012a30c0"><path d="M 0.7 0.4 L 672.8 0.4 L 672.8 112.4 L 0.7 112.4 Z M 0.7 0.4 "></path></clipPath><g clip-path="url(#clip0x6080012a30c0)"><image xlink:href="B4E89968DEE067338A84ECF9EF287E17.png" width="670.00" height="110.00" transform="matrix(1.00, 0.00, -0.00, -1.00, 1.7, 111.4)" opacity="0.50"></image><path d="M 7.0 108.0 L 667.0 108.0 L 667.0 8.0 L 7.0 8.0 Z M 6.7 108.4 " fill="#FEFFFE"></path></g></g><g><clipPath id="clip0x600001aa3780"><path d="M 10.9 33.1 L 242.3 33.1 L 242.3 102.4 L 10.9 102.4 Z M 10.9 33.1 "></path></clipPath><g clip-path="url(#clip0x600001aa3780)"><text xml:space="preserve" font-family="SourceSansPro-Regular,Source Sans Pro" font-size="37.0" fill="#000000" transform="matrix(1.00, 0.00, -0.00, -1.00, 22.5, 54.8)">D</text><text xml:space="preserve" font-family="SourceSansPro-Regular,Source Sans Pro" font-size="37.0" fill="#000000" transform="matrix(1.00, 0.00, -0.00, -1.00, 45.2, 54.8)">O</text><text xml:space="preserve" font-family="SourceSansPro-Regular,Source Sans Pro" font-size="37.0" fill="#000000" transform="matrix(1.00, 0.00, -0.00, -1.00, 69.6, 54.8)">D</text><text xml:space="preserve" font-family="SourceSansPro-Regular,Source Sans Pro" font-size="37.0" fill="#000000" transform="matrix(1.00, 0.00, -0.00, -1.00, 92.2, 54.8)"> </text><text xml:space="preserve" font-family="SourceSansPro-Regular,Source Sans Pro" font-size="37.0" fill="#000000" transform="matrix(1.00, 0.00, -0.00, -1.00, 99.7, 54.8)">-</text><text xml:space="preserve" font-family="SourceSansPro-Regular,Source Sans Pro" font-size="37.0" fill="#000000" transform="matrix(1.00, 0.00, -0.00, -1.00, 111.2, 54.8)"> </text><text xml:space="preserve" font-family="SourceSansPro-Regular,Source Sans Pro" font-size="37.0" fill="#000000" transform="matrix(1.00, 0.00, -0.00, -1.00, 118.7, 54.8)">D</text><text xml:space="preserve" font-family="SourceSansPro-Regular,Source Sans Pro" font-size="37.0" fill="#000000" transform="matrix(1.00, 0.00, -0.00, -1.00, 141.3, 54.8)">e</text><text xml:space="preserve" font-family="SourceSansPro-Regular,Source Sans Pro" font-size="37.0" fill="#000000" transform="matrix(1.00, 0.00, -0.00, -1.00, 159.7, 54.8)">j</text><text xml:space="preserve" font-family="SourceSansPro-Regular,Source Sans Pro" font-size="37.0" fill="#000000" transform="matrix(1.00, 0.00, -0.00, -1.00, 168.8, 54.8)">v</text><text xml:space="preserve" font-family="SourceSansPro-Regular,Source Sans Pro" font-size="37.0" fill="#000000" transform="matrix(1.00, 0.00, -0.00, -1.00, 186.1, 54.8)">i</text><text xml:space="preserve" font-family="SourceSansPro-Regular,Source Sans Pro" font-size="37.0" fill="#000000" transform="matrix(1.00, 0.00, -0.00, -1.00, 195.2, 54.8)">c</text><text xml:space="preserve" font-family="SourceSansPro-Regular,Source Sans Pro" font-size="37.0" fill="#000000" transform="matrix(1.00, 0.00, -0.00, -1.00, 211.3, 54.8)">e</text></g></g><g><clipPath id="clip0x600001aa3600"><path d="M 18.0 18.1 L 118.1 18.1 L 118.1 49.1 L 18.0 49.1 Z M 18.0 18.1 "></path></clipPath><g clip-path="url(#clip0x600001aa3600)"><text xml:space="preserve" font-family="Helvetica-Light,Helvetica" font-size="18.0" fill="#000000" transform="matrix(1.00, 0.00, -0.00, -1.00, 22.5, 26.7)">1</text><text xml:space="preserve" font-family="Helvetica-Light,Helvetica" font-size="18.0" fill="#000000" transform="matrix(1.00, 0.00, -0.00, -1.00, 32.5, 26.7)">2</text><text xml:space="preserve" font-family="Helvetica-Light,Helvetica" font-size="18.0" fill="#000000" transform="matrix(1.00, 0.00, -0.00, -1.00, 42.6, 26.7)">.</text><text xml:space="preserve" font-family="Helvetica-Light,Helvetica" font-size="18.0" fill="#000000" transform="matrix(1.00, 0.00, -0.00, -1.00, 47.6, 26.7)"> </text><text xml:space="preserve" font-family="Helvetica-Light,Helvetica" font-size="18.0" fill="#000000" transform="matrix(1.00, 0.00, -0.00, -1.00, 52.6, 26.7)">7</text><text xml:space="preserve" font-family="Helvetica-Light,Helvetica" font-size="18.0" fill="#000000" transform="matrix(1.00, 0.00, -0.00, -1.00, 62.6, 26.7)">.</text><text xml:space="preserve" font-family="Helvetica-Light,Helvetica" font-size="18.0" fill="#000000" transform="matrix(1.00, 0.00, -0.00, -1.00, 67.6, 26.7)"> </text><text xml:space="preserve" font-family="Helvetica-Light,Helvetica" font-size="18.0" fill="#000000" transform="matrix(1.00, 0.00, -0.00, -1.00, 72.6, 26.7)">2</text><text xml:space="preserve" font-family="Helvetica-Light,Helvetica" font-size="18.0" fill="#000000" transform="matrix(1.00, 0.00, -0.00, -1.00, 82.6, 26.7)">0</text><text xml:space="preserve" font-family="Helvetica-Light,Helvetica" font-size="18.0" fill="#000000" transform="matrix(1.00, 0.00, -0.00, -1.00, 92.6, 26.7)">1</text><text xml:space="preserve" font-family="Helvetica-Light,Helvetica" font-size="18.0" fill="#000000" transform="matrix(1.00, 0.00, -0.00, -1.00, 102.6, 26.7)">5</text></g></g></g></svg>