<?xml version="1.0" encoding="UTF-8" standalone="no"?><svg xmlns="http://www.w3.org/2000/svg" xmlns:xlink="http://www.w3.org/1999/xlink" clip-rule="evenodd" stroke-miterlimit="10" viewBox="0 0 673 113"><desc>SVG generated by Keynote</desc><defs></defs><g transform="matrix(1.00, 0.00, -0.00, -1.00, 0.0, 113.0)"><g><clipPath id="clip0x6080016bf6e0"><path d="M 0.7 0.9 L 672.8 0.9 L 672.8 112.9 L 0.7 112.9 Z M 0.7 0.9 "></path></clipPath><g clip-path="url(#clip0x6080016bf6e0)"><image xlink:href="939D6E95019F192FF18336A7B6F4DA18.png" width="670.00" height="110.00" transform="matrix(1.00, 0.00, -0.00, -1.00, 1.7, 111.9)" opacity="0.50"></image><path d="M 7.0 109.0 L 667.0 109.0 L 667.0 9.0 L 7.0 9.0 Z M 6.7 108.9 " fill="#FEFFFE"></path></g></g><g><clipPath id="clip0x6000018bf500"><path d="M 12.8 37.9 L 204.5 37.9 L 204.5 97.5 L 12.8 97.5 Z M 12.8 37.9 "></path></clipPath><g clip-path="url(#clip0x6000018bf500)"><text xml:space="preserve" font-family="ArialMT,Arial" font-size="35.0" fill="#000000" transform="matrix(1.00, 0.00, -0.00, -1.00, 22.5, 56.3)">S</text><text xml:space="preserve" font-family="ArialMT,Arial" font-size="35.0" fill="#000000" transform="matrix(1.00, 0.00, -0.00, -1.00, 45.9, 56.3)">t</text><text xml:space="preserve" font-family="ArialMT,Arial" font-size="35.0" fill="#000000" transform="matrix(1.00, 0.00, -0.00, -1.00, 55.6, 56.3)">a</text><text xml:space="preserve" font-family="ArialMT,Arial" font-size="35.0" fill="#000000" transform="matrix(1.00, 0.00, -0.00, -1.00, 75.1, 56.3)">r</text><text xml:space="preserve" font-family="ArialMT,Arial" font-size="35.0" fill="#000000" transform="matrix(1.00, 0.00, -0.00, -1.00, 86.7, 56.3)">k</text><text xml:space="preserve" font-family="ArialMT,Arial" font-size="35.0" fill="#000000" transform="matrix(1.00, 0.00, -0.00, -1.00, 104.2, 56.3)"> </text><text xml:space="preserve" font-family="ArialMT,Arial" font-size="35.0" fill="#000000" transform="matrix(1.00, 0.00, -0.00, -1.00, 113.9, 56.3)">E</text><text xml:space="preserve" font-family="ArialMT,Arial" font-size="35.0" fill="#000000" transform="matrix(1.00, 0.00, -0.00, -1.00, 137.3, 56.3)">x</text><text xml:space="preserve" font-family="ArialMT,Arial" font-size="35.0" fill="#000000" transform="matrix(1.00, 0.00, -0.00, -1.00, 154.8, 56.3)">p</text><text xml:space="preserve" font-family="ArialMT,Arial" font-size="35.0" fill="#000000" transform="matrix(1.00, 0.00, -0.00, -1.00, 174.3, 56.3)">o</text></g></g><g><clipPath id="clip0x6000018bfaa0"><path d="M 17.5 18.3 L 118.6 18.3 L 118.6 49.3 L 17.5 49.3 Z M 17.5 18.3 "></path></clipPath><g clip-path="url(#clip0x6000018bfaa0)"><text xml:space="preserve" font-family="ArialMT,Arial" font-size="18.0" fill="#000000" transform="matrix(1.00, 0.00, -0.00, -1.00, 22.5, 27.7)">2</text><text xml:space="preserve" font-family="ArialMT,Arial" font-size="18.0" fill="#000000" transform="matrix(1.00, 0.00, -0.00, -1.00, 32.6, 27.7)">6</text><text xml:space="preserve" font-family="ArialMT,Arial" font-size="18.0" fill="#000000" transform="matrix(1.00, 0.00, -0.00, -1.00, 42.6, 27.7)">.</text><text xml:space="preserve" font-family="ArialMT,Arial" font-size="18.0" fill="#000000" transform="matrix(1.00, 0.00, -0.00, -1.00, 47.6, 27.7)"> </text><text xml:space="preserve" font-family="ArialMT,Arial" font-size="18.0" fill="#000000" transform="matrix(1.00, 0.00, -0.00, -1.00, 52.6, 27.7)">6</text><text xml:space="preserve" font-family="ArialMT,Arial" font-size="18.0" fill="#000000" transform="matrix(1.00, 0.00, -0.00, -1.00, 62.6, 27.7)">.</text><text xml:space="preserve" font-family="ArialMT,Arial" font-size="18.0" fill="#000000" transform="matrix(1.00, 0.00, -0.00, -1.00, 67.6, 27.7)"> </text><text xml:space="preserve" font-family="ArialMT,Arial" font-size="18.0" fill="#000000" transform="matrix(1.00, 0.00, -0.00, -1.00, 72.6, 27.7)">2</text><text xml:space="preserve" font-family="ArialMT,Arial" font-size="18.0" fill="#000000" transform="matrix(1.00, 0.00, -0.00, -1.00, 82.6, 27.7)">0</text><text xml:space="preserve" font-family="ArialMT,Arial" font-size="18.0" fill="#000000" transform="matrix(1.00, 0.00, -0.00, -1.00, 92.6, 27.7)">1</text><text xml:space="preserve" font-family="ArialMT,Arial" font-size="18.0" fill="#000000" transform="matrix(1.00, 0.00, -0.00, -1.00, 102.6, 27.7)">5</text></g></g></g></svg>