<?xml version="1.0" encoding="UTF-8" standalone="no"?><svg xmlns="http://www.w3.org/2000/svg" xmlns:xlink="http://www.w3.org/1999/xlink" clip-rule="evenodd" stroke-miterlimit="10" viewBox="0 0 146 92"><desc>SVG generated by Keynote</desc><defs></defs><g transform="matrix(1.00, 0.00, -0.00, -1.00, 0.0, 92.0)"><g><clipPath id="clip0x6000014b94a0"><path d="M 0.6 52.8 L 38.4 52.8 L 38.4 90.7 L 0.6 90.7 Z M 0.6 52.8 "></path></clipPath><g clip-path="url(#clip0x6000014b94a0)"><path d="M 32.2 84.4 C 39.2 77.4 39.2 66.1 32.2 59.1 C 25.2 52.1 13.8 52.1 6.8 59.1 C -0.2 66.1 -0.2 77.4 6.8 84.4 C 13.8 91.4 25.2 91.4 32.2 84.4 Z M 32.2 84.4 " fill="#2196F3"></path></g></g><g><clipPath id="clip0x6000014b9680"><path d="M 54.0 52.8 L 91.8 52.8 L 91.8 90.7 L 54.0 90.7 Z M 54.0 52.8 "></path></clipPath><g clip-path="url(#clip0x6000014b9680)"><path d="M 85.6 84.4 C 92.6 77.4 92.6 66.1 85.6 59.1 C 78.6 52.1 67.2 52.1 60.2 59.1 C 53.2 66.1 53.2 77.4 60.2 84.4 C 67.2 91.4 78.6 91.4 85.6 84.4 Z M 85.6 84.4 " fill="#F34335"></path></g></g><g><clipPath id="clip0x6000014b98c0"><path d="M 107.4 54.0 L 145.2 54.0 L 145.2 91.8 L 107.4 91.8 Z M 107.4 54.0 "></path></clipPath><g clip-path="url(#clip0x6000014b98c0)"><path d="M 139.0 85.6 C 146.0 78.6 146.0 67.2 139.0 60.2 C 132.0 53.2 120.6 53.2 113.6 60.2 C 106.6 67.2 106.6 78.6 113.6 85.6 C 120.6 92.6 132.0 92.6 139.0 85.6 Z M 139.0 85.6 " fill="#FF4081"></path></g></g><g><clipPath id="clip0x6000014b9b00"><path d="M 0.6 0.3 L 38.4 0.3 L 38.4 38.1 L 0.6 38.1 Z M 0.6 0.3 "></path></clipPath><g clip-path="url(#clip0x6000014b9b00)"><path d="M 32.2 31.9 C 39.2 24.9 39.2 13.5 32.2 6.5 C 25.2 -0.5 13.8 -0.5 6.8 6.5 C -0.2 13.5 -0.2 24.9 6.8 31.9 C 13.8 38.9 25.2 38.9 32.2 31.9 Z M 32.2 31.9 " fill="#009688"></path></g></g><g><clipPath id="clip0x6000014b9d40"><path d="M 54.0 0.3 L 91.8 0.3 L 91.8 38.1 L 54.0 38.1 Z M 54.0 0.3 "></path></clipPath><g clip-path="url(#clip0x6000014b9d40)"><path d="M 85.6 31.9 C 92.6 24.9 92.6 13.5 85.6 6.5 C 78.6 -0.5 67.2 -0.5 60.2 6.5 C 53.2 13.5 53.2 24.9 60.2 31.9 C 67.2 38.9 78.6 38.9 85.6 31.9 Z M 85.6 31.9 " fill="#8BC34A"></path></g></g><g><clipPath id="clip0x6000014b9f80"><path d="M 107.4 0.3 L 145.2 0.3 L 145.2 38.1 L 107.4 38.1 Z M 107.4 0.3 "></path></clipPath><g clip-path="url(#clip0x6000014b9f80)"><path d="M 139.0 31.9 C 146.0 24.9 146.0 13.5 139.0 6.5 C 132.0 -0.5 120.6 -0.5 113.6 6.5 C 106.6 13.5 106.6 24.9 113.6 31.9 C 120.6 38.9 132.0 38.9 139.0 31.9 Z M 139.0 31.9 " fill="#FF9800"></path></g></g></g></svg>