<?xml version="1.0" encoding="UTF-8" standalone="no"?><svg xmlns="http://www.w3.org/2000/svg" xmlns:xlink="http://www.w3.org/1999/xlink" clip-rule="evenodd" stroke-miterlimit="10" viewBox="0 0 482 341"><desc>SVG generated by Keynote</desc><defs></defs><g transform="matrix(1.00, 0.00, -0.00, -1.00, 0.0, 341.0)"><g><clipPath id="clip0x6000024be5a0"><path d="M 0.8 0.0 L 481.7 0.0 L 481.7 340.6 L 0.8 340.6 Z M 0.8 0.0 "></path></clipPath><g clip-path="url(#clip0x6000024be5a0)"><image xlink:href="7E8E63E01959B0F37952827B3640C856.png" width="479.00" height="339.00" transform="matrix(1.00, 0.00, -0.00, -1.00, 1.8, 339.6)" opacity="0.50"></image><path d="M 7.0 337.0 L 476.0 337.0 L 476.0 8.0 L 7.0 8.0 Z M 6.8 336.6 " fill="#FEFFFE"></path></g></g><g><clipPath id="clip0x6000024bea80"><path d="M 17.5 256.9 L 240.3 256.9 L 240.3 316.5 L 17.5 316.5 Z M 17.5 256.9 "></path></clipPath><g clip-path="url(#clip0x6000024bea80)"><text xml:space="preserve" font-family="ArialMT,Arial" font-size="35.0" fill="#000000" transform="matrix(1.00, 0.00, -0.00, -1.00, 27.2, 275.3)">S</text><text xml:space="preserve" font-family="ArialMT,Arial" font-size="35.0" fill="#000000" transform="matrix(1.00, 0.00, -0.00, -1.00, 50.6, 275.3)">t</text><text xml:space="preserve" font-family="ArialMT,Arial" font-size="35.0" fill="#000000" transform="matrix(1.00, 0.00, -0.00, -1.00, 60.3, 275.3)">a</text><text xml:space="preserve" font-family="ArialMT,Arial" font-size="35.0" fill="#000000" transform="matrix(1.00, 0.00, -0.00, -1.00, 79.8, 275.3)">n</text><text xml:space="preserve" font-family="ArialMT,Arial" font-size="35.0" fill="#000000" transform="matrix(1.00, 0.00, -0.00, -1.00, 99.2, 275.3)">i</text><text xml:space="preserve" font-family="ArialMT,Arial" font-size="35.0" fill="#000000" transform="matrix(1.00, 0.00, -0.00, -1.00, 107.0, 275.3)">c</text><text xml:space="preserve" font-family="ArialMT,Arial" font-size="35.0" fill="#000000" transform="matrix(1.00, 0.00, -0.00, -1.00, 124.5, 275.3)">e</text><text xml:space="preserve" font-family="ArialMT,Arial" font-size="35.0" fill="#000000" transform="matrix(1.00, 0.00, -0.00, -1.00, 144.0, 275.3)"> </text><text xml:space="preserve" font-family="ArialMT,Arial" font-size="35.0" fill="#000000" transform="matrix(1.00, 0.00, -0.00, -1.00, 153.7, 275.3)">t</text><text xml:space="preserve" font-family="ArialMT,Arial" font-size="35.0" fill="#000000" transform="matrix(1.00, 0.00, -0.00, -1.00, 163.4, 275.3)">r</text><text xml:space="preserve" font-family="ArialMT,Arial" font-size="35.0" fill="#000000" transform="matrix(1.00, 0.00, -0.00, -1.00, 175.1, 275.3)">a</text><text xml:space="preserve" font-family="ArialMT,Arial" font-size="35.0" fill="#000000" transform="matrix(1.00, 0.00, -0.00, -1.00, 194.6, 275.3)">s</text><text xml:space="preserve" font-family="ArialMT,Arial" font-size="35.0" fill="#000000" transform="matrix(1.00, 0.00, -0.00, -1.00, 212.1, 275.3)">y</text></g></g></g></svg>