<?xml version="1.0" encoding="UTF-8" standalone="no"?><svg xmlns="http://www.w3.org/2000/svg" xmlns:xlink="http://www.w3.org/1999/xlink" clip-rule="evenodd" stroke-miterlimit="10" viewBox="0 0 277 32"><desc>SVG generated by Keynote</desc><defs></defs><g transform="matrix(1.00, 0.00, -0.00, -1.00, 0.0, 32.0)"><text xml:space="preserve" font-family="Helvetica-Light,Helvetica" font-size="30.0" fill="#52575F" transform="matrix(1.00, 0.00, -0.00, -1.00, 0.2, 8.9)">3</text><text xml:space="preserve" font-family="Helvetica-Light,Helvetica" font-size="30.0" fill="#52575F" transform="matrix(1.00, 0.00, -0.00, -1.00, 16.9, 8.9)">.</text><text xml:space="preserve" font-family="Helvetica-Light,Helvetica" font-size="30.0" fill="#52575F" transform="matrix(1.00, 0.00, -0.00, -1.00, 25.3, 8.9)"> </text><text xml:space="preserve" font-family="Helvetica-Light,Helvetica" font-size="30.0" fill="#52575F" transform="matrix(1.00, 0.00, -0.00, -1.00, 33.6, 8.9)">U</text><text xml:space="preserve" font-family="Helvetica-Light,Helvetica" font-size="30.0" fill="#52575F" transform="matrix(1.00, 0.00, -0.00, -1.00, 55.3, 8.9)">m</text><text xml:space="preserve" font-family="Helvetica-Light,Helvetica" font-size="30.0" fill="#52575F" transform="matrix(1.00, 0.00, -0.00, -1.00, 80.2, 8.9)">ฤ</text><text xml:space="preserve" font-family="Helvetica-Light,Helvetica" font-size="30.0" fill="#52575F" transform="matrix(1.00, 0.00, -0.00, -1.00, 96.9, 8.9)">l</text><text xml:space="preserve" font-family="Helvetica-Light,Helvetica" font-size="30.0" fill="#52575F" transform="matrix(1.00, 0.00, -0.00, -1.00, 103.6, 8.9)">รก</text><text xml:space="preserve" font-family="Helvetica-Light,Helvetica" font-size="30.0" fill="#52575F" transform="matrix(1.00, 0.00, -0.00, -1.00, 120.3, 8.9)"> </text><text xml:space="preserve" font-family="Helvetica-Light,Helvetica" font-size="30.0" fill="#52575F" transform="matrix(1.00, 0.00, -0.00, -1.00, 128.6, 8.9)">i</text><text xml:space="preserve" font-family="Helvetica-Light,Helvetica" font-size="30.0" fill="#52575F" transform="matrix(1.00, 0.00, -0.00, -1.00, 135.3, 8.9)">n</text><text xml:space="preserve" font-family="Helvetica-Light,Helvetica" font-size="30.0" fill="#52575F" transform="matrix(1.00, 0.00, -0.00, -1.00, 151.9, 8.9)">t</text><text xml:space="preserve" font-family="Helvetica-Light,Helvetica" font-size="30.0" fill="#52575F" transform="matrix(1.00, 0.00, -0.00, -1.00, 160.3, 8.9)">e</text><text xml:space="preserve" font-family="Helvetica-Light,Helvetica" font-size="30.0" fill="#52575F" transform="matrix(1.00, 0.00, -0.00, -1.00, 177.0, 8.9)">l</text><text xml:space="preserve" font-family="Helvetica-Light,Helvetica" font-size="30.0" fill="#52575F" transform="matrix(1.00, 0.00, -0.00, -1.00, 183.6, 8.9)">i</text><text xml:space="preserve" font-family="Helvetica-Light,Helvetica" font-size="30.0" fill="#52575F" transform="matrix(1.00, 0.00, -0.00, -1.00, 190.3, 8.9)">g</text><text xml:space="preserve" font-family="Helvetica-Light,Helvetica" font-size="30.0" fill="#52575F" transform="matrix(1.00, 0.00, -0.00, -1.00, 208.6, 8.9)">e</text><text xml:space="preserve" font-family="Helvetica-Light,Helvetica" font-size="30.0" fill="#52575F" transform="matrix(1.00, 0.00, -0.00, -1.00, 225.3, 8.9)">n</text><text xml:space="preserve" font-family="Helvetica-Light,Helvetica" font-size="30.0" fill="#52575F" transform="matrix(1.00, 0.00, -0.00, -1.00, 242.0, 8.9)">c</text><text xml:space="preserve" font-family="Helvetica-Light,Helvetica" font-size="30.0" fill="#52575F" transform="matrix(1.00, 0.00, -0.00, -1.00, 258.7, 8.9)">e</text></g></svg>