<?xml version="1.0" encoding="UTF-8" standalone="no"?><svg xmlns="http://www.w3.org/2000/svg" xmlns:xlink="http://www.w3.org/1999/xlink" clip-rule="evenodd" stroke-miterlimit="10" viewBox="0 0 252 71"><desc>SVG generated by Keynote</desc><defs></defs><g transform="matrix(1.00, 0.00, -0.00, -1.00, 0.0, 71.0)"><g><clipPath id="clip0x6080014a4140"><path d="M 0.4 33.0 L 214.2 33.0 L 214.2 42.0 L 0.4 42.0 Z M 0.4 33.0 "></path></clipPath><g clip-path="url(#clip0x6080014a4140)"><path d="M -0.4 -0.0 L 211.6 -0.0 " fill="none" stroke="#B6B6B6" stroke-width="7.00" transform="matrix(1.00, 0.00, 0.00, -1.00, 1.4, 37.5)"></path></g></g><g><clipPath id="clip0x6080012b1b80"><path d="M 179.7 0.2 L 251.4 0.2 L 251.4 70.8 L 179.7 70.8 Z M 179.7 0.2 "></path></clipPath><g clip-path="url(#clip0x6080012b1b80)"><path d="M 240.2 59.8 C 253.8 46.4 253.8 24.7 240.2 11.3 C 226.6 -2.1 204.5 -2.1 190.9 11.3 C 177.3 24.7 177.3 46.4 190.9 59.8 C 204.5 73.2 226.6 73.2 240.2 59.8 Z M 240.2 59.8 " fill="#A3A3A3"></path></g></g><g><clipPath id="clip0x6080012b1e80"><path d="M 210.9 24.2 L 220.2 24.2 L 220.2 51.2 L 210.9 51.2 Z M 210.9 24.2 "></path></clipPath><g clip-path="url(#clip0x6080012b1e80)"><text xml:space="preserve" font-family="SourceSansPro-Light,Source Sans Pro" font-size="22.0" fill="#FDFEE9" transform="matrix(1.00, 0.00, -0.00, -1.00, 210.9, 29.2)">2</text></g></g></g></svg>