<?xml version="1.0" encoding="UTF-8" standalone="no"?><svg xmlns="http://www.w3.org/2000/svg" xmlns:xlink="http://www.w3.org/1999/xlink" clip-rule="evenodd" stroke-miterlimit="10" viewBox="0 0 150 26"><desc>SVG generated by Keynote</desc><defs></defs><g transform="matrix(1.00, 0.00, -0.00, -1.00, 0.0, 26.0)"><text xml:space="preserve" font-family="Helvetica-Light,Helvetica" font-size="30.0" fill="#52575F" transform="matrix(1.00, 0.00, -0.00, -1.00, -1.8, 1.9)">1</text><text xml:space="preserve" font-family="Helvetica-Light,Helvetica" font-size="30.0" fill="#52575F" transform="matrix(1.00, 0.00, -0.00, -1.00, 14.9, 1.9)">.</text><text xml:space="preserve" font-family="Helvetica-Light,Helvetica" font-size="30.0" fill="#52575F" transform="matrix(1.00, 0.00, -0.00, -1.00, 23.3, 1.9)"> </text><text xml:space="preserve" font-family="Helvetica-Light,Helvetica" font-size="30.0" fill="#52575F" transform="matrix(1.00, 0.00, -0.00, -1.00, 31.6, 1.9)">P</text><text xml:space="preserve" font-family="Helvetica-Light,Helvetica" font-size="30.0" fill="#52575F" transform="matrix(1.00, 0.00, -0.00, -1.00, 49.9, 1.9)">o</text><text xml:space="preserve" font-family="Helvetica-Light,Helvetica" font-size="30.0" fill="#52575F" transform="matrix(1.00, 0.00, -0.00, -1.00, 66.6, 1.9)">č</text><text xml:space="preserve" font-family="Helvetica-Light,Helvetica" font-size="30.0" fill="#52575F" transform="matrix(1.00, 0.00, -0.00, -1.00, 83.3, 1.9)">í</text><text xml:space="preserve" font-family="Helvetica-Light,Helvetica" font-size="30.0" fill="#52575F" transform="matrix(1.00, 0.00, -0.00, -1.00, 89.9, 1.9)">t</text><text xml:space="preserve" font-family="Helvetica-Light,Helvetica" font-size="30.0" fill="#52575F" transform="matrix(1.00, 0.00, -0.00, -1.00, 98.3, 1.9)">a</text><text xml:space="preserve" font-family="Helvetica-Light,Helvetica" font-size="30.0" fill="#52575F" transform="matrix(1.00, 0.00, -0.00, -1.00, 115.0, 1.9)">č</text><text xml:space="preserve" font-family="Helvetica-Light,Helvetica" font-size="30.0" fill="#52575F" transform="matrix(1.00, 0.00, -0.00, -1.00, 131.6, 1.9)">e</text></g></svg>