<?xml version="1.0" encoding="UTF-8" standalone="no"?><svg xmlns="http://www.w3.org/2000/svg" xmlns:xlink="http://www.w3.org/1999/xlink" clip-rule="evenodd" stroke-miterlimit="10" viewBox="0 0 147 225"><desc>SVG generated by Keynote</desc><defs></defs><g transform="matrix(1.00, 0.00, -0.00, -1.00, 0.0, 225.0)"><g><clipPath id="clip0x6000026a34e0"><path d="M 30.6 39.2 L 138.7 224.9 L 146.5 220.3 L 38.4 34.7 Z M 30.6 39.2 "></path></clipPath><g clip-path="url(#clip0x6000026a34e0)"><path d="M 0.0 0.0 L 212.8 0.0 " fill="none" stroke="#B6B6B6" stroke-width="7.00" transform="matrix(0.50, 0.86, 0.86, -0.50, 35.0, 37.8)"></path></g></g><g><clipPath id="clip0x6000026a3a80"><path d="M 0.7 0.9 L 72.4 0.9 L 72.4 71.5 L 0.7 71.5 Z M 0.7 0.9 "></path></clipPath><g clip-path="url(#clip0x6000026a3a80)"><path d="M 61.2 60.5 C 74.8 47.1 74.8 25.4 61.2 12.0 C 47.6 -1.4 25.5 -1.4 11.9 12.0 C -1.7 25.4 -1.7 47.1 11.9 60.5 C 25.5 73.9 47.6 73.9 61.2 60.5 Z M 61.2 60.5 " fill="#A3A3A3"></path></g></g><g><clipPath id="clip0x6000026a3cc0"><path d="M 29.4 16.7 L 40.7 16.7 L 40.7 55.0 L 29.4 55.0 Z M 29.4 16.7 "></path></clipPath><g clip-path="url(#clip0x6000026a3cc0)"><text xml:space="preserve" font-family="ArialMT,Arial" font-size="22.0" fill="#FDFEE9" transform="matrix(1.00, 0.00, -0.00, -1.00, 29.4, 28.2)">4</text></g></g></g></svg>