<?xml version="1.0" encoding="UTF-8" standalone="no"?><svg xmlns="http://www.w3.org/2000/svg" xmlns:xlink="http://www.w3.org/1999/xlink" clip-rule="evenodd" stroke-miterlimit="10" viewBox="0 0 146 222"><desc>SVG generated by Keynote</desc><defs></defs><g transform="matrix(1.00, 0.00, -0.00, -1.00, 0.0, 222.0)"><g><clipPath id="clip0x6080012ab700"><path d="M 137.3 0.8 L 32.2 184.3 L 40.0 188.8 L 145.1 5.3 Z M 137.3 0.8 "></path></clipPath><g clip-path="url(#clip0x6080012ab700)"><path d="M 0.0 0.0 L 209.5 0.0 " fill="none" stroke="#B6B6B6" stroke-width="7.00" transform="matrix(-0.50, 0.87, 0.87, 0.50, 140.7, 3.9)"></path></g></g><g><clipPath id="clip0x6080012ab940"><path d="M 0.4 150.6 L 72.0 150.6 L 72.0 221.2 L 0.4 221.2 Z M 0.4 150.6 "></path></clipPath><g clip-path="url(#clip0x6080012ab940)"><path d="M 60.8 210.2 C 74.4 196.8 74.4 175.1 60.8 161.7 C 47.2 148.3 25.2 148.3 11.6 161.7 C -2.0 175.1 -2.0 196.8 11.6 210.2 C 25.2 223.6 47.2 223.6 60.8 210.2 Z M 60.8 210.2 " fill="#A3A3A3"></path></g></g><g><clipPath id="clip0x6080012abb80"><path d="M 28.1 167.4 L 39.4 167.4 L 39.4 205.7 L 28.1 205.7 Z M 28.1 167.4 "></path></clipPath><g clip-path="url(#clip0x6080012abb80)"><text xml:space="preserve" font-family="ArialMT,Arial" font-size="22.0" fill="#FDFEE9" transform="matrix(1.00, 0.00, -0.00, -1.00, 28.1, 178.9)">6</text></g></g></g></svg>