<?xml version="1.0" encoding="UTF-8" standalone="no"?><svg xmlns="http://www.w3.org/2000/svg" xmlns:xlink="http://www.w3.org/1999/xlink" clip-rule="evenodd" stroke-miterlimit="10" viewBox="0 0 149 26"><desc>SVG generated by Keynote</desc><defs></defs><g transform="matrix(1.00, 0.00, -0.00, -1.00, 0.0, 26.0)"><text xml:space="preserve" font-family="ArialMT,Arial" font-size="29.0" fill="#52575F" transform="matrix(1.00, 0.00, -0.00, -1.00, 0.2, 2.5)">6</text><text xml:space="preserve" font-family="ArialMT,Arial" font-size="29.0" fill="#52575F" transform="matrix(1.00, 0.00, -0.00, -1.00, 16.4, 2.5)">.</text><text xml:space="preserve" font-family="ArialMT,Arial" font-size="29.0" fill="#52575F" transform="matrix(1.00, 0.00, -0.00, -1.00, 24.4, 2.5)"> </text><text xml:space="preserve" font-family="ArialMT,Arial" font-size="29.0" fill="#52575F" transform="matrix(1.00, 0.00, -0.00, -1.00, 32.5, 2.5)">S</text><text xml:space="preserve" font-family="ArialMT,Arial" font-size="29.0" fill="#52575F" transform="matrix(1.00, 0.00, -0.00, -1.00, 51.8, 2.5)">o</text><text xml:space="preserve" font-family="ArialMT,Arial" font-size="29.0" fill="#52575F" transform="matrix(1.00, 0.00, -0.00, -1.00, 68.0, 2.5)">f</text><text xml:space="preserve" font-family="ArialMT,Arial" font-size="29.0" fill="#52575F" transform="matrix(1.00, 0.00, -0.00, -1.00, 76.0, 2.5)">t</text><text xml:space="preserve" font-family="ArialMT,Arial" font-size="29.0" fill="#52575F" transform="matrix(1.00, 0.00, -0.00, -1.00, 84.1, 2.5)">w</text><text xml:space="preserve" font-family="ArialMT,Arial" font-size="29.0" fill="#52575F" transform="matrix(1.00, 0.00, -0.00, -1.00, 105.0, 2.5)">a</text><text xml:space="preserve" font-family="ArialMT,Arial" font-size="29.0" fill="#52575F" transform="matrix(1.00, 0.00, -0.00, -1.00, 121.1, 2.5)">r</text><text xml:space="preserve" font-family="ArialMT,Arial" font-size="29.0" fill="#52575F" transform="matrix(1.00, 0.00, -0.00, -1.00, 130.8, 2.5)">e</text></g></svg>