<?xml version="1.0" encoding="UTF-8" standalone="no"?><svg xmlns="http://www.w3.org/2000/svg" xmlns:xlink="http://www.w3.org/1999/xlink" clip-rule="evenodd" stroke-miterlimit="10" viewBox="0 0 295 32"><desc>SVG generated by Keynote</desc><defs></defs><g transform="matrix(1.00, 0.00, -0.00, -1.00, 0.0, 32.0)"><text xml:space="preserve" font-family="Helvetica-Light,Helvetica" font-size="30.0" fill="#52575F" transform="matrix(1.00, 0.00, -0.00, -1.00, 0.2, 8.4)">4</text><text xml:space="preserve" font-family="Helvetica-Light,Helvetica" font-size="30.0" fill="#52575F" transform="matrix(1.00, 0.00, -0.00, -1.00, 16.9, 8.4)">.</text><text xml:space="preserve" font-family="Helvetica-Light,Helvetica" font-size="30.0" fill="#52575F" transform="matrix(1.00, 0.00, -0.00, -1.00, 25.3, 8.4)"> </text><text xml:space="preserve" font-family="Helvetica-Light,Helvetica" font-size="30.0" fill="#52575F" transform="matrix(1.00, 0.00, -0.00, -1.00, 33.6, 8.4)">R</text><text xml:space="preserve" font-family="Helvetica-Light,Helvetica" font-size="30.0" fill="#52575F" transform="matrix(1.00, 0.00, -0.00, -1.00, 53.6, 8.4)">o</text><text xml:space="preserve" font-family="Helvetica-Light,Helvetica" font-size="30.0" fill="#52575F" transform="matrix(1.00, 0.00, -0.00, -1.00, 70.3, 8.4)">z</text><text xml:space="preserve" font-family="Helvetica-Light,Helvetica" font-size="30.0" fill="#52575F" transform="matrix(1.00, 0.00, -0.00, -1.00, 85.3, 8.4)">p</text><text xml:space="preserve" font-family="Helvetica-Light,Helvetica" font-size="30.0" fill="#52575F" transform="matrix(1.00, 0.00, -0.00, -1.00, 103.6, 8.4)">o</text><text xml:space="preserve" font-family="Helvetica-Light,Helvetica" font-size="30.0" fill="#52575F" transform="matrix(1.00, 0.00, -0.00, -1.00, 120.3, 8.4)">z</text><text xml:space="preserve" font-family="Helvetica-Light,Helvetica" font-size="30.0" fill="#52575F" transform="matrix(1.00, 0.00, -0.00, -1.00, 135.3, 8.4)">n</text><text xml:space="preserve" font-family="Helvetica-Light,Helvetica" font-size="30.0" fill="#52575F" transform="matrix(1.00, 0.00, -0.00, -1.00, 152.0, 8.4)">á</text><text xml:space="preserve" font-family="Helvetica-Light,Helvetica" font-size="30.0" fill="#52575F" transform="matrix(1.00, 0.00, -0.00, -1.00, 168.7, 8.4)">n</text><text xml:space="preserve" font-family="Helvetica-Light,Helvetica" font-size="30.0" fill="#52575F" transform="matrix(1.00, 0.00, -0.00, -1.00, 185.3, 8.4)">í</text><text xml:space="preserve" font-family="Helvetica-Light,Helvetica" font-size="30.0" fill="#52575F" transform="matrix(1.00, 0.00, -0.00, -1.00, 192.0, 8.4)"> </text><text xml:space="preserve" font-family="Helvetica-Light,Helvetica" font-size="30.0" fill="#52575F" transform="matrix(1.00, 0.00, -0.00, -1.00, 200.3, 8.4)">o</text><text xml:space="preserve" font-family="Helvetica-Light,Helvetica" font-size="30.0" fill="#52575F" transform="matrix(1.00, 0.00, -0.00, -1.00, 217.0, 8.4)">b</text><text xml:space="preserve" font-family="Helvetica-Light,Helvetica" font-size="30.0" fill="#52575F" transform="matrix(1.00, 0.00, -0.00, -1.00, 235.3, 8.4)">r</text><text xml:space="preserve" font-family="Helvetica-Light,Helvetica" font-size="30.0" fill="#52575F" transform="matrix(1.00, 0.00, -0.00, -1.00, 245.3, 8.4)">a</text><text xml:space="preserve" font-family="Helvetica-Light,Helvetica" font-size="30.0" fill="#52575F" transform="matrix(1.00, 0.00, -0.00, -1.00, 262.0, 8.4)">z</text><text xml:space="preserve" font-family="Helvetica-Light,Helvetica" font-size="30.0" fill="#52575F" transform="matrix(1.00, 0.00, -0.00, -1.00, 277.0, 8.4)">u</text></g></svg>