<?xml version="1.0" encoding="UTF-8" standalone="no"?><svg xmlns="http://www.w3.org/2000/svg" xmlns:xlink="http://www.w3.org/1999/xlink" clip-rule="evenodd" stroke-miterlimit="10" viewBox="0 0 1920 1080"><desc>SVG generated by Keynote</desc><defs></defs><g transform="matrix(1.00, 0.00, -0.00, -1.00, 0.0, 1080.0)"><path d="M 0.0 1080.0 L 1920.0 1080.0 L 1920.0 0.0 L 0.0 0.0 Z M 0.0 1080.0 " fill="#2B3138"></path><text xml:space="preserve" font-family="ArialMT,Arial" font-size="90.0" fill="#5BA1A6" transform="matrix(1.00, 0.00, -0.00, -1.00, 567.3, 931.0)">N</text><text xml:space="preserve" font-family="ArialMT,Arial" font-size="90.0" fill="#5BA1A6" transform="matrix(1.00, 0.00, -0.00, -1.00, 632.3, 931.0)">a</text><text xml:space="preserve" font-family="ArialMT,Arial" font-size="90.0" fill="#5BA1A6" transform="matrix(1.00, 0.00, -0.00, -1.00, 682.4, 931.0)">s</text><text xml:space="preserve" font-family="ArialMT,Arial" font-size="90.0" fill="#5BA1A6" transform="matrix(1.00, 0.00, -0.00, -1.00, 727.4, 931.0)">t</text><text xml:space="preserve" font-family="ArialMT,Arial" font-size="90.0" fill="#5BA1A6" transform="matrix(1.00, 0.00, -0.00, -1.00, 752.4, 931.0)">í</text><text xml:space="preserve" font-family="ArialMT,Arial" font-size="90.0" fill="#5BA1A6" transform="matrix(1.00, 0.00, -0.00, -1.00, 777.3, 931.0)">n</text><text xml:space="preserve" font-family="ArialMT,Arial" font-size="90.0" fill="#5BA1A6" transform="matrix(1.00, 0.00, -0.00, -1.00, 827.4, 931.0)">ě</text><text xml:space="preserve" font-family="ArialMT,Arial" font-size="90.0" fill="#5BA1A6" transform="matrix(1.00, 0.00, -0.00, -1.00, 877.5, 931.0)">n</text><text xml:space="preserve" font-family="ArialMT,Arial" font-size="90.0" fill="#5BA1A6" transform="matrix(1.00, 0.00, -0.00, -1.00, 927.6, 931.0)">í</text><text xml:space="preserve" font-family="ArialMT,Arial" font-size="90.0" fill="#5BA1A6" transform="matrix(1.00, 0.00, -0.00, -1.00, 952.5, 931.0)"> </text><text xml:space="preserve" font-family="ArialMT,Arial" font-size="90.0" fill="#5BA1A6" transform="matrix(1.00, 0.00, -0.00, -1.00, 977.5, 931.0)">p</text><text xml:space="preserve" font-family="ArialMT,Arial" font-size="90.0" fill="#5BA1A6" transform="matrix(1.00, 0.00, -0.00, -1.00, 1027.6, 931.0)">r</text><text xml:space="preserve" font-family="ArialMT,Arial" font-size="90.0" fill="#5BA1A6" transform="matrix(1.00, 0.00, -0.00, -1.00, 1057.6, 931.0)">o</text><text xml:space="preserve" font-family="ArialMT,Arial" font-size="90.0" fill="#5BA1A6" transform="matrix(1.00, 0.00, -0.00, -1.00, 1107.6, 931.0)">b</text><text xml:space="preserve" font-family="ArialMT,Arial" font-size="90.0" fill="#5BA1A6" transform="matrix(1.00, 0.00, -0.00, -1.00, 1157.7, 931.0)">l</text><text xml:space="preserve" font-family="ArialMT,Arial" font-size="90.0" fill="#5BA1A6" transform="matrix(1.00, 0.00, -0.00, -1.00, 1177.7, 931.0)">é</text><text xml:space="preserve" font-family="ArialMT,Arial" font-size="90.0" fill="#5BA1A6" transform="matrix(1.00, 0.00, -0.00, -1.00, 1227.8, 931.0)">m</text><text xml:space="preserve" font-family="ArialMT,Arial" font-size="90.0" fill="#5BA1A6" transform="matrix(1.00, 0.00, -0.00, -1.00, 1302.8, 931.0)">u</text><g><clipPath id="clip0x6000014a91e0"><path d="M 816.6 714.6 L 1104.3 714.6 L 1104.3 723.6 L 816.6 723.6 Z M 816.6 714.6 "></path></clipPath><g clip-path="url(#clip0x6000014a91e0)"><path d="M 0.4 -0.4 L 285.4 -0.4 " fill="none" stroke="#B6B6B6" stroke-width="7.00" transform="matrix(1.00, 0.00, 0.00, -1.00, 817.6, 719.1)"></path></g></g><g><clipPath id="clip0x6000014a9420"><path d="M 816.6 211.2 L 1104.3 211.2 L 1104.3 220.2 L 816.6 220.2 Z M 816.6 211.2 "></path></clipPath><g clip-path="url(#clip0x6000014a9420)"><path d="M 0.4 0.2 L 285.4 0.2 " fill="none" stroke="#B6B6B6" stroke-width="7.00" transform="matrix(1.00, 0.00, 0.00, -1.00, 817.6, 215.7)"></path></g></g><g><clipPath id="clip0x6000014a9660"><path d="M 667.1 468.6 L 812.6 718.4 L 820.3 713.9 L 674.9 464.1 Z M 667.1 468.6 "></path></clipPath><g clip-path="url(#clip0x6000014a9660)"><path d="M 0.0 0.0 L 287.1 0.0 " fill="none" stroke="#B6B6B6" stroke-width="7.00" transform="matrix(0.50, 0.86, 0.86, -0.50, 671.5, 467.2)"></path></g></g><g><clipPath id="clip0x6000014a98a0"><path d="M 1099.9 219.2 L 1245.4 469.0 L 1253.2 464.4 L 1107.7 214.6 Z M 1099.9 219.2 "></path></clipPath><g clip-path="url(#clip0x6000014a98a0)"><path d="M 0.0 0.0 L 287.1 0.0 " fill="none" stroke="#B6B6B6" stroke-width="7.00" transform="matrix(0.50, 0.86, 0.86, -0.50, 1104.3, 217.8)"></path></g></g><g><clipPath id="clip0x6000014a9ae0"><path d="M 1243.4 468.6 L 1102.0 715.6 L 1109.8 720.1 L 1251.2 473.1 Z M 1243.4 468.6 "></path></clipPath><g clip-path="url(#clip0x6000014a9ae0)"><path d="M 0.0 0.0 L 282.6 0.0 " fill="none" stroke="#B6B6B6" stroke-width="7.00" transform="matrix(-0.50, 0.87, 0.87, 0.50, 1246.8, 471.7)"></path></g></g><g><clipPath id="clip0x6000014a9d20"><path d="M 810.5 216.1 L 669.1 463.1 L 676.9 467.5 L 818.3 220.5 Z M 810.5 216.1 "></path></clipPath><g clip-path="url(#clip0x6000014a9d20)"><path d="M 0.0 0.0 L 282.6 0.0 " fill="none" stroke="#B6B6B6" stroke-width="7.00" transform="matrix(-0.50, 0.87, 0.87, 0.50, 813.9, 219.2)"></path></g></g><g><clipPath id="clip0x6000014a9f60"><path d="M 769.0 666.6 L 865.0 666.6 L 865.0 761.2 L 769.0 761.2 Z M 769.0 666.6 "></path></clipPath><g clip-path="url(#clip0x6000014a9f60)"><path d="M 850.2 746.6 C 868.6 728.5 868.6 699.2 850.2 681.2 C 831.9 663.1 802.1 663.1 783.8 681.2 C 765.4 699.2 765.4 728.5 783.8 746.6 C 802.1 764.7 831.9 764.7 850.2 746.6 Z M 850.2 746.6 " fill="#A3A3A3"></path></g></g><g><clipPath id="clip0x6000014aa1a0"><path d="M 808.4 688.0 L 823.6 688.0 L 823.6 738.7 L 808.4 738.7 Z M 808.4 688.0 "></path></clipPath><g clip-path="url(#clip0x6000014aa1a0)"><text xml:space="preserve" font-family="ArialMT,Arial" font-size="30.0" fill="#FDFEE9" transform="matrix(1.00, 0.00, -0.00, -1.00, 808.4, 703.7)">1</text></g></g><g><clipPath id="clip0x6000014aa3e0"><path d="M 1058.5 669.2 L 1154.4 669.2 L 1154.4 763.7 L 1058.5 763.7 Z M 1058.5 669.2 "></path></clipPath><g clip-path="url(#clip0x6000014aa3e0)"><path d="M 1139.7 749.2 C 1158.0 731.1 1158.0 701.8 1139.7 683.7 C 1121.3 665.6 1091.6 665.6 1073.2 683.7 C 1054.9 701.8 1054.9 731.1 1073.2 749.2 C 1091.6 767.2 1121.3 767.2 1139.7 749.2 Z M 1139.7 749.2 " fill="#A3A3A3"></path></g></g><g><clipPath id="clip0x6000014aa620"><path d="M 1098.8 691.5 L 1114.1 691.5 L 1114.1 742.3 L 1098.8 742.3 Z M 1098.8 691.5 "></path></clipPath><g clip-path="url(#clip0x6000014aa620)"><text xml:space="preserve" font-family="ArialMT,Arial" font-size="30.0" fill="#FDFEE9" transform="matrix(1.00, 0.00, -0.00, -1.00, 1098.8, 707.3)">2</text></g></g><g><clipPath id="clip0x6000014aa860"><path d="M 1199.0 417.4 L 1295.0 417.4 L 1295.0 512.0 L 1199.0 512.0 Z M 1199.0 417.4 "></path></clipPath><g clip-path="url(#clip0x6000014aa860)"><path d="M 1280.2 497.4 C 1298.6 479.4 1298.6 450.1 1280.2 432.0 C 1261.9 413.9 1232.1 413.9 1213.8 432.0 C 1195.4 450.1 1195.4 479.4 1213.8 497.4 C 1232.1 515.5 1261.9 515.5 1280.2 497.4 Z M 1280.2 497.4 " fill="#A3A3A3"></path></g></g><g><clipPath id="clip0x6000014aaaa0"><path d="M 1239.4 438.0 L 1254.6 438.0 L 1254.6 488.7 L 1239.4 488.7 Z M 1239.4 438.0 "></path></clipPath><g clip-path="url(#clip0x6000014aaaa0)"><text xml:space="preserve" font-family="ArialMT,Arial" font-size="30.0" fill="#FDFEE9" transform="matrix(1.00, 0.00, -0.00, -1.00, 1239.4, 453.7)">3</text></g></g><g><clipPath id="clip0x6000014aace0"><path d="M 1058.5 168.3 L 1154.4 168.3 L 1154.4 262.8 L 1058.5 262.8 Z M 1058.5 168.3 "></path></clipPath><g clip-path="url(#clip0x6000014aace0)"><path d="M 1139.7 248.3 C 1158.0 230.2 1158.0 200.9 1139.7 182.8 C 1121.3 164.8 1091.6 164.8 1073.2 182.8 C 1054.9 200.9 1054.9 230.2 1073.2 248.3 C 1091.6 266.4 1121.3 266.4 1139.7 248.3 Z M 1139.7 248.3 " fill="#A3A3A3"></path></g></g><g><clipPath id="clip0x6000014aaf20"><path d="M 1098.8 187.7 L 1114.1 187.7 L 1114.1 238.4 L 1098.8 238.4 Z M 1098.8 187.7 "></path></clipPath><g clip-path="url(#clip0x6000014aaf20)"><text xml:space="preserve" font-family="ArialMT,Arial" font-size="30.0" fill="#FDFEE9" transform="matrix(1.00, 0.00, -0.00, -1.00, 1098.8, 203.4)">4</text></g></g><g><clipPath id="clip0x6000014ab160"><path d="M 769.0 168.3 L 865.0 168.3 L 865.0 262.8 L 769.0 262.8 Z M 769.0 168.3 "></path></clipPath><g clip-path="url(#clip0x6000014ab160)"><path d="M 850.2 248.3 C 868.6 230.2 868.6 200.9 850.2 182.8 C 831.9 164.8 802.1 164.8 783.8 182.8 C 765.4 200.9 765.4 230.2 783.8 248.3 C 802.1 266.4 831.9 266.4 850.2 248.3 Z M 850.2 248.3 " fill="#A3A3A3"></path></g></g><g><clipPath id="clip0x6000014ab3a0"><path d="M 807.4 186.7 L 822.6 186.7 L 822.6 237.4 L 807.4 237.4 Z M 807.4 186.7 "></path></clipPath><g clip-path="url(#clip0x6000014ab3a0)"><text xml:space="preserve" font-family="ArialMT,Arial" font-size="30.0" fill="#FDFEE9" transform="matrix(1.00, 0.00, -0.00, -1.00, 807.4, 202.4)">5</text></g></g><g><clipPath id="clip0x6000014ab5e0"><path d="M 625.0 417.4 L 721.0 417.4 L 721.0 512.0 L 625.0 512.0 Z M 625.0 417.4 "></path></clipPath><g clip-path="url(#clip0x6000014ab5e0)"><path d="M 706.2 497.4 C 724.6 479.4 724.6 450.1 706.2 432.0 C 687.9 413.9 658.1 413.9 639.8 432.0 C 621.4 450.1 621.4 479.4 639.8 497.4 C 658.1 515.5 687.9 515.5 706.2 497.4 Z M 706.2 497.4 " fill="#A3A3A3"></path></g></g><g><clipPath id="clip0x6000014ab820"><path d="M 662.4 437.8 L 677.6 437.8 L 677.6 488.6 L 662.4 488.6 Z M 662.4 437.8 "></path></clipPath><g clip-path="url(#clip0x6000014ab820)"><text xml:space="preserve" font-family="ArialMT,Arial" font-size="30.0" fill="#FDFEE9" transform="matrix(1.00, 0.00, -0.00, -1.00, 662.4, 453.5)">6</text></g></g><text xml:space="preserve" font-family="Helvetica-Light,Helvetica" font-size="24.0" fill="#FEFFFF" transform="matrix(1.00, 0.00, -0.00, -1.00, 952.8, 22.5)">4</text><path d="M 1120.9 231.1 C 1129.7 222.4 1129.7 208.1 1120.9 199.3 C 1112.1 190.5 1097.9 190.5 1089.1 199.3 C 1080.3 208.1 1080.3 222.4 1089.1 231.1 C 1097.9 239.9 1112.1 239.9 1120.9 231.1 Z M 1120.9 231.1 " fill="#2196F3"></path><path d="M 833.3 231.2 C 842.1 222.5 842.1 208.2 833.3 199.4 C 824.5 190.6 810.3 190.6 801.5 199.4 C 792.7 208.2 792.7 222.5 801.5 231.2 C 810.3 240.0 824.5 240.0 833.3 231.2 Z M 833.3 231.2 " fill="#F34335"></path><g opacity="0.00"><g><clipPath id="clip0x6000014abd00"><path d="M 1224.0 438.0 L 1273.0 438.0 L 1273.0 487.0 L 1224.0 487.0 Z M 1224.0 438.0 "></path></clipPath><g clip-path="url(#clip0x6000014abd00)"><path d="M 1264.6 477.9 C 1273.4 469.1 1273.4 454.9 1264.6 446.1 C 1255.8 437.3 1241.6 437.3 1232.8 446.1 C 1224.0 454.9 1224.0 469.1 1232.8 477.9 C 1241.6 486.7 1255.8 486.7 1264.6 477.9 Z M 1264.6 477.9 " fill="#FF4081"></path></g></g></g><g opacity="0.00"><g><clipPath id="clip0x6000014abfa0"><path d="M 648.0 439.0 L 697.0 439.0 L 697.0 488.0 L 648.0 488.0 Z M 648.0 439.0 "></path></clipPath><g clip-path="url(#clip0x6000014abfa0)"><path d="M 688.8 479.6 C 697.6 470.9 697.6 456.6 688.8 447.8 C 680.0 439.0 665.8 439.0 657.0 447.8 C 648.2 456.6 648.2 470.9 657.0 479.6 C 665.8 488.4 680.0 488.4 688.8 479.6 Z M 688.8 479.6 " fill="#009688"></path></g></g></g><g opacity="0.00"><g><clipPath id="clip0x6000014ac240"><path d="M 792.0 189.0 L 841.0 189.0 L 841.0 238.0 L 792.0 238.0 Z M 792.0 189.0 "></path></clipPath><g clip-path="url(#clip0x6000014ac240)"><path d="M 832.9 229.6 C 841.7 220.8 841.7 206.5 832.9 197.8 C 824.1 189.0 809.9 189.0 801.1 197.8 C 792.3 206.5 792.3 220.8 801.1 229.6 C 809.9 238.4 824.1 238.4 832.9 229.6 Z M 832.9 229.6 " fill="#8BC34A"></path></g></g></g><g opacity="0.00"><g><clipPath id="clip0x6000014ac4e0"><path d="M 1083.0 191.0 L 1132.0 191.0 L 1132.0 240.0 L 1083.0 240.0 Z M 1083.0 191.0 "></path></clipPath><g clip-path="url(#clip0x6000014ac4e0)"><path d="M 1123.5 231.6 C 1132.3 222.8 1132.3 208.5 1123.5 199.7 C 1114.7 190.9 1100.5 190.9 1091.7 199.7 C 1082.9 208.5 1082.9 222.8 1091.7 231.6 C 1100.5 240.4 1114.7 240.4 1123.5 231.6 Z M 1123.5 231.6 " fill="#FF9800"></path></g></g></g></g></svg>