<?xml version="1.0" encoding="UTF-8" standalone="no"?><svg xmlns="http://www.w3.org/2000/svg" xmlns:xlink="http://www.w3.org/1999/xlink" clip-rule="evenodd" stroke-miterlimit="10" viewBox="0 0 1920 1080"><desc>SVG generated by Keynote</desc><defs></defs><g transform="matrix(1.00, 0.00, -0.00, -1.00, 0.0, 1080.0)"><path d="M 0.0 1080.0 L 1920.0 1080.0 L 1920.0 0.0 L 0.0 0.0 Z M 0.0 1080.0 " fill="#2B3138"></path><image xlink:href="../../BF4CE684-A087-4A8C-BE25-1866DC6E3E22/assets/FD6EA3C6B79394FAA3DFB87A6F9AA5B6.png" width="787.00" height="452.00" transform="matrix(2.23, 0.00, -0.00, -2.23, 82.0, 890.0)"></image><image xlink:href="../../19BEB37A-83A4-4BE6-8920-9579B8E42861/assets/05999F4E9D3D3C6C9355E358868D2935.png" width="1100.00" height="840.00" transform="matrix(1.22, 0.00, -0.00, -1.22, 288.0, 838.0)"></image><image xlink:href="../../19BEB37A-83A4-4BE6-8920-9579B8E42861/assets/D0D7B2413565176849C3AC2A7FCF265C.png" width="1100.00" height="840.00" transform="matrix(1.22, 0.00, -0.00, -1.22, 288.0, 838.0)"></image><image xlink:href="../../19BEB37A-83A4-4BE6-8920-9579B8E42861/assets/0F55ECB26E261FBF5FF5E2A5BB22C76A.png" width="1100.00" height="840.00" transform="matrix(1.22, 0.00, -0.00, -1.22, 288.0, 838.0)"></image><image xlink:href="../../19BEB37A-83A4-4BE6-8920-9579B8E42861/assets/DA13CAFBC87FA827F6CB507B8A7B55AA.png" width="1100.00" height="840.00" transform="matrix(1.22, 0.00, -0.00, -1.22, 288.0, 838.0)"></image><image xlink:href="../../19BEB37A-83A4-4BE6-8920-9579B8E42861/assets/9F58C1D2296031236C5CDB2BB7109765.png" width="1100.00" height="840.00" transform="matrix(1.22, 0.00, -0.00, -1.22, 288.0, 838.0)"></image><image xlink:href="../../19BEB37A-83A4-4BE6-8920-9579B8E42861/assets/8C7F8AB8E8CCD1E5602BB1FAF0A301CA.png" width="1100.00" height="1140.00" transform="matrix(1.22, 0.00, -0.00, -1.22, 288.0, 838.0)"></image><image xlink:href="../../19BEB37A-83A4-4BE6-8920-9579B8E42861/assets/38FDFFD25209F63C23747C372C83743A.png" width="1100.00" height="1653.00" transform="matrix(1.22, 0.00, -0.00, -1.22, 288.0, 839.0)"></image><text xml:space="preserve" font-family="SourceSansPro-ExtraLight,Source Sans Pro" font-size="100.0" fill="#5BA1A6" transform="matrix(1.00, 0.00, -0.00, -1.00, 639.1, 926.3)">U</text><text xml:space="preserve" font-family="SourceSansPro-ExtraLight,Source Sans Pro" font-size="100.0" fill="#5BA1A6" transform="matrix(1.00, 0.00, -0.00, -1.00, 701.3, 926.3)">k</text><text xml:space="preserve" font-family="SourceSansPro-ExtraLight,Source Sans Pro" font-size="100.0" fill="#5BA1A6" transform="matrix(1.00, 0.00, -0.00, -1.00, 745.5, 926.3)">รก</text><text xml:space="preserve" font-family="SourceSansPro-ExtraLight,Source Sans Pro" font-size="100.0" fill="#5BA1A6" transform="matrix(1.00, 0.00, -0.00, -1.00, 794.9, 926.3)">z</text><text xml:space="preserve" font-family="SourceSansPro-ExtraLight,Source Sans Pro" font-size="100.0" fill="#5BA1A6" transform="matrix(1.00, 0.00, -0.00, -1.00, 834.5, 926.3)">k</text><text xml:space="preserve" font-family="SourceSansPro-ExtraLight,Source Sans Pro" font-size="100.0" fill="#5BA1A6" transform="matrix(1.00, 0.00, -0.00, -1.00, 878.7, 926.3)">a</text><text xml:space="preserve" font-family="SourceSansPro-ExtraLight,Source Sans Pro" font-size="100.0" fill="#5BA1A6" transform="matrix(1.00, 0.00, -0.00, -1.00, 928.1, 926.3)"> </text><text xml:space="preserve" font-family="SourceSansPro-ExtraLight,Source Sans Pro" font-size="100.0" fill="#5BA1A6" transform="matrix(1.00, 0.00, -0.00, -1.00, 947.9, 926.3)">a</text><text xml:space="preserve" font-family="SourceSansPro-ExtraLight,Source Sans Pro" font-size="100.0" fill="#5BA1A6" transform="matrix(1.00, 0.00, -0.00, -1.00, 997.3, 926.3)">p</text><text xml:space="preserve" font-family="SourceSansPro-ExtraLight,Source Sans Pro" font-size="100.0" fill="#5BA1A6" transform="matrix(1.00, 0.00, -0.00, -1.00, 1051.3, 926.3)">l</text><text xml:space="preserve" font-family="SourceSansPro-ExtraLight,Source Sans Pro" font-size="100.0" fill="#5BA1A6" transform="matrix(1.00, 0.00, -0.00, -1.00, 1074.3, 926.3)">i</text><text xml:space="preserve" font-family="SourceSansPro-ExtraLight,Source Sans Pro" font-size="100.0" fill="#5BA1A6" transform="matrix(1.00, 0.00, -0.00, -1.00, 1096.5, 926.3)">k</text><text xml:space="preserve" font-family="SourceSansPro-ExtraLight,Source Sans Pro" font-size="100.0" fill="#5BA1A6" transform="matrix(1.00, 0.00, -0.00, -1.00, 1140.7, 926.3)">a</text><text xml:space="preserve" font-family="SourceSansPro-ExtraLight,Source Sans Pro" font-size="100.0" fill="#5BA1A6" transform="matrix(1.00, 0.00, -0.00, -1.00, 1190.1, 926.3)">c</text><text xml:space="preserve" font-family="SourceSansPro-ExtraLight,Source Sans Pro" font-size="100.0" fill="#5BA1A6" transform="matrix(1.00, 0.00, -0.00, -1.00, 1233.1, 926.3)">e</text><text xml:space="preserve" font-family="Helvetica-Light,Helvetica" font-size="24.0" fill="#FEFFFF" transform="matrix(1.00, 0.00, -0.00, -1.00, 946.2, 22.5)">1</text><text xml:space="preserve" font-family="Helvetica-Light,Helvetica" font-size="24.0" fill="#FEFFFF" transform="matrix(1.00, 0.00, -0.00, -1.00, 959.5, 22.5)">6</text></g></svg>