<?xml version="1.0" encoding="UTF-8" standalone="no"?><svg xmlns="http://www.w3.org/2000/svg" xmlns:xlink="http://www.w3.org/1999/xlink" clip-rule="evenodd" stroke-miterlimit="10" viewBox="0 0 1920 1080"><desc>SVG generated by Keynote</desc><defs></defs><g transform="matrix(1.00, 0.00, -0.00, -1.00, 0.0, 1080.0)"><path d="M 0.0 1080.0 L 1920.0 1080.0 L 1920.0 0.0 L 0.0 0.0 Z M 0.0 1080.0 " fill="#2B3138"></path><text xml:space="preserve" font-family="SourceSansPro-ExtraLight,Source Sans Pro" font-size="100.0" fill="#5BA1A6" transform="matrix(1.00, 0.00, -0.00, -1.00, 639.1, 926.3)">U</text><text xml:space="preserve" font-family="SourceSansPro-ExtraLight,Source Sans Pro" font-size="100.0" fill="#5BA1A6" transform="matrix(1.00, 0.00, -0.00, -1.00, 701.3, 926.3)">k</text><text xml:space="preserve" font-family="SourceSansPro-ExtraLight,Source Sans Pro" font-size="100.0" fill="#5BA1A6" transform="matrix(1.00, 0.00, -0.00, -1.00, 745.5, 926.3)">รก</text><text xml:space="preserve" font-family="SourceSansPro-ExtraLight,Source Sans Pro" font-size="100.0" fill="#5BA1A6" transform="matrix(1.00, 0.00, -0.00, -1.00, 794.9, 926.3)">z</text><text xml:space="preserve" font-family="SourceSansPro-ExtraLight,Source Sans Pro" font-size="100.0" fill="#5BA1A6" transform="matrix(1.00, 0.00, -0.00, -1.00, 834.5, 926.3)">k</text><text xml:space="preserve" font-family="SourceSansPro-ExtraLight,Source Sans Pro" font-size="100.0" fill="#5BA1A6" transform="matrix(1.00, 0.00, -0.00, -1.00, 878.7, 926.3)">a</text><text xml:space="preserve" font-family="SourceSansPro-ExtraLight,Source Sans Pro" font-size="100.0" fill="#5BA1A6" transform="matrix(1.00, 0.00, -0.00, -1.00, 928.1, 926.3)"> </text><text xml:space="preserve" font-family="SourceSansPro-ExtraLight,Source Sans Pro" font-size="100.0" fill="#5BA1A6" transform="matrix(1.00, 0.00, -0.00, -1.00, 947.9, 926.3)">a</text><text xml:space="preserve" font-family="SourceSansPro-ExtraLight,Source Sans Pro" font-size="100.0" fill="#5BA1A6" transform="matrix(1.00, 0.00, -0.00, -1.00, 997.3, 926.3)">p</text><text xml:space="preserve" font-family="SourceSansPro-ExtraLight,Source Sans Pro" font-size="100.0" fill="#5BA1A6" transform="matrix(1.00, 0.00, -0.00, -1.00, 1051.3, 926.3)">l</text><text xml:space="preserve" font-family="SourceSansPro-ExtraLight,Source Sans Pro" font-size="100.0" fill="#5BA1A6" transform="matrix(1.00, 0.00, -0.00, -1.00, 1074.3, 926.3)">i</text><text xml:space="preserve" font-family="SourceSansPro-ExtraLight,Source Sans Pro" font-size="100.0" fill="#5BA1A6" transform="matrix(1.00, 0.00, -0.00, -1.00, 1096.5, 926.3)">k</text><text xml:space="preserve" font-family="SourceSansPro-ExtraLight,Source Sans Pro" font-size="100.0" fill="#5BA1A6" transform="matrix(1.00, 0.00, -0.00, -1.00, 1140.7, 926.3)">a</text><text xml:space="preserve" font-family="SourceSansPro-ExtraLight,Source Sans Pro" font-size="100.0" fill="#5BA1A6" transform="matrix(1.00, 0.00, -0.00, -1.00, 1190.1, 926.3)">c</text><text xml:space="preserve" font-family="SourceSansPro-ExtraLight,Source Sans Pro" font-size="100.0" fill="#5BA1A6" transform="matrix(1.00, 0.00, -0.00, -1.00, 1233.1, 926.3)">e</text><text xml:space="preserve" font-family="Helvetica-Light,Helvetica" font-size="24.0" fill="#FEFFFF" transform="matrix(1.00, 0.00, -0.00, -1.00, 946.2, 22.5)">1</text><text xml:space="preserve" font-family="Helvetica-Light,Helvetica" font-size="24.0" fill="#FEFFFF" transform="matrix(1.00, 0.00, -0.00, -1.00, 959.5, 22.5)">7</text><image xlink:href="../../BF4CE684-A087-4A8C-BE25-1866DC6E3E22/assets/ED53BC5C4892E7DDE1623E35226535D8.png" width="157.00" height="320.00" transform="matrix(3.08, 0.00, -0.00, -3.08, 718.0, 874.0)"></image></g></svg>