<?xml version="1.0" encoding="UTF-8" standalone="no"?><svg xmlns="http://www.w3.org/2000/svg" xmlns:xlink="http://www.w3.org/1999/xlink" clip-rule="evenodd" stroke-miterlimit="10" viewBox="0 0 20 205"><desc>SVG generated by Keynote</desc><defs></defs><g transform="matrix(1.00, 0.00, -0.00, -1.00, 0.0, 205.0)"><path d="M 14.6 -0.5 L 17.0 -0.5 L 184.8 -0.5 L 187.6 -0.5 " fill="none" stroke="#FEFFFE" stroke-width="5.00" stroke-dasharray="10.0, 10.0" transform="matrix(0.00, -1.00, -1.00, 0.00, 10.0, 203.6)"></path><path d="M 19.0 10.0 C 19.0 5.3 15.2 1.5 10.5 1.5 C 5.8 1.5 2.0 5.3 2.0 10.0 C 2.0 14.7 5.8 18.5 10.5 18.5 C 15.2 18.5 19.0 14.7 19.0 10.0 Z M 19.0 10.0 " fill="#FEFFFE"></path><path d="M 2.0 195.0 C 2.0 199.7 5.8 203.5 10.5 203.5 C 15.2 203.5 19.0 199.7 19.0 195.0 C 19.0 190.3 15.2 186.5 10.5 186.5 C 5.8 186.5 2.0 190.3 2.0 195.0 Z M 2.0 195.0 " fill="#FEFFFE"></path></g></svg>