<?xml version="1.0" encoding="UTF-8" standalone="no"?><svg xmlns="http://www.w3.org/2000/svg" xmlns:xlink="http://www.w3.org/1999/xlink" clip-rule="evenodd" stroke-miterlimit="10" viewBox="0 0 1920 1080"><desc>SVG generated by Keynote</desc><defs></defs><g transform="matrix(1.00, 0.00, -0.00, -1.00, 0.0, 1080.0)"><path d="M 0.0 1080.0 L 1920.0 1080.0 L 1920.0 0.0 L 0.0 0.0 Z M 0.0 1080.0 " fill="#2B3138"></path><text xml:space="preserve" font-family="ArialMT,Arial" font-size="90.0" fill="#5BA1A6" transform="matrix(1.00, 0.00, -0.00, -1.00, 709.9, 931.0)">P</text><text xml:space="preserve" font-family="ArialMT,Arial" font-size="90.0" fill="#5BA1A6" transform="matrix(1.00, 0.00, -0.00, -1.00, 769.9, 931.0)">o</text><text xml:space="preserve" font-family="ArialMT,Arial" font-size="90.0" fill="#5BA1A6" transform="matrix(1.00, 0.00, -0.00, -1.00, 820.0, 931.0)">p</text><text xml:space="preserve" font-family="ArialMT,Arial" font-size="90.0" fill="#5BA1A6" transform="matrix(1.00, 0.00, -0.00, -1.00, 870.0, 931.0)">i</text><text xml:space="preserve" font-family="ArialMT,Arial" font-size="90.0" fill="#5BA1A6" transform="matrix(1.00, 0.00, -0.00, -1.00, 890.0, 931.0)">s</text><text xml:space="preserve" font-family="ArialMT,Arial" font-size="90.0" fill="#5BA1A6" transform="matrix(1.00, 0.00, -0.00, -1.00, 935.0, 931.0)"> </text><text xml:space="preserve" font-family="ArialMT,Arial" font-size="90.0" fill="#5BA1A6" transform="matrix(1.00, 0.00, -0.00, -1.00, 960.0, 931.0)">ř</text><text xml:space="preserve" font-family="ArialMT,Arial" font-size="90.0" fill="#5BA1A6" transform="matrix(1.00, 0.00, -0.00, -1.00, 990.0, 931.0)">e</text><text xml:space="preserve" font-family="ArialMT,Arial" font-size="90.0" fill="#5BA1A6" transform="matrix(1.00, 0.00, -0.00, -1.00, 1040.0, 931.0)">š</text><text xml:space="preserve" font-family="ArialMT,Arial" font-size="90.0" fill="#5BA1A6" transform="matrix(1.00, 0.00, -0.00, -1.00, 1085.0, 931.0)">e</text><text xml:space="preserve" font-family="ArialMT,Arial" font-size="90.0" fill="#5BA1A6" transform="matrix(1.00, 0.00, -0.00, -1.00, 1135.1, 931.0)">n</text><text xml:space="preserve" font-family="ArialMT,Arial" font-size="90.0" fill="#5BA1A6" transform="matrix(1.00, 0.00, -0.00, -1.00, 1185.2, 931.0)">í</text><g opacity="0.78"><g><clipPath id="clip0x6000022bbd20"><path d="M 825.0 617.0 L 1095.0 617.0 L 1095.0 800.0 L 825.0 800.0 Z M 825.0 617.0 "></path></clipPath><g clip-path="url(#clip0x6000022bbd20)"><image xlink:href="../../BF4CE684-A087-4A8C-BE25-1866DC6E3E22/assets/AEA4FC57CF2C2238A27FDB5733025D66.png" width="753.00" height="509.00" transform="matrix(0.35, 0.00, -0.00, -0.35, 827.0, 798.0)"></image></g></g></g><image xlink:href="../../BF4CE684-A087-4A8C-BE25-1866DC6E3E22/assets/ED53BC5C4892E7DDE1623E35226535D8.png" width="157.00" height="320.00" transform="matrix(0.47, 0.00, -0.00, -0.47, 465.0, 339.0)"></image><image xlink:href="../../BF4CE684-A087-4A8C-BE25-1866DC6E3E22/assets/E7F10EE758CC7A1A44FABCC67DDF3423.png" width="347.00" height="491.00" transform="matrix(0.41, 0.00, -0.00, -0.41, 1381.0, 364.0)"></image><g opacity="0.50"><g><clipPath id="clip0x6000022bc020"><path d="M 950.0 396.0 L 970.0 396.0 L 970.0 601.0 L 950.0 601.0 Z M 950.0 396.0 "></path></clipPath><g clip-path="url(#clip0x6000022bc020)"><path d="M 14.6 -0.5 L 17.0 -0.5 L 184.8 -0.5 L 187.6 -0.5 " fill="none" stroke="#FEFFFE" stroke-width="5.00" stroke-dasharray="10.0, 10.0" transform="matrix(0.00, -1.00, -1.00, 0.00, 960.0, 599.6)"></path><path d="M 969.0 406.0 C 969.0 401.3 965.2 397.5 960.5 397.5 C 955.8 397.5 952.0 401.3 952.0 406.0 C 952.0 410.7 955.8 414.5 960.5 414.5 C 965.2 414.5 969.0 410.7 969.0 406.0 Z M 969.0 406.0 " fill="#FEFFFE"></path><path d="M 952.0 591.0 C 952.0 595.7 955.8 599.5 960.5 599.5 C 965.2 599.5 969.0 595.7 969.0 591.0 C 969.0 586.3 965.2 582.5 960.5 582.5 C 955.8 582.5 952.0 586.3 952.0 591.0 Z M 952.0 591.0 " fill="#FEFFFE"></path></g></g></g><image xlink:href="../../BF4CE684-A087-4A8C-BE25-1866DC6E3E22/assets/FD6EA3C6B79394FAA3DFB87A6F9AA5B6.png" width="787.00" height="452.00" transform="matrix(0.52, 0.00, -0.00, -0.52, 754.0, 382.0)"></image><g opacity="0.50"><g><clipPath id="clip0x608001ca7260"><path d="M 499.0 349.0 L 924.0 349.0 L 924.0 601.0 L 499.0 601.0 Z M 499.0 349.0 "></path></clipPath><g clip-path="url(#clip0x608001ca7260)"><path d="M 14.6 0.6 L 17.0 0.6 C 65.7 3.4 109.4 33.3 128.5 79.3 C 145.2 119.2 139.5 163.7 143.0 206.7 C 149.0 280.0 181.7 348.4 234.4 399.1 L 236.2 400.8 " fill="none" stroke="#FEFFFE" stroke-width="5.00" stroke-dasharray="10.0, 10.0" transform="matrix(0.00, -1.00, -1.00, 0.00, 914.1, 599.6)"></path><path d="M 515.6 353.2 C 512.4 349.8 507.0 349.5 503.6 352.7 C 500.1 355.8 499.8 361.2 503.0 364.7 C 506.1 368.1 511.5 368.4 515.0 365.2 C 518.5 362.1 518.7 356.7 515.6 353.2 Z M 515.6 353.2 " fill="#FEFFFE"></path><path d="M 904.9 590.9 C 904.9 595.6 908.7 599.5 913.4 599.5 C 918.1 599.5 921.9 595.8 921.9 591.1 C 922.0 586.4 918.2 582.5 913.5 582.5 C 908.8 582.5 905.0 586.2 904.9 590.9 Z M 904.9 590.9 " fill="#FEFFFE"></path></g></g></g><g opacity="0.50"><g><clipPath id="clip0x608001ca7bc0"><path d="M 996.0 373.0 L 1453.0 373.0 L 1453.0 601.0 L 996.0 601.0 Z M 996.0 373.0 "></path></clipPath><g clip-path="url(#clip0x608001ca7bc0)"><path d="M 14.6 441.4 L 16.9 440.4 C 65.3 432.3 107.5 401.9 130.0 357.5 C 171.6 275.5 133.3 177.1 160.6 90.3 C 170.2 59.9 187.4 32.7 210.4 11.1 L 212.3 9.4 " fill="none" stroke="#FEFFFE" stroke-width="5.00" stroke-dasharray="10.0, 10.0" transform="matrix(0.00, -1.00, -1.00, 0.00, 1448.9, 599.6)"></path><path d="M 1449.9 388.3 C 1452.9 384.7 1452.5 379.4 1448.9 376.3 C 1445.4 373.2 1440.0 373.7 1437.0 377.2 C 1433.9 380.8 1434.3 386.2 1437.9 389.2 C 1441.5 392.3 1446.8 391.9 1449.9 388.3 Z M 1449.9 388.3 " fill="#FEFFFE"></path><path d="M 998.4 590.0 C 997.9 594.7 1001.2 598.9 1005.9 599.4 C 1010.5 599.9 1014.7 596.6 1015.3 591.9 C 1015.8 587.3 1012.4 583.0 1007.8 582.5 C 1003.1 582.0 998.9 585.3 998.4 590.0 Z M 998.4 590.0 " fill="#FEFFFE"></path></g></g></g><text xml:space="preserve" font-family="Helvetica-Light,Helvetica" font-size="24.0" fill="#FEFFFF" transform="matrix(1.00, 0.00, -0.00, -1.00, 952.8, 22.5)">5</text></g></svg>