<?xml version="1.0" encoding="UTF-8" standalone="no"?><svg xmlns="http://www.w3.org/2000/svg" xmlns:xlink="http://www.w3.org/1999/xlink" clip-rule="evenodd" stroke-miterlimit="10" viewBox="0 0 456 228"><desc>SVG generated by Keynote</desc><defs></defs><g transform="matrix(1.00, 0.00, -0.00, -1.00, 0.0, 228.0)"><path d="M 14.6 441.4 L 16.9 440.4 C 65.3 432.3 107.5 401.9 130.0 357.5 C 171.6 275.5 133.3 177.1 160.6 90.3 C 170.2 59.9 187.4 32.7 210.4 11.1 L 212.3 9.4 " fill="none" stroke="#FEFFFE" stroke-width="5.00" stroke-dasharray="10.0, 10.0" transform="matrix(0.00, -1.00, -1.00, 0.00, 451.9, 226.6)"></path><path d="M 452.9 15.3 C 455.9 11.7 455.5 6.4 451.9 3.3 C 448.4 0.2 443.0 0.7 440.0 4.2 C 436.9 7.8 437.3 13.2 440.9 16.2 C 444.5 19.3 449.8 18.9 452.9 15.3 Z M 452.9 15.3 " fill="#FEFFFE"></path><path d="M 1.4 217.0 C 0.9 221.7 4.2 225.9 8.9 226.4 C 13.5 226.9 17.7 223.6 18.3 218.9 C 18.8 214.3 15.4 210.0 10.8 209.5 C 6.1 209.0 1.9 212.3 1.4 217.0 Z M 1.4 217.0 " fill="#FEFFFE"></path></g></svg>