<?xml version="1.0" encoding="UTF-8" standalone="no"?><svg xmlns="http://www.w3.org/2000/svg" xmlns:xlink="http://www.w3.org/1999/xlink" clip-rule="evenodd" stroke-miterlimit="10" viewBox="0 0 1380 114"><desc>SVG generated by Keynote</desc><defs></defs><g transform="matrix(1.00, 0.00, -0.00, -1.00, 0.0, 114.0)"><text xml:space="preserve" font-family="SourceSansPro-Light,Source Sans Pro" font-size="50.0" fill="#FEFFFF" transform="matrix(1.00, 0.00, -0.00, -1.00, 2.0, 76.1)">V</text><text xml:space="preserve" font-family="SourceSansPro-Light,Source Sans Pro" font-size="50.0" fill="#FEFFFF" transform="matrix(1.00, 0.00, -0.00, -1.00, 26.2, 76.1)"> </text><text xml:space="preserve" font-family="SourceSansPro-Light,Source Sans Pro" font-size="50.0" fill="#FEFFFF" transform="matrix(1.00, 0.00, -0.00, -1.00, 36.1, 76.1)">r</text><text xml:space="preserve" font-family="SourceSansPro-Light,Source Sans Pro" font-size="50.0" fill="#FEFFFF" transform="matrix(1.00, 0.00, -0.00, -1.00, 50.8, 76.1)">á</text><text xml:space="preserve" font-family="SourceSansPro-Light,Source Sans Pro" font-size="50.0" fill="#FEFFFF" transform="matrix(1.00, 0.00, -0.00, -1.00, 75.8, 76.1)">m</text><text xml:space="preserve" font-family="SourceSansPro-Light,Source Sans Pro" font-size="50.0" fill="#FEFFFF" transform="matrix(1.00, 0.00, -0.00, -1.00, 116.4, 76.1)">c</text><text xml:space="preserve" font-family="SourceSansPro-Light,Source Sans Pro" font-size="50.0" fill="#FEFFFF" transform="matrix(1.00, 0.00, -0.00, -1.00, 138.8, 76.1)">i</text><text xml:space="preserve" font-family="SourceSansPro-Light,Source Sans Pro" font-size="50.0" fill="#FEFFFF" transform="matrix(1.00, 0.00, -0.00, -1.00, 150.3, 76.1)"> </text><text xml:space="preserve" font-family="SourceSansPro-Light,Source Sans Pro" font-size="50.0" fill="#FEFFFF" transform="matrix(1.00, 0.00, -0.00, -1.00, 160.2, 76.1)">p</text><text xml:space="preserve" font-family="SourceSansPro-Light,Source Sans Pro" font-size="50.0" fill="#FEFFFF" transform="matrix(1.00, 0.00, -0.00, -1.00, 187.4, 76.1)">r</text><text xml:space="preserve" font-family="SourceSansPro-Light,Source Sans Pro" font-size="50.0" fill="#FEFFFF" transform="matrix(1.00, 0.00, -0.00, -1.00, 202.1, 76.1)">á</text><text xml:space="preserve" font-family="SourceSansPro-Light,Source Sans Pro" font-size="50.0" fill="#FEFFFF" transform="matrix(1.00, 0.00, -0.00, -1.00, 227.1, 76.1)">c</text><text xml:space="preserve" font-family="SourceSansPro-Light,Source Sans Pro" font-size="50.0" fill="#FEFFFF" transform="matrix(1.00, 0.00, -0.00, -1.00, 248.7, 76.1)">e</text><text xml:space="preserve" font-family="SourceSansPro-Light,Source Sans Pro" font-size="50.0" fill="#FEFFFF" transform="matrix(1.00, 0.00, -0.00, -1.00, 272.8, 76.1)"> </text><text xml:space="preserve" font-family="SourceSansPro-Light,Source Sans Pro" font-size="50.0" fill="#FEFFFF" transform="matrix(1.00, 0.00, -0.00, -1.00, 282.8, 76.1)">b</text><text xml:space="preserve" font-family="SourceSansPro-Light,Source Sans Pro" font-size="50.0" fill="#FEFFFF" transform="matrix(1.00, 0.00, -0.00, -1.00, 310.0, 76.1)">y</text><text xml:space="preserve" font-family="SourceSansPro-Light,Source Sans Pro" font-size="50.0" fill="#FEFFFF" transform="matrix(1.00, 0.00, -0.00, -1.00, 331.8, 76.1)">l</text><text xml:space="preserve" font-family="SourceSansPro-Light,Source Sans Pro" font-size="50.0" fill="#FEFFFF" transform="matrix(1.00, 0.00, -0.00, -1.00, 343.6, 76.1)">a</text><text xml:space="preserve" font-family="SourceSansPro-Light,Source Sans Pro" font-size="50.0" fill="#FEFFFF" transform="matrix(1.00, 0.00, -0.00, -1.00, 368.6, 76.1)"> </text><text xml:space="preserve" font-family="SourceSansPro-Light,Source Sans Pro" font-size="50.0" fill="#FEFFFF" transform="matrix(1.00, 0.00, -0.00, -1.00, 378.5, 76.1)">n</text><text xml:space="preserve" font-family="SourceSansPro-Light,Source Sans Pro" font-size="50.0" fill="#FEFFFF" transform="matrix(1.00, 0.00, -0.00, -1.00, 405.1, 76.1)">a</text><text xml:space="preserve" font-family="SourceSansPro-Light,Source Sans Pro" font-size="50.0" fill="#FEFFFF" transform="matrix(1.00, 0.00, -0.00, -1.00, 430.1, 76.1)">v</text><text xml:space="preserve" font-family="SourceSansPro-Light,Source Sans Pro" font-size="50.0" fill="#FEFFFF" transform="matrix(1.00, 0.00, -0.00, -1.00, 451.8, 76.1)">r</text><text xml:space="preserve" font-family="SourceSansPro-Light,Source Sans Pro" font-size="50.0" fill="#FEFFFF" transform="matrix(1.00, 0.00, -0.00, -1.00, 467.1, 76.1)">ž</text><text xml:space="preserve" font-family="SourceSansPro-Light,Source Sans Pro" font-size="50.0" fill="#FEFFFF" transform="matrix(1.00, 0.00, -0.00, -1.00, 486.8, 76.1)">e</text><text xml:space="preserve" font-family="SourceSansPro-Light,Source Sans Pro" font-size="50.0" fill="#FEFFFF" transform="matrix(1.00, 0.00, -0.00, -1.00, 511.0, 76.1)">n</text><text xml:space="preserve" font-family="SourceSansPro-Light,Source Sans Pro" font-size="50.0" fill="#FEFFFF" transform="matrix(1.00, 0.00, -0.00, -1.00, 537.6, 76.1)">a</text><text xml:space="preserve" font-family="SourceSansPro-Light,Source Sans Pro" font-size="50.0" fill="#FEFFFF" transform="matrix(1.00, 0.00, -0.00, -1.00, 562.5, 76.1)">,</text><text xml:space="preserve" font-family="SourceSansPro-Light,Source Sans Pro" font-size="50.0" fill="#FEFFFF" transform="matrix(1.00, 0.00, -0.00, -1.00, 573.5, 76.1)"> </text><text xml:space="preserve" font-family="SourceSansPro-Light,Source Sans Pro" font-size="50.0" fill="#FEFFFF" transform="matrix(1.00, 0.00, -0.00, -1.00, 583.4, 76.1)">i</text><text xml:space="preserve" font-family="SourceSansPro-Light,Source Sans Pro" font-size="50.0" fill="#FEFFFF" transform="matrix(1.00, 0.00, -0.00, -1.00, 594.9, 76.1)">m</text><text xml:space="preserve" font-family="SourceSansPro-Light,Source Sans Pro" font-size="50.0" fill="#FEFFFF" transform="matrix(1.00, 0.00, -0.00, -1.00, 635.5, 76.1)">p</text><text xml:space="preserve" font-family="SourceSansPro-Light,Source Sans Pro" font-size="50.0" fill="#FEFFFF" transform="matrix(1.00, 0.00, -0.00, -1.00, 662.7, 76.1)">l</text><text xml:space="preserve" font-family="SourceSansPro-Light,Source Sans Pro" font-size="50.0" fill="#FEFFFF" transform="matrix(1.00, 0.00, -0.00, -1.00, 674.5, 76.1)">e</text><text xml:space="preserve" font-family="SourceSansPro-Light,Source Sans Pro" font-size="50.0" fill="#FEFFFF" transform="matrix(1.00, 0.00, -0.00, -1.00, 698.7, 76.1)">m</text><text xml:space="preserve" font-family="SourceSansPro-Light,Source Sans Pro" font-size="50.0" fill="#FEFFFF" transform="matrix(1.00, 0.00, -0.00, -1.00, 739.3, 76.1)">e</text><text xml:space="preserve" font-family="SourceSansPro-Light,Source Sans Pro" font-size="50.0" fill="#FEFFFF" transform="matrix(1.00, 0.00, -0.00, -1.00, 763.4, 76.1)">n</text><text xml:space="preserve" font-family="SourceSansPro-Light,Source Sans Pro" font-size="50.0" fill="#FEFFFF" transform="matrix(1.00, 0.00, -0.00, -1.00, 790.0, 76.1)">t</text><text xml:space="preserve" font-family="SourceSansPro-Light,Source Sans Pro" font-size="50.0" fill="#FEFFFF" transform="matrix(1.00, 0.00, -0.00, -1.00, 805.1, 76.1)">o</text><text xml:space="preserve" font-family="SourceSansPro-Light,Source Sans Pro" font-size="50.0" fill="#FEFFFF" transform="matrix(1.00, 0.00, -0.00, -1.00, 831.9, 76.1)">v</text><text xml:space="preserve" font-family="SourceSansPro-Light,Source Sans Pro" font-size="50.0" fill="#FEFFFF" transform="matrix(1.00, 0.00, -0.00, -1.00, 852.6, 76.1)">á</text><text xml:space="preserve" font-family="SourceSansPro-Light,Source Sans Pro" font-size="50.0" fill="#FEFFFF" transform="matrix(1.00, 0.00, -0.00, -1.00, 877.5, 76.1)">n</text><text xml:space="preserve" font-family="SourceSansPro-Light,Source Sans Pro" font-size="50.0" fill="#FEFFFF" transform="matrix(1.00, 0.00, -0.00, -1.00, 904.1, 76.1)">a</text><text xml:space="preserve" font-family="SourceSansPro-Light,Source Sans Pro" font-size="50.0" fill="#FEFFFF" transform="matrix(1.00, 0.00, -0.00, -1.00, 929.1, 76.1)"> </text><text xml:space="preserve" font-family="SourceSansPro-Light,Source Sans Pro" font-size="50.0" fill="#FEFFFF" transform="matrix(1.00, 0.00, -0.00, -1.00, 939.0, 76.1)">a</text><text xml:space="preserve" font-family="SourceSansPro-Light,Source Sans Pro" font-size="50.0" fill="#FEFFFF" transform="matrix(1.00, 0.00, -0.00, -1.00, 964.0, 76.1)"> </text><text xml:space="preserve" font-family="SourceSansPro-Light,Source Sans Pro" font-size="50.0" fill="#FEFFFF" transform="matrix(1.00, 0.00, -0.00, -1.00, 973.9, 76.1)">o</text><text xml:space="preserve" font-family="SourceSansPro-Light,Source Sans Pro" font-size="50.0" fill="#FEFFFF" transform="matrix(1.00, 0.00, -0.00, -1.00, 1000.7, 76.1)">t</text><text xml:space="preserve" font-family="SourceSansPro-Light,Source Sans Pro" font-size="50.0" fill="#FEFFFF" transform="matrix(1.00, 0.00, -0.00, -1.00, 1015.8, 76.1)">e</text><text xml:space="preserve" font-family="SourceSansPro-Light,Source Sans Pro" font-size="50.0" fill="#FEFFFF" transform="matrix(1.00, 0.00, -0.00, -1.00, 1039.9, 76.1)">s</text><text xml:space="preserve" font-family="SourceSansPro-Light,Source Sans Pro" font-size="50.0" fill="#FEFFFF" transform="matrix(1.00, 0.00, -0.00, -1.00, 1060.2, 76.1)">t</text><text xml:space="preserve" font-family="SourceSansPro-Light,Source Sans Pro" font-size="50.0" fill="#FEFFFF" transform="matrix(1.00, 0.00, -0.00, -1.00, 1075.3, 76.1)">o</text><text xml:space="preserve" font-family="SourceSansPro-Light,Source Sans Pro" font-size="50.0" fill="#FEFFFF" transform="matrix(1.00, 0.00, -0.00, -1.00, 1102.0, 76.1)">v</text><text xml:space="preserve" font-family="SourceSansPro-Light,Source Sans Pro" font-size="50.0" fill="#FEFFFF" transform="matrix(1.00, 0.00, -0.00, -1.00, 1122.7, 76.1)">á</text><text xml:space="preserve" font-family="SourceSansPro-Light,Source Sans Pro" font-size="50.0" fill="#FEFFFF" transform="matrix(1.00, 0.00, -0.00, -1.00, 1147.7, 76.1)">n</text><text xml:space="preserve" font-family="SourceSansPro-Light,Source Sans Pro" font-size="50.0" fill="#FEFFFF" transform="matrix(1.00, 0.00, -0.00, -1.00, 1174.3, 76.1)">a</text><text xml:space="preserve" font-family="SourceSansPro-Light,Source Sans Pro" font-size="50.0" fill="#FEFFFF" transform="matrix(1.00, 0.00, -0.00, -1.00, 1199.2, 76.1)"> </text><text xml:space="preserve" font-family="SourceSansPro-Light,Source Sans Pro" font-size="50.0" fill="#FEFFFF" transform="matrix(1.00, 0.00, -0.00, -1.00, 1209.2, 76.1)">a</text><text xml:space="preserve" font-family="SourceSansPro-Light,Source Sans Pro" font-size="50.0" fill="#FEFFFF" transform="matrix(1.00, 0.00, -0.00, -1.00, 1234.1, 76.1)">p</text><text xml:space="preserve" font-family="SourceSansPro-Light,Source Sans Pro" font-size="50.0" fill="#FEFFFF" transform="matrix(1.00, 0.00, -0.00, -1.00, 1261.3, 76.1)">l</text><text xml:space="preserve" font-family="SourceSansPro-Light,Source Sans Pro" font-size="50.0" fill="#FEFFFF" transform="matrix(1.00, 0.00, -0.00, -1.00, 1273.2, 76.1)">i</text><text xml:space="preserve" font-family="SourceSansPro-Light,Source Sans Pro" font-size="50.0" fill="#FEFFFF" transform="matrix(1.00, 0.00, -0.00, -1.00, 1284.6, 76.1)">k</text><text xml:space="preserve" font-family="SourceSansPro-Light,Source Sans Pro" font-size="50.0" fill="#FEFFFF" transform="matrix(1.00, 0.00, -0.00, -1.00, 1307.3, 76.1)">a</text><text xml:space="preserve" font-family="SourceSansPro-Light,Source Sans Pro" font-size="50.0" fill="#FEFFFF" transform="matrix(1.00, 0.00, -0.00, -1.00, 1332.3, 76.1)">c</text><text xml:space="preserve" font-family="SourceSansPro-Light,Source Sans Pro" font-size="50.0" fill="#FEFFFF" transform="matrix(1.00, 0.00, -0.00, -1.00, 1353.9, 76.1)">e</text><text xml:space="preserve" font-family="SourceSansPro-Light,Source Sans Pro" font-size="50.0" fill="#FEFFFF" transform="matrix(1.00, 0.00, -0.00, -1.00, 1378.0, 76.1)"> </text><text xml:space="preserve" font-family="SourceSansPro-Light,Source Sans Pro" font-size="50.0" fill="#FEFFFF" transform="matrix(1.00, 0.00, -0.00, -1.00, 339.6, 13.1)">p</text><text xml:space="preserve" font-family="SourceSansPro-Light,Source Sans Pro" font-size="50.0" fill="#FEFFFF" transform="matrix(1.00, 0.00, -0.00, -1.00, 366.8, 13.1)">r</text><text xml:space="preserve" font-family="SourceSansPro-Light,Source Sans Pro" font-size="50.0" fill="#FEFFFF" transform="matrix(1.00, 0.00, -0.00, -1.00, 382.2, 13.1)">o</text><text xml:space="preserve" font-family="SourceSansPro-Light,Source Sans Pro" font-size="50.0" fill="#FEFFFF" transform="matrix(1.00, 0.00, -0.00, -1.00, 408.9, 13.1)"> </text><text xml:space="preserve" font-family="SourceSansPro-Light,Source Sans Pro" font-size="50.0" fill="#FEFFFF" transform="matrix(1.00, 0.00, -0.00, -1.00, 418.9, 13.1)">p</text><text xml:space="preserve" font-family="SourceSansPro-Light,Source Sans Pro" font-size="50.0" fill="#FEFFFF" transform="matrix(1.00, 0.00, -0.00, -1.00, 446.1, 13.1)">o</text><text xml:space="preserve" font-family="SourceSansPro-Light,Source Sans Pro" font-size="50.0" fill="#FEFFFF" transform="matrix(1.00, 0.00, -0.00, -1.00, 472.8, 13.1)">d</text><text xml:space="preserve" font-family="SourceSansPro-Light,Source Sans Pro" font-size="50.0" fill="#FEFFFF" transform="matrix(1.00, 0.00, -0.00, -1.00, 500.0, 13.1)">p</text><text xml:space="preserve" font-family="SourceSansPro-Light,Source Sans Pro" font-size="50.0" fill="#FEFFFF" transform="matrix(1.00, 0.00, -0.00, -1.00, 527.2, 13.1)">o</text><text xml:space="preserve" font-family="SourceSansPro-Light,Source Sans Pro" font-size="50.0" fill="#FEFFFF" transform="matrix(1.00, 0.00, -0.00, -1.00, 554.0, 13.1)">r</text><text xml:space="preserve" font-family="SourceSansPro-Light,Source Sans Pro" font-size="50.0" fill="#FEFFFF" transform="matrix(1.00, 0.00, -0.00, -1.00, 569.8, 13.1)">u</text><text xml:space="preserve" font-family="SourceSansPro-Light,Source Sans Pro" font-size="50.0" fill="#FEFFFF" transform="matrix(1.00, 0.00, -0.00, -1.00, 596.2, 13.1)"> </text><text xml:space="preserve" font-family="SourceSansPro-Light,Source Sans Pro" font-size="50.0" fill="#FEFFFF" transform="matrix(1.00, 0.00, -0.00, -1.00, 606.2, 13.1)">d</text><text xml:space="preserve" font-family="SourceSansPro-Light,Source Sans Pro" font-size="50.0" fill="#FEFFFF" transform="matrix(1.00, 0.00, -0.00, -1.00, 633.4, 13.1)">n</text><text xml:space="preserve" font-family="SourceSansPro-Light,Source Sans Pro" font-size="50.0" fill="#FEFFFF" transform="matrix(1.00, 0.00, -0.00, -1.00, 660.0, 13.1)">e</text><text xml:space="preserve" font-family="SourceSansPro-Light,Source Sans Pro" font-size="50.0" fill="#FEFFFF" transform="matrix(1.00, 0.00, -0.00, -1.00, 684.2, 13.1)"> </text><text xml:space="preserve" font-family="SourceSansPro-Light,Source Sans Pro" font-size="50.0" fill="#FEFFFF" transform="matrix(1.00, 0.00, -0.00, -1.00, 694.1, 13.1)">o</text><text xml:space="preserve" font-family="SourceSansPro-Light,Source Sans Pro" font-size="50.0" fill="#FEFFFF" transform="matrix(1.00, 0.00, -0.00, -1.00, 720.9, 13.1)">t</text><text xml:space="preserve" font-family="SourceSansPro-Light,Source Sans Pro" font-size="50.0" fill="#FEFFFF" transform="matrix(1.00, 0.00, -0.00, -1.00, 736.0, 13.1)">e</text><text xml:space="preserve" font-family="SourceSansPro-Light,Source Sans Pro" font-size="50.0" fill="#FEFFFF" transform="matrix(1.00, 0.00, -0.00, -1.00, 760.7, 13.1)">v</text><text xml:space="preserve" font-family="SourceSansPro-Light,Source Sans Pro" font-size="50.0" fill="#FEFFFF" transform="matrix(1.00, 0.00, -0.00, -1.00, 782.4, 13.1)">ř</text><text xml:space="preserve" font-family="SourceSansPro-Light,Source Sans Pro" font-size="50.0" fill="#FEFFFF" transform="matrix(1.00, 0.00, -0.00, -1.00, 797.8, 13.1)">e</text><text xml:space="preserve" font-family="SourceSansPro-Light,Source Sans Pro" font-size="50.0" fill="#FEFFFF" transform="matrix(1.00, 0.00, -0.00, -1.00, 821.9, 13.1)">n</text><text xml:space="preserve" font-family="SourceSansPro-Light,Source Sans Pro" font-size="50.0" fill="#FEFFFF" transform="matrix(1.00, 0.00, -0.00, -1.00, 848.5, 13.1)">ý</text><text xml:space="preserve" font-family="SourceSansPro-Light,Source Sans Pro" font-size="50.0" fill="#FEFFFF" transform="matrix(1.00, 0.00, -0.00, -1.00, 870.3, 13.1)">c</text><text xml:space="preserve" font-family="SourceSansPro-Light,Source Sans Pro" font-size="50.0" fill="#FEFFFF" transform="matrix(1.00, 0.00, -0.00, -1.00, 892.8, 13.1)">h</text><text xml:space="preserve" font-family="SourceSansPro-Light,Source Sans Pro" font-size="50.0" fill="#FEFFFF" transform="matrix(1.00, 0.00, -0.00, -1.00, 919.2, 13.1)"> </text><text xml:space="preserve" font-family="SourceSansPro-Light,Source Sans Pro" font-size="50.0" fill="#FEFFFF" transform="matrix(1.00, 0.00, -0.00, -1.00, 929.1, 13.1)">d</text><text xml:space="preserve" font-family="SourceSansPro-Light,Source Sans Pro" font-size="50.0" fill="#FEFFFF" transform="matrix(1.00, 0.00, -0.00, -1.00, 956.3, 13.1)">v</text><text xml:space="preserve" font-family="SourceSansPro-Light,Source Sans Pro" font-size="50.0" fill="#FEFFFF" transform="matrix(1.00, 0.00, -0.00, -1.00, 978.0, 13.1)">e</text><text xml:space="preserve" font-family="SourceSansPro-Light,Source Sans Pro" font-size="50.0" fill="#FEFFFF" transform="matrix(1.00, 0.00, -0.00, -1.00, 1002.2, 13.1)">ř</text><text xml:space="preserve" font-family="SourceSansPro-Light,Source Sans Pro" font-size="50.0" fill="#FEFFFF" transform="matrix(1.00, 0.00, -0.00, -1.00, 1018.0, 13.1)">í</text><text xml:space="preserve" font-family="SourceSansPro-Light,Source Sans Pro" font-size="50.0" fill="#FEFFFF" transform="matrix(1.00, 0.00, -0.00, -1.00, 1029.5, 13.1)">.</text></g></svg>