<?xml version="1.0" encoding="UTF-8" standalone="no"?><svg xmlns="http://www.w3.org/2000/svg" xmlns:xlink="http://www.w3.org/1999/xlink" clip-rule="evenodd" stroke-miterlimit="10" viewBox="0 0 1285 91"><desc>SVG generated by Keynote</desc><defs></defs><g transform="matrix(1.00, 0.00, -0.00, -1.00, 0.0, 91.0)"><text xml:space="preserve" font-family="ArialMT,Arial" font-size="42.0" fill="#FEFFFF" transform="matrix(1.00, 0.00, -0.00, -1.00, 1.3, 58.8)">V</text><text xml:space="preserve" font-family="ArialMT,Arial" font-size="42.0" fill="#FEFFFF" transform="matrix(1.00, 0.00, -0.00, -1.00, 29.3, 58.8)"> </text><text xml:space="preserve" font-family="ArialMT,Arial" font-size="42.0" fill="#FEFFFF" transform="matrix(1.00, 0.00, -0.00, -1.00, 40.9, 58.8)">r</text><text xml:space="preserve" font-family="ArialMT,Arial" font-size="42.0" fill="#FEFFFF" transform="matrix(1.00, 0.00, -0.00, -1.00, 54.9, 58.8)">á</text><text xml:space="preserve" font-family="ArialMT,Arial" font-size="42.0" fill="#FEFFFF" transform="matrix(1.00, 0.00, -0.00, -1.00, 78.3, 58.8)">m</text><text xml:space="preserve" font-family="ArialMT,Arial" font-size="42.0" fill="#FEFFFF" transform="matrix(1.00, 0.00, -0.00, -1.00, 113.3, 58.8)">c</text><text xml:space="preserve" font-family="ArialMT,Arial" font-size="42.0" fill="#FEFFFF" transform="matrix(1.00, 0.00, -0.00, -1.00, 134.3, 58.8)">i</text><text xml:space="preserve" font-family="ArialMT,Arial" font-size="42.0" fill="#FEFFFF" transform="matrix(1.00, 0.00, -0.00, -1.00, 143.6, 58.8)"> </text><text xml:space="preserve" font-family="ArialMT,Arial" font-size="42.0" fill="#FEFFFF" transform="matrix(1.00, 0.00, -0.00, -1.00, 155.3, 58.8)">p</text><text xml:space="preserve" font-family="ArialMT,Arial" font-size="42.0" fill="#FEFFFF" transform="matrix(1.00, 0.00, -0.00, -1.00, 178.6, 58.8)">r</text><text xml:space="preserve" font-family="ArialMT,Arial" font-size="42.0" fill="#FEFFFF" transform="matrix(1.00, 0.00, -0.00, -1.00, 192.6, 58.8)">á</text><text xml:space="preserve" font-family="ArialMT,Arial" font-size="42.0" fill="#FEFFFF" transform="matrix(1.00, 0.00, -0.00, -1.00, 216.0, 58.8)">c</text><text xml:space="preserve" font-family="ArialMT,Arial" font-size="42.0" fill="#FEFFFF" transform="matrix(1.00, 0.00, -0.00, -1.00, 237.0, 58.8)">e</text><text xml:space="preserve" font-family="ArialMT,Arial" font-size="42.0" fill="#FEFFFF" transform="matrix(1.00, 0.00, -0.00, -1.00, 260.4, 58.8)"> </text><text xml:space="preserve" font-family="ArialMT,Arial" font-size="42.0" fill="#FEFFFF" transform="matrix(1.00, 0.00, -0.00, -1.00, 272.0, 58.8)">b</text><text xml:space="preserve" font-family="ArialMT,Arial" font-size="42.0" fill="#FEFFFF" transform="matrix(1.00, 0.00, -0.00, -1.00, 295.4, 58.8)">y</text><text xml:space="preserve" font-family="ArialMT,Arial" font-size="42.0" fill="#FEFFFF" transform="matrix(1.00, 0.00, -0.00, -1.00, 316.4, 58.8)">l</text><text xml:space="preserve" font-family="ArialMT,Arial" font-size="42.0" fill="#FEFFFF" transform="matrix(1.00, 0.00, -0.00, -1.00, 325.7, 58.8)">a</text><text xml:space="preserve" font-family="ArialMT,Arial" font-size="42.0" fill="#FEFFFF" transform="matrix(1.00, 0.00, -0.00, -1.00, 349.1, 58.8)"> </text><text xml:space="preserve" font-family="ArialMT,Arial" font-size="42.0" fill="#FEFFFF" transform="matrix(1.00, 0.00, -0.00, -1.00, 360.8, 58.8)">n</text><text xml:space="preserve" font-family="ArialMT,Arial" font-size="42.0" fill="#FEFFFF" transform="matrix(1.00, 0.00, -0.00, -1.00, 384.1, 58.8)">a</text><text xml:space="preserve" font-family="ArialMT,Arial" font-size="42.0" fill="#FEFFFF" transform="matrix(1.00, 0.00, -0.00, -1.00, 407.5, 58.8)">v</text><text xml:space="preserve" font-family="ArialMT,Arial" font-size="42.0" fill="#FEFFFF" transform="matrix(1.00, 0.00, -0.00, -1.00, 428.5, 58.8)">r</text><text xml:space="preserve" font-family="ArialMT,Arial" font-size="42.0" fill="#FEFFFF" transform="matrix(1.00, 0.00, -0.00, -1.00, 442.5, 58.8)">ž</text><text xml:space="preserve" font-family="ArialMT,Arial" font-size="42.0" fill="#FEFFFF" transform="matrix(1.00, 0.00, -0.00, -1.00, 463.5, 58.8)">e</text><text xml:space="preserve" font-family="ArialMT,Arial" font-size="42.0" fill="#FEFFFF" transform="matrix(1.00, 0.00, -0.00, -1.00, 486.8, 58.8)">n</text><text xml:space="preserve" font-family="ArialMT,Arial" font-size="42.0" fill="#FEFFFF" transform="matrix(1.00, 0.00, -0.00, -1.00, 510.2, 58.8)">a</text><text xml:space="preserve" font-family="ArialMT,Arial" font-size="42.0" fill="#FEFFFF" transform="matrix(1.00, 0.00, -0.00, -1.00, 533.6, 58.8)">,</text><text xml:space="preserve" font-family="ArialMT,Arial" font-size="42.0" fill="#FEFFFF" transform="matrix(1.00, 0.00, -0.00, -1.00, 545.2, 58.8)"> </text><text xml:space="preserve" font-family="ArialMT,Arial" font-size="42.0" fill="#FEFFFF" transform="matrix(1.00, 0.00, -0.00, -1.00, 556.9, 58.8)">i</text><text xml:space="preserve" font-family="ArialMT,Arial" font-size="42.0" fill="#FEFFFF" transform="matrix(1.00, 0.00, -0.00, -1.00, 566.2, 58.8)">m</text><text xml:space="preserve" font-family="ArialMT,Arial" font-size="42.0" fill="#FEFFFF" transform="matrix(1.00, 0.00, -0.00, -1.00, 601.2, 58.8)">p</text><text xml:space="preserve" font-family="ArialMT,Arial" font-size="42.0" fill="#FEFFFF" transform="matrix(1.00, 0.00, -0.00, -1.00, 624.6, 58.8)">l</text><text xml:space="preserve" font-family="ArialMT,Arial" font-size="42.0" fill="#FEFFFF" transform="matrix(1.00, 0.00, -0.00, -1.00, 633.9, 58.8)">e</text><text xml:space="preserve" font-family="ArialMT,Arial" font-size="42.0" fill="#FEFFFF" transform="matrix(1.00, 0.00, -0.00, -1.00, 657.3, 58.8)">m</text><text xml:space="preserve" font-family="ArialMT,Arial" font-size="42.0" fill="#FEFFFF" transform="matrix(1.00, 0.00, -0.00, -1.00, 692.3, 58.8)">e</text><text xml:space="preserve" font-family="ArialMT,Arial" font-size="42.0" fill="#FEFFFF" transform="matrix(1.00, 0.00, -0.00, -1.00, 715.7, 58.8)">n</text><text xml:space="preserve" font-family="ArialMT,Arial" font-size="42.0" fill="#FEFFFF" transform="matrix(1.00, 0.00, -0.00, -1.00, 739.0, 58.8)">t</text><text xml:space="preserve" font-family="ArialMT,Arial" font-size="42.0" fill="#FEFFFF" transform="matrix(1.00, 0.00, -0.00, -1.00, 750.7, 58.8)">o</text><text xml:space="preserve" font-family="ArialMT,Arial" font-size="42.0" fill="#FEFFFF" transform="matrix(1.00, 0.00, -0.00, -1.00, 774.0, 58.8)">v</text><text xml:space="preserve" font-family="ArialMT,Arial" font-size="42.0" fill="#FEFFFF" transform="matrix(1.00, 0.00, -0.00, -1.00, 795.0, 58.8)">á</text><text xml:space="preserve" font-family="ArialMT,Arial" font-size="42.0" fill="#FEFFFF" transform="matrix(1.00, 0.00, -0.00, -1.00, 818.4, 58.8)">n</text><text xml:space="preserve" font-family="ArialMT,Arial" font-size="42.0" fill="#FEFFFF" transform="matrix(1.00, 0.00, -0.00, -1.00, 841.8, 58.8)">a</text><text xml:space="preserve" font-family="ArialMT,Arial" font-size="42.0" fill="#FEFFFF" transform="matrix(1.00, 0.00, -0.00, -1.00, 865.1, 58.8)"> </text><text xml:space="preserve" font-family="ArialMT,Arial" font-size="42.0" fill="#FEFFFF" transform="matrix(1.00, 0.00, -0.00, -1.00, 876.8, 58.8)">a</text><text xml:space="preserve" font-family="ArialMT,Arial" font-size="42.0" fill="#FEFFFF" transform="matrix(1.00, 0.00, -0.00, -1.00, 900.2, 58.8)"> </text><text xml:space="preserve" font-family="ArialMT,Arial" font-size="42.0" fill="#FEFFFF" transform="matrix(1.00, 0.00, -0.00, -1.00, 911.8, 58.8)">o</text><text xml:space="preserve" font-family="ArialMT,Arial" font-size="42.0" fill="#FEFFFF" transform="matrix(1.00, 0.00, -0.00, -1.00, 935.2, 58.8)">t</text><text xml:space="preserve" font-family="ArialMT,Arial" font-size="42.0" fill="#FEFFFF" transform="matrix(1.00, 0.00, -0.00, -1.00, 946.9, 58.8)">e</text><text xml:space="preserve" font-family="ArialMT,Arial" font-size="42.0" fill="#FEFFFF" transform="matrix(1.00, 0.00, -0.00, -1.00, 970.2, 58.8)">s</text><text xml:space="preserve" font-family="ArialMT,Arial" font-size="42.0" fill="#FEFFFF" transform="matrix(1.00, 0.00, -0.00, -1.00, 991.2, 58.8)">t</text><text xml:space="preserve" font-family="ArialMT,Arial" font-size="42.0" fill="#FEFFFF" transform="matrix(1.00, 0.00, -0.00, -1.00, 1002.9, 58.8)">o</text><text xml:space="preserve" font-family="ArialMT,Arial" font-size="42.0" fill="#FEFFFF" transform="matrix(1.00, 0.00, -0.00, -1.00, 1026.3, 58.8)">v</text><text xml:space="preserve" font-family="ArialMT,Arial" font-size="42.0" fill="#FEFFFF" transform="matrix(1.00, 0.00, -0.00, -1.00, 1047.3, 58.8)">á</text><text xml:space="preserve" font-family="ArialMT,Arial" font-size="42.0" fill="#FEFFFF" transform="matrix(1.00, 0.00, -0.00, -1.00, 1070.6, 58.8)">n</text><text xml:space="preserve" font-family="ArialMT,Arial" font-size="42.0" fill="#FEFFFF" transform="matrix(1.00, 0.00, -0.00, -1.00, 1094.0, 58.8)">a</text><text xml:space="preserve" font-family="ArialMT,Arial" font-size="42.0" fill="#FEFFFF" transform="matrix(1.00, 0.00, -0.00, -1.00, 1117.4, 58.8)"> </text><text xml:space="preserve" font-family="ArialMT,Arial" font-size="42.0" fill="#FEFFFF" transform="matrix(1.00, 0.00, -0.00, -1.00, 1129.0, 58.8)">a</text><text xml:space="preserve" font-family="ArialMT,Arial" font-size="42.0" fill="#FEFFFF" transform="matrix(1.00, 0.00, -0.00, -1.00, 1152.4, 58.8)">p</text><text xml:space="preserve" font-family="ArialMT,Arial" font-size="42.0" fill="#FEFFFF" transform="matrix(1.00, 0.00, -0.00, -1.00, 1175.8, 58.8)">l</text><text xml:space="preserve" font-family="ArialMT,Arial" font-size="42.0" fill="#FEFFFF" transform="matrix(1.00, 0.00, -0.00, -1.00, 1185.1, 58.8)">i</text><text xml:space="preserve" font-family="ArialMT,Arial" font-size="42.0" fill="#FEFFFF" transform="matrix(1.00, 0.00, -0.00, -1.00, 1194.4, 58.8)">k</text><text xml:space="preserve" font-family="ArialMT,Arial" font-size="42.0" fill="#FEFFFF" transform="matrix(1.00, 0.00, -0.00, -1.00, 1215.4, 58.8)">a</text><text xml:space="preserve" font-family="ArialMT,Arial" font-size="42.0" fill="#FEFFFF" transform="matrix(1.00, 0.00, -0.00, -1.00, 1238.8, 58.8)">c</text><text xml:space="preserve" font-family="ArialMT,Arial" font-size="42.0" fill="#FEFFFF" transform="matrix(1.00, 0.00, -0.00, -1.00, 1259.8, 58.8)">e</text><text xml:space="preserve" font-family="ArialMT,Arial" font-size="42.0" fill="#FEFFFF" transform="matrix(1.00, 0.00, -0.00, -1.00, 1283.2, 58.8)"> </text><text xml:space="preserve" font-family="ArialMT,Arial" font-size="42.0" fill="#FEFFFF" transform="matrix(1.00, 0.00, -0.00, -1.00, 1.3, 10.8)">p</text><text xml:space="preserve" font-family="ArialMT,Arial" font-size="42.0" fill="#FEFFFF" transform="matrix(1.00, 0.00, -0.00, -1.00, 24.6, 10.8)">r</text><text xml:space="preserve" font-family="ArialMT,Arial" font-size="42.0" fill="#FEFFFF" transform="matrix(1.00, 0.00, -0.00, -1.00, 38.6, 10.8)">o</text><text xml:space="preserve" font-family="ArialMT,Arial" font-size="42.0" fill="#FEFFFF" transform="matrix(1.00, 0.00, -0.00, -1.00, 62.0, 10.8)"> </text><text xml:space="preserve" font-family="ArialMT,Arial" font-size="42.0" fill="#FEFFFF" transform="matrix(1.00, 0.00, -0.00, -1.00, 73.6, 10.8)">p</text><text xml:space="preserve" font-family="ArialMT,Arial" font-size="42.0" fill="#FEFFFF" transform="matrix(1.00, 0.00, -0.00, -1.00, 97.0, 10.8)">o</text><text xml:space="preserve" font-family="ArialMT,Arial" font-size="42.0" fill="#FEFFFF" transform="matrix(1.00, 0.00, -0.00, -1.00, 120.4, 10.8)">d</text><text xml:space="preserve" font-family="ArialMT,Arial" font-size="42.0" fill="#FEFFFF" transform="matrix(1.00, 0.00, -0.00, -1.00, 143.7, 10.8)">p</text><text xml:space="preserve" font-family="ArialMT,Arial" font-size="42.0" fill="#FEFFFF" transform="matrix(1.00, 0.00, -0.00, -1.00, 167.1, 10.8)">o</text><text xml:space="preserve" font-family="ArialMT,Arial" font-size="42.0" fill="#FEFFFF" transform="matrix(1.00, 0.00, -0.00, -1.00, 190.5, 10.8)">r</text><text xml:space="preserve" font-family="ArialMT,Arial" font-size="42.0" fill="#FEFFFF" transform="matrix(1.00, 0.00, -0.00, -1.00, 204.5, 10.8)">u</text><text xml:space="preserve" font-family="ArialMT,Arial" font-size="42.0" fill="#FEFFFF" transform="matrix(1.00, 0.00, -0.00, -1.00, 227.8, 10.8)"> </text><text xml:space="preserve" font-family="ArialMT,Arial" font-size="42.0" fill="#FEFFFF" transform="matrix(1.00, 0.00, -0.00, -1.00, 239.5, 10.8)">d</text><text xml:space="preserve" font-family="ArialMT,Arial" font-size="42.0" fill="#FEFFFF" transform="matrix(1.00, 0.00, -0.00, -1.00, 262.9, 10.8)">n</text><text xml:space="preserve" font-family="ArialMT,Arial" font-size="42.0" fill="#FEFFFF" transform="matrix(1.00, 0.00, -0.00, -1.00, 286.2, 10.8)">e</text><text xml:space="preserve" font-family="ArialMT,Arial" font-size="42.0" fill="#FEFFFF" transform="matrix(1.00, 0.00, -0.00, -1.00, 309.6, 10.8)"> </text><text xml:space="preserve" font-family="ArialMT,Arial" font-size="42.0" fill="#FEFFFF" transform="matrix(1.00, 0.00, -0.00, -1.00, 321.3, 10.8)">o</text><text xml:space="preserve" font-family="ArialMT,Arial" font-size="42.0" fill="#FEFFFF" transform="matrix(1.00, 0.00, -0.00, -1.00, 344.6, 10.8)">t</text><text xml:space="preserve" font-family="ArialMT,Arial" font-size="42.0" fill="#FEFFFF" transform="matrix(1.00, 0.00, -0.00, -1.00, 356.3, 10.8)">e</text><text xml:space="preserve" font-family="ArialMT,Arial" font-size="42.0" fill="#FEFFFF" transform="matrix(1.00, 0.00, -0.00, -1.00, 379.6, 10.8)">v</text><text xml:space="preserve" font-family="ArialMT,Arial" font-size="42.0" fill="#FEFFFF" transform="matrix(1.00, 0.00, -0.00, -1.00, 400.6, 10.8)">ř</text><text xml:space="preserve" font-family="ArialMT,Arial" font-size="42.0" fill="#FEFFFF" transform="matrix(1.00, 0.00, -0.00, -1.00, 414.6, 10.8)">e</text><text xml:space="preserve" font-family="ArialMT,Arial" font-size="42.0" fill="#FEFFFF" transform="matrix(1.00, 0.00, -0.00, -1.00, 438.0, 10.8)">n</text><text xml:space="preserve" font-family="ArialMT,Arial" font-size="42.0" fill="#FEFFFF" transform="matrix(1.00, 0.00, -0.00, -1.00, 461.4, 10.8)">ý</text><text xml:space="preserve" font-family="ArialMT,Arial" font-size="42.0" fill="#FEFFFF" transform="matrix(1.00, 0.00, -0.00, -1.00, 482.4, 10.8)">c</text><text xml:space="preserve" font-family="ArialMT,Arial" font-size="42.0" fill="#FEFFFF" transform="matrix(1.00, 0.00, -0.00, -1.00, 503.4, 10.8)">h</text><text xml:space="preserve" font-family="ArialMT,Arial" font-size="42.0" fill="#FEFFFF" transform="matrix(1.00, 0.00, -0.00, -1.00, 526.7, 10.8)"> </text><text xml:space="preserve" font-family="ArialMT,Arial" font-size="42.0" fill="#FEFFFF" transform="matrix(1.00, 0.00, -0.00, -1.00, 538.4, 10.8)">d</text><text xml:space="preserve" font-family="ArialMT,Arial" font-size="42.0" fill="#FEFFFF" transform="matrix(1.00, 0.00, -0.00, -1.00, 561.8, 10.8)">v</text><text xml:space="preserve" font-family="ArialMT,Arial" font-size="42.0" fill="#FEFFFF" transform="matrix(1.00, 0.00, -0.00, -1.00, 582.8, 10.8)">e</text><text xml:space="preserve" font-family="ArialMT,Arial" font-size="42.0" fill="#FEFFFF" transform="matrix(1.00, 0.00, -0.00, -1.00, 606.1, 10.8)">ř</text><text xml:space="preserve" font-family="ArialMT,Arial" font-size="42.0" fill="#FEFFFF" transform="matrix(1.00, 0.00, -0.00, -1.00, 620.1, 10.8)">í</text><text xml:space="preserve" font-family="ArialMT,Arial" font-size="42.0" fill="#FEFFFF" transform="matrix(1.00, 0.00, -0.00, -1.00, 631.8, 10.8)">.</text></g></svg>