<?xml version="1.0" encoding="UTF-8" standalone="no"?><svg xmlns="http://www.w3.org/2000/svg" xmlns:xlink="http://www.w3.org/1999/xlink" clip-rule="evenodd" stroke-miterlimit="10" viewBox="0 0 1920 1080"><desc>SVG generated by Keynote</desc><defs></defs><g transform="matrix(1.00, 0.00, -0.00, -1.00, 0.0, 1080.0)"><path d="M 0.0 1080.0 L 1920.0 1080.0 L 1920.0 0.0 L 0.0 0.0 Z M 0.0 1080.0 " fill="#2B3138"></path><text xml:space="preserve" font-family="SourceSansPro-ExtraLightIt,Source Sans Pro" font-style="italic" font-size="100.0" fill="#5BA1A6" transform="matrix(1.00, 0.00, -0.00, -1.00, 570.3, 604.7)">D</text><text xml:space="preserve" font-family="SourceSansPro-ExtraLightIt,Source Sans Pro" font-style="italic" font-size="100.0" fill="#5BA1A6" transform="matrix(1.00, 0.00, -0.00, -1.00, 627.5, 604.7)">ě</text><text xml:space="preserve" font-family="SourceSansPro-ExtraLightIt,Source Sans Pro" font-style="italic" font-size="100.0" fill="#5BA1A6" transform="matrix(1.00, 0.00, -0.00, -1.00, 674.3, 604.7)">k</text><text xml:space="preserve" font-family="SourceSansPro-ExtraLightIt,Source Sans Pro" font-style="italic" font-size="100.0" fill="#5BA1A6" transform="matrix(1.00, 0.00, -0.00, -1.00, 716.9, 604.7)">u</text><text xml:space="preserve" font-family="SourceSansPro-ExtraLightIt,Source Sans Pro" font-style="italic" font-size="100.0" fill="#5BA1A6" transform="matrix(1.00, 0.00, -0.00, -1.00, 768.3, 604.7)">j</text><text xml:space="preserve" font-family="SourceSansPro-ExtraLightIt,Source Sans Pro" font-style="italic" font-size="100.0" fill="#5BA1A6" transform="matrix(1.00, 0.00, -0.00, -1.00, 789.7, 604.7)">i</text><text xml:space="preserve" font-family="SourceSansPro-ExtraLightIt,Source Sans Pro" font-style="italic" font-size="100.0" fill="#5BA1A6" transform="matrix(1.00, 0.00, -0.00, -1.00, 811.1, 604.7)"> </text><text xml:space="preserve" font-family="SourceSansPro-ExtraLightIt,Source Sans Pro" font-style="italic" font-size="100.0" fill="#5BA1A6" transform="matrix(1.00, 0.00, -0.00, -1.00, 829.9, 604.7)">z</text><text xml:space="preserve" font-family="SourceSansPro-ExtraLightIt,Source Sans Pro" font-style="italic" font-size="100.0" fill="#5BA1A6" transform="matrix(1.00, 0.00, -0.00, -1.00, 867.3, 604.7)">a</text><text xml:space="preserve" font-family="SourceSansPro-ExtraLightIt,Source Sans Pro" font-style="italic" font-size="100.0" fill="#5BA1A6" transform="matrix(1.00, 0.00, -0.00, -1.00, 919.7, 604.7)"> </text><text xml:space="preserve" font-family="SourceSansPro-ExtraLightIt,Source Sans Pro" font-style="italic" font-size="100.0" fill="#5BA1A6" transform="matrix(1.00, 0.00, -0.00, -1.00, 938.5, 604.7)">p</text><text xml:space="preserve" font-family="SourceSansPro-ExtraLightIt,Source Sans Pro" font-style="italic" font-size="100.0" fill="#5BA1A6" transform="matrix(1.00, 0.00, -0.00, -1.00, 990.5, 604.7)">o</text><text xml:space="preserve" font-family="SourceSansPro-ExtraLightIt,Source Sans Pro" font-style="italic" font-size="100.0" fill="#5BA1A6" transform="matrix(1.00, 0.00, -0.00, -1.00, 1039.5, 604.7)">z</text><text xml:space="preserve" font-family="SourceSansPro-ExtraLightIt,Source Sans Pro" font-style="italic" font-size="100.0" fill="#5BA1A6" transform="matrix(1.00, 0.00, -0.00, -1.00, 1076.9, 604.7)">o</text><text xml:space="preserve" font-family="SourceSansPro-ExtraLightIt,Source Sans Pro" font-style="italic" font-size="100.0" fill="#5BA1A6" transform="matrix(1.00, 0.00, -0.00, -1.00, 1126.9, 604.7)">r</text><text xml:space="preserve" font-family="SourceSansPro-ExtraLightIt,Source Sans Pro" font-style="italic" font-size="100.0" fill="#5BA1A6" transform="matrix(1.00, 0.00, -0.00, -1.00, 1157.7, 604.7)">n</text><text xml:space="preserve" font-family="SourceSansPro-ExtraLightIt,Source Sans Pro" font-style="italic" font-size="100.0" fill="#5BA1A6" transform="matrix(1.00, 0.00, -0.00, -1.00, 1208.1, 604.7)">o</text><text xml:space="preserve" font-family="SourceSansPro-ExtraLightIt,Source Sans Pro" font-style="italic" font-size="100.0" fill="#5BA1A6" transform="matrix(1.00, 0.00, -0.00, -1.00, 1258.1, 604.7)">s</text><text xml:space="preserve" font-family="SourceSansPro-ExtraLightIt,Source Sans Pro" font-style="italic" font-size="100.0" fill="#5BA1A6" transform="matrix(1.00, 0.00, -0.00, -1.00, 1296.5, 604.7)">t</text><text xml:space="preserve" font-family="SourceSansPro-ExtraLightIt,Source Sans Pro" font-style="italic" font-size="100.0" fill="#5BA1A6" transform="matrix(1.00, 0.00, -0.00, -1.00, 1325.5, 604.7)">!</text></g></svg>