<?xml version="1.0" encoding="UTF-8" standalone="no"?><svg xmlns="http://www.w3.org/2000/svg" xmlns:xlink="http://www.w3.org/1999/xlink" clip-rule="evenodd" stroke-miterlimit="10" viewBox="0 0 364 178"><desc>SVG generated by Keynote</desc><defs></defs><g transform="matrix(1.00, 0.00, -0.00, -1.00, 0.0, 178.0)"><g><clipPath id="clip0x608002ab98c0"><path d="M 1.3 0.5 L 363.0 0.5 L 363.0 124.8 L 1.3 124.8 Z M 1.3 0.5 "></path></clipPath><g clip-path="url(#clip0x608002ab98c0)"><image xlink:href="../../EA0859E4-4F5E-49AF-80C6-824F98715EB1/assets/002A8F96B81A8D62F55C5038E661104C.png" width="2357.00" height="810.00" transform="matrix(0.15, 0.00, -0.00, -0.15, 1.0, 125.0)"></image></g></g><g><clipPath id="clip0x608002ab9860"><path d="M -5.1 120.2 L 267.5 120.2 L 267.5 182.9 L -5.1 182.9 Z M -5.1 120.2 "></path></clipPath><g clip-path="url(#clip0x608002ab9860)"><text xml:space="preserve" font-family="ArialMT,Arial" font-size="37.0" fill="#FEFFFF" transform="matrix(1.00, 0.00, -0.00, -1.00, 5.8, 139.6)">c</text><text xml:space="preserve" font-family="ArialMT,Arial" font-size="37.0" fill="#FEFFFF" transform="matrix(1.00, 0.00, -0.00, -1.00, 24.3, 139.6)">o</text><text xml:space="preserve" font-family="ArialMT,Arial" font-size="37.0" fill="#FEFFFF" transform="matrix(1.00, 0.00, -0.00, -1.00, 44.8, 139.6)">m</text><text xml:space="preserve" font-family="ArialMT,Arial" font-size="37.0" fill="#FEFFFF" transform="matrix(1.00, 0.00, -0.00, -1.00, 75.7, 139.6)">i</text><text xml:space="preserve" font-family="ArialMT,Arial" font-size="37.0" fill="#FEFFFF" transform="matrix(1.00, 0.00, -0.00, -1.00, 83.9, 139.6)">n</text><text xml:space="preserve" font-family="ArialMT,Arial" font-size="37.0" fill="#FEFFFF" transform="matrix(1.00, 0.00, -0.00, -1.00, 104.5, 139.6)">g</text><text xml:space="preserve" font-family="ArialMT,Arial" font-size="37.0" fill="#FEFFFF" transform="matrix(1.00, 0.00, -0.00, -1.00, 125.1, 139.6)"> </text><text xml:space="preserve" font-family="ArialMT,Arial" font-size="37.0" fill="#FEFFFF" transform="matrix(1.00, 0.00, -0.00, -1.00, 135.3, 139.6)">s</text><text xml:space="preserve" font-family="ArialMT,Arial" font-size="37.0" fill="#FEFFFF" transform="matrix(1.00, 0.00, -0.00, -1.00, 153.8, 139.6)">o</text><text xml:space="preserve" font-family="ArialMT,Arial" font-size="37.0" fill="#FEFFFF" transform="matrix(1.00, 0.00, -0.00, -1.00, 174.4, 139.6)">o</text><text xml:space="preserve" font-family="ArialMT,Arial" font-size="37.0" fill="#FEFFFF" transform="matrix(1.00, 0.00, -0.00, -1.00, 195.0, 139.6)">n</text><text xml:space="preserve" font-family="ArialMT,Arial" font-size="37.0" fill="#FEFFFF" transform="matrix(1.00, 0.00, -0.00, -1.00, 215.6, 139.6)"> </text><text xml:space="preserve" font-family="ArialMT,Arial" font-size="37.0" fill="#FEFFFF" transform="matrix(1.00, 0.00, -0.00, -1.00, 225.9, 139.6)">t</text><text xml:space="preserve" font-family="ArialMT,Arial" font-size="37.0" fill="#FEFFFF" transform="matrix(1.00, 0.00, -0.00, -1.00, 236.1, 139.6)">o</text></g></g></g></svg>