<?xml version="1.0" encoding="UTF-8" standalone="no"?><svg xmlns="http://www.w3.org/2000/svg" xmlns:xlink="http://www.w3.org/1999/xlink" clip-rule="evenodd" stroke-miterlimit="10" viewBox="0 0 1920 1080"><desc>SVG generated by Keynote</desc><defs></defs><g transform="matrix(1.00, 0.00, -0.00, -1.00, 0.0, 1080.0)"><path d="M 0.0 1080.0 L 1920.0 1080.0 L 1920.0 0.0 L 0.0 0.0 Z M 0.0 1080.0 " fill="#2B3138"></path><text xml:space="preserve" font-family="SourceSansPro-ExtraLight,Source Sans Pro" font-size="100.0" fill="#5BA1A6" transform="matrix(1.00, 0.00, -0.00, -1.00, 814.5, 926.3)">S</text><text xml:space="preserve" font-family="SourceSansPro-ExtraLight,Source Sans Pro" font-size="100.0" fill="#5BA1A6" transform="matrix(1.00, 0.00, -0.00, -1.00, 865.3, 926.3)">h</text><text xml:space="preserve" font-family="SourceSansPro-ExtraLight,Source Sans Pro" font-size="100.0" fill="#5BA1A6" transform="matrix(1.00, 0.00, -0.00, -1.00, 917.5, 926.3)">r</text><text xml:space="preserve" font-family="SourceSansPro-ExtraLight,Source Sans Pro" font-size="100.0" fill="#5BA1A6" transform="matrix(1.00, 0.00, -0.00, -1.00, 948.1, 926.3)">n</text><text xml:space="preserve" font-family="SourceSansPro-ExtraLight,Source Sans Pro" font-size="100.0" fill="#5BA1A6" transform="matrix(1.00, 0.00, -0.00, -1.00, 1000.7, 926.3)">u</text><text xml:space="preserve" font-family="SourceSansPro-ExtraLight,Source Sans Pro" font-size="100.0" fill="#5BA1A6" transform="matrix(1.00, 0.00, -0.00, -1.00, 1053.1, 926.3)">t</text><text xml:space="preserve" font-family="SourceSansPro-ExtraLight,Source Sans Pro" font-size="100.0" fill="#5BA1A6" transform="matrix(1.00, 0.00, -0.00, -1.00, 1083.3, 926.3)">í</text><text xml:space="preserve" font-family="Helvetica-Light,Helvetica" font-size="24.0" fill="#FEFFFF" transform="matrix(1.00, 0.00, -0.00, -1.00, 946.2, 22.5)">1</text><text xml:space="preserve" font-family="Helvetica-Light,Helvetica" font-size="24.0" fill="#FEFFFF" transform="matrix(1.00, 0.00, -0.00, -1.00, 959.5, 22.5)">8</text><text xml:space="preserve" font-family="SourceSansPro-Light,Source Sans Pro" font-size="50.0" fill="#FEFFFF" transform="matrix(1.00, 0.00, -0.00, -1.00, 272.0, 654.1)">V</text><text xml:space="preserve" font-family="SourceSansPro-Light,Source Sans Pro" font-size="50.0" fill="#FEFFFF" transform="matrix(1.00, 0.00, -0.00, -1.00, 296.2, 654.1)"> </text><text xml:space="preserve" font-family="SourceSansPro-Light,Source Sans Pro" font-size="50.0" fill="#FEFFFF" transform="matrix(1.00, 0.00, -0.00, -1.00, 306.1, 654.1)">r</text><text xml:space="preserve" font-family="SourceSansPro-Light,Source Sans Pro" font-size="50.0" fill="#FEFFFF" transform="matrix(1.00, 0.00, -0.00, -1.00, 320.8, 654.1)">á</text><text xml:space="preserve" font-family="SourceSansPro-Light,Source Sans Pro" font-size="50.0" fill="#FEFFFF" transform="matrix(1.00, 0.00, -0.00, -1.00, 345.8, 654.1)">m</text><text xml:space="preserve" font-family="SourceSansPro-Light,Source Sans Pro" font-size="50.0" fill="#FEFFFF" transform="matrix(1.00, 0.00, -0.00, -1.00, 386.4, 654.1)">c</text><text xml:space="preserve" font-family="SourceSansPro-Light,Source Sans Pro" font-size="50.0" fill="#FEFFFF" transform="matrix(1.00, 0.00, -0.00, -1.00, 408.8, 654.1)">i</text><text xml:space="preserve" font-family="SourceSansPro-Light,Source Sans Pro" font-size="50.0" fill="#FEFFFF" transform="matrix(1.00, 0.00, -0.00, -1.00, 420.3, 654.1)"> </text><text xml:space="preserve" font-family="SourceSansPro-Light,Source Sans Pro" font-size="50.0" fill="#FEFFFF" transform="matrix(1.00, 0.00, -0.00, -1.00, 430.2, 654.1)">p</text><text xml:space="preserve" font-family="SourceSansPro-Light,Source Sans Pro" font-size="50.0" fill="#FEFFFF" transform="matrix(1.00, 0.00, -0.00, -1.00, 457.4, 654.1)">r</text><text xml:space="preserve" font-family="SourceSansPro-Light,Source Sans Pro" font-size="50.0" fill="#FEFFFF" transform="matrix(1.00, 0.00, -0.00, -1.00, 472.1, 654.1)">á</text><text xml:space="preserve" font-family="SourceSansPro-Light,Source Sans Pro" font-size="50.0" fill="#FEFFFF" transform="matrix(1.00, 0.00, -0.00, -1.00, 497.1, 654.1)">c</text><text xml:space="preserve" font-family="SourceSansPro-Light,Source Sans Pro" font-size="50.0" fill="#FEFFFF" transform="matrix(1.00, 0.00, -0.00, -1.00, 518.7, 654.1)">e</text><text xml:space="preserve" font-family="SourceSansPro-Light,Source Sans Pro" font-size="50.0" fill="#FEFFFF" transform="matrix(1.00, 0.00, -0.00, -1.00, 542.8, 654.1)"> </text><text xml:space="preserve" font-family="SourceSansPro-Light,Source Sans Pro" font-size="50.0" fill="#FEFFFF" transform="matrix(1.00, 0.00, -0.00, -1.00, 552.8, 654.1)">b</text><text xml:space="preserve" font-family="SourceSansPro-Light,Source Sans Pro" font-size="50.0" fill="#FEFFFF" transform="matrix(1.00, 0.00, -0.00, -1.00, 580.0, 654.1)">y</text><text xml:space="preserve" font-family="SourceSansPro-Light,Source Sans Pro" font-size="50.0" fill="#FEFFFF" transform="matrix(1.00, 0.00, -0.00, -1.00, 601.8, 654.1)">l</text><text xml:space="preserve" font-family="SourceSansPro-Light,Source Sans Pro" font-size="50.0" fill="#FEFFFF" transform="matrix(1.00, 0.00, -0.00, -1.00, 613.6, 654.1)">a</text><text xml:space="preserve" font-family="SourceSansPro-Light,Source Sans Pro" font-size="50.0" fill="#FEFFFF" transform="matrix(1.00, 0.00, -0.00, -1.00, 638.6, 654.1)"> </text><text xml:space="preserve" font-family="SourceSansPro-Light,Source Sans Pro" font-size="50.0" fill="#FEFFFF" transform="matrix(1.00, 0.00, -0.00, -1.00, 648.5, 654.1)">n</text><text xml:space="preserve" font-family="SourceSansPro-Light,Source Sans Pro" font-size="50.0" fill="#FEFFFF" transform="matrix(1.00, 0.00, -0.00, -1.00, 675.1, 654.1)">a</text><text xml:space="preserve" font-family="SourceSansPro-Light,Source Sans Pro" font-size="50.0" fill="#FEFFFF" transform="matrix(1.00, 0.00, -0.00, -1.00, 700.1, 654.1)">v</text><text xml:space="preserve" font-family="SourceSansPro-Light,Source Sans Pro" font-size="50.0" fill="#FEFFFF" transform="matrix(1.00, 0.00, -0.00, -1.00, 721.8, 654.1)">r</text><text xml:space="preserve" font-family="SourceSansPro-Light,Source Sans Pro" font-size="50.0" fill="#FEFFFF" transform="matrix(1.00, 0.00, -0.00, -1.00, 737.1, 654.1)">ž</text><text xml:space="preserve" font-family="SourceSansPro-Light,Source Sans Pro" font-size="50.0" fill="#FEFFFF" transform="matrix(1.00, 0.00, -0.00, -1.00, 756.8, 654.1)">e</text><text xml:space="preserve" font-family="SourceSansPro-Light,Source Sans Pro" font-size="50.0" fill="#FEFFFF" transform="matrix(1.00, 0.00, -0.00, -1.00, 781.0, 654.1)">n</text><text xml:space="preserve" font-family="SourceSansPro-Light,Source Sans Pro" font-size="50.0" fill="#FEFFFF" transform="matrix(1.00, 0.00, -0.00, -1.00, 807.6, 654.1)">a</text><text xml:space="preserve" font-family="SourceSansPro-Light,Source Sans Pro" font-size="50.0" fill="#FEFFFF" transform="matrix(1.00, 0.00, -0.00, -1.00, 832.5, 654.1)">,</text><text xml:space="preserve" font-family="SourceSansPro-Light,Source Sans Pro" font-size="50.0" fill="#FEFFFF" transform="matrix(1.00, 0.00, -0.00, -1.00, 843.5, 654.1)"> </text><text xml:space="preserve" font-family="SourceSansPro-Light,Source Sans Pro" font-size="50.0" fill="#FEFFFF" transform="matrix(1.00, 0.00, -0.00, -1.00, 853.4, 654.1)">i</text><text xml:space="preserve" font-family="SourceSansPro-Light,Source Sans Pro" font-size="50.0" fill="#FEFFFF" transform="matrix(1.00, 0.00, -0.00, -1.00, 864.9, 654.1)">m</text><text xml:space="preserve" font-family="SourceSansPro-Light,Source Sans Pro" font-size="50.0" fill="#FEFFFF" transform="matrix(1.00, 0.00, -0.00, -1.00, 905.5, 654.1)">p</text><text xml:space="preserve" font-family="SourceSansPro-Light,Source Sans Pro" font-size="50.0" fill="#FEFFFF" transform="matrix(1.00, 0.00, -0.00, -1.00, 932.7, 654.1)">l</text><text xml:space="preserve" font-family="SourceSansPro-Light,Source Sans Pro" font-size="50.0" fill="#FEFFFF" transform="matrix(1.00, 0.00, -0.00, -1.00, 944.5, 654.1)">e</text><text xml:space="preserve" font-family="SourceSansPro-Light,Source Sans Pro" font-size="50.0" fill="#FEFFFF" transform="matrix(1.00, 0.00, -0.00, -1.00, 968.7, 654.1)">m</text><text xml:space="preserve" font-family="SourceSansPro-Light,Source Sans Pro" font-size="50.0" fill="#FEFFFF" transform="matrix(1.00, 0.00, -0.00, -1.00, 1009.3, 654.1)">e</text><text xml:space="preserve" font-family="SourceSansPro-Light,Source Sans Pro" font-size="50.0" fill="#FEFFFF" transform="matrix(1.00, 0.00, -0.00, -1.00, 1033.4, 654.1)">n</text><text xml:space="preserve" font-family="SourceSansPro-Light,Source Sans Pro" font-size="50.0" fill="#FEFFFF" transform="matrix(1.00, 0.00, -0.00, -1.00, 1060.0, 654.1)">t</text><text xml:space="preserve" font-family="SourceSansPro-Light,Source Sans Pro" font-size="50.0" fill="#FEFFFF" transform="matrix(1.00, 0.00, -0.00, -1.00, 1075.1, 654.1)">o</text><text xml:space="preserve" font-family="SourceSansPro-Light,Source Sans Pro" font-size="50.0" fill="#FEFFFF" transform="matrix(1.00, 0.00, -0.00, -1.00, 1101.9, 654.1)">v</text><text xml:space="preserve" font-family="SourceSansPro-Light,Source Sans Pro" font-size="50.0" fill="#FEFFFF" transform="matrix(1.00, 0.00, -0.00, -1.00, 1122.6, 654.1)">á</text><text xml:space="preserve" font-family="SourceSansPro-Light,Source Sans Pro" font-size="50.0" fill="#FEFFFF" transform="matrix(1.00, 0.00, -0.00, -1.00, 1147.5, 654.1)">n</text><text xml:space="preserve" font-family="SourceSansPro-Light,Source Sans Pro" font-size="50.0" fill="#FEFFFF" transform="matrix(1.00, 0.00, -0.00, -1.00, 1174.1, 654.1)">a</text><text xml:space="preserve" font-family="SourceSansPro-Light,Source Sans Pro" font-size="50.0" fill="#FEFFFF" transform="matrix(1.00, 0.00, -0.00, -1.00, 1199.1, 654.1)"> </text><text xml:space="preserve" font-family="SourceSansPro-Light,Source Sans Pro" font-size="50.0" fill="#FEFFFF" transform="matrix(1.00, 0.00, -0.00, -1.00, 1209.0, 654.1)">a</text><text xml:space="preserve" font-family="SourceSansPro-Light,Source Sans Pro" font-size="50.0" fill="#FEFFFF" transform="matrix(1.00, 0.00, -0.00, -1.00, 1234.0, 654.1)"> </text><text xml:space="preserve" font-family="SourceSansPro-Light,Source Sans Pro" font-size="50.0" fill="#FEFFFF" transform="matrix(1.00, 0.00, -0.00, -1.00, 1243.9, 654.1)">o</text><text xml:space="preserve" font-family="SourceSansPro-Light,Source Sans Pro" font-size="50.0" fill="#FEFFFF" transform="matrix(1.00, 0.00, -0.00, -1.00, 1270.7, 654.1)">t</text><text xml:space="preserve" font-family="SourceSansPro-Light,Source Sans Pro" font-size="50.0" fill="#FEFFFF" transform="matrix(1.00, 0.00, -0.00, -1.00, 1285.8, 654.1)">e</text><text xml:space="preserve" font-family="SourceSansPro-Light,Source Sans Pro" font-size="50.0" fill="#FEFFFF" transform="matrix(1.00, 0.00, -0.00, -1.00, 1309.9, 654.1)">s</text><text xml:space="preserve" font-family="SourceSansPro-Light,Source Sans Pro" font-size="50.0" fill="#FEFFFF" transform="matrix(1.00, 0.00, -0.00, -1.00, 1330.2, 654.1)">t</text><text xml:space="preserve" font-family="SourceSansPro-Light,Source Sans Pro" font-size="50.0" fill="#FEFFFF" transform="matrix(1.00, 0.00, -0.00, -1.00, 1345.3, 654.1)">o</text><text xml:space="preserve" font-family="SourceSansPro-Light,Source Sans Pro" font-size="50.0" fill="#FEFFFF" transform="matrix(1.00, 0.00, -0.00, -1.00, 1372.0, 654.1)">v</text><text xml:space="preserve" font-family="SourceSansPro-Light,Source Sans Pro" font-size="50.0" fill="#FEFFFF" transform="matrix(1.00, 0.00, -0.00, -1.00, 1392.7, 654.1)">á</text><text xml:space="preserve" font-family="SourceSansPro-Light,Source Sans Pro" font-size="50.0" fill="#FEFFFF" transform="matrix(1.00, 0.00, -0.00, -1.00, 1417.7, 654.1)">n</text><text xml:space="preserve" font-family="SourceSansPro-Light,Source Sans Pro" font-size="50.0" fill="#FEFFFF" transform="matrix(1.00, 0.00, -0.00, -1.00, 1444.3, 654.1)">a</text><text xml:space="preserve" font-family="SourceSansPro-Light,Source Sans Pro" font-size="50.0" fill="#FEFFFF" transform="matrix(1.00, 0.00, -0.00, -1.00, 1469.2, 654.1)"> </text><text xml:space="preserve" font-family="SourceSansPro-Light,Source Sans Pro" font-size="50.0" fill="#FEFFFF" transform="matrix(1.00, 0.00, -0.00, -1.00, 1479.2, 654.1)">a</text><text xml:space="preserve" font-family="SourceSansPro-Light,Source Sans Pro" font-size="50.0" fill="#FEFFFF" transform="matrix(1.00, 0.00, -0.00, -1.00, 1504.1, 654.1)">p</text><text xml:space="preserve" font-family="SourceSansPro-Light,Source Sans Pro" font-size="50.0" fill="#FEFFFF" transform="matrix(1.00, 0.00, -0.00, -1.00, 1531.3, 654.1)">l</text><text xml:space="preserve" font-family="SourceSansPro-Light,Source Sans Pro" font-size="50.0" fill="#FEFFFF" transform="matrix(1.00, 0.00, -0.00, -1.00, 1543.2, 654.1)">i</text><text xml:space="preserve" font-family="SourceSansPro-Light,Source Sans Pro" font-size="50.0" fill="#FEFFFF" transform="matrix(1.00, 0.00, -0.00, -1.00, 1554.6, 654.1)">k</text><text xml:space="preserve" font-family="SourceSansPro-Light,Source Sans Pro" font-size="50.0" fill="#FEFFFF" transform="matrix(1.00, 0.00, -0.00, -1.00, 1577.3, 654.1)">a</text><text xml:space="preserve" font-family="SourceSansPro-Light,Source Sans Pro" font-size="50.0" fill="#FEFFFF" transform="matrix(1.00, 0.00, -0.00, -1.00, 1602.3, 654.1)">c</text><text xml:space="preserve" font-family="SourceSansPro-Light,Source Sans Pro" font-size="50.0" fill="#FEFFFF" transform="matrix(1.00, 0.00, -0.00, -1.00, 1623.9, 654.1)">e</text><text xml:space="preserve" font-family="SourceSansPro-Light,Source Sans Pro" font-size="50.0" fill="#FEFFFF" transform="matrix(1.00, 0.00, -0.00, -1.00, 1648.0, 654.1)"> </text><text xml:space="preserve" font-family="SourceSansPro-Light,Source Sans Pro" font-size="50.0" fill="#FEFFFF" transform="matrix(1.00, 0.00, -0.00, -1.00, 609.6, 591.1)">p</text><text xml:space="preserve" font-family="SourceSansPro-Light,Source Sans Pro" font-size="50.0" fill="#FEFFFF" transform="matrix(1.00, 0.00, -0.00, -1.00, 636.8, 591.1)">r</text><text xml:space="preserve" font-family="SourceSansPro-Light,Source Sans Pro" font-size="50.0" fill="#FEFFFF" transform="matrix(1.00, 0.00, -0.00, -1.00, 652.1, 591.1)">o</text><text xml:space="preserve" font-family="SourceSansPro-Light,Source Sans Pro" font-size="50.0" fill="#FEFFFF" transform="matrix(1.00, 0.00, -0.00, -1.00, 678.9, 591.1)"> </text><text xml:space="preserve" font-family="SourceSansPro-Light,Source Sans Pro" font-size="50.0" fill="#FEFFFF" transform="matrix(1.00, 0.00, -0.00, -1.00, 688.9, 591.1)">p</text><text xml:space="preserve" font-family="SourceSansPro-Light,Source Sans Pro" font-size="50.0" fill="#FEFFFF" transform="matrix(1.00, 0.00, -0.00, -1.00, 716.1, 591.1)">o</text><text xml:space="preserve" font-family="SourceSansPro-Light,Source Sans Pro" font-size="50.0" fill="#FEFFFF" transform="matrix(1.00, 0.00, -0.00, -1.00, 742.8, 591.1)">d</text><text xml:space="preserve" font-family="SourceSansPro-Light,Source Sans Pro" font-size="50.0" fill="#FEFFFF" transform="matrix(1.00, 0.00, -0.00, -1.00, 770.0, 591.1)">p</text><text xml:space="preserve" font-family="SourceSansPro-Light,Source Sans Pro" font-size="50.0" fill="#FEFFFF" transform="matrix(1.00, 0.00, -0.00, -1.00, 797.2, 591.1)">o</text><text xml:space="preserve" font-family="SourceSansPro-Light,Source Sans Pro" font-size="50.0" fill="#FEFFFF" transform="matrix(1.00, 0.00, -0.00, -1.00, 824.0, 591.1)">r</text><text xml:space="preserve" font-family="SourceSansPro-Light,Source Sans Pro" font-size="50.0" fill="#FEFFFF" transform="matrix(1.00, 0.00, -0.00, -1.00, 839.8, 591.1)">u</text><text xml:space="preserve" font-family="SourceSansPro-Light,Source Sans Pro" font-size="50.0" fill="#FEFFFF" transform="matrix(1.00, 0.00, -0.00, -1.00, 866.2, 591.1)"> </text><text xml:space="preserve" font-family="SourceSansPro-Light,Source Sans Pro" font-size="50.0" fill="#FEFFFF" transform="matrix(1.00, 0.00, -0.00, -1.00, 876.2, 591.1)">d</text><text xml:space="preserve" font-family="SourceSansPro-Light,Source Sans Pro" font-size="50.0" fill="#FEFFFF" transform="matrix(1.00, 0.00, -0.00, -1.00, 903.4, 591.1)">n</text><text xml:space="preserve" font-family="SourceSansPro-Light,Source Sans Pro" font-size="50.0" fill="#FEFFFF" transform="matrix(1.00, 0.00, -0.00, -1.00, 930.0, 591.1)">e</text><text xml:space="preserve" font-family="SourceSansPro-Light,Source Sans Pro" font-size="50.0" fill="#FEFFFF" transform="matrix(1.00, 0.00, -0.00, -1.00, 954.2, 591.1)"> </text><text xml:space="preserve" font-family="SourceSansPro-Light,Source Sans Pro" font-size="50.0" fill="#FEFFFF" transform="matrix(1.00, 0.00, -0.00, -1.00, 964.1, 591.1)">o</text><text xml:space="preserve" font-family="SourceSansPro-Light,Source Sans Pro" font-size="50.0" fill="#FEFFFF" transform="matrix(1.00, 0.00, -0.00, -1.00, 990.9, 591.1)">t</text><text xml:space="preserve" font-family="SourceSansPro-Light,Source Sans Pro" font-size="50.0" fill="#FEFFFF" transform="matrix(1.00, 0.00, -0.00, -1.00, 1006.0, 591.1)">e</text><text xml:space="preserve" font-family="SourceSansPro-Light,Source Sans Pro" font-size="50.0" fill="#FEFFFF" transform="matrix(1.00, 0.00, -0.00, -1.00, 1030.7, 591.1)">v</text><text xml:space="preserve" font-family="SourceSansPro-Light,Source Sans Pro" font-size="50.0" fill="#FEFFFF" transform="matrix(1.00, 0.00, -0.00, -1.00, 1052.4, 591.1)">ř</text><text xml:space="preserve" font-family="SourceSansPro-Light,Source Sans Pro" font-size="50.0" fill="#FEFFFF" transform="matrix(1.00, 0.00, -0.00, -1.00, 1067.8, 591.1)">e</text><text xml:space="preserve" font-family="SourceSansPro-Light,Source Sans Pro" font-size="50.0" fill="#FEFFFF" transform="matrix(1.00, 0.00, -0.00, -1.00, 1091.9, 591.1)">n</text><text xml:space="preserve" font-family="SourceSansPro-Light,Source Sans Pro" font-size="50.0" fill="#FEFFFF" transform="matrix(1.00, 0.00, -0.00, -1.00, 1118.5, 591.1)">ý</text><text xml:space="preserve" font-family="SourceSansPro-Light,Source Sans Pro" font-size="50.0" fill="#FEFFFF" transform="matrix(1.00, 0.00, -0.00, -1.00, 1140.3, 591.1)">c</text><text xml:space="preserve" font-family="SourceSansPro-Light,Source Sans Pro" font-size="50.0" fill="#FEFFFF" transform="matrix(1.00, 0.00, -0.00, -1.00, 1162.8, 591.1)">h</text><text xml:space="preserve" font-family="SourceSansPro-Light,Source Sans Pro" font-size="50.0" fill="#FEFFFF" transform="matrix(1.00, 0.00, -0.00, -1.00, 1189.2, 591.1)"> </text><text xml:space="preserve" font-family="SourceSansPro-Light,Source Sans Pro" font-size="50.0" fill="#FEFFFF" transform="matrix(1.00, 0.00, -0.00, -1.00, 1199.1, 591.1)">d</text><text xml:space="preserve" font-family="SourceSansPro-Light,Source Sans Pro" font-size="50.0" fill="#FEFFFF" transform="matrix(1.00, 0.00, -0.00, -1.00, 1226.3, 591.1)">v</text><text xml:space="preserve" font-family="SourceSansPro-Light,Source Sans Pro" font-size="50.0" fill="#FEFFFF" transform="matrix(1.00, 0.00, -0.00, -1.00, 1248.0, 591.1)">e</text><text xml:space="preserve" font-family="SourceSansPro-Light,Source Sans Pro" font-size="50.0" fill="#FEFFFF" transform="matrix(1.00, 0.00, -0.00, -1.00, 1272.2, 591.1)">ř</text><text xml:space="preserve" font-family="SourceSansPro-Light,Source Sans Pro" font-size="50.0" fill="#FEFFFF" transform="matrix(1.00, 0.00, -0.00, -1.00, 1288.0, 591.1)">í</text><text xml:space="preserve" font-family="SourceSansPro-Light,Source Sans Pro" font-size="50.0" fill="#FEFFFF" transform="matrix(1.00, 0.00, -0.00, -1.00, 1299.5, 591.1)">.</text></g></svg>