<?xml version="1.0" encoding="UTF-8" standalone="no"?><svg xmlns="http://www.w3.org/2000/svg" xmlns:xlink="http://www.w3.org/1999/xlink" clip-rule="evenodd" stroke-miterlimit="10" viewBox="0 0 240 338"><desc>SVG generated by Keynote</desc><defs></defs><g transform="matrix(1.00, 0.00, -0.00, -1.00, 0.0, 338.0)"><g><clipPath id="clip0x600002aad380"><path d="M 0.8 299.4 L 239.7 299.4 L 239.7 337.1 L 0.8 337.1 Z M 0.8 299.4 "></path></clipPath><g clip-path="url(#clip0x600002aad380)"><path d="M 2.0 336.0 L 239.0 336.0 L 239.0 300.0 L 2.0 300.0 Z M 1.8 336.1 " fill="#A6AAA8" fill-opacity="0.76"></path></g></g><g><clipPath id="clip0x600002aae340"><path d="M 9.6 303.2 L 29.6 303.2 L 29.6 332.7 L 9.6 332.7 Z M 9.6 303.2 "></path></clipPath><g clip-path="url(#clip0x600002aae340)"><text xml:space="preserve" font-family="ArialMT,Arial" font-size="17.0" fill="#000000" transform="matrix(1.00, 0.00, -0.00, -1.00, 14.9, 312.1)">1</text></g></g><g><clipPath id="clip0x600002aae580"><path d="M 0.8 240.4 L 239.7 240.4 L 239.7 278.2 L 0.8 278.2 Z M 0.8 240.4 "></path></clipPath><g clip-path="url(#clip0x600002aae580)"><path d="M 2.0 277.0 L 239.0 277.0 L 239.0 241.0 L 2.0 241.0 Z M 1.8 277.2 " fill="#A6AAA8" fill-opacity="0.76"></path></g></g><g><clipPath id="clip0x600002aae7c0"><path d="M 9.6 244.3 L 29.6 244.3 L 29.6 273.8 L 9.6 273.8 Z M 9.6 244.3 "></path></clipPath><g clip-path="url(#clip0x600002aae7c0)"><text xml:space="preserve" font-family="ArialMT,Arial" font-size="17.0" fill="#000000" transform="matrix(1.00, 0.00, -0.00, -1.00, 14.9, 253.2)">2</text></g></g><g><clipPath id="clip0x600002aaea00"><path d="M 0.8 181.6 L 239.7 181.6 L 239.7 219.4 L 0.8 219.4 Z M 0.8 181.6 "></path></clipPath><g clip-path="url(#clip0x600002aaea00)"><path d="M 2.0 218.0 L 239.0 218.0 L 239.0 183.0 L 2.0 183.0 Z M 1.8 218.4 " fill="#A6AAA8" fill-opacity="0.76"></path></g></g><g><clipPath id="clip0x600002aaec40"><path d="M 9.6 185.5 L 29.6 185.5 L 29.6 215.0 L 9.6 215.0 Z M 9.6 185.5 "></path></clipPath><g clip-path="url(#clip0x600002aaec40)"><text xml:space="preserve" font-family="ArialMT,Arial" font-size="17.0" fill="#000000" transform="matrix(1.00, 0.00, -0.00, -1.00, 14.9, 194.4)">3</text></g></g><g><clipPath id="clip0x600002aaee80"><path d="M 0.8 122.7 L 239.7 122.7 L 239.7 160.5 L 0.8 160.5 Z M 0.8 122.7 "></path></clipPath><g clip-path="url(#clip0x600002aaee80)"><path d="M 2.0 160.0 L 239.0 160.0 L 239.0 124.0 L 2.0 124.0 Z M 1.8 159.5 " fill="#A6AAA8" fill-opacity="0.76"></path></g></g><g><clipPath id="clip0x600002aaf0c0"><path d="M 9.6 126.6 L 29.6 126.6 L 29.6 156.1 L 9.6 156.1 Z M 9.6 126.6 "></path></clipPath><g clip-path="url(#clip0x600002aaf0c0)"><text xml:space="preserve" font-family="ArialMT,Arial" font-size="17.0" fill="#000000" transform="matrix(1.00, 0.00, -0.00, -1.00, 14.9, 135.5)">4</text></g></g><g><clipPath id="clip0x600002aaf300"><path d="M 0.8 62.5 L 239.7 62.5 L 239.7 100.3 L 0.8 100.3 Z M 0.8 62.5 "></path></clipPath><g clip-path="url(#clip0x600002aaf300)"><path d="M 2.0 99.0 L 239.0 99.0 L 239.0 63.0 L 2.0 63.0 Z M 1.8 99.3 " fill="#A6AAA8" fill-opacity="0.76"></path></g></g><g><clipPath id="clip0x600002aaf540"><path d="M 9.6 66.4 L 29.6 66.4 L 29.6 95.9 L 9.6 95.9 Z M 9.6 66.4 "></path></clipPath><g clip-path="url(#clip0x600002aaf540)"><text xml:space="preserve" font-family="ArialMT,Arial" font-size="17.0" fill="#000000" transform="matrix(1.00, 0.00, -0.00, -1.00, 14.9, 75.3)">5</text></g></g><g><clipPath id="clip0x600002aaf780"><path d="M 0.8 0.9 L 239.7 0.9 L 239.7 38.6 L 0.8 38.6 Z M 0.8 0.9 "></path></clipPath><g clip-path="url(#clip0x600002aaf780)"><path d="M 2.0 38.0 L 239.0 38.0 L 239.0 2.0 L 2.0 2.0 Z M 1.8 37.6 " fill="#A6AAA8" fill-opacity="0.76"></path></g></g><g><clipPath id="clip0x600002aaf9c0"><path d="M 9.6 4.7 L 29.6 4.7 L 29.6 34.2 L 9.6 34.2 Z M 9.6 4.7 "></path></clipPath><g clip-path="url(#clip0x600002aaf9c0)"><text xml:space="preserve" font-family="ArialMT,Arial" font-size="17.0" fill="#000000" transform="matrix(1.00, 0.00, -0.00, -1.00, 14.9, 13.6)">6</text></g></g></g></svg>