<?xml version="1.0" encoding="UTF-8" standalone="no"?><svg xmlns="http://www.w3.org/2000/svg" xmlns:xlink="http://www.w3.org/1999/xlink" clip-rule="evenodd" stroke-miterlimit="10" viewBox="0 0 547 69"><desc>SVG generated by Keynote</desc><defs></defs><g transform="matrix(1.00, 0.00, -0.00, -1.00, 0.0, 69.0)"><text xml:space="preserve" font-family="ArialMT,Arial" font-size="90.0" fill="#5BA1A6" transform="matrix(1.00, 0.00, -0.00, -1.00, 1.3, 3.0)">A</text><text xml:space="preserve" font-family="ArialMT,Arial" font-size="90.0" fill="#5BA1A6" transform="matrix(1.00, 0.00, -0.00, -1.00, 61.4, 3.0)">n</text><text xml:space="preserve" font-family="ArialMT,Arial" font-size="90.0" fill="#5BA1A6" transform="matrix(1.00, 0.00, -0.00, -1.00, 111.4, 3.0)">d</text><text xml:space="preserve" font-family="ArialMT,Arial" font-size="90.0" fill="#5BA1A6" transform="matrix(1.00, 0.00, -0.00, -1.00, 161.5, 3.0)">r</text><text xml:space="preserve" font-family="ArialMT,Arial" font-size="90.0" fill="#5BA1A6" transform="matrix(1.00, 0.00, -0.00, -1.00, 191.5, 3.0)">o</text><text xml:space="preserve" font-family="ArialMT,Arial" font-size="90.0" fill="#5BA1A6" transform="matrix(1.00, 0.00, -0.00, -1.00, 241.6, 3.0)">i</text><text xml:space="preserve" font-family="ArialMT,Arial" font-size="90.0" fill="#5BA1A6" transform="matrix(1.00, 0.00, -0.00, -1.00, 261.6, 3.0)">d</text><text xml:space="preserve" font-family="ArialMT,Arial" font-size="90.0" fill="#5BA1A6" transform="matrix(1.00, 0.00, -0.00, -1.00, 311.6, 3.0)"> </text><text xml:space="preserve" font-family="ArialMT,Arial" font-size="90.0" fill="#5BA1A6" transform="matrix(1.00, 0.00, -0.00, -1.00, 336.6, 3.0)">k</text><text xml:space="preserve" font-family="ArialMT,Arial" font-size="90.0" fill="#5BA1A6" transform="matrix(1.00, 0.00, -0.00, -1.00, 381.6, 3.0)">l</text><text xml:space="preserve" font-family="ArialMT,Arial" font-size="90.0" fill="#5BA1A6" transform="matrix(1.00, 0.00, -0.00, -1.00, 401.6, 3.0)">i</text><text xml:space="preserve" font-family="ArialMT,Arial" font-size="90.0" fill="#5BA1A6" transform="matrix(1.00, 0.00, -0.00, -1.00, 421.7, 3.0)">e</text><text xml:space="preserve" font-family="ArialMT,Arial" font-size="90.0" fill="#5BA1A6" transform="matrix(1.00, 0.00, -0.00, -1.00, 471.7, 3.0)">n</text><text xml:space="preserve" font-family="ArialMT,Arial" font-size="90.0" fill="#5BA1A6" transform="matrix(1.00, 0.00, -0.00, -1.00, 521.8, 3.0)">t</text></g></svg>