<?xml version="1.0" encoding="UTF-8" standalone="no"?><svg xmlns="http://www.w3.org/2000/svg" xmlns:xlink="http://www.w3.org/1999/xlink" clip-rule="evenodd" stroke-miterlimit="10" viewBox="0 0 1920 1080"><desc>SVG generated by Keynote</desc><defs></defs><g transform="matrix(1.00, 0.00, -0.00, -1.00, 0.0, 1080.0)"><path d="M 0.0 1080.0 L 1920.0 1080.0 L 1920.0 0.0 L 0.0 0.0 Z M 0.0 1080.0 " fill="#2B3138"></path><image xlink:href="../../BF4CE684-A087-4A8C-BE25-1866DC6E3E22/assets/E7F10EE758CC7A1A44FABCC67DDF3423.png" width="347.00" height="491.00" transform="matrix(1.08, 0.00, -0.00, -1.08, 1413.0, 731.0)"></image><image xlink:href="../../9A88B577-9903-4422-82F3-5A7B7CDE055A/assets/5396D41323525C448220D29ADE605BDB.png" width="614.00" height="150.00" transform="matrix(1.00, 0.00, -0.00, -1.00, 1293.5, 277.1)"></image><image xlink:href="../../BF4CE684-A087-4A8C-BE25-1866DC6E3E22/assets/E7F10EE758CC7A1A44FABCC67DDF3423.png" width="347.00" height="491.00" transform="matrix(1.08, 0.00, -0.00, -1.08, 1413.0, 730.0)"></image><g><clipPath id="clip0x6080028b7e80"><path d="M 1145.0 608.0 L 1345.0 608.0 L 1345.0 201.0 L 1145.0 201.0 Z M 1145.2 608.1 "></path></clipPath><g clip-path="url(#clip0x6080028b7e80)"><image xlink:href="../../BF4CE684-A087-4A8C-BE25-1866DC6E3E22/assets/ED53BC5C4892E7DDE1623E35226535D8.png" width="157.00" height="320.00" transform="matrix(1.27, 0.00, -0.00, -1.27, 1145.0, 608.0)"></image></g></g><image xlink:href="../../9A88B577-9903-4422-82F3-5A7B7CDE055A/assets/43EF178940E4DCE16A3C578E10E23464.png" width="440.00" height="150.00" transform="matrix(1.00, 0.00, -0.00, -1.00, 1025.2, 276.5)"></image><g><clipPath id="clip0x6000036a0000"><path d="M 1145.0 608.0 L 1345.0 608.0 L 1345.0 201.0 L 1145.0 201.0 Z M 1145.2 608.1 "></path></clipPath><g clip-path="url(#clip0x6000036a0000)"><image xlink:href="../../BF4CE684-A087-4A8C-BE25-1866DC6E3E22/assets/ED53BC5C4892E7DDE1623E35226535D8.png" width="157.00" height="320.00" transform="matrix(1.27, 0.00, -0.00, -1.27, 1145.0, 608.0)"></image></g></g><text xml:space="preserve" font-family="ArialMT,Arial" font-size="90.0" fill="#5BA1A6" transform="matrix(1.00, 0.00, -0.00, -1.00, 687.3, 931.0)">A</text><text xml:space="preserve" font-family="ArialMT,Arial" font-size="90.0" fill="#5BA1A6" transform="matrix(1.00, 0.00, -0.00, -1.00, 747.4, 931.0)">n</text><text xml:space="preserve" font-family="ArialMT,Arial" font-size="90.0" fill="#5BA1A6" transform="matrix(1.00, 0.00, -0.00, -1.00, 797.4, 931.0)">d</text><text xml:space="preserve" font-family="ArialMT,Arial" font-size="90.0" fill="#5BA1A6" transform="matrix(1.00, 0.00, -0.00, -1.00, 847.5, 931.0)">r</text><text xml:space="preserve" font-family="ArialMT,Arial" font-size="90.0" fill="#5BA1A6" transform="matrix(1.00, 0.00, -0.00, -1.00, 877.5, 931.0)">o</text><text xml:space="preserve" font-family="ArialMT,Arial" font-size="90.0" fill="#5BA1A6" transform="matrix(1.00, 0.00, -0.00, -1.00, 927.6, 931.0)">i</text><text xml:space="preserve" font-family="ArialMT,Arial" font-size="90.0" fill="#5BA1A6" transform="matrix(1.00, 0.00, -0.00, -1.00, 947.6, 931.0)">d</text><text xml:space="preserve" font-family="ArialMT,Arial" font-size="90.0" fill="#5BA1A6" transform="matrix(1.00, 0.00, -0.00, -1.00, 997.6, 931.0)"> </text><text xml:space="preserve" font-family="ArialMT,Arial" font-size="90.0" fill="#5BA1A6" transform="matrix(1.00, 0.00, -0.00, -1.00, 1022.6, 931.0)">k</text><text xml:space="preserve" font-family="ArialMT,Arial" font-size="90.0" fill="#5BA1A6" transform="matrix(1.00, 0.00, -0.00, -1.00, 1067.6, 931.0)">l</text><text xml:space="preserve" font-family="ArialMT,Arial" font-size="90.0" fill="#5BA1A6" transform="matrix(1.00, 0.00, -0.00, -1.00, 1087.6, 931.0)">i</text><text xml:space="preserve" font-family="ArialMT,Arial" font-size="90.0" fill="#5BA1A6" transform="matrix(1.00, 0.00, -0.00, -1.00, 1107.7, 931.0)">e</text><text xml:space="preserve" font-family="ArialMT,Arial" font-size="90.0" fill="#5BA1A6" transform="matrix(1.00, 0.00, -0.00, -1.00, 1157.7, 931.0)">n</text><text xml:space="preserve" font-family="ArialMT,Arial" font-size="90.0" fill="#5BA1A6" transform="matrix(1.00, 0.00, -0.00, -1.00, 1207.8, 931.0)">t</text><text xml:space="preserve" font-family="Helvetica-Light,Helvetica" font-size="24.0" fill="#FEFFFF" transform="matrix(1.00, 0.00, -0.00, -1.00, 946.2, 22.5)">1</text><text xml:space="preserve" font-family="Helvetica-Light,Helvetica" font-size="24.0" fill="#FEFFFF" transform="matrix(1.00, 0.00, -0.00, -1.00, 959.5, 22.5)">4</text><g><clipPath id="clip0x6000036a0720"><path d="M 435.3 714.6 L 723.0 714.6 L 723.0 723.6 L 435.3 723.6 Z M 435.3 714.6 "></path></clipPath><g clip-path="url(#clip0x6000036a0720)"><path d="M -0.3 -0.4 L 285.7 -0.4 " fill="none" stroke="#B6B6B6" stroke-width="7.00" transform="matrix(1.00, 0.00, 0.00, -1.00, 436.3, 719.1)"></path></g></g><g><clipPath id="clip0x6000036a0960"><path d="M 435.3 211.2 L 723.0 211.2 L 723.0 220.2 L 435.3 220.2 Z M 435.3 211.2 "></path></clipPath><g clip-path="url(#clip0x6000036a0960)"><path d="M -0.3 0.2 L 285.7 0.2 " fill="none" stroke="#B6B6B6" stroke-width="7.00" transform="matrix(1.00, 0.00, 0.00, -1.00, 436.3, 215.7)"></path></g></g><g><clipPath id="clip0x6000036a0ba0"><path d="M 285.8 468.6 L 431.3 718.4 L 439.1 713.9 L 293.6 464.1 Z M 285.8 468.6 "></path></clipPath><g clip-path="url(#clip0x6000036a0ba0)"><path d="M 0.0 0.0 L 287.1 0.0 " fill="none" stroke="#B6B6B6" stroke-width="7.00" transform="matrix(0.50, 0.86, 0.86, -0.50, 290.2, 467.2)"></path></g></g><g><clipPath id="clip0x6000036a0de0"><path d="M 718.7 219.2 L 864.1 469.0 L 871.9 464.4 L 726.4 214.6 Z M 718.7 219.2 "></path></clipPath><g clip-path="url(#clip0x6000036a0de0)"><path d="M 0.0 0.0 L 287.1 0.0 " fill="none" stroke="#B6B6B6" stroke-width="7.00" transform="matrix(0.50, 0.86, 0.86, -0.50, 723.1, 217.8)"></path></g></g><g><clipPath id="clip0x6000036a1020"><path d="M 862.1 468.6 L 720.7 715.6 L 728.5 720.1 L 869.9 473.1 Z M 862.1 468.6 "></path></clipPath><g clip-path="url(#clip0x6000036a1020)"><path d="M 0.0 0.0 L 282.6 0.0 " fill="none" stroke="#B6B6B6" stroke-width="7.00" transform="matrix(-0.50, 0.87, 0.87, 0.50, 865.5, 471.7)"></path></g></g><g><clipPath id="clip0x6000036a1260"><path d="M 429.2 216.1 L 287.8 463.1 L 295.6 467.5 L 437.1 220.5 Z M 429.2 216.1 "></path></clipPath><g clip-path="url(#clip0x6000036a1260)"><path d="M 0.0 0.0 L 282.6 0.0 " fill="none" stroke="#B6B6B6" stroke-width="7.00" transform="matrix(-0.50, 0.87, 0.87, 0.50, 432.6, 219.2)"></path></g></g><g><clipPath id="clip0x6000036a14a0"><path d="M 387.7 666.6 L 483.7 666.6 L 483.7 761.2 L 387.7 761.2 Z M 387.7 666.6 "></path></clipPath><g clip-path="url(#clip0x6000036a14a0)"><path d="M 468.9 746.6 C 487.3 728.5 487.3 699.2 468.9 681.2 C 450.6 663.1 420.8 663.1 402.5 681.2 C 384.2 699.2 384.2 728.5 402.5 746.6 C 420.8 764.7 450.6 764.7 468.9 746.6 Z M 468.9 746.6 " fill="#A3A3A3"></path></g></g><g><clipPath id="clip0x6000036a16e0"><path d="M 425.1 684.9 L 440.3 684.9 L 440.3 742.9 L 425.1 742.9 Z M 425.1 684.9 "></path></clipPath><g clip-path="url(#clip0x6000036a16e0)"><text xml:space="preserve" font-family="ArialMT,Arial" font-size="34.0" fill="#FDFEE9" transform="matrix(1.00, 0.00, -0.00, -1.00, 425.1, 702.7)">1</text></g></g><g><clipPath id="clip0x6000036a1920"><path d="M 677.2 669.2 L 773.2 669.2 L 773.2 763.7 L 677.2 763.7 Z M 677.2 669.2 "></path></clipPath><g clip-path="url(#clip0x6000036a1920)"><path d="M 758.4 749.2 C 776.7 731.1 776.7 701.8 758.4 683.7 C 740.1 665.6 710.3 665.6 692.0 683.7 C 673.6 701.8 673.6 731.1 692.0 749.2 C 710.3 767.2 740.1 767.2 758.4 749.2 Z M 758.4 749.2 " fill="#A3A3A3"></path></g></g><g><clipPath id="clip0x6000036a1b60"><path d="M 714.6 688.4 L 731.8 688.4 L 731.8 746.4 L 714.6 746.4 Z M 714.6 688.4 "></path></clipPath><g clip-path="url(#clip0x6000036a1b60)"><text xml:space="preserve" font-family="ArialMT,Arial" font-size="34.0" fill="#FDFEE9" transform="matrix(1.00, 0.00, -0.00, -1.00, 714.6, 706.2)">2</text></g></g><g><clipPath id="clip0x6000036a1da0"><path d="M 817.7 417.4 L 913.7 417.4 L 913.7 512.0 L 817.7 512.0 Z M 817.7 417.4 "></path></clipPath><g clip-path="url(#clip0x6000036a1da0)"><path d="M 898.9 497.4 C 917.3 479.4 917.3 450.1 898.9 432.0 C 880.6 413.9 850.8 413.9 832.5 432.0 C 814.2 450.1 814.2 479.4 832.5 497.4 C 850.8 515.5 880.6 515.5 898.9 497.4 Z M 898.9 497.4 " fill="#A3A3A3"></path></g></g><g><clipPath id="clip0x6000036a1fe0"><path d="M 857.1 433.8 L 875.3 433.8 L 875.3 491.8 L 857.1 491.8 Z M 857.1 433.8 "></path></clipPath><g clip-path="url(#clip0x6000036a1fe0)"><text xml:space="preserve" font-family="ArialMT,Arial" font-size="34.0" fill="#FDFEE9" transform="matrix(1.00, 0.00, -0.00, -1.00, 857.1, 451.6)">3</text></g></g><g><clipPath id="clip0x6000036a2220"><path d="M 677.2 168.3 L 773.2 168.3 L 773.2 262.8 L 677.2 262.8 Z M 677.2 168.3 "></path></clipPath><g clip-path="url(#clip0x6000036a2220)"><path d="M 758.4 248.3 C 776.7 230.2 776.7 200.9 758.4 182.8 C 740.1 164.8 710.3 164.8 692.0 182.8 C 673.6 200.9 673.6 230.2 692.0 248.3 C 710.3 266.4 740.1 266.4 758.4 248.3 Z M 758.4 248.3 " fill="#A3A3A3"></path></g></g><g><clipPath id="clip0x6000036a2460"><path d="M 714.6 186.6 L 731.8 186.6 L 731.8 244.5 L 714.6 244.5 Z M 714.6 186.6 "></path></clipPath><g clip-path="url(#clip0x6000036a2460)"><text xml:space="preserve" font-family="ArialMT,Arial" font-size="34.0" fill="#FDFEE9" transform="matrix(1.00, 0.00, -0.00, -1.00, 714.6, 204.4)">4</text></g></g><g><clipPath id="clip0x6000036a26a0"><path d="M 387.7 168.3 L 483.7 168.3 L 483.7 262.8 L 387.7 262.8 Z M 387.7 168.3 "></path></clipPath><g clip-path="url(#clip0x6000036a26a0)"><path d="M 468.9 248.3 C 487.3 230.2 487.3 200.9 468.9 182.8 C 450.6 164.8 420.8 164.8 402.5 182.8 C 384.2 200.9 384.2 230.2 402.5 248.3 C 420.8 266.4 450.6 266.4 468.9 248.3 Z M 468.9 248.3 " fill="#A3A3A3"></path></g></g><g><clipPath id="clip0x6000036a28e0"><path d="M 425.1 185.6 L 442.3 185.6 L 442.3 243.5 L 425.1 243.5 Z M 425.1 185.6 "></path></clipPath><g clip-path="url(#clip0x6000036a28e0)"><text xml:space="preserve" font-family="ArialMT,Arial" font-size="34.0" fill="#FDFEE9" transform="matrix(1.00, 0.00, -0.00, -1.00, 425.1, 203.4)">5</text></g></g><g><clipPath id="clip0x6000036a2b20"><path d="M 243.8 417.4 L 339.7 417.4 L 339.7 512.0 L 243.8 512.0 Z M 243.8 417.4 "></path></clipPath><g clip-path="url(#clip0x6000036a2b20)"><path d="M 324.9 497.4 C 343.3 479.4 343.3 450.1 324.9 432.0 C 306.6 413.9 276.9 413.9 258.5 432.0 C 240.2 450.1 240.2 479.4 258.5 497.4 C 276.9 515.5 306.6 515.5 324.9 497.4 Z M 324.9 497.4 " fill="#A3A3A3"></path></g></g><g><clipPath id="clip0x6000036a2d60"><path d="M 280.1 434.7 L 297.4 434.7 L 297.4 492.7 L 280.1 492.7 Z M 280.1 434.7 "></path></clipPath><g clip-path="url(#clip0x6000036a2d60)"><text xml:space="preserve" font-family="ArialMT,Arial" font-size="34.0" fill="#FDFEE9" transform="matrix(1.00, 0.00, -0.00, -1.00, 280.1, 452.5)">6</text></g></g><path d="M 1154.0 573.0 L 1336.0 573.0 L 1336.0 246.0 L 1154.0 246.0 Z M 1154.0 573.4 " fill="#FEFFFE"></path><path d="M 1437.0 683.0 L 1763.0 683.0 L 1763.0 249.0 L 1437.0 249.0 Z M 1437.1 683.4 " fill="#FEFFFE"></path><path d="M 883.2 481.4 C 892.0 472.6 892.0 458.4 883.2 449.6 C 874.4 440.8 860.1 440.8 851.3 449.6 C 842.5 458.4 842.5 472.6 851.3 481.4 C 860.1 490.2 874.4 490.2 883.2 481.4 Z M 883.2 481.4 " fill="#2196F3"></path><path d="M 740.5 733.4 C 749.3 724.6 749.3 710.3 740.5 701.5 C 731.7 692.7 717.4 692.7 708.6 701.5 C 699.9 710.3 699.9 724.6 708.6 733.4 C 717.4 742.2 731.7 742.2 740.5 733.4 Z M 740.5 733.4 " fill="#F34335"></path><g><clipPath id="clip0x6000036a3240"><path d="M 1478.8 596.4 L 1717.7 596.4 L 1717.7 634.1 L 1478.8 634.1 Z M 1478.8 596.4 "></path></clipPath><g clip-path="url(#clip0x6000036a3240)"><path d="M 1480.0 633.0 L 1717.0 633.0 L 1717.0 597.0 L 1480.0 597.0 Z M 1479.8 633.1 " fill="#A6AAA8" fill-opacity="0.76"></path></g></g><g><clipPath id="clip0x6000036a3480"><path d="M 1487.6 600.2 L 1507.6 600.2 L 1507.6 629.7 L 1487.6 629.7 Z M 1487.6 600.2 "></path></clipPath><g clip-path="url(#clip0x6000036a3480)"><text xml:space="preserve" font-family="ArialMT,Arial" font-size="17.0" fill="#000000" transform="matrix(1.00, 0.00, -0.00, -1.00, 1492.9, 609.1)">1</text></g></g><g><clipPath id="clip0x6000036a36c0"><path d="M 1478.8 537.4 L 1717.7 537.4 L 1717.7 575.2 L 1478.8 575.2 Z M 1478.8 537.4 "></path></clipPath><g clip-path="url(#clip0x6000036a36c0)"><path d="M 1480.0 574.0 L 1717.0 574.0 L 1717.0 538.0 L 1480.0 538.0 Z M 1479.8 574.2 " fill="#A6AAA8" fill-opacity="0.76"></path></g></g><g><clipPath id="clip0x6000036a3900"><path d="M 1487.6 541.3 L 1507.6 541.3 L 1507.6 570.8 L 1487.6 570.8 Z M 1487.6 541.3 "></path></clipPath><g clip-path="url(#clip0x6000036a3900)"><text xml:space="preserve" font-family="ArialMT,Arial" font-size="17.0" fill="#000000" transform="matrix(1.00, 0.00, -0.00, -1.00, 1492.9, 550.2)">2</text></g></g><g><clipPath id="clip0x6000036a3b40"><path d="M 1478.8 478.6 L 1717.7 478.6 L 1717.7 516.4 L 1478.8 516.4 Z M 1478.8 478.6 "></path></clipPath><g clip-path="url(#clip0x6000036a3b40)"><path d="M 1480.0 515.0 L 1717.0 515.0 L 1717.0 480.0 L 1480.0 480.0 Z M 1479.8 515.4 " fill="#A6AAA8" fill-opacity="0.76"></path></g></g><g><clipPath id="clip0x6000036a3d80"><path d="M 1487.6 482.5 L 1507.6 482.5 L 1507.6 512.0 L 1487.6 512.0 Z M 1487.6 482.5 "></path></clipPath><g clip-path="url(#clip0x6000036a3d80)"><text xml:space="preserve" font-family="ArialMT,Arial" font-size="17.0" fill="#000000" transform="matrix(1.00, 0.00, -0.00, -1.00, 1492.9, 491.4)">3</text></g></g><g><clipPath id="clip0x6000036a3fc0"><path d="M 1478.8 419.7 L 1717.7 419.7 L 1717.7 457.5 L 1478.8 457.5 Z M 1478.8 419.7 "></path></clipPath><g clip-path="url(#clip0x6000036a3fc0)"><path d="M 1480.0 457.0 L 1717.0 457.0 L 1717.0 421.0 L 1480.0 421.0 Z M 1479.8 456.5 " fill="#A6AAA8" fill-opacity="0.76"></path></g></g><g><clipPath id="clip0x6000036a4200"><path d="M 1487.6 423.6 L 1507.6 423.6 L 1507.6 453.1 L 1487.6 453.1 Z M 1487.6 423.6 "></path></clipPath><g clip-path="url(#clip0x6000036a4200)"><text xml:space="preserve" font-family="ArialMT,Arial" font-size="17.0" fill="#000000" transform="matrix(1.00, 0.00, -0.00, -1.00, 1492.9, 432.5)">4</text></g></g><g><clipPath id="clip0x6000036a4440"><path d="M 1478.8 359.5 L 1717.7 359.5 L 1717.7 397.3 L 1478.8 397.3 Z M 1478.8 359.5 "></path></clipPath><g clip-path="url(#clip0x6000036a4440)"><path d="M 1480.0 396.0 L 1717.0 396.0 L 1717.0 360.0 L 1480.0 360.0 Z M 1479.8 396.3 " fill="#A6AAA8" fill-opacity="0.76"></path></g></g><g><clipPath id="clip0x6000036a4680"><path d="M 1487.6 363.4 L 1507.6 363.4 L 1507.6 392.9 L 1487.6 392.9 Z M 1487.6 363.4 "></path></clipPath><g clip-path="url(#clip0x6000036a4680)"><text xml:space="preserve" font-family="ArialMT,Arial" font-size="17.0" fill="#000000" transform="matrix(1.00, 0.00, -0.00, -1.00, 1492.9, 372.3)">5</text></g></g><g><clipPath id="clip0x6000036a48c0"><path d="M 1478.8 297.9 L 1717.7 297.9 L 1717.7 335.6 L 1478.8 335.6 Z M 1478.8 297.9 "></path></clipPath><g clip-path="url(#clip0x6000036a48c0)"><path d="M 1480.0 335.0 L 1717.0 335.0 L 1717.0 299.0 L 1480.0 299.0 Z M 1479.8 334.6 " fill="#A6AAA8" fill-opacity="0.76"></path></g></g><g><clipPath id="clip0x6000036a4b00"><path d="M 1487.6 301.7 L 1507.6 301.7 L 1507.6 331.2 L 1487.6 331.2 Z M 1487.6 301.7 "></path></clipPath><g clip-path="url(#clip0x6000036a4b00)"><text xml:space="preserve" font-family="ArialMT,Arial" font-size="17.0" fill="#000000" transform="matrix(1.00, 0.00, -0.00, -1.00, 1492.9, 310.6)">6</text></g></g><g><clipPath id="clip0x6000036a4d40"><path d="M 1156.3 511.4 L 1333.6 511.4 L 1333.6 549.2 L 1156.3 549.2 Z M 1156.3 511.4 "></path></clipPath><g clip-path="url(#clip0x6000036a4d40)"><path d="M 1157.0 548.0 L 1333.0 548.0 L 1333.0 512.0 L 1157.0 512.0 Z M 1157.3 548.2 " fill="#A6AAA8" fill-opacity="0.76"></path></g></g><g><clipPath id="clip0x6000036a4f80"><path d="M 1163.7 515.3 L 1183.6 515.3 L 1183.6 544.8 L 1163.7 544.8 Z M 1163.7 515.3 "></path></clipPath><g clip-path="url(#clip0x6000036a4f80)"><text xml:space="preserve" font-family="ArialMT,Arial" font-size="17.0" fill="#000000" transform="matrix(1.00, 0.00, -0.00, -1.00, 1168.9, 524.2)">1</text></g></g><g><clipPath id="clip0x6000036a51c0"><path d="M 1156.3 450.9 L 1333.6 450.9 L 1333.6 488.7 L 1156.3 488.7 Z M 1156.3 450.9 "></path></clipPath><g clip-path="url(#clip0x6000036a51c0)"><path d="M 1157.0 488.0 L 1333.0 488.0 L 1333.0 452.0 L 1157.0 452.0 Z M 1157.3 487.7 " fill="#A6AAA8" fill-opacity="0.76"></path></g></g><g><clipPath id="clip0x6000036a5400"><path d="M 1164.2 456.1 L 1183.1 456.1 L 1183.1 483.1 L 1164.2 483.1 Z M 1164.2 456.1 "></path></clipPath><g clip-path="url(#clip0x6000036a5400)"><text xml:space="preserve" font-family="ArialMT,Arial" font-size="16.0" fill="#000000" transform="matrix(1.00, 0.00, -0.00, -1.00, 1169.2, 464.5)">2</text></g></g><g><clipPath id="clip0x6000036a5640"><path d="M 1156.3 390.5 L 1333.6 390.5 L 1333.6 428.3 L 1156.3 428.3 Z M 1156.3 390.5 "></path></clipPath><g clip-path="url(#clip0x6000036a5640)"><path d="M 1157.0 427.0 L 1333.0 427.0 L 1333.0 392.0 L 1157.0 392.0 Z M 1157.3 427.3 " fill="#A6AAA8" fill-opacity="0.76"></path></g></g><g><clipPath id="clip0x6000036a5880"><path d="M 1163.7 394.4 L 1183.6 394.4 L 1183.6 423.9 L 1163.7 423.9 Z M 1163.7 394.4 "></path></clipPath><g clip-path="url(#clip0x6000036a5880)"><text xml:space="preserve" font-family="ArialMT,Arial" font-size="17.0" fill="#000000" transform="matrix(1.00, 0.00, -0.00, -1.00, 1168.9, 403.3)">3</text></g></g><g><clipPath id="clip0x6000036a5ac0"><path d="M 1156.3 330.1 L 1333.6 330.1 L 1333.6 367.9 L 1156.3 367.9 Z M 1156.3 330.1 "></path></clipPath><g clip-path="url(#clip0x6000036a5ac0)"><path d="M 1157.0 367.0 L 1333.0 367.0 L 1333.0 331.0 L 1157.0 331.0 Z M 1157.3 366.9 " fill="#A6AAA8" fill-opacity="0.76"></path></g></g><g><clipPath id="clip0x6000036a5d00"><path d="M 1163.7 333.9 L 1183.6 333.9 L 1183.6 363.4 L 1163.7 363.4 Z M 1163.7 333.9 "></path></clipPath><g clip-path="url(#clip0x6000036a5d00)"><text xml:space="preserve" font-family="ArialMT,Arial" font-size="17.0" fill="#000000" transform="matrix(1.00, 0.00, -0.00, -1.00, 1168.9, 342.9)">4</text></g></g><g><clipPath id="clip0x6000036a5f40"><path d="M 1156.3 270.0 L 1333.6 270.0 L 1333.6 307.8 L 1156.3 307.8 Z M 1156.3 270.0 "></path></clipPath><g clip-path="url(#clip0x6000036a5f40)"><path d="M 1157.0 307.0 L 1333.0 307.0 L 1333.0 271.0 L 1157.0 271.0 Z M 1157.3 306.8 " fill="#A6AAA8" fill-opacity="0.76"></path></g></g><g><clipPath id="clip0x6000036a6180"><path d="M 1163.7 273.9 L 1183.6 273.9 L 1183.6 303.4 L 1163.7 303.4 Z M 1163.7 273.9 "></path></clipPath><g clip-path="url(#clip0x6000036a6180)"><text xml:space="preserve" font-family="ArialMT,Arial" font-size="17.0" fill="#000000" transform="matrix(1.00, 0.00, -0.00, -1.00, 1168.9, 282.8)">5</text></g></g><path d="M 1206.6 476.3 C 1210.3 472.6 1210.3 466.6 1206.6 462.9 C 1202.9 459.2 1197.0 459.2 1193.3 462.9 C 1189.6 466.6 1189.6 472.6 1193.3 476.3 C 1197.0 480.0 1202.9 480.0 1206.6 476.3 Z M 1206.6 476.3 " fill="#F34335"></path><path d="M 1532.8 562.9 C 1536.5 559.2 1536.5 553.2 1532.8 549.5 C 1529.1 545.8 1523.1 545.8 1519.4 549.5 C 1515.7 553.2 1515.7 559.2 1519.4 562.9 C 1523.1 566.6 1529.1 566.6 1532.8 562.9 Z M 1532.8 562.9 " fill="#F34335"></path><path d="M 1206.0 415.6 C 1209.7 411.9 1209.7 405.9 1206.0 402.2 C 1202.3 398.5 1196.3 398.5 1192.6 402.2 C 1188.9 405.9 1188.9 411.9 1192.6 415.6 C 1196.3 419.3 1202.3 419.3 1206.0 415.6 Z M 1206.0 415.6 " fill="#2196F3"></path><path d="M 1533.5 503.7 C 1537.2 500.0 1537.2 494.0 1533.5 490.3 C 1529.8 486.6 1523.9 486.6 1520.2 490.3 C 1516.5 494.0 1516.5 500.0 1520.2 503.7 C 1523.9 507.4 1529.8 507.4 1533.5 503.7 Z M 1533.5 503.7 " fill="#2196F3"></path><g opacity="0.00"><g><clipPath id="clip0x6000036a6660"><path d="M 1095.4 344.1 L 1417.0 344.1 L 1417.0 504.3 L 1095.4 504.3 Z M 1095.4 344.1 "></path></clipPath><g clip-path="url(#clip0x6000036a6660)"><image xlink:href="../../9A88B577-9903-4422-82F3-5A7B7CDE055A/assets/EC2058BB7A202A5EB9B2FD2F865F9025.png" width="320.00" height="158.00" transform="matrix(1.00, 0.00, -0.00, -1.00, 1096.4, 503.3)" opacity="0.57"></image><path d="M 1107.4 371.2 L 1107.0 492.1 C 1107.0 496.3 1110.8 500.0 1115.0 500.0 L 1397.4 500.0 C 1401.6 500.0 1405.0 496.3 1405.0 492.1 L 1405.0 371.2 C 1405.0 367.0 1401.6 364.0 1397.4 364.0 L 1115.0 364.0 C 1110.8 364.0 1107.4 367.0 1107.4 371.2 Z M 1107.4 371.2 " fill="#FEFFFE"></path></g></g><g><clipPath id="clip0x6000036a6960"><path d="M 1168.2 423.1 L 1344.2 423.1 L 1344.2 485.8 L 1168.2 485.8 Z M 1168.2 423.1 "></path></clipPath><g clip-path="url(#clip0x6000036a6960)"><text xml:space="preserve" font-family="ArialMT,Arial" font-size="37.0" fill="#000000" transform="matrix(1.00, 0.00, -0.00, -1.00, 1179.1, 442.5)">S</text><text xml:space="preserve" font-family="ArialMT,Arial" font-size="37.0" fill="#000000" transform="matrix(1.00, 0.00, -0.00, -1.00, 1203.7, 442.5)">t</text><text xml:space="preserve" font-family="ArialMT,Arial" font-size="37.0" fill="#000000" transform="matrix(1.00, 0.00, -0.00, -1.00, 1214.0, 442.5)">a</text><text xml:space="preserve" font-family="ArialMT,Arial" font-size="37.0" fill="#000000" transform="matrix(1.00, 0.00, -0.00, -1.00, 1234.6, 442.5)">n</text><text xml:space="preserve" font-family="ArialMT,Arial" font-size="37.0" fill="#000000" transform="matrix(1.00, 0.00, -0.00, -1.00, 1255.2, 442.5)">i</text><text xml:space="preserve" font-family="ArialMT,Arial" font-size="37.0" fill="#000000" transform="matrix(1.00, 0.00, -0.00, -1.00, 1263.4, 442.5)">c</text><text xml:space="preserve" font-family="ArialMT,Arial" font-size="37.0" fill="#000000" transform="matrix(1.00, 0.00, -0.00, -1.00, 1281.9, 442.5)">e</text><text xml:space="preserve" font-family="ArialMT,Arial" font-size="37.0" fill="#000000" transform="matrix(1.00, 0.00, -0.00, -1.00, 1302.5, 442.5)"> </text><text xml:space="preserve" font-family="ArialMT,Arial" font-size="37.0" fill="#000000" transform="matrix(1.00, 0.00, -0.00, -1.00, 1312.7, 442.5)">1</text></g></g><g><clipPath id="clip0x6000036a6ea0"><path d="M 1244.5 387.2 L 1274.6 417.4 L 1280.3 411.7 L 1250.1 381.6 Z M 1244.5 387.2 "></path></clipPath><g clip-path="url(#clip0x6000036a6ea0)"><g><clipPath id="clip0x6000036a7020"><path d="M 1095.0 344.0 L 1418.0 344.0 L 1418.0 505.0 L 1095.0 505.0 Z M 1095.0 344.0 "></path></clipPath><g clip-path="url(#clip0x6000036a7020)"><path d="M 0.0 0.0 L 40.7 0.0 " fill="none" stroke="#A6AAA8" stroke-width="6.00" transform="matrix(0.71, 0.71, 0.71, -0.71, 1248.0, 385.1)"></path></g></g></g></g><g><clipPath id="clip0x6000036a7260"><path d="M 1237.8 401.4 L 1253.9 385.2 L 1248.2 379.6 L 1232.1 395.7 Z M 1237.8 401.4 "></path></clipPath><g clip-path="url(#clip0x6000036a7260)"><g><clipPath id="clip0x6000036a73e0"><path d="M 1095.0 344.0 L 1418.0 344.0 L 1418.0 505.0 L 1095.0 505.0 Z M 1095.0 344.0 "></path></clipPath><g clip-path="url(#clip0x6000036a73e0)"><path d="M 0.0 0.0 L 20.8 0.0 " fill="none" stroke="#A6AAA8" stroke-width="6.00" transform="matrix(0.71, -0.71, -0.71, -0.71, 1235.6, 397.8)"></path></g></g></g></g></g><g opacity="0.00"><g><clipPath id="clip0x6000036a7680"><path d="M 1237.8 401.5 L 1253.9 385.4 L 1248.2 379.7 L 1232.1 395.8 Z M 1237.8 401.5 "></path></clipPath><g clip-path="url(#clip0x6000036a7680)"><g><clipPath id="clip0x6000036a7800"><path d="M 1232.0 379.0 L 1281.0 379.0 L 1281.0 418.0 L 1232.0 418.0 Z M 1232.0 379.0 "></path></clipPath><g clip-path="url(#clip0x6000036a7800)"><path d="M 0.0 0.0 L 20.8 0.0 " fill="none" stroke="#2F8B16" stroke-width="6.00" transform="matrix(0.71, -0.71, -0.71, -0.71, 1235.6, 398.0)"></path></g></g></g></g><g><clipPath id="clip0x6000036a7a40"><path d="M 1244.5 387.4 L 1274.6 417.5 L 1280.3 411.9 L 1250.1 381.7 Z M 1244.5 387.4 "></path></clipPath><g clip-path="url(#clip0x6000036a7a40)"><g><clipPath id="clip0x6000036a7bc0"><path d="M 1232.0 379.0 L 1281.0 379.0 L 1281.0 418.0 L 1232.0 418.0 Z M 1232.0 379.0 "></path></clipPath><g clip-path="url(#clip0x6000036a7bc0)"><path d="M 0.0 0.0 L 40.7 0.0 " fill="none" stroke="#2F8B16" stroke-width="6.00" transform="matrix(0.71, 0.71, 0.71, -0.71, 1248.0, 385.2)"></path></g></g></g></g></g><g opacity="0.00"><g><clipPath id="clip0x6000036a7e60"><path d="M 1438.9 426.6 L 1760.5 426.6 L 1760.5 586.7 L 1438.9 586.7 Z M 1438.9 426.6 "></path></clipPath><g clip-path="url(#clip0x6000036a7e60)"><image xlink:href="../../9A88B577-9903-4422-82F3-5A7B7CDE055A/assets/AB422062B13255764B1C53BB9C1E3EE3.png" width="320.00" height="158.00" transform="matrix(1.00, 0.00, -0.00, -1.00, 1439.9, 585.7)" opacity="0.57"></image><path d="M 1450.9 453.7 L 1451.0 574.5 C 1451.0 578.8 1454.3 582.0 1458.5 582.0 L 1740.9 582.0 C 1745.1 582.0 1749.0 578.8 1749.0 574.5 L 1749.0 453.7 C 1749.0 449.4 1745.1 446.0 1740.9 446.0 L 1458.5 446.0 C 1454.3 446.0 1450.9 449.4 1450.9 453.7 Z M 1450.9 453.7 " fill="#FEFFFE"></path></g></g><g><clipPath id="clip0x6080028ba160"><path d="M 1511.7 505.6 L 1687.7 505.6 L 1687.7 568.3 L 1511.7 568.3 Z M 1511.7 505.6 "></path></clipPath><g clip-path="url(#clip0x6080028ba160)"><text xml:space="preserve" font-family="ArialMT,Arial" font-size="37.0" fill="#000000" transform="matrix(1.00, 0.00, -0.00, -1.00, 1522.6, 525.0)">S</text><text xml:space="preserve" font-family="ArialMT,Arial" font-size="37.0" fill="#000000" transform="matrix(1.00, 0.00, -0.00, -1.00, 1547.3, 525.0)">t</text><text xml:space="preserve" font-family="ArialMT,Arial" font-size="37.0" fill="#000000" transform="matrix(1.00, 0.00, -0.00, -1.00, 1557.5, 525.0)">a</text><text xml:space="preserve" font-family="ArialMT,Arial" font-size="37.0" fill="#000000" transform="matrix(1.00, 0.00, -0.00, -1.00, 1578.1, 525.0)">n</text><text xml:space="preserve" font-family="ArialMT,Arial" font-size="37.0" fill="#000000" transform="matrix(1.00, 0.00, -0.00, -1.00, 1598.7, 525.0)">i</text><text xml:space="preserve" font-family="ArialMT,Arial" font-size="37.0" fill="#000000" transform="matrix(1.00, 0.00, -0.00, -1.00, 1606.9, 525.0)">c</text><text xml:space="preserve" font-family="ArialMT,Arial" font-size="37.0" fill="#000000" transform="matrix(1.00, 0.00, -0.00, -1.00, 1625.4, 525.0)">e</text><text xml:space="preserve" font-family="ArialMT,Arial" font-size="37.0" fill="#000000" transform="matrix(1.00, 0.00, -0.00, -1.00, 1646.0, 525.0)"> </text><text xml:space="preserve" font-family="ArialMT,Arial" font-size="37.0" fill="#000000" transform="matrix(1.00, 0.00, -0.00, -1.00, 1656.3, 525.0)">2</text></g></g><g><clipPath id="clip0x6080028ba880"><path d="M 1588.0 469.7 L 1618.1 499.9 L 1623.8 494.2 L 1593.6 464.0 Z M 1588.0 469.7 "></path></clipPath><g clip-path="url(#clip0x6080028ba880)"><g><clipPath id="clip0x6080028ba9a0"><path d="M 1438.0 426.0 L 1761.0 426.0 L 1761.0 587.0 L 1438.0 587.0 Z M 1438.0 426.0 "></path></clipPath><g clip-path="url(#clip0x6080028ba9a0)"><path d="M 0.0 0.0 L 40.7 0.0 " fill="none" stroke="#A6AAA8" stroke-width="6.00" transform="matrix(0.71, 0.71, 0.71, -0.71, 1591.5, 467.6)"></path></g></g></g></g><g><clipPath id="clip0x6080028babe0"><path d="M 1581.3 483.8 L 1597.4 467.7 L 1591.7 462.1 L 1575.6 478.2 Z M 1581.3 483.8 "></path></clipPath><g clip-path="url(#clip0x6080028babe0)"><g><clipPath id="clip0x6080028bad00"><path d="M 1438.0 426.0 L 1761.0 426.0 L 1761.0 587.0 L 1438.0 587.0 Z M 1438.0 426.0 "></path></clipPath><g clip-path="url(#clip0x6080028bad00)"><path d="M 0.0 0.0 L 20.8 0.0 " fill="none" stroke="#A6AAA8" stroke-width="6.00" transform="matrix(0.71, -0.71, -0.71, -0.71, 1579.1, 480.3)"></path></g></g></g></g></g><g opacity="0.00"><g><clipPath id="clip0x6080028bb0c0"><path d="M 1581.3 484.0 L 1597.4 467.8 L 1591.7 462.2 L 1575.6 478.3 Z M 1581.3 484.0 "></path></clipPath><g clip-path="url(#clip0x6080028bb0c0)"><g><clipPath id="clip0x6080028bb180"><path d="M 1575.0 462.0 L 1624.0 462.0 L 1624.0 500.0 L 1575.0 500.0 Z M 1575.0 462.0 "></path></clipPath><g clip-path="url(#clip0x6080028bb180)"><path d="M 0.0 0.0 L 20.8 0.0 " fill="none" stroke="#2F8B16" stroke-width="6.00" transform="matrix(0.71, -0.71, -0.71, -0.71, 1579.1, 480.4)"></path></g></g></g></g><g><clipPath id="clip0x6080028bb240"><path d="M 1588.0 469.8 L 1618.1 500.0 L 1623.8 494.3 L 1593.6 464.2 Z M 1588.0 469.8 "></path></clipPath><g clip-path="url(#clip0x6080028bb240)"><g><clipPath id="clip0x6080028bb540"><path d="M 1575.0 462.0 L 1624.0 462.0 L 1624.0 500.0 L 1575.0 500.0 Z M 1575.0 462.0 "></path></clipPath><g clip-path="url(#clip0x6080028bb540)"><path d="M 0.0 0.0 L 40.7 0.0 " fill="none" stroke="#2F8B16" stroke-width="6.00" transform="matrix(0.71, 0.71, 0.71, -0.71, 1591.5, 467.7)"></path></g></g></g></g></g><g opacity="0.00"><g><clipPath id="clip0x6080028bb840"><path d="M 1438.9 426.6 L 1760.5 426.6 L 1760.5 586.7 L 1438.9 586.7 Z M 1438.9 426.6 "></path></clipPath><g clip-path="url(#clip0x6080028bb840)"><image xlink:href="../../9A88B577-9903-4422-82F3-5A7B7CDE055A/assets/AB422062B13255764B1C53BB9C1E3EE3.png" width="320.00" height="158.00" transform="matrix(1.00, 0.00, -0.00, -1.00, 1439.9, 585.7)" opacity="0.57"></image><path d="M 1450.9 453.7 L 1451.0 574.5 C 1451.0 578.8 1454.3 582.0 1458.5 582.0 L 1740.9 582.0 C 1745.1 582.0 1749.0 578.8 1749.0 574.5 L 1749.0 453.7 C 1749.0 449.4 1745.1 446.0 1740.9 446.0 L 1458.5 446.0 C 1454.3 446.0 1450.9 449.4 1450.9 453.7 Z M 1450.9 453.7 " fill="#FEFFFE"></path></g></g><g><clipPath id="clip0x6000036a8160"><path d="M 1511.7 505.6 L 1687.7 505.6 L 1687.7 568.3 L 1511.7 568.3 Z M 1511.7 505.6 "></path></clipPath><g clip-path="url(#clip0x6000036a8160)"><text xml:space="preserve" font-family="ArialMT,Arial" font-size="37.0" fill="#000000" transform="matrix(1.00, 0.00, -0.00, -1.00, 1522.6, 525.0)">S</text><text xml:space="preserve" font-family="ArialMT,Arial" font-size="37.0" fill="#000000" transform="matrix(1.00, 0.00, -0.00, -1.00, 1547.3, 525.0)">t</text><text xml:space="preserve" font-family="ArialMT,Arial" font-size="37.0" fill="#000000" transform="matrix(1.00, 0.00, -0.00, -1.00, 1557.5, 525.0)">a</text><text xml:space="preserve" font-family="ArialMT,Arial" font-size="37.0" fill="#000000" transform="matrix(1.00, 0.00, -0.00, -1.00, 1578.1, 525.0)">n</text><text xml:space="preserve" font-family="ArialMT,Arial" font-size="37.0" fill="#000000" transform="matrix(1.00, 0.00, -0.00, -1.00, 1598.7, 525.0)">i</text><text xml:space="preserve" font-family="ArialMT,Arial" font-size="37.0" fill="#000000" transform="matrix(1.00, 0.00, -0.00, -1.00, 1606.9, 525.0)">c</text><text xml:space="preserve" font-family="ArialMT,Arial" font-size="37.0" fill="#000000" transform="matrix(1.00, 0.00, -0.00, -1.00, 1625.4, 525.0)">e</text><text xml:space="preserve" font-family="ArialMT,Arial" font-size="37.0" fill="#000000" transform="matrix(1.00, 0.00, -0.00, -1.00, 1646.0, 525.0)"> </text><text xml:space="preserve" font-family="ArialMT,Arial" font-size="37.0" fill="#000000" transform="matrix(1.00, 0.00, -0.00, -1.00, 1656.3, 525.0)">3</text></g></g><g><clipPath id="clip0x6000036a86a0"><path d="M 1588.0 469.7 L 1618.1 499.9 L 1623.8 494.2 L 1593.6 464.0 Z M 1588.0 469.7 "></path></clipPath><g clip-path="url(#clip0x6000036a86a0)"><g><clipPath id="clip0x6000036a8820"><path d="M 1438.0 426.0 L 1761.0 426.0 L 1761.0 587.0 L 1438.0 587.0 Z M 1438.0 426.0 "></path></clipPath><g clip-path="url(#clip0x6000036a8820)"><path d="M 0.0 0.0 L 40.7 0.0 " fill="none" stroke="#A6AAA8" stroke-width="6.00" transform="matrix(0.71, 0.71, 0.71, -0.71, 1591.5, 467.6)"></path></g></g></g></g><g><clipPath id="clip0x6000036a8a60"><path d="M 1581.3 483.8 L 1597.4 467.7 L 1591.7 462.1 L 1575.6 478.2 Z M 1581.3 483.8 "></path></clipPath><g clip-path="url(#clip0x6000036a8a60)"><g><clipPath id="clip0x6000036a8be0"><path d="M 1438.0 426.0 L 1761.0 426.0 L 1761.0 587.0 L 1438.0 587.0 Z M 1438.0 426.0 "></path></clipPath><g clip-path="url(#clip0x6000036a8be0)"><path d="M 0.0 0.0 L 20.8 0.0 " fill="none" stroke="#A6AAA8" stroke-width="6.00" transform="matrix(0.71, -0.71, -0.71, -0.71, 1579.1, 480.3)"></path></g></g></g></g></g><g opacity="0.00"><g><clipPath id="clip0x6000036a8e80"><path d="M 1581.3 484.0 L 1597.4 467.8 L 1591.7 462.2 L 1575.6 478.3 Z M 1581.3 484.0 "></path></clipPath><g clip-path="url(#clip0x6000036a8e80)"><g><clipPath id="clip0x6000036a9000"><path d="M 1575.0 462.0 L 1624.0 462.0 L 1624.0 500.0 L 1575.0 500.0 Z M 1575.0 462.0 "></path></clipPath><g clip-path="url(#clip0x6000036a9000)"><path d="M 0.0 0.0 L 20.8 0.0 " fill="none" stroke="#2F8B16" stroke-width="6.00" transform="matrix(0.71, -0.71, -0.71, -0.71, 1579.1, 480.4)"></path></g></g></g></g><g><clipPath id="clip0x6000036a9240"><path d="M 1588.0 469.8 L 1618.1 500.0 L 1623.8 494.3 L 1593.6 464.2 Z M 1588.0 469.8 "></path></clipPath><g clip-path="url(#clip0x6000036a9240)"><g><clipPath id="clip0x6000036a93c0"><path d="M 1575.0 462.0 L 1624.0 462.0 L 1624.0 500.0 L 1575.0 500.0 Z M 1575.0 462.0 "></path></clipPath><g clip-path="url(#clip0x6000036a93c0)"><path d="M 0.0 0.0 L 40.7 0.0 " fill="none" stroke="#2F8B16" stroke-width="6.00" transform="matrix(0.71, 0.71, 0.71, -0.71, 1591.5, 467.7)"></path></g></g></g></g></g></g></svg>