<?xml version="1.0" encoding="UTF-8" standalone="no"?><svg xmlns="http://www.w3.org/2000/svg" xmlns:xlink="http://www.w3.org/1999/xlink" clip-rule="evenodd" stroke-miterlimit="10" viewBox="0 0 322 161"><desc>SVG generated by Keynote</desc><defs></defs><g transform="matrix(1.00, 0.00, -0.00, -1.00, 0.0, 161.0)"><g><clipPath id="clip0x6080014a0000"><path d="M 0.1 0.0 L 321.8 0.0 L 321.8 160.2 L 0.1 160.2 Z M 0.1 0.0 "></path></clipPath><g clip-path="url(#clip0x6080014a0000)"><image xlink:href="../../9A88B577-9903-4422-82F3-5A7B7CDE055A/assets/AA86109B0DDBF0C2DCF52A085E867927.png" width="320.00" height="158.00" transform="matrix(1.00, 0.00, -0.00, -1.00, 1.1, 159.2)" opacity="0.57"></image><path d="M 12.1 27.1 L 12.0 148.0 C 12.0 152.2 15.5 156.0 19.8 156.0 L 302.1 156.0 C 306.3 156.0 310.0 152.2 310.0 148.0 L 310.0 27.1 C 310.0 22.9 306.3 19.0 302.1 19.0 L 19.8 19.0 C 15.5 19.0 12.1 22.9 12.1 27.1 Z M 12.1 27.1 " fill="#FEFFFE"></path></g></g><g><clipPath id="clip0x6000018a6ae0"><path d="M 53.3 63.8 L 268.6 63.8 L 268.6 158.2 L 53.3 158.2 Z M 53.3 63.8 "></path></clipPath><g clip-path="url(#clip0x6000018a6ae0)"><text xml:space="preserve" font-family="SourceSansPro-Light,Source Sans Pro" font-size="50.0" fill="#000000" transform="matrix(1.00, 0.00, -0.00, -1.00, 69.5, 93.1)">S</text><text xml:space="preserve" font-family="SourceSansPro-Light,Source Sans Pro" font-size="50.0" fill="#000000" transform="matrix(1.00, 0.00, -0.00, -1.00, 95.2, 93.1)">t</text><text xml:space="preserve" font-family="SourceSansPro-Light,Source Sans Pro" font-size="50.0" fill="#000000" transform="matrix(1.00, 0.00, -0.00, -1.00, 109.7, 93.1)">a</text><text xml:space="preserve" font-family="SourceSansPro-Light,Source Sans Pro" font-size="50.0" fill="#000000" transform="matrix(1.00, 0.00, -0.00, -1.00, 134.7, 93.1)">n</text><text xml:space="preserve" font-family="SourceSansPro-Light,Source Sans Pro" font-size="50.0" fill="#000000" transform="matrix(1.00, 0.00, -0.00, -1.00, 161.3, 93.1)">i</text><text xml:space="preserve" font-family="SourceSansPro-Light,Source Sans Pro" font-size="50.0" fill="#000000" transform="matrix(1.00, 0.00, -0.00, -1.00, 172.7, 93.1)">c</text><text xml:space="preserve" font-family="SourceSansPro-Light,Source Sans Pro" font-size="50.0" fill="#000000" transform="matrix(1.00, 0.00, -0.00, -1.00, 194.3, 93.1)">e</text><text xml:space="preserve" font-family="SourceSansPro-Light,Source Sans Pro" font-size="50.0" fill="#000000" transform="matrix(1.00, 0.00, -0.00, -1.00, 218.5, 93.1)"> </text><text xml:space="preserve" font-family="SourceSansPro-Light,Source Sans Pro" font-size="50.0" fill="#000000" transform="matrix(1.00, 0.00, -0.00, -1.00, 228.4, 93.1)">1</text></g></g><g><clipPath id="clip0x6000018a7020"><path d="M 149.2 43.1 L 179.4 73.3 L 185.0 67.7 L 154.9 37.5 Z M 149.2 43.1 "></path></clipPath><g clip-path="url(#clip0x6000018a7020)"><path d="M 0.0 0.0 L 40.7 0.0 " fill="none" stroke="#A6AAA8" stroke-width="6.00" transform="matrix(0.71, 0.71, 0.71, -0.71, 152.7, 41.0)"></path></g></g><g><clipPath id="clip0x6000018a7260"><path d="M 142.5 57.3 L 158.6 41.2 L 152.9 35.5 L 136.8 51.6 Z M 142.5 57.3 "></path></clipPath><g clip-path="url(#clip0x6000018a7260)"><path d="M 0.0 0.0 L 20.8 0.0 " fill="none" stroke="#A6AAA8" stroke-width="6.00" transform="matrix(0.71, -0.71, -0.71, -0.71, 140.4, 53.7)"></path></g></g></g></svg>