<?xml version="1.0" encoding="UTF-8" standalone="no"?><svg xmlns="http://www.w3.org/2000/svg" xmlns:xlink="http://www.w3.org/1999/xlink" clip-rule="evenodd" stroke-miterlimit="10" viewBox="0 0 1920 1080"><desc>SVG generated by Keynote</desc><defs></defs><g transform="matrix(1.00, 0.00, -0.00, -1.00, 0.0, 1080.0)"><path d="M 0.0 1080.0 L 1920.0 1080.0 L 1920.0 0.0 L 0.0 0.0 Z M 0.0 1080.0 " fill="#2B3138"></path><image xlink:href="../../BF4CE684-A087-4A8C-BE25-1866DC6E3E22/assets/E7F10EE758CC7A1A44FABCC67DDF3423.png" width="347.00" height="491.00" transform="matrix(1.08, 0.00, -0.00, -1.08, 1413.0, 731.0)"></image><image xlink:href="../../9A88B577-9903-4422-82F3-5A7B7CDE055A/assets/5396D41323525C448220D29ADE605BDB.png" width="614.00" height="150.00" transform="matrix(1.00, 0.00, -0.00, -1.00, 1293.5, 277.1)"></image><image xlink:href="../../BF4CE684-A087-4A8C-BE25-1866DC6E3E22/assets/E7F10EE758CC7A1A44FABCC67DDF3423.png" width="347.00" height="491.00" transform="matrix(1.08, 0.00, -0.00, -1.08, 1413.0, 730.0)"></image><g><clipPath id="clip0x6080026a70e0"><path d="M 1145.0 608.0 L 1345.0 608.0 L 1345.0 201.0 L 1145.0 201.0 Z M 1145.2 608.1 "></path></clipPath><g clip-path="url(#clip0x6080026a70e0)"><image xlink:href="../../BF4CE684-A087-4A8C-BE25-1866DC6E3E22/assets/ED53BC5C4892E7DDE1623E35226535D8.png" width="157.00" height="320.00" transform="matrix(1.27, 0.00, -0.00, -1.27, 1145.0, 608.0)"></image></g></g><image xlink:href="../../9A88B577-9903-4422-82F3-5A7B7CDE055A/assets/43EF178940E4DCE16A3C578E10E23464.png" width="440.00" height="150.00" transform="matrix(1.00, 0.00, -0.00, -1.00, 1025.2, 276.5)"></image><g><clipPath id="clip0x600002aacc00"><path d="M 1145.0 608.0 L 1345.0 608.0 L 1345.0 201.0 L 1145.0 201.0 Z M 1145.2 608.1 "></path></clipPath><g clip-path="url(#clip0x600002aacc00)"><image xlink:href="../../BF4CE684-A087-4A8C-BE25-1866DC6E3E22/assets/ED53BC5C4892E7DDE1623E35226535D8.png" width="157.00" height="320.00" transform="matrix(1.27, 0.00, -0.00, -1.27, 1145.0, 608.0)"></image></g></g><text xml:space="preserve" font-family="SourceSansPro-ExtraLight,Source Sans Pro" font-size="100.0" fill="#5BA1A6" transform="matrix(1.00, 0.00, -0.00, -1.00, 681.2, 926.3)">A</text><text xml:space="preserve" font-family="SourceSansPro-ExtraLight,Source Sans Pro" font-size="100.0" fill="#5BA1A6" transform="matrix(1.00, 0.00, -0.00, -1.00, 732.4, 926.3)">n</text><text xml:space="preserve" font-family="SourceSansPro-ExtraLight,Source Sans Pro" font-size="100.0" fill="#5BA1A6" transform="matrix(1.00, 0.00, -0.00, -1.00, 785.0, 926.3)">d</text><text xml:space="preserve" font-family="SourceSansPro-ExtraLight,Source Sans Pro" font-size="100.0" fill="#5BA1A6" transform="matrix(1.00, 0.00, -0.00, -1.00, 839.0, 926.3)">r</text><text xml:space="preserve" font-family="SourceSansPro-ExtraLight,Source Sans Pro" font-size="100.0" fill="#5BA1A6" transform="matrix(1.00, 0.00, -0.00, -1.00, 868.6, 926.3)">o</text><text xml:space="preserve" font-family="SourceSansPro-ExtraLight,Source Sans Pro" font-size="100.0" fill="#5BA1A6" transform="matrix(1.00, 0.00, -0.00, -1.00, 921.8, 926.3)">i</text><text xml:space="preserve" font-family="SourceSansPro-ExtraLight,Source Sans Pro" font-size="100.0" fill="#5BA1A6" transform="matrix(1.00, 0.00, -0.00, -1.00, 944.0, 926.3)">d</text><text xml:space="preserve" font-family="SourceSansPro-ExtraLight,Source Sans Pro" font-size="100.0" fill="#5BA1A6" transform="matrix(1.00, 0.00, -0.00, -1.00, 998.0, 926.3)"> </text><text xml:space="preserve" font-family="SourceSansPro-ExtraLight,Source Sans Pro" font-size="100.0" fill="#5BA1A6" transform="matrix(1.00, 0.00, -0.00, -1.00, 1017.8, 926.3)">k</text><text xml:space="preserve" font-family="SourceSansPro-ExtraLight,Source Sans Pro" font-size="100.0" fill="#5BA1A6" transform="matrix(1.00, 0.00, -0.00, -1.00, 1063.0, 926.3)">l</text><text xml:space="preserve" font-family="SourceSansPro-ExtraLight,Source Sans Pro" font-size="100.0" fill="#5BA1A6" transform="matrix(1.00, 0.00, -0.00, -1.00, 1086.0, 926.3)">i</text><text xml:space="preserve" font-family="SourceSansPro-ExtraLight,Source Sans Pro" font-size="100.0" fill="#5BA1A6" transform="matrix(1.00, 0.00, -0.00, -1.00, 1108.2, 926.3)">e</text><text xml:space="preserve" font-family="SourceSansPro-ExtraLight,Source Sans Pro" font-size="100.0" fill="#5BA1A6" transform="matrix(1.00, 0.00, -0.00, -1.00, 1156.0, 926.3)">n</text><text xml:space="preserve" font-family="SourceSansPro-ExtraLight,Source Sans Pro" font-size="100.0" fill="#5BA1A6" transform="matrix(1.00, 0.00, -0.00, -1.00, 1208.6, 926.3)">t</text><text xml:space="preserve" font-family="Helvetica-Light,Helvetica" font-size="24.0" fill="#FEFFFF" transform="matrix(1.00, 0.00, -0.00, -1.00, 946.2, 22.5)">1</text><text xml:space="preserve" font-family="Helvetica-Light,Helvetica" font-size="24.0" fill="#FEFFFF" transform="matrix(1.00, 0.00, -0.00, -1.00, 959.5, 22.5)">3</text><g><clipPath id="clip0x600002aacea0"><path d="M 435.3 714.6 L 723.0 714.6 L 723.0 723.6 L 435.3 723.6 Z M 435.3 714.6 "></path></clipPath><g clip-path="url(#clip0x600002aacea0)"><path d="M -0.3 -0.4 L 285.7 -0.4 " fill="none" stroke="#B6B6B6" stroke-width="7.00" transform="matrix(1.00, 0.00, 0.00, -1.00, 436.3, 719.1)"></path></g></g><g><clipPath id="clip0x600002aa2340"><path d="M 435.3 211.2 L 723.0 211.2 L 723.0 220.2 L 435.3 220.2 Z M 435.3 211.2 "></path></clipPath><g clip-path="url(#clip0x600002aa2340)"><path d="M -0.3 0.2 L 285.7 0.2 " fill="none" stroke="#B6B6B6" stroke-width="7.00" transform="matrix(1.00, 0.00, 0.00, -1.00, 436.3, 215.7)"></path></g></g><g><clipPath id="clip0x600002aad500"><path d="M 285.8 468.6 L 431.3 718.4 L 439.1 713.9 L 293.6 464.1 Z M 285.8 468.6 "></path></clipPath><g clip-path="url(#clip0x600002aad500)"><path d="M 0.0 0.0 L 287.1 0.0 " fill="none" stroke="#B6B6B6" stroke-width="7.00" transform="matrix(0.50, 0.86, 0.86, -0.50, 290.2, 467.2)"></path></g></g><g><clipPath id="clip0x600002aad740"><path d="M 718.7 219.2 L 864.1 469.0 L 871.9 464.4 L 726.4 214.6 Z M 718.7 219.2 "></path></clipPath><g clip-path="url(#clip0x600002aad740)"><path d="M 0.0 0.0 L 287.1 0.0 " fill="none" stroke="#B6B6B6" stroke-width="7.00" transform="matrix(0.50, 0.86, 0.86, -0.50, 723.1, 217.8)"></path></g></g><g><clipPath id="clip0x600002aad980"><path d="M 862.1 468.6 L 720.7 715.6 L 728.5 720.1 L 869.9 473.1 Z M 862.1 468.6 "></path></clipPath><g clip-path="url(#clip0x600002aad980)"><path d="M 0.0 0.0 L 282.6 0.0 " fill="none" stroke="#B6B6B6" stroke-width="7.00" transform="matrix(-0.50, 0.87, 0.87, 0.50, 865.5, 471.7)"></path></g></g><g><clipPath id="clip0x600002aadbc0"><path d="M 429.2 216.1 L 287.8 463.1 L 295.6 467.5 L 437.1 220.5 Z M 429.2 216.1 "></path></clipPath><g clip-path="url(#clip0x600002aadbc0)"><path d="M 0.0 0.0 L 282.6 0.0 " fill="none" stroke="#B6B6B6" stroke-width="7.00" transform="matrix(-0.50, 0.87, 0.87, 0.50, 432.6, 219.2)"></path></g></g><g><clipPath id="clip0x600002aade00"><path d="M 387.7 666.6 L 483.7 666.6 L 483.7 761.2 L 387.7 761.2 Z M 387.7 666.6 "></path></clipPath><g clip-path="url(#clip0x600002aade00)"><path d="M 468.9 746.6 C 487.3 728.5 487.3 699.2 468.9 681.2 C 450.6 663.1 420.8 663.1 402.5 681.2 C 384.2 699.2 384.2 728.5 402.5 746.6 C 420.8 764.7 450.6 764.7 468.9 746.6 Z M 468.9 746.6 " fill="#A3A3A3"></path></g></g><g><clipPath id="clip0x6080026a9840"><path d="M 428.1 698.4 L 443.3 698.4 L 443.3 737.4 L 428.1 737.4 Z M 428.1 698.4 "></path></clipPath><g clip-path="url(#clip0x6080026a9840)"><text xml:space="preserve" font-family="SourceSansPro-Light,Source Sans Pro" font-size="36.0" fill="#FDFEE9" transform="matrix(1.00, 0.00, -0.00, -1.00, 428.1, 702.2)">1</text></g></g><g><clipPath id="clip0x6080026a9a80"><path d="M 677.2 669.2 L 773.2 669.2 L 773.2 763.7 L 677.2 763.7 Z M 677.2 669.2 "></path></clipPath><g clip-path="url(#clip0x6080026a9a80)"><path d="M 758.4 749.2 C 776.7 731.1 776.7 701.8 758.4 683.7 C 740.1 665.6 710.3 665.6 692.0 683.7 C 673.6 701.8 673.6 731.1 692.0 749.2 C 710.3 767.2 740.1 767.2 758.4 749.2 Z M 758.4 749.2 " fill="#A3A3A3"></path></g></g><g><clipPath id="clip0x6080026a9cc0"><path d="M 717.6 699.9 L 732.8 699.9 L 732.8 738.9 L 717.6 738.9 Z M 717.6 699.9 "></path></clipPath><g clip-path="url(#clip0x6080026a9cc0)"><text xml:space="preserve" font-family="SourceSansPro-Light,Source Sans Pro" font-size="36.0" fill="#FDFEE9" transform="matrix(1.00, 0.00, -0.00, -1.00, 717.6, 703.7)">2</text></g></g><g><clipPath id="clip0x6080026a9f00"><path d="M 817.7 417.4 L 913.7 417.4 L 913.7 512.0 L 817.7 512.0 Z M 817.7 417.4 "></path></clipPath><g clip-path="url(#clip0x6080026a9f00)"><path d="M 898.9 497.4 C 917.3 479.4 917.3 450.1 898.9 432.0 C 880.6 413.9 850.8 413.9 832.5 432.0 C 814.2 450.1 814.2 479.4 832.5 497.4 C 850.8 515.5 880.6 515.5 898.9 497.4 Z M 898.9 497.4 " fill="#A3A3A3"></path></g></g><g><clipPath id="clip0x6080026aa140"><path d="M 858.1 448.3 L 873.3 448.3 L 873.3 487.3 L 858.1 487.3 Z M 858.1 448.3 "></path></clipPath><g clip-path="url(#clip0x6080026aa140)"><text xml:space="preserve" font-family="SourceSansPro-Light,Source Sans Pro" font-size="36.0" fill="#FDFEE9" transform="matrix(1.00, 0.00, -0.00, -1.00, 858.1, 452.2)">3</text></g></g><g><clipPath id="clip0x600002aae160"><path d="M 677.2 168.3 L 773.2 168.3 L 773.2 262.8 L 677.2 262.8 Z M 677.2 168.3 "></path></clipPath><g clip-path="url(#clip0x600002aae160)"><path d="M 758.4 248.3 C 776.7 230.2 776.7 200.9 758.4 182.8 C 740.1 164.8 710.3 164.8 692.0 182.8 C 673.6 200.9 673.6 230.2 692.0 248.3 C 710.3 266.4 740.1 266.4 758.4 248.3 Z M 758.4 248.3 " fill="#A3A3A3"></path></g></g><g><clipPath id="clip0x600002aae3a0"><path d="M 715.6 199.0 L 730.8 199.0 L 730.8 238.0 L 715.6 238.0 Z M 715.6 199.0 "></path></clipPath><g clip-path="url(#clip0x600002aae3a0)"><text xml:space="preserve" font-family="SourceSansPro-Light,Source Sans Pro" font-size="36.0" fill="#FDFEE9" transform="matrix(1.00, 0.00, -0.00, -1.00, 715.6, 202.9)">4</text></g></g><g><clipPath id="clip0x6080026aa380"><path d="M 387.7 168.3 L 483.7 168.3 L 483.7 262.8 L 387.7 262.8 Z M 387.7 168.3 "></path></clipPath><g clip-path="url(#clip0x6080026aa380)"><path d="M 468.9 248.3 C 487.3 230.2 487.3 200.9 468.9 182.8 C 450.6 164.8 420.8 164.8 402.5 182.8 C 384.2 200.9 384.2 230.2 402.5 248.3 C 420.8 266.4 450.6 266.4 468.9 248.3 Z M 468.9 248.3 " fill="#A3A3A3"></path></g></g><g><clipPath id="clip0x6080026aa5c0"><path d="M 427.1 198.0 L 442.3 198.0 L 442.3 237.0 L 427.1 237.0 Z M 427.1 198.0 "></path></clipPath><g clip-path="url(#clip0x6080026aa5c0)"><text xml:space="preserve" font-family="SourceSansPro-Light,Source Sans Pro" font-size="36.0" fill="#FDFEE9" transform="matrix(1.00, 0.00, -0.00, -1.00, 427.1, 201.9)">5</text></g></g><g><clipPath id="clip0x6080026aa800"><path d="M 243.8 417.4 L 339.7 417.4 L 339.7 512.0 L 243.8 512.0 Z M 243.8 417.4 "></path></clipPath><g clip-path="url(#clip0x6080026aa800)"><path d="M 324.9 497.4 C 343.3 479.4 343.3 450.1 324.9 432.0 C 306.6 413.9 276.9 413.9 258.5 432.0 C 240.2 450.1 240.2 479.4 258.5 497.4 C 276.9 515.5 306.6 515.5 324.9 497.4 Z M 324.9 497.4 " fill="#A3A3A3"></path></g></g><g><clipPath id="clip0x6080026aaa40"><path d="M 282.1 448.2 L 297.4 448.2 L 297.4 487.2 L 282.1 487.2 Z M 282.1 448.2 "></path></clipPath><g clip-path="url(#clip0x6080026aaa40)"><text xml:space="preserve" font-family="SourceSansPro-Light,Source Sans Pro" font-size="36.0" fill="#FDFEE9" transform="matrix(1.00, 0.00, -0.00, -1.00, 282.1, 452.0)">6</text></g></g><path d="M 1154.0 573.0 L 1336.0 573.0 L 1336.0 246.0 L 1154.0 246.0 Z M 1154.0 573.4 " fill="#FEFFFE"></path><path d="M 1437.0 683.0 L 1763.0 683.0 L 1763.0 249.0 L 1437.0 249.0 Z M 1437.1 683.4 " fill="#FEFFFE"></path><path d="M 883.2 481.4 C 892.0 472.6 892.0 458.4 883.2 449.6 C 874.4 440.8 860.1 440.8 851.3 449.6 C 842.5 458.4 842.5 472.6 851.3 481.4 C 860.1 490.2 874.4 490.2 883.2 481.4 Z M 883.2 481.4 " fill="#2196F3"></path><path d="M 740.5 733.4 C 749.3 724.6 749.3 710.3 740.5 701.5 C 731.7 692.7 717.4 692.7 708.6 701.5 C 699.9 710.3 699.9 724.6 708.6 733.4 C 717.4 742.2 731.7 742.2 740.5 733.4 Z M 740.5 733.4 " fill="#F34335"></path><g><clipPath id="clip0x6080026aaf20"><path d="M 1478.8 596.4 L 1717.7 596.4 L 1717.7 634.1 L 1478.8 634.1 Z M 1478.8 596.4 "></path></clipPath><g clip-path="url(#clip0x6080026aaf20)"><path d="M 1480.0 633.0 L 1717.0 633.0 L 1717.0 597.0 L 1480.0 597.0 Z M 1479.8 633.1 " fill="#A6AAA8" fill-opacity="0.76"></path></g></g><g><clipPath id="clip0x6080026ab160"><path d="M 1485.9 596.5 L 1509.4 596.5 L 1509.4 634.0 L 1485.9 634.0 Z M 1485.9 596.5 "></path></clipPath><g clip-path="url(#clip0x6080026ab160)"><text xml:space="preserve" font-family="SourceSansPro-Regular,Source Sans Pro" font-size="20.0" fill="#000000" transform="matrix(1.00, 0.00, -0.00, -1.00, 1492.6, 608.2)">1</text></g></g><g><clipPath id="clip0x6080026ab3a0"><path d="M 1478.8 537.4 L 1717.7 537.4 L 1717.7 575.2 L 1478.8 575.2 Z M 1478.8 537.4 "></path></clipPath><g clip-path="url(#clip0x6080026ab3a0)"><path d="M 1480.0 574.0 L 1717.0 574.0 L 1717.0 538.0 L 1480.0 538.0 Z M 1479.8 574.2 " fill="#A6AAA8" fill-opacity="0.76"></path></g></g><g><clipPath id="clip0x6080026ab5e0"><path d="M 1485.9 537.6 L 1509.4 537.6 L 1509.4 575.1 L 1485.9 575.1 Z M 1485.9 537.6 "></path></clipPath><g clip-path="url(#clip0x6080026ab5e0)"><text xml:space="preserve" font-family="SourceSansPro-Regular,Source Sans Pro" font-size="20.0" fill="#000000" transform="matrix(1.00, 0.00, -0.00, -1.00, 1492.6, 549.3)">2</text></g></g><g><clipPath id="clip0x6080026ab820"><path d="M 1478.8 478.6 L 1717.7 478.6 L 1717.7 516.4 L 1478.8 516.4 Z M 1478.8 478.6 "></path></clipPath><g clip-path="url(#clip0x6080026ab820)"><path d="M 1480.0 515.0 L 1717.0 515.0 L 1717.0 480.0 L 1480.0 480.0 Z M 1479.8 515.4 " fill="#A6AAA8" fill-opacity="0.76"></path></g></g><g><clipPath id="clip0x6080026aba60"><path d="M 1485.9 478.7 L 1509.4 478.7 L 1509.4 516.3 L 1485.9 516.3 Z M 1485.9 478.7 "></path></clipPath><g clip-path="url(#clip0x6080026aba60)"><text xml:space="preserve" font-family="SourceSansPro-Regular,Source Sans Pro" font-size="20.0" fill="#000000" transform="matrix(1.00, 0.00, -0.00, -1.00, 1492.6, 490.4)">3</text></g></g><g><clipPath id="clip0x6080026abca0"><path d="M 1478.8 419.7 L 1717.7 419.7 L 1717.7 457.5 L 1478.8 457.5 Z M 1478.8 419.7 "></path></clipPath><g clip-path="url(#clip0x6080026abca0)"><path d="M 1480.0 457.0 L 1717.0 457.0 L 1717.0 421.0 L 1480.0 421.0 Z M 1479.8 456.5 " fill="#A6AAA8" fill-opacity="0.76"></path></g></g><g><clipPath id="clip0x600002aae6a0"><path d="M 1485.9 419.9 L 1509.4 419.9 L 1509.4 457.4 L 1485.9 457.4 Z M 1485.9 419.9 "></path></clipPath><g clip-path="url(#clip0x600002aae6a0)"><text xml:space="preserve" font-family="SourceSansPro-Regular,Source Sans Pro" font-size="20.0" fill="#000000" transform="matrix(1.00, 0.00, -0.00, -1.00, 1492.6, 431.6)">4</text></g></g><g><clipPath id="clip0x600002aae8e0"><path d="M 1478.8 359.5 L 1717.7 359.5 L 1717.7 397.3 L 1478.8 397.3 Z M 1478.8 359.5 "></path></clipPath><g clip-path="url(#clip0x600002aae8e0)"><path d="M 1480.0 396.0 L 1717.0 396.0 L 1717.0 360.0 L 1480.0 360.0 Z M 1479.8 396.3 " fill="#A6AAA8" fill-opacity="0.76"></path></g></g><g><clipPath id="clip0x600002aaeb20"><path d="M 1485.9 359.6 L 1509.4 359.6 L 1509.4 397.2 L 1485.9 397.2 Z M 1485.9 359.6 "></path></clipPath><g clip-path="url(#clip0x600002aaeb20)"><text xml:space="preserve" font-family="SourceSansPro-Regular,Source Sans Pro" font-size="20.0" fill="#000000" transform="matrix(1.00, 0.00, -0.00, -1.00, 1492.6, 371.4)">5</text></g></g><g><clipPath id="clip0x600002aaed60"><path d="M 1478.8 297.9 L 1717.7 297.9 L 1717.7 335.6 L 1478.8 335.6 Z M 1478.8 297.9 "></path></clipPath><g clip-path="url(#clip0x600002aaed60)"><path d="M 1480.0 335.0 L 1717.0 335.0 L 1717.0 299.0 L 1480.0 299.0 Z M 1479.8 334.6 " fill="#A6AAA8" fill-opacity="0.76"></path></g></g><g><clipPath id="clip0x6080026abd00"><path d="M 1485.9 298.0 L 1509.4 298.0 L 1509.4 335.5 L 1485.9 335.5 Z M 1485.9 298.0 "></path></clipPath><g clip-path="url(#clip0x6080026abd00)"><text xml:space="preserve" font-family="SourceSansPro-Regular,Source Sans Pro" font-size="20.0" fill="#000000" transform="matrix(1.00, 0.00, -0.00, -1.00, 1492.6, 309.7)">6</text></g></g><g><clipPath id="clip0x6080026abf40"><path d="M 1156.3 511.4 L 1333.6 511.4 L 1333.6 549.2 L 1156.3 549.2 Z M 1156.3 511.4 "></path></clipPath><g clip-path="url(#clip0x6080026abf40)"><path d="M 1157.0 548.0 L 1333.0 548.0 L 1333.0 512.0 L 1157.0 512.0 Z M 1157.3 548.2 " fill="#A6AAA8" fill-opacity="0.76"></path></g></g><g><clipPath id="clip0x6080026ac180"><path d="M 1161.9 511.5 L 1185.4 511.5 L 1185.4 549.1 L 1161.9 549.1 Z M 1161.9 511.5 "></path></clipPath><g clip-path="url(#clip0x6080026ac180)"><text xml:space="preserve" font-family="SourceSansPro-Regular,Source Sans Pro" font-size="20.0" fill="#000000" transform="matrix(1.00, 0.00, -0.00, -1.00, 1168.7, 523.2)">1</text></g></g><g><clipPath id="clip0x6080026ac3c0"><path d="M 1156.3 450.9 L 1333.6 450.9 L 1333.6 488.7 L 1156.3 488.7 Z M 1156.3 450.9 "></path></clipPath><g clip-path="url(#clip0x6080026ac3c0)"><path d="M 1157.0 488.0 L 1333.0 488.0 L 1333.0 452.0 L 1157.0 452.0 Z M 1157.3 487.7 " fill="#A6AAA8" fill-opacity="0.76"></path></g></g><g><clipPath id="clip0x6080026ac600"><path d="M 1161.9 451.1 L 1185.4 451.1 L 1185.4 488.6 L 1161.9 488.6 Z M 1161.9 451.1 "></path></clipPath><g clip-path="url(#clip0x6080026ac600)"><text xml:space="preserve" font-family="SourceSansPro-Regular,Source Sans Pro" font-size="20.0" fill="#000000" transform="matrix(1.00, 0.00, -0.00, -1.00, 1168.7, 462.8)">2</text></g></g><g><clipPath id="clip0x6080026ac840"><path d="M 1156.3 390.5 L 1333.6 390.5 L 1333.6 428.3 L 1156.3 428.3 Z M 1156.3 390.5 "></path></clipPath><g clip-path="url(#clip0x6080026ac840)"><path d="M 1157.0 427.0 L 1333.0 427.0 L 1333.0 392.0 L 1157.0 392.0 Z M 1157.3 427.3 " fill="#A6AAA8" fill-opacity="0.76"></path></g></g><g><clipPath id="clip0x6080026aca80"><path d="M 1161.9 390.6 L 1185.4 390.6 L 1185.4 428.2 L 1161.9 428.2 Z M 1161.9 390.6 "></path></clipPath><g clip-path="url(#clip0x6080026aca80)"><text xml:space="preserve" font-family="SourceSansPro-Regular,Source Sans Pro" font-size="20.0" fill="#000000" transform="matrix(1.00, 0.00, -0.00, -1.00, 1168.7, 402.4)">3</text></g></g><g><clipPath id="clip0x6080026accc0"><path d="M 1156.3 330.1 L 1333.6 330.1 L 1333.6 367.9 L 1156.3 367.9 Z M 1156.3 330.1 "></path></clipPath><g clip-path="url(#clip0x6080026accc0)"><path d="M 1157.0 367.0 L 1333.0 367.0 L 1333.0 331.0 L 1157.0 331.0 Z M 1157.3 366.9 " fill="#A6AAA8" fill-opacity="0.76"></path></g></g><g><clipPath id="clip0x6080026acf00"><path d="M 1161.9 330.2 L 1185.4 330.2 L 1185.4 367.8 L 1161.9 367.8 Z M 1161.9 330.2 "></path></clipPath><g clip-path="url(#clip0x6080026acf00)"><text xml:space="preserve" font-family="SourceSansPro-Regular,Source Sans Pro" font-size="20.0" fill="#000000" transform="matrix(1.00, 0.00, -0.00, -1.00, 1168.7, 341.9)">4</text></g></g><g><clipPath id="clip0x6080026ad140"><path d="M 1156.3 270.0 L 1333.6 270.0 L 1333.6 307.8 L 1156.3 307.8 Z M 1156.3 270.0 "></path></clipPath><g clip-path="url(#clip0x6080026ad140)"><path d="M 1157.0 307.0 L 1333.0 307.0 L 1333.0 271.0 L 1157.0 271.0 Z M 1157.3 306.8 " fill="#A6AAA8" fill-opacity="0.76"></path></g></g><g><clipPath id="clip0x6080026ad380"><path d="M 1161.9 270.1 L 1185.4 270.1 L 1185.4 307.7 L 1161.9 307.7 Z M 1161.9 270.1 "></path></clipPath><g clip-path="url(#clip0x6080026ad380)"><text xml:space="preserve" font-family="SourceSansPro-Regular,Source Sans Pro" font-size="20.0" fill="#000000" transform="matrix(1.00, 0.00, -0.00, -1.00, 1168.7, 281.9)">5</text></g></g><path d="M 1206.6 476.3 C 1210.3 472.6 1210.3 466.6 1206.6 462.9 C 1202.9 459.2 1197.0 459.2 1193.3 462.9 C 1189.6 466.6 1189.6 472.6 1193.3 476.3 C 1197.0 480.0 1202.9 480.0 1206.6 476.3 Z M 1206.6 476.3 " fill="#F34335"></path><path d="M 1532.8 562.9 C 1536.5 559.2 1536.5 553.2 1532.8 549.5 C 1529.1 545.8 1523.1 545.8 1519.4 549.5 C 1515.7 553.2 1515.7 559.2 1519.4 562.9 C 1523.1 566.6 1529.1 566.6 1532.8 562.9 Z M 1532.8 562.9 " fill="#F34335"></path><path d="M 1206.0 415.6 C 1209.7 411.9 1209.7 405.9 1206.0 402.2 C 1202.3 398.5 1196.3 398.5 1192.6 402.2 C 1188.9 405.9 1188.9 411.9 1192.6 415.6 C 1196.3 419.3 1202.3 419.3 1206.0 415.6 Z M 1206.0 415.6 " fill="#2196F3"></path><path d="M 1533.5 503.7 C 1537.2 500.0 1537.2 494.0 1533.5 490.3 C 1529.8 486.6 1523.9 486.6 1520.2 490.3 C 1516.5 494.0 1516.5 500.0 1520.2 503.7 C 1523.9 507.4 1529.8 507.4 1533.5 503.7 Z M 1533.5 503.7 " fill="#2196F3"></path><g opacity="0.00"><g><clipPath id="clip0x600002aaf420"><path d="M 1084.1 347.0 L 1405.8 347.0 L 1405.8 507.2 L 1084.1 507.2 Z M 1084.1 347.0 "></path></clipPath><g clip-path="url(#clip0x600002aaf420)"><image xlink:href="../../9A88B577-9903-4422-82F3-5A7B7CDE055A/assets/AA86109B0DDBF0C2DCF52A085E867927.png" width="320.00" height="158.00" transform="matrix(1.00, 0.00, -0.00, -1.00, 1085.1, 506.2)" opacity="0.57"></image><path d="M 1096.1 374.1 L 1096.0 495.0 C 1096.0 499.2 1099.5 503.0 1103.8 503.0 L 1386.1 503.0 C 1390.3 503.0 1394.0 499.2 1394.0 495.0 L 1394.0 374.1 C 1394.0 369.9 1390.3 366.0 1386.1 366.0 L 1103.8 366.0 C 1099.5 366.0 1096.1 369.9 1096.1 374.1 Z M 1096.1 374.1 " fill="#FEFFFE"></path></g></g><g><clipPath id="clip0x6080026ad680"><path d="M 1137.3 410.8 L 1352.6 410.8 L 1352.6 505.2 L 1137.3 505.2 Z M 1137.3 410.8 "></path></clipPath><g clip-path="url(#clip0x6080026ad680)"><text xml:space="preserve" font-family="SourceSansPro-Light,Source Sans Pro" font-size="50.0" fill="#000000" transform="matrix(1.00, 0.00, -0.00, -1.00, 1153.5, 440.1)">S</text><text xml:space="preserve" font-family="SourceSansPro-Light,Source Sans Pro" font-size="50.0" fill="#000000" transform="matrix(1.00, 0.00, -0.00, -1.00, 1179.2, 440.1)">t</text><text xml:space="preserve" font-family="SourceSansPro-Light,Source Sans Pro" font-size="50.0" fill="#000000" transform="matrix(1.00, 0.00, -0.00, -1.00, 1193.7, 440.1)">a</text><text xml:space="preserve" font-family="SourceSansPro-Light,Source Sans Pro" font-size="50.0" fill="#000000" transform="matrix(1.00, 0.00, -0.00, -1.00, 1218.7, 440.1)">n</text><text xml:space="preserve" font-family="SourceSansPro-Light,Source Sans Pro" font-size="50.0" fill="#000000" transform="matrix(1.00, 0.00, -0.00, -1.00, 1245.3, 440.1)">i</text><text xml:space="preserve" font-family="SourceSansPro-Light,Source Sans Pro" font-size="50.0" fill="#000000" transform="matrix(1.00, 0.00, -0.00, -1.00, 1256.7, 440.1)">c</text><text xml:space="preserve" font-family="SourceSansPro-Light,Source Sans Pro" font-size="50.0" fill="#000000" transform="matrix(1.00, 0.00, -0.00, -1.00, 1278.3, 440.1)">e</text><text xml:space="preserve" font-family="SourceSansPro-Light,Source Sans Pro" font-size="50.0" fill="#000000" transform="matrix(1.00, 0.00, -0.00, -1.00, 1302.5, 440.1)"> </text><text xml:space="preserve" font-family="SourceSansPro-Light,Source Sans Pro" font-size="50.0" fill="#000000" transform="matrix(1.00, 0.00, -0.00, -1.00, 1312.4, 440.1)">1</text></g></g><g><clipPath id="clip0x600002aaf6c0"><path d="M 1233.2 390.1 L 1263.4 420.3 L 1269.0 414.7 L 1238.9 384.5 Z M 1233.2 390.1 "></path></clipPath><g clip-path="url(#clip0x600002aaf6c0)"><g><clipPath id="clip0x600002aaf840"><path d="M 1084.0 347.0 L 1406.0 347.0 L 1406.0 508.0 L 1084.0 508.0 Z M 1084.0 347.0 "></path></clipPath><g clip-path="url(#clip0x600002aaf840)"><path d="M 0.0 0.0 L 40.7 0.0 " fill="none" stroke="#A6AAA8" stroke-width="6.00" transform="matrix(0.71, 0.71, 0.71, -0.71, 1236.7, 388.0)"></path></g></g></g></g><g><clipPath id="clip0x600002aafa80"><path d="M 1226.5 404.3 L 1242.6 388.2 L 1236.9 382.5 L 1220.8 398.6 Z M 1226.5 404.3 "></path></clipPath><g clip-path="url(#clip0x600002aafa80)"><g><clipPath id="clip0x600002aafc00"><path d="M 1084.0 347.0 L 1406.0 347.0 L 1406.0 508.0 L 1084.0 508.0 Z M 1084.0 347.0 "></path></clipPath><g clip-path="url(#clip0x600002aafc00)"><path d="M 0.0 0.0 L 20.8 0.0 " fill="none" stroke="#A6AAA8" stroke-width="6.00" transform="matrix(0.71, -0.71, -0.71, -0.71, 1224.4, 400.7)"></path></g></g></g></g></g><g opacity="0.00"><g><clipPath id="clip0x600002aafea0"><path d="M 1226.5 404.4 L 1242.6 388.3 L 1236.9 382.6 L 1220.8 398.7 Z M 1226.5 404.4 "></path></clipPath><g clip-path="url(#clip0x600002aafea0)"><g><clipPath id="clip0x600002ab0020"><path d="M 1220.0 382.0 L 1270.0 382.0 L 1270.0 421.0 L 1220.0 421.0 Z M 1220.0 382.0 "></path></clipPath><g clip-path="url(#clip0x600002ab0020)"><path d="M 0.0 0.0 L 20.8 0.0 " fill="none" stroke="#2F8B16" stroke-width="6.00" transform="matrix(0.71, -0.71, -0.71, -0.71, 1224.4, 400.9)"></path></g></g></g></g><g><clipPath id="clip0x600002ab0260"><path d="M 1233.2 390.3 L 1263.4 420.4 L 1269.0 414.8 L 1238.9 384.6 Z M 1233.2 390.3 "></path></clipPath><g clip-path="url(#clip0x600002ab0260)"><g><clipPath id="clip0x600002ab03e0"><path d="M 1220.0 382.0 L 1270.0 382.0 L 1270.0 421.0 L 1220.0 421.0 Z M 1220.0 382.0 "></path></clipPath><g clip-path="url(#clip0x600002ab03e0)"><path d="M 0.0 0.0 L 40.7 0.0 " fill="none" stroke="#2F8B16" stroke-width="6.00" transform="matrix(0.71, 0.71, 0.71, -0.71, 1236.7, 388.1)"></path></g></g></g></g></g><g opacity="0.00"><g><clipPath id="clip0x600002ab0680"><path d="M 1439.2 452.0 L 1760.8 452.0 L 1760.8 612.2 L 1439.2 612.2 Z M 1439.2 452.0 "></path></clipPath><g clip-path="url(#clip0x600002ab0680)"><image xlink:href="../../9A88B577-9903-4422-82F3-5A7B7CDE055A/assets/A9F3C5E1CC5670DA3428841CE227EBD7.png" width="320.00" height="158.00" transform="matrix(1.00, 0.00, -0.00, -1.00, 1440.2, 611.2)" opacity="0.57"></image><path d="M 1451.2 479.1 L 1451.0 599.9 C 1451.0 604.2 1454.6 608.0 1458.8 608.0 L 1741.2 608.0 C 1745.4 608.0 1749.0 604.2 1749.0 599.9 L 1749.0 479.1 C 1749.0 474.9 1745.4 471.0 1741.2 471.0 L 1458.8 471.0 C 1454.6 471.0 1451.2 474.9 1451.2 479.1 Z M 1451.2 479.1 " fill="#FEFFFE"></path></g></g><g><clipPath id="clip0x6080026adc20"><path d="M 1492.3 515.7 L 1707.7 515.7 L 1707.7 610.2 L 1492.3 610.2 Z M 1492.3 515.7 "></path></clipPath><g clip-path="url(#clip0x6080026adc20)"><text xml:space="preserve" font-family="SourceSansPro-Light,Source Sans Pro" font-size="50.0" fill="#000000" transform="matrix(1.00, 0.00, -0.00, -1.00, 1508.5, 545.1)">S</text><text xml:space="preserve" font-family="SourceSansPro-Light,Source Sans Pro" font-size="50.0" fill="#000000" transform="matrix(1.00, 0.00, -0.00, -1.00, 1534.2, 545.1)">t</text><text xml:space="preserve" font-family="SourceSansPro-Light,Source Sans Pro" font-size="50.0" fill="#000000" transform="matrix(1.00, 0.00, -0.00, -1.00, 1548.8, 545.1)">a</text><text xml:space="preserve" font-family="SourceSansPro-Light,Source Sans Pro" font-size="50.0" fill="#000000" transform="matrix(1.00, 0.00, -0.00, -1.00, 1573.7, 545.1)">n</text><text xml:space="preserve" font-family="SourceSansPro-Light,Source Sans Pro" font-size="50.0" fill="#000000" transform="matrix(1.00, 0.00, -0.00, -1.00, 1600.3, 545.1)">i</text><text xml:space="preserve" font-family="SourceSansPro-Light,Source Sans Pro" font-size="50.0" fill="#000000" transform="matrix(1.00, 0.00, -0.00, -1.00, 1611.8, 545.1)">c</text><text xml:space="preserve" font-family="SourceSansPro-Light,Source Sans Pro" font-size="50.0" fill="#000000" transform="matrix(1.00, 0.00, -0.00, -1.00, 1633.4, 545.1)">e</text><text xml:space="preserve" font-family="SourceSansPro-Light,Source Sans Pro" font-size="50.0" fill="#000000" transform="matrix(1.00, 0.00, -0.00, -1.00, 1657.5, 545.1)"> </text><text xml:space="preserve" font-family="SourceSansPro-Light,Source Sans Pro" font-size="50.0" fill="#000000" transform="matrix(1.00, 0.00, -0.00, -1.00, 1667.5, 545.1)">2</text></g></g><g><clipPath id="clip0x6080026ae160"><path d="M 1588.3 495.1 L 1618.4 525.3 L 1624.1 519.6 L 1593.9 489.4 Z M 1588.3 495.1 "></path></clipPath><g clip-path="url(#clip0x6080026ae160)"><g><clipPath id="clip0x6080026ae2e0"><path d="M 1439.0 451.0 L 1761.0 451.0 L 1761.0 613.0 L 1439.0 613.0 Z M 1439.0 451.0 "></path></clipPath><g clip-path="url(#clip0x6080026ae2e0)"><path d="M 0.0 0.0 L 40.7 0.0 " fill="none" stroke="#A6AAA8" stroke-width="6.00" transform="matrix(0.71, 0.71, 0.71, -0.71, 1591.8, 493.0)"></path></g></g></g></g><g><clipPath id="clip0x6080026ae520"><path d="M 1581.5 509.2 L 1597.7 493.1 L 1592.0 487.5 L 1575.9 503.6 Z M 1581.5 509.2 "></path></clipPath><g clip-path="url(#clip0x6080026ae520)"><g><clipPath id="clip0x6080026ae6a0"><path d="M 1439.0 451.0 L 1761.0 451.0 L 1761.0 613.0 L 1439.0 613.0 Z M 1439.0 451.0 "></path></clipPath><g clip-path="url(#clip0x6080026ae6a0)"><path d="M 0.0 0.0 L 20.8 0.0 " fill="none" stroke="#A6AAA8" stroke-width="6.00" transform="matrix(0.71, -0.71, -0.71, -0.71, 1579.4, 505.7)"></path></g></g></g></g></g><g opacity="0.00"><g><clipPath id="clip0x6080026ae940"><path d="M 1581.5 509.4 L 1597.7 493.3 L 1592.0 487.6 L 1575.9 503.7 Z M 1581.5 509.4 "></path></clipPath><g clip-path="url(#clip0x6080026ae940)"><g><clipPath id="clip0x6080026aeac0"><path d="M 1575.0 487.0 L 1625.0 487.0 L 1625.0 526.0 L 1575.0 526.0 Z M 1575.0 487.0 "></path></clipPath><g clip-path="url(#clip0x6080026aeac0)"><path d="M 0.0 0.0 L 20.8 0.0 " fill="none" stroke="#2F8B16" stroke-width="6.00" transform="matrix(0.71, -0.71, -0.71, -0.71, 1579.4, 505.8)"></path></g></g></g></g><g><clipPath id="clip0x6080026aed00"><path d="M 1588.3 495.2 L 1618.4 525.4 L 1624.1 519.8 L 1593.9 489.6 Z M 1588.3 495.2 "></path></clipPath><g clip-path="url(#clip0x6080026aed00)"><g><clipPath id="clip0x6080026aee80"><path d="M 1575.0 487.0 L 1625.0 487.0 L 1625.0 526.0 L 1575.0 526.0 Z M 1575.0 487.0 "></path></clipPath><g clip-path="url(#clip0x6080026aee80)"><path d="M 0.0 0.0 L 40.7 0.0 " fill="none" stroke="#2F8B16" stroke-width="6.00" transform="matrix(0.71, 0.71, 0.71, -0.71, 1591.8, 493.1)"></path></g></g></g></g></g><g opacity="0.00"><g><clipPath id="clip0x6080026af120"><path d="M 1439.2 452.0 L 1760.8 452.0 L 1760.8 612.2 L 1439.2 612.2 Z M 1439.2 452.0 "></path></clipPath><g clip-path="url(#clip0x6080026af120)"><image xlink:href="../../9A88B577-9903-4422-82F3-5A7B7CDE055A/assets/A9F3C5E1CC5670DA3428841CE227EBD7.png" width="320.00" height="158.00" transform="matrix(1.00, 0.00, -0.00, -1.00, 1440.2, 611.2)" opacity="0.57"></image><path d="M 1451.2 479.1 L 1451.0 599.9 C 1451.0 604.2 1454.6 608.0 1458.8 608.0 L 1741.2 608.0 C 1745.4 608.0 1749.0 604.2 1749.0 599.9 L 1749.0 479.1 C 1749.0 474.9 1745.4 471.0 1741.2 471.0 L 1458.8 471.0 C 1454.6 471.0 1451.2 474.9 1451.2 479.1 Z M 1451.2 479.1 " fill="#FEFFFE"></path></g></g><g><clipPath id="clip0x600002ab0920"><path d="M 1492.3 515.7 L 1707.7 515.7 L 1707.7 610.2 L 1492.3 610.2 Z M 1492.3 515.7 "></path></clipPath><g clip-path="url(#clip0x600002ab0920)"><text xml:space="preserve" font-family="SourceSansPro-Light,Source Sans Pro" font-size="50.0" fill="#000000" transform="matrix(1.00, 0.00, -0.00, -1.00, 1508.5, 545.1)">S</text><text xml:space="preserve" font-family="SourceSansPro-Light,Source Sans Pro" font-size="50.0" fill="#000000" transform="matrix(1.00, 0.00, -0.00, -1.00, 1534.2, 545.1)">t</text><text xml:space="preserve" font-family="SourceSansPro-Light,Source Sans Pro" font-size="50.0" fill="#000000" transform="matrix(1.00, 0.00, -0.00, -1.00, 1548.8, 545.1)">a</text><text xml:space="preserve" font-family="SourceSansPro-Light,Source Sans Pro" font-size="50.0" fill="#000000" transform="matrix(1.00, 0.00, -0.00, -1.00, 1573.7, 545.1)">n</text><text xml:space="preserve" font-family="SourceSansPro-Light,Source Sans Pro" font-size="50.0" fill="#000000" transform="matrix(1.00, 0.00, -0.00, -1.00, 1600.3, 545.1)">i</text><text xml:space="preserve" font-family="SourceSansPro-Light,Source Sans Pro" font-size="50.0" fill="#000000" transform="matrix(1.00, 0.00, -0.00, -1.00, 1611.8, 545.1)">c</text><text xml:space="preserve" font-family="SourceSansPro-Light,Source Sans Pro" font-size="50.0" fill="#000000" transform="matrix(1.00, 0.00, -0.00, -1.00, 1633.4, 545.1)">e</text><text xml:space="preserve" font-family="SourceSansPro-Light,Source Sans Pro" font-size="50.0" fill="#000000" transform="matrix(1.00, 0.00, -0.00, -1.00, 1657.5, 545.1)"> </text><text xml:space="preserve" font-family="SourceSansPro-Light,Source Sans Pro" font-size="50.0" fill="#000000" transform="matrix(1.00, 0.00, -0.00, -1.00, 1667.5, 545.1)">3</text></g></g><g><clipPath id="clip0x6080026af660"><path d="M 1588.3 495.1 L 1618.4 525.3 L 1624.1 519.6 L 1593.9 489.4 Z M 1588.3 495.1 "></path></clipPath><g clip-path="url(#clip0x6080026af660)"><g><clipPath id="clip0x6080026af7e0"><path d="M 1439.0 451.0 L 1761.0 451.0 L 1761.0 613.0 L 1439.0 613.0 Z M 1439.0 451.0 "></path></clipPath><g clip-path="url(#clip0x6080026af7e0)"><path d="M 0.0 0.0 L 40.7 0.0 " fill="none" stroke="#A6AAA8" stroke-width="6.00" transform="matrix(0.71, 0.71, 0.71, -0.71, 1591.8, 493.0)"></path></g></g></g></g><g><clipPath id="clip0x600002ab0b00"><path d="M 1581.5 509.2 L 1597.7 493.1 L 1592.0 487.5 L 1575.9 503.6 Z M 1581.5 509.2 "></path></clipPath><g clip-path="url(#clip0x600002ab0b00)"><g><clipPath id="clip0x600002ab0c80"><path d="M 1439.0 451.0 L 1761.0 451.0 L 1761.0 613.0 L 1439.0 613.0 Z M 1439.0 451.0 "></path></clipPath><g clip-path="url(#clip0x600002ab0c80)"><path d="M 0.0 0.0 L 20.8 0.0 " fill="none" stroke="#A6AAA8" stroke-width="6.00" transform="matrix(0.71, -0.71, -0.71, -0.71, 1579.4, 505.7)"></path></g></g></g></g></g><g opacity="0.00"><g><clipPath id="clip0x600002ab0f20"><path d="M 1581.5 509.4 L 1597.7 493.3 L 1592.0 487.6 L 1575.9 503.7 Z M 1581.5 509.4 "></path></clipPath><g clip-path="url(#clip0x600002ab0f20)"><g><clipPath id="clip0x600002ab10a0"><path d="M 1575.0 487.0 L 1625.0 487.0 L 1625.0 526.0 L 1575.0 526.0 Z M 1575.0 487.0 "></path></clipPath><g clip-path="url(#clip0x600002ab10a0)"><path d="M 0.0 0.0 L 20.8 0.0 " fill="none" stroke="#2F8B16" stroke-width="6.00" transform="matrix(0.71, -0.71, -0.71, -0.71, 1579.4, 505.8)"></path></g></g></g></g><g><clipPath id="clip0x600002ab12e0"><path d="M 1588.3 495.2 L 1618.4 525.4 L 1624.1 519.8 L 1593.9 489.6 Z M 1588.3 495.2 "></path></clipPath><g clip-path="url(#clip0x600002ab12e0)"><g><clipPath id="clip0x600002ab1460"><path d="M 1575.0 487.0 L 1625.0 487.0 L 1625.0 526.0 L 1575.0 526.0 Z M 1575.0 487.0 "></path></clipPath><g clip-path="url(#clip0x600002ab1460)"><path d="M 0.0 0.0 L 40.7 0.0 " fill="none" stroke="#2F8B16" stroke-width="6.00" transform="matrix(0.71, 0.71, 0.71, -0.71, 1591.8, 493.1)"></path></g></g></g></g></g></g></svg>