<?xml version="1.0" encoding="UTF-8" standalone="no"?><svg xmlns="http://www.w3.org/2000/svg" xmlns:xlink="http://www.w3.org/1999/xlink" clip-rule="evenodd" stroke-miterlimit="10" viewBox="0 0 323 161"><desc>SVG generated by Keynote</desc><defs></defs><g transform="matrix(1.00, 0.00, -0.00, -1.00, 0.0, 161.0)"><g><clipPath id="clip0x600001eb0da0"><path d="M 0.4 0.6 L 322.1 0.6 L 322.1 160.7 L 0.4 160.7 Z M 0.4 0.6 "></path></clipPath><g clip-path="url(#clip0x600001eb0da0)"><image xlink:href="41B14DE5AD0114311F7D60654D55F525.png" width="320.00" height="158.00" transform="matrix(1.00, 0.00, -0.00, -1.00, 1.4, 159.7)" opacity="0.57"></image><path d="M 12.4 27.7 L 12.0 148.5 C 12.0 152.8 15.8 156.0 20.1 156.0 L 302.4 156.0 C 306.6 156.0 310.0 152.8 310.0 148.5 L 310.0 27.7 C 310.0 23.4 306.6 20.0 302.4 20.0 L 20.1 20.0 C 15.8 20.0 12.4 23.4 12.4 27.7 Z M 12.4 27.7 " fill="#FEFFFE"></path></g></g><g><clipPath id="clip0x600001eb10a0"><path d="M 45.6 38.9 L 481.5 38.9 L 481.5 135.4 L 45.6 135.4 Z M 45.6 38.9 "></path></clipPath><g clip-path="url(#clip0x600001eb10a0)"><text xml:space="preserve" font-family="ArialMT,Arial" font-size="37.0" fill="#000000" transform="matrix(1.00, 0.00, -0.00, -1.00, 61.5, 92.1)">Č</text><text xml:space="preserve" font-family="ArialMT,Arial" font-size="37.0" fill="#000000" transform="matrix(1.00, 0.00, -0.00, -1.00, 88.3, 92.1)">a</text><text xml:space="preserve" font-family="ArialMT,Arial" font-size="37.0" fill="#000000" transform="matrix(1.00, 0.00, -0.00, -1.00, 108.8, 92.1)">s</text><text xml:space="preserve" font-family="ArialMT,Arial" font-size="37.0" fill="#000000" transform="matrix(1.00, 0.00, -0.00, -1.00, 127.3, 92.1)">o</text><text xml:space="preserve" font-family="ArialMT,Arial" font-size="37.0" fill="#000000" transform="matrix(1.00, 0.00, -0.00, -1.00, 147.9, 92.1)">v</text><text xml:space="preserve" font-family="ArialMT,Arial" font-size="37.0" fill="#000000" transform="matrix(1.00, 0.00, -0.00, -1.00, 166.4, 92.1)">ý</text><text xml:space="preserve" font-family="ArialMT,Arial" font-size="37.0" fill="#000000" transform="matrix(1.00, 0.00, -0.00, -1.00, 184.9, 92.1)"> </text><text xml:space="preserve" font-family="ArialMT,Arial" font-size="37.0" fill="#000000" transform="matrix(1.00, 0.00, -0.00, -1.00, 195.2, 92.1)">l</text><text xml:space="preserve" font-family="ArialMT,Arial" font-size="37.0" fill="#000000" transform="matrix(1.00, 0.00, -0.00, -1.00, 203.4, 92.1)">i</text><text xml:space="preserve" font-family="ArialMT,Arial" font-size="37.0" fill="#000000" transform="matrix(1.00, 0.00, -0.00, -1.00, 211.7, 92.1)">m</text><text xml:space="preserve" font-family="ArialMT,Arial" font-size="37.0" fill="#000000" transform="matrix(1.00, 0.00, -0.00, -1.00, 242.5, 92.1)">i</text><text xml:space="preserve" font-family="ArialMT,Arial" font-size="37.0" fill="#000000" transform="matrix(1.00, 0.00, -0.00, -1.00, 250.7, 92.1)">t</text><text xml:space="preserve" font-family="ArialMT,Arial" font-size="37.0" fill="#000000" transform="matrix(1.00, 0.00, -0.00, -1.00, 261.0, 92.1)"> </text><text xml:space="preserve" font-family="ArialMT,Arial" font-size="37.0" fill="#000000" transform="matrix(1.00, 0.00, -0.00, -1.00, 73.8, 58.3)">p</text><text xml:space="preserve" font-family="ArialMT,Arial" font-size="37.0" fill="#000000" transform="matrix(1.00, 0.00, -0.00, -1.00, 94.4, 58.3)">ř</text><text xml:space="preserve" font-family="ArialMT,Arial" font-size="37.0" fill="#000000" transform="matrix(1.00, 0.00, -0.00, -1.00, 106.7, 58.3)">e</text><text xml:space="preserve" font-family="ArialMT,Arial" font-size="37.0" fill="#000000" transform="matrix(1.00, 0.00, -0.00, -1.00, 127.3, 58.3)">k</text><text xml:space="preserve" font-family="ArialMT,Arial" font-size="37.0" fill="#000000" transform="matrix(1.00, 0.00, -0.00, -1.00, 145.8, 58.3)">r</text><text xml:space="preserve" font-family="ArialMT,Arial" font-size="37.0" fill="#000000" transform="matrix(1.00, 0.00, -0.00, -1.00, 158.1, 58.3)">o</text><text xml:space="preserve" font-family="ArialMT,Arial" font-size="37.0" fill="#000000" transform="matrix(1.00, 0.00, -0.00, -1.00, 178.7, 58.3)">č</text><text xml:space="preserve" font-family="ArialMT,Arial" font-size="37.0" fill="#000000" transform="matrix(1.00, 0.00, -0.00, -1.00, 197.2, 58.3)">e</text><text xml:space="preserve" font-family="ArialMT,Arial" font-size="37.0" fill="#000000" transform="matrix(1.00, 0.00, -0.00, -1.00, 217.8, 58.3)">n</text><text xml:space="preserve" font-family="ArialMT,Arial" font-size="37.0" fill="#000000" transform="matrix(1.00, 0.00, -0.00, -1.00, 238.4, 58.3)">!</text></g></g></g></svg>