<?xml version="1.0" encoding="UTF-8" standalone="no"?><svg xmlns="http://www.w3.org/2000/svg" xmlns:xlink="http://www.w3.org/1999/xlink" clip-rule="evenodd" stroke-miterlimit="10" viewBox="0 0 323 161"><desc>SVG generated by Keynote</desc><defs></defs><g transform="matrix(1.00, 0.00, -0.00, -1.00, 0.0, 161.0)"><g><clipPath id="clip0x600001eadf80"><path d="M 0.4 0.1 L 322.0 0.1 L 322.0 160.3 L 0.4 160.3 Z M 0.4 0.1 "></path></clipPath><g clip-path="url(#clip0x600001eadf80)"><image xlink:href="EC2058BB7A202A5EB9B2FD2F865F9025.png" width="320.00" height="158.00" transform="matrix(1.00, 0.00, -0.00, -1.00, 1.4, 159.3)" opacity="0.57"></image><path d="M 12.4 27.2 L 12.0 148.1 C 12.0 152.3 15.8 156.0 20.0 156.0 L 302.4 156.0 C 306.6 156.0 310.0 152.3 310.0 148.1 L 310.0 27.2 C 310.0 23.0 306.6 20.0 302.4 20.0 L 20.0 20.0 C 15.8 20.0 12.4 23.0 12.4 27.2 Z M 12.4 27.2 " fill="#FEFFFE"></path></g></g><g><clipPath id="clip0x600001eae280"><path d="M 62.6 38.8 L 383.0 38.8 L 383.0 134.7 L 62.6 134.7 Z M 62.6 38.8 "></path></clipPath><g clip-path="url(#clip0x600001eae280)"><text xml:space="preserve" font-family="ArialMT,Arial" font-size="36.0" fill="#000000" transform="matrix(1.00, 0.00, -0.00, -1.00, 102.2, 91.5)">M</text><text xml:space="preserve" font-family="ArialMT,Arial" font-size="36.0" fill="#000000" transform="matrix(1.00, 0.00, -0.00, -1.00, 132.2, 91.5)">ů</text><text xml:space="preserve" font-family="ArialMT,Arial" font-size="36.0" fill="#000000" transform="matrix(1.00, 0.00, -0.00, -1.00, 152.2, 91.5)">ž</text><text xml:space="preserve" font-family="ArialMT,Arial" font-size="36.0" fill="#000000" transform="matrix(1.00, 0.00, -0.00, -1.00, 170.2, 91.5)">e</text><text xml:space="preserve" font-family="ArialMT,Arial" font-size="36.0" fill="#000000" transform="matrix(1.00, 0.00, -0.00, -1.00, 190.2, 91.5)">t</text><text xml:space="preserve" font-family="ArialMT,Arial" font-size="36.0" fill="#000000" transform="matrix(1.00, 0.00, -0.00, -1.00, 200.2, 91.5)">e</text><text xml:space="preserve" font-family="ArialMT,Arial" font-size="36.0" fill="#000000" transform="matrix(1.00, 0.00, -0.00, -1.00, 220.2, 91.5)"> </text><text xml:space="preserve" font-family="ArialMT,Arial" font-size="36.0" fill="#000000" transform="matrix(1.00, 0.00, -0.00, -1.00, 73.2, 57.6)">p</text><text xml:space="preserve" font-family="ArialMT,Arial" font-size="36.0" fill="#000000" transform="matrix(1.00, 0.00, -0.00, -1.00, 93.2, 57.6)">o</text><text xml:space="preserve" font-family="ArialMT,Arial" font-size="36.0" fill="#000000" transform="matrix(1.00, 0.00, -0.00, -1.00, 113.2, 57.6)">k</text><text xml:space="preserve" font-family="ArialMT,Arial" font-size="36.0" fill="#000000" transform="matrix(1.00, 0.00, -0.00, -1.00, 131.2, 57.6)">r</text><text xml:space="preserve" font-family="ArialMT,Arial" font-size="36.0" fill="#000000" transform="matrix(1.00, 0.00, -0.00, -1.00, 143.2, 57.6)">a</text><text xml:space="preserve" font-family="ArialMT,Arial" font-size="36.0" fill="#000000" transform="matrix(1.00, 0.00, -0.00, -1.00, 163.2, 57.6)">č</text><text xml:space="preserve" font-family="ArialMT,Arial" font-size="36.0" fill="#000000" transform="matrix(1.00, 0.00, -0.00, -1.00, 181.2, 57.6)">o</text><text xml:space="preserve" font-family="ArialMT,Arial" font-size="36.0" fill="#000000" transform="matrix(1.00, 0.00, -0.00, -1.00, 201.3, 57.6)">v</text><text xml:space="preserve" font-family="ArialMT,Arial" font-size="36.0" fill="#000000" transform="matrix(1.00, 0.00, -0.00, -1.00, 219.3, 57.6)">a</text><text xml:space="preserve" font-family="ArialMT,Arial" font-size="36.0" fill="#000000" transform="matrix(1.00, 0.00, -0.00, -1.00, 239.3, 57.6)">t</text></g></g></g></svg>