<?xml version="1.0" encoding="UTF-8" standalone="no"?><svg xmlns="http://www.w3.org/2000/svg" xmlns:xlink="http://www.w3.org/1999/xlink" clip-rule="evenodd" stroke-miterlimit="10" viewBox="0 0 178 280"><desc>SVG generated by Keynote</desc><defs></defs><g transform="matrix(1.00, 0.00, -0.00, -1.00, 0.0, 280.0)"><g><clipPath id="clip0x6000018a3c60"><path d="M 0.3 241.4 L 177.6 241.4 L 177.6 279.2 L 0.3 279.2 Z M 0.3 241.4 "></path></clipPath><g clip-path="url(#clip0x6000018a3c60)"><path d="M 1.0 278.0 L 177.0 278.0 L 177.0 242.0 L 1.0 242.0 Z M 1.3 278.2 " fill="#A6AAA8" fill-opacity="0.76"></path></g></g><g><clipPath id="clip0x6000018a3f00"><path d="M 5.9 241.5 L 29.4 241.5 L 29.4 279.1 L 5.9 279.1 Z M 5.9 241.5 "></path></clipPath><g clip-path="url(#clip0x6000018a3f00)"><text xml:space="preserve" font-family="SourceSansPro-Regular,Source Sans Pro" font-size="20.0" fill="#000000" transform="matrix(1.00, 0.00, -0.00, -1.00, 12.7, 253.2)">1</text></g></g><g><clipPath id="clip0x6000018a4140"><path d="M 0.3 180.9 L 177.6 180.9 L 177.6 218.7 L 0.3 218.7 Z M 0.3 180.9 "></path></clipPath><g clip-path="url(#clip0x6000018a4140)"><path d="M 1.0 218.0 L 177.0 218.0 L 177.0 182.0 L 1.0 182.0 Z M 1.3 217.7 " fill="#A6AAA8" fill-opacity="0.76"></path></g></g><g><clipPath id="clip0x6000018a4380"><path d="M 5.9 181.1 L 29.4 181.1 L 29.4 218.6 L 5.9 218.6 Z M 5.9 181.1 "></path></clipPath><g clip-path="url(#clip0x6000018a4380)"><text xml:space="preserve" font-family="SourceSansPro-Regular,Source Sans Pro" font-size="20.0" fill="#000000" transform="matrix(1.00, 0.00, -0.00, -1.00, 12.7, 192.8)">2</text></g></g><g><clipPath id="clip0x6000018a45c0"><path d="M 0.3 120.5 L 177.6 120.5 L 177.6 158.3 L 0.3 158.3 Z M 0.3 120.5 "></path></clipPath><g clip-path="url(#clip0x6000018a45c0)"><path d="M 1.0 157.0 L 177.0 157.0 L 177.0 122.0 L 1.0 122.0 Z M 1.3 157.3 " fill="#A6AAA8" fill-opacity="0.76"></path></g></g><g><clipPath id="clip0x6000018a4800"><path d="M 5.9 120.6 L 29.4 120.6 L 29.4 158.2 L 5.9 158.2 Z M 5.9 120.6 "></path></clipPath><g clip-path="url(#clip0x6000018a4800)"><text xml:space="preserve" font-family="SourceSansPro-Regular,Source Sans Pro" font-size="20.0" fill="#000000" transform="matrix(1.00, 0.00, -0.00, -1.00, 12.7, 132.4)">3</text></g></g><g><clipPath id="clip0x6000018a4a40"><path d="M 0.3 60.1 L 177.6 60.1 L 177.6 97.9 L 0.3 97.9 Z M 0.3 60.1 "></path></clipPath><g clip-path="url(#clip0x6000018a4a40)"><path d="M 1.0 97.0 L 177.0 97.0 L 177.0 61.0 L 1.0 61.0 Z M 1.3 96.9 " fill="#A6AAA8" fill-opacity="0.76"></path></g></g><g><clipPath id="clip0x6000018a4c80"><path d="M 5.9 60.2 L 29.4 60.2 L 29.4 97.8 L 5.9 97.8 Z M 5.9 60.2 "></path></clipPath><g clip-path="url(#clip0x6000018a4c80)"><text xml:space="preserve" font-family="SourceSansPro-Regular,Source Sans Pro" font-size="20.0" fill="#000000" transform="matrix(1.00, 0.00, -0.00, -1.00, 12.7, 71.9)">4</text></g></g><g><clipPath id="clip0x6000018a4ec0"><path d="M 0.3 0.0 L 177.6 0.0 L 177.6 37.8 L 0.3 37.8 Z M 0.3 0.0 "></path></clipPath><g clip-path="url(#clip0x6000018a4ec0)"><path d="M 1.0 37.0 L 177.0 37.0 L 177.0 1.0 L 1.0 1.0 Z M 1.3 36.8 " fill="#A6AAA8" fill-opacity="0.76"></path></g></g><g><clipPath id="clip0x6000018a5100"><path d="M 5.9 0.1 L 29.4 0.1 L 29.4 37.7 L 5.9 37.7 Z M 5.9 0.1 "></path></clipPath><g clip-path="url(#clip0x6000018a5100)"><text xml:space="preserve" font-family="SourceSansPro-Regular,Source Sans Pro" font-size="20.0" fill="#000000" transform="matrix(1.00, 0.00, -0.00, -1.00, 12.7, 11.9)">5</text></g></g></g></svg>