<?xml version="1.0" encoding="UTF-8" standalone="no"?><svg xmlns="http://www.w3.org/2000/svg" xmlns:xlink="http://www.w3.org/1999/xlink" clip-rule="evenodd" stroke-miterlimit="10" viewBox="0 0 323 161"><desc>SVG generated by Keynote</desc><defs></defs><g transform="matrix(1.00, 0.00, -0.00, -1.00, 0.0, 161.0)"><g><clipPath id="clip0x600001cac420"><path d="M 0.9 0.6 L 322.5 0.6 L 322.5 160.7 L 0.9 160.7 Z M 0.9 0.6 "></path></clipPath><g clip-path="url(#clip0x600001cac420)"><image xlink:href="../../9A88B577-9903-4422-82F3-5A7B7CDE055A/assets/3614A48C6E83B989381EB52FC0C1A9BE.png" width="320.00" height="158.00" transform="matrix(1.00, 0.00, -0.00, -1.00, 1.9, 159.7)" opacity="0.57"></image><path d="M 12.9 27.7 L 13.0 148.5 C 13.0 152.8 16.3 156.0 20.5 156.0 L 302.9 156.0 C 307.1 156.0 311.0 152.8 311.0 148.5 L 311.0 27.7 C 311.0 23.4 307.1 20.0 302.9 20.0 L 20.5 20.0 C 16.3 20.0 12.9 23.4 12.9 27.7 Z M 12.9 27.7 " fill="#FEFFFE"></path></g></g><g><clipPath id="clip0x6080014b3260"><path d="M 73.7 79.6 L 249.7 79.6 L 249.7 142.3 L 73.7 142.3 Z M 73.7 79.6 "></path></clipPath><g clip-path="url(#clip0x6080014b3260)"><text xml:space="preserve" font-family="ArialMT,Arial" font-size="37.0" fill="#000000" transform="matrix(1.00, 0.00, -0.00, -1.00, 84.6, 99.0)">S</text><text xml:space="preserve" font-family="ArialMT,Arial" font-size="37.0" fill="#000000" transform="matrix(1.00, 0.00, -0.00, -1.00, 109.3, 99.0)">t</text><text xml:space="preserve" font-family="ArialMT,Arial" font-size="37.0" fill="#000000" transform="matrix(1.00, 0.00, -0.00, -1.00, 119.5, 99.0)">a</text><text xml:space="preserve" font-family="ArialMT,Arial" font-size="37.0" fill="#000000" transform="matrix(1.00, 0.00, -0.00, -1.00, 140.1, 99.0)">n</text><text xml:space="preserve" font-family="ArialMT,Arial" font-size="37.0" fill="#000000" transform="matrix(1.00, 0.00, -0.00, -1.00, 160.7, 99.0)">i</text><text xml:space="preserve" font-family="ArialMT,Arial" font-size="37.0" fill="#000000" transform="matrix(1.00, 0.00, -0.00, -1.00, 168.9, 99.0)">c</text><text xml:space="preserve" font-family="ArialMT,Arial" font-size="37.0" fill="#000000" transform="matrix(1.00, 0.00, -0.00, -1.00, 187.4, 99.0)">e</text><text xml:space="preserve" font-family="ArialMT,Arial" font-size="37.0" fill="#000000" transform="matrix(1.00, 0.00, -0.00, -1.00, 208.0, 99.0)"> </text><text xml:space="preserve" font-family="ArialMT,Arial" font-size="37.0" fill="#000000" transform="matrix(1.00, 0.00, -0.00, -1.00, 218.3, 99.0)">3</text></g></g><g><clipPath id="clip0x6080014b38c0"><path d="M 150.0 43.7 L 180.1 73.9 L 185.8 68.2 L 155.6 38.0 Z M 150.0 43.7 "></path></clipPath><g clip-path="url(#clip0x6080014b38c0)"><path d="M 0.0 0.0 L 40.7 0.0 " fill="none" stroke="#A6AAA8" stroke-width="6.00" transform="matrix(0.71, 0.71, 0.71, -0.71, 153.5, 41.6)"></path></g></g><g><clipPath id="clip0x6080014b3b00"><path d="M 143.3 57.8 L 159.4 41.7 L 153.7 36.1 L 137.6 52.2 Z M 143.3 57.8 "></path></clipPath><g clip-path="url(#clip0x6080014b3b00)"><path d="M 0.0 0.0 L 20.8 0.0 " fill="none" stroke="#A6AAA8" stroke-width="6.00" transform="matrix(0.71, -0.71, -0.71, -0.71, 141.1, 54.3)"></path></g></g></g></svg>