<?xml version="1.0" encoding="UTF-8" standalone="no"?><svg xmlns="http://www.w3.org/2000/svg" xmlns:xlink="http://www.w3.org/1999/xlink" clip-rule="evenodd" stroke-miterlimit="10" viewBox="0 0 671 596"><desc>SVG generated by Keynote</desc><defs></defs><g transform="matrix(1.00, 0.00, -0.00, -1.00, 0.0, 596.0)"><g><clipPath id="clip0x6080014ab1c0"><path d="M 192.3 546.6 L 480.0 546.6 L 480.0 555.6 L 192.3 555.6 Z M 192.3 546.6 "></path></clipPath><g clip-path="url(#clip0x6080014ab1c0)"><path d="M -0.3 -0.4 L 285.7 -0.4 " fill="none" stroke="#B6B6B6" stroke-width="7.00" transform="matrix(1.00, 0.00, 0.00, -1.00, 193.3, 551.1)"></path></g></g><g><clipPath id="clip0x6080014ab580"><path d="M 192.3 43.2 L 480.0 43.2 L 480.0 52.2 L 192.3 52.2 Z M 192.3 43.2 "></path></clipPath><g clip-path="url(#clip0x6080014ab580)"><path d="M -0.3 0.2 L 285.7 0.2 " fill="none" stroke="#B6B6B6" stroke-width="7.00" transform="matrix(1.00, 0.00, 0.00, -1.00, 193.3, 47.7)"></path></g></g><g><clipPath id="clip0x6080014acfc0"><path d="M 42.8 300.6 L 188.3 550.4 L 196.1 545.9 L 50.6 296.1 Z M 42.8 300.6 "></path></clipPath><g clip-path="url(#clip0x6080014acfc0)"><path d="M 0.0 0.0 L 287.1 0.0 " fill="none" stroke="#B6B6B6" stroke-width="7.00" transform="matrix(0.50, 0.86, 0.86, -0.50, 47.2, 299.2)"></path></g></g><g><clipPath id="clip0x6080014ad980"><path d="M 475.7 51.2 L 621.1 301.0 L 628.9 296.4 L 483.4 46.6 Z M 475.7 51.2 "></path></clipPath><g clip-path="url(#clip0x6080014ad980)"><path d="M 0.0 0.0 L 287.1 0.0 " fill="none" stroke="#B6B6B6" stroke-width="7.00" transform="matrix(0.50, 0.86, 0.86, -0.50, 480.1, 49.8)"></path></g></g><g><clipPath id="clip0x6080014adb00"><path d="M 619.1 300.6 L 477.7 547.6 L 485.5 552.1 L 626.9 305.1 Z M 619.1 300.6 "></path></clipPath><g clip-path="url(#clip0x6080014adb00)"><path d="M 0.0 0.0 L 282.6 0.0 " fill="none" stroke="#B6B6B6" stroke-width="7.00" transform="matrix(-0.50, 0.87, 0.87, 0.50, 622.5, 303.7)"></path></g></g><g><clipPath id="clip0x6080014ae1c0"><path d="M 186.2 48.1 L 44.8 295.1 L 52.6 299.5 L 194.1 52.5 Z M 186.2 48.1 "></path></clipPath><g clip-path="url(#clip0x6080014ae1c0)"><path d="M 0.0 0.0 L 282.6 0.0 " fill="none" stroke="#B6B6B6" stroke-width="7.00" transform="matrix(-0.50, 0.87, 0.87, 0.50, 189.6, 51.2)"></path></g></g><g><clipPath id="clip0x6080014ae400"><path d="M 144.7 498.6 L 240.7 498.6 L 240.7 593.2 L 144.7 593.2 Z M 144.7 498.6 "></path></clipPath><g clip-path="url(#clip0x6080014ae400)"><path d="M 225.9 578.6 C 244.3 560.5 244.3 531.2 225.9 513.2 C 207.6 495.1 177.8 495.1 159.5 513.2 C 141.2 531.2 141.2 560.5 159.5 578.6 C 177.8 596.7 207.6 596.7 225.9 578.6 Z M 225.9 578.6 " fill="#A3A3A3"></path></g></g><g><clipPath id="clip0x6080014ae7c0"><path d="M 185.1 530.4 L 200.3 530.4 L 200.3 569.4 L 185.1 569.4 Z M 185.1 530.4 "></path></clipPath><g clip-path="url(#clip0x6080014ae7c0)"><text xml:space="preserve" font-family="SourceSansPro-Light,Source Sans Pro" font-size="36.0" fill="#FDFEE9" transform="matrix(1.00, 0.00, -0.00, -1.00, 185.1, 534.2)">1</text></g></g><g><clipPath id="clip0x6080014ae9a0"><path d="M 434.2 501.2 L 530.2 501.2 L 530.2 595.7 L 434.2 595.7 Z M 434.2 501.2 "></path></clipPath><g clip-path="url(#clip0x6080014ae9a0)"><path d="M 515.4 581.2 C 533.7 563.1 533.7 533.8 515.4 515.7 C 497.1 497.6 467.3 497.6 449.0 515.7 C 430.6 533.8 430.6 563.1 449.0 581.2 C 467.3 599.2 497.1 599.2 515.4 581.2 Z M 515.4 581.2 " fill="#A3A3A3"></path></g></g><g><clipPath id="clip0x6080014ae820"><path d="M 474.6 531.9 L 489.8 531.9 L 489.8 570.9 L 474.6 570.9 Z M 474.6 531.9 "></path></clipPath><g clip-path="url(#clip0x6080014ae820)"><text xml:space="preserve" font-family="SourceSansPro-Light,Source Sans Pro" font-size="36.0" fill="#FDFEE9" transform="matrix(1.00, 0.00, -0.00, -1.00, 474.6, 535.7)">2</text></g></g><g><clipPath id="clip0x6080014ad4a0"><path d="M 574.7 249.4 L 670.7 249.4 L 670.7 344.0 L 574.7 344.0 Z M 574.7 249.4 "></path></clipPath><g clip-path="url(#clip0x6080014ad4a0)"><path d="M 655.9 329.4 C 674.3 311.4 674.3 282.1 655.9 264.0 C 637.6 245.9 607.8 245.9 589.5 264.0 C 571.2 282.1 571.2 311.4 589.5 329.4 C 607.8 347.5 637.6 347.5 655.9 329.4 Z M 655.9 329.4 " fill="#A3A3A3"></path></g></g><g><clipPath id="clip0x6080014aed60"><path d="M 615.1 280.3 L 630.3 280.3 L 630.3 319.3 L 615.1 319.3 Z M 615.1 280.3 "></path></clipPath><g clip-path="url(#clip0x6080014aed60)"><text xml:space="preserve" font-family="SourceSansPro-Light,Source Sans Pro" font-size="36.0" fill="#FDFEE9" transform="matrix(1.00, 0.00, -0.00, -1.00, 615.1, 284.2)">3</text></g></g><g><clipPath id="clip0x6080014aefa0"><path d="M 434.2 0.3 L 530.2 0.3 L 530.2 94.8 L 434.2 94.8 Z M 434.2 0.3 "></path></clipPath><g clip-path="url(#clip0x6080014aefa0)"><path d="M 515.4 80.3 C 533.7 62.2 533.7 32.9 515.4 14.8 C 497.1 -3.2 467.3 -3.2 449.0 14.8 C 430.6 32.9 430.6 62.2 449.0 80.3 C 467.3 98.4 497.1 98.4 515.4 80.3 Z M 515.4 80.3 " fill="#A3A3A3"></path></g></g><g><clipPath id="clip0x6080014af360"><path d="M 472.6 31.0 L 487.8 31.0 L 487.8 70.0 L 472.6 70.0 Z M 472.6 31.0 "></path></clipPath><g clip-path="url(#clip0x6080014af360)"><text xml:space="preserve" font-family="SourceSansPro-Light,Source Sans Pro" font-size="36.0" fill="#FDFEE9" transform="matrix(1.00, 0.00, -0.00, -1.00, 472.6, 34.9)">4</text></g></g><g><clipPath id="clip0x6080014b03e0"><path d="M 144.7 0.3 L 240.7 0.3 L 240.7 94.8 L 144.7 94.8 Z M 144.7 0.3 "></path></clipPath><g clip-path="url(#clip0x6080014b03e0)"><path d="M 225.9 80.3 C 244.3 62.2 244.3 32.9 225.9 14.8 C 207.6 -3.2 177.8 -3.2 159.5 14.8 C 141.2 32.9 141.2 62.2 159.5 80.3 C 177.8 98.4 207.6 98.4 225.9 80.3 Z M 225.9 80.3 " fill="#A3A3A3"></path></g></g><g><clipPath id="clip0x6080014b01a0"><path d="M 184.1 30.0 L 199.3 30.0 L 199.3 69.0 L 184.1 69.0 Z M 184.1 30.0 "></path></clipPath><g clip-path="url(#clip0x6080014b01a0)"><text xml:space="preserve" font-family="SourceSansPro-Light,Source Sans Pro" font-size="36.0" fill="#FDFEE9" transform="matrix(1.00, 0.00, -0.00, -1.00, 184.1, 33.9)">5</text></g></g><g><clipPath id="clip0x6080014aff60"><path d="M 0.8 249.4 L 96.7 249.4 L 96.7 344.0 L 0.8 344.0 Z M 0.8 249.4 "></path></clipPath><g clip-path="url(#clip0x6080014aff60)"><path d="M 81.9 329.4 C 100.3 311.4 100.3 282.1 81.9 264.0 C 63.6 245.9 33.9 245.9 15.5 264.0 C -2.8 282.1 -2.8 311.4 15.5 329.4 C 33.9 347.5 63.6 347.5 81.9 329.4 Z M 81.9 329.4 " fill="#A3A3A3"></path></g></g><g><clipPath id="clip0x6080014afd20"><path d="M 39.1 280.2 L 54.4 280.2 L 54.4 319.2 L 39.1 319.2 Z M 39.1 280.2 "></path></clipPath><g clip-path="url(#clip0x6080014afd20)"><text xml:space="preserve" font-family="SourceSansPro-Light,Source Sans Pro" font-size="36.0" fill="#FDFEE9" transform="matrix(1.00, 0.00, -0.00, -1.00, 39.1, 284.0)">6</text></g></g></g></svg>