<?xml version="1.0" encoding="UTF-8" standalone="no"?><svg xmlns="http://www.w3.org/2000/svg" xmlns:xlink="http://www.w3.org/1999/xlink" clip-rule="evenodd" stroke-miterlimit="10" viewBox="0 0 322 161"><desc>SVG generated by Keynote</desc><defs></defs><g transform="matrix(1.00, 0.00, -0.00, -1.00, 0.0, 161.0)"><g><clipPath id="clip0x6000018a5ac0"><path d="M 0.1 0.0 L 321.8 0.0 L 321.8 160.2 L 0.1 160.2 Z M 0.1 0.0 "></path></clipPath><g clip-path="url(#clip0x6000018a5ac0)"><image xlink:href="AA86109B0DDBF0C2DCF52A085E867927.png" width="320.00" height="158.00" transform="matrix(1.00, 0.00, -0.00, -1.00, 1.1, 159.2)" opacity="0.57"></image><path d="M 12.1 27.1 L 12.0 148.0 C 12.0 152.2 15.5 156.0 19.8 156.0 L 302.1 156.0 C 306.3 156.0 310.0 152.2 310.0 148.0 L 310.0 27.1 C 310.0 22.9 306.3 19.0 302.1 19.0 L 19.8 19.0 C 15.5 19.0 12.1 22.9 12.1 27.1 Z M 12.1 27.1 " fill="#FEFFFE"></path></g></g><g><clipPath id="clip0x6000018a5e20"><path d="M 31.5 14.8 L 439.5 14.8 L 439.5 159.6 L 31.5 159.6 Z M 31.5 14.8 "></path></clipPath><g clip-path="url(#clip0x6000018a5e20)"><text xml:space="preserve" font-family="SourceSansPro-Light,Source Sans Pro" font-size="50.0" fill="#000000" transform="matrix(1.00, 0.00, -0.00, -1.00, 89.0, 94.6)">M</text><text xml:space="preserve" font-family="SourceSansPro-Light,Source Sans Pro" font-size="50.0" fill="#000000" transform="matrix(1.00, 0.00, -0.00, -1.00, 123.9, 94.6)">ů</text><text xml:space="preserve" font-family="SourceSansPro-Light,Source Sans Pro" font-size="50.0" fill="#000000" transform="matrix(1.00, 0.00, -0.00, -1.00, 150.4, 94.6)">ž</text><text xml:space="preserve" font-family="SourceSansPro-Light,Source Sans Pro" font-size="50.0" fill="#000000" transform="matrix(1.00, 0.00, -0.00, -1.00, 170.1, 94.6)">e</text><text xml:space="preserve" font-family="SourceSansPro-Light,Source Sans Pro" font-size="50.0" fill="#000000" transform="matrix(1.00, 0.00, -0.00, -1.00, 193.7, 94.6)">t</text><text xml:space="preserve" font-family="SourceSansPro-Light,Source Sans Pro" font-size="50.0" fill="#000000" transform="matrix(1.00, 0.00, -0.00, -1.00, 208.8, 94.6)">e</text><text xml:space="preserve" font-family="SourceSansPro-Light,Source Sans Pro" font-size="50.0" fill="#000000" transform="matrix(1.00, 0.00, -0.00, -1.00, 232.9, 94.6)"> </text><text xml:space="preserve" font-family="SourceSansPro-Light,Source Sans Pro" font-size="50.0" fill="#000000" transform="matrix(1.00, 0.00, -0.00, -1.00, 47.7, 44.2)">p</text><text xml:space="preserve" font-family="SourceSansPro-Light,Source Sans Pro" font-size="50.0" fill="#000000" transform="matrix(1.00, 0.00, -0.00, -1.00, 74.9, 44.2)">o</text><text xml:space="preserve" font-family="SourceSansPro-Light,Source Sans Pro" font-size="50.0" fill="#000000" transform="matrix(1.00, 0.00, -0.00, -1.00, 101.7, 44.2)">k</text><text xml:space="preserve" font-family="SourceSansPro-Light,Source Sans Pro" font-size="50.0" fill="#000000" transform="matrix(1.00, 0.00, -0.00, -1.00, 124.9, 44.2)">r</text><text xml:space="preserve" font-family="SourceSansPro-Light,Source Sans Pro" font-size="50.0" fill="#000000" transform="matrix(1.00, 0.00, -0.00, -1.00, 139.6, 44.2)">a</text><text xml:space="preserve" font-family="SourceSansPro-Light,Source Sans Pro" font-size="50.0" fill="#000000" transform="matrix(1.00, 0.00, -0.00, -1.00, 164.5, 44.2)">č</text><text xml:space="preserve" font-family="SourceSansPro-Light,Source Sans Pro" font-size="50.0" fill="#000000" transform="matrix(1.00, 0.00, -0.00, -1.00, 186.1, 44.2)">o</text><text xml:space="preserve" font-family="SourceSansPro-Light,Source Sans Pro" font-size="50.0" fill="#000000" transform="matrix(1.00, 0.00, -0.00, -1.00, 212.9, 44.2)">v</text><text xml:space="preserve" font-family="SourceSansPro-Light,Source Sans Pro" font-size="50.0" fill="#000000" transform="matrix(1.00, 0.00, -0.00, -1.00, 233.6, 44.2)">a</text><text xml:space="preserve" font-family="SourceSansPro-Light,Source Sans Pro" font-size="50.0" fill="#000000" transform="matrix(1.00, 0.00, -0.00, -1.00, 258.5, 44.2)">t</text></g></g></g></svg>